<svg width="142" height="40" viewBox="0 0 142 40" fill="none" xmlns="http://www.w3.org/2000/svg">
<g clip-path="url(#clip0_321_1068)">
<mask id="mask0_321_1068" style="mask-type:luminance" maskUnits="userSpaceOnUse" x="0" y="0" width="142" height="40">
<path d="M141.46 0H0V39.999H141.46V0Z" fill="white"/>
</mask>
<g mask="url(#mask0_321_1068)">
<path d="M54.1685 35.4599C53.7987 35.1429 53.5864 34.8106 53.5668 34.4617L54.1685 35.4599ZM54.1685 35.4599L54.1704 35.4614C54.5725 35.7906 55.1392 35.9475 55.8552 35.9475H57.4222H57.527V35.8428V35.6373V35.5326H57.4222H56.6353L56.3621 35.4829L56.3572 35.4819L56.3518 35.4816C56.189 35.468 56.0078 35.3576 55.8108 35.1124C55.6404 34.8625 55.5487 34.5023 55.5487 34.0187V25.9776C55.5487 25.1201 55.3297 24.4101 54.8834 23.8565L54.8821 23.8548C54.59 23.508 54.1319 23.2515 53.522 23.077C52.9257 22.8844 52.1518 22.7899 51.2051 22.7899C50.2366 22.7899 49.3488 23.125 48.5441 23.7897C47.9007 24.3074 47.4168 24.8621 47.0967 25.4545V22.9974V22.8927H46.9916H45.1934H45.0887V22.9974V35.8428V35.9475H45.1934H46.9916H47.0967V35.8428V26.7226C47.0967 26.081 47.5075 25.3361 48.3753 24.4853L48.3762 24.4845C49.2328 23.628 50.1916 23.2049 51.2563 23.2049C51.7757 23.2049 52.2037 23.2886 52.5449 23.4506C53.1926 23.7996 53.5411 24.6109 53.5411 25.9519V34.0187V34.0219V34.025L53.5668 34.4617L54.1685 35.4599ZM43.4691 19.0361L43.5658 19.0731L43.604 18.9771L43.7069 18.7203L43.7482 18.6171L43.6429 18.5819C41.8859 17.9964 40.1536 17.7031 38.4457 17.7031C36.7529 17.7031 35.464 18.1002 34.5978 18.9129C33.735 19.7054 33.3055 20.7449 33.3055 22.0212C33.3055 23.6315 33.9734 24.8805 35.3045 25.7565C35.8919 26.1537 36.539 26.5159 37.2454 26.8434L37.2476 26.8443C37.95 27.1527 38.644 27.4526 39.3297 27.744C40.0277 28.0335 40.6667 28.3485 41.2442 28.6883C42.5181 29.4426 43.1453 30.4808 43.1453 31.8093C43.1453 33.0264 42.6644 33.9429 41.7025 34.5732C40.7465 35.1938 39.5854 35.5068 38.2145 35.5068C37.2834 35.5068 36.369 35.3716 35.4714 35.1006C34.5897 34.8122 33.8739 34.4492 33.3211 34.0135L33.2293 33.9414L33.1672 34.0405L33.0388 34.2459L32.9863 34.3301L33.0674 34.3873C34.5779 35.4462 36.3982 35.9733 38.5228 35.9733C39.6606 35.9733 40.6564 35.8441 41.508 35.5833L41.5092 35.583C42.3866 35.3023 43.1315 34.7755 43.7429 34.0069C44.3586 33.233 44.6651 32.3016 44.6651 31.2185C44.6651 30.1291 44.4835 29.2289 44.1137 28.524C43.7469 27.8083 43.2649 27.2462 42.6663 26.8413C42.0783 26.4436 41.4306 26.0895 40.7229 25.7789C40.0186 25.4697 39.3141 25.1947 38.6095 24.9541C37.9283 24.6986 37.2989 24.4263 36.7209 24.1374C35.4469 23.4666 34.8253 22.5309 34.8253 21.3275C34.8253 20.3303 35.1973 19.5573 35.9398 18.9962C36.686 18.4323 37.7312 18.1439 39.0881 18.1439C40.46 18.1439 41.9205 18.4403 43.4691 19.0361ZM58.0759 24.5932C56.8868 25.7998 56.2984 27.4913 56.2984 29.6514C56.2984 31.8096 56.8684 33.4273 58.0283 34.4818C59.1813 35.5298 60.6722 36.0504 62.4919 36.0504C64.3321 36.0504 65.85 35.4502 67.0363 34.2468C68.2428 33.0403 68.8396 31.3493 68.8396 29.189C68.8396 27.0307 68.2696 25.413 67.1097 24.3586C65.9564 23.3102 64.4567 22.7899 62.6203 22.7899C60.7965 22.7899 59.2789 23.3902 58.0759 24.5932ZM59.5186 24.9099C60.3577 23.7686 61.4072 23.2049 62.6716 23.2049C63.9424 23.2049 64.9565 23.6879 65.7239 24.6553C66.4903 25.6217 66.8828 27.1263 66.8828 29.189C66.8828 31.2307 66.4573 32.8159 65.6191 33.9563C64.7803 35.0804 63.731 35.6355 62.4661 35.6355C61.1956 35.6355 60.1812 35.1525 59.4138 34.185C58.6474 33.2185 58.2549 31.7223 58.2549 29.6771C58.2549 27.6175 58.6806 26.0328 59.5186 24.9099ZM86.3435 23.0775L86.2671 23.154L86.346 23.2281C86.5927 23.4593 86.724 23.8044 86.724 24.282C86.724 24.764 86.6242 25.1736 86.4292 25.5145L86.4271 25.5184L86.4252 25.5226L82.806 33.3601L78.9628 22.9611L78.9376 22.8927H78.8645H77.0662H76.9162L76.9678 23.0334L77.9036 25.5877L74.3279 33.3598L70.4849 22.9611L70.4594 22.8927H70.3864H68.5881H68.4374L68.49 23.034L73.2684 35.8795L73.2938 35.9475H73.3666H73.6236H73.6911L73.719 35.8863L78.1354 26.1749L81.7465 35.8795L81.7717 35.9475H81.8448H82.1014H82.1689L82.1968 35.8863L86.8727 25.61L86.8737 25.6078C87.0841 25.1169 87.1904 24.6318 87.1904 24.1535C87.1904 24.0255 87.1723 23.8904 87.1372 23.7487C87.1161 23.5911 87.0388 23.4239 86.9166 23.2486C86.8643 23.1618 86.8147 23.0894 86.7678 23.0331C86.7217 22.9777 86.672 22.9304 86.6185 22.9037L86.5511 22.8699L86.4976 22.9233L86.3435 23.0775Z" fill="#424242"/>
<path d="M54.1685 35.4599C53.7987 35.1429 53.5864 34.8106 53.5668 34.4616M54.1685 35.4599L53.5668 34.4616M54.1685 35.4599L54.1704 35.4614C54.5725 35.7906 55.1392 35.9475 55.8552 35.9475H57.4222H57.527V35.8428V35.6373V35.5326H57.4222H56.6353L56.3621 35.4829L56.3572 35.4819L56.3518 35.4816C56.189 35.468 56.0078 35.3576 55.8108 35.1124C55.6404 34.8625 55.5487 34.5023 55.5487 34.0187V25.9776C55.5487 25.1201 55.3297 24.4101 54.8834 23.8565L54.8821 23.8548C54.59 23.508 54.1319 23.2515 53.522 23.077C52.9257 22.8844 52.1518 22.7899 51.2051 22.7899C50.2366 22.7899 49.3488 23.125 48.5441 23.7897C47.9007 24.3074 47.4168 24.8621 47.0967 25.4545V22.9974V22.8927H46.9916H45.1934H45.0887V22.9974V35.8428V35.9475H45.1934H46.9916H47.0967V35.8428V26.7226C47.0967 26.081 47.5075 25.3361 48.3753 24.4853L48.3762 24.4845C49.2328 23.628 50.1916 23.2049 51.2563 23.2049C51.7757 23.2049 52.2037 23.2886 52.5449 23.4506C53.1926 23.7996 53.5411 24.6109 53.5411 25.9519V34.0187V34.0219V34.025L53.5668 34.4616M43.4691 19.0361L43.5658 19.0731L43.604 18.9771L43.7069 18.7203L43.7482 18.6171L43.6429 18.5819C41.8859 17.9964 40.1536 17.7031 38.4457 17.7031C36.7529 17.7031 35.464 18.1002 34.5978 18.9129C33.735 19.7054 33.3055 20.7449 33.3055 22.0212C33.3055 23.6315 33.9734 24.8805 35.3045 25.7565C35.8919 26.1537 36.539 26.5159 37.2454 26.8434L37.2476 26.8443C37.95 27.1527 38.644 27.4526 39.3297 27.744C40.0277 28.0335 40.6667 28.3485 41.2442 28.6883C42.5181 29.4426 43.1453 30.4808 43.1453 31.8093C43.1453 33.0264 42.6644 33.9429 41.7025 34.5732C40.7465 35.1938 39.5854 35.5068 38.2145 35.5068C37.2834 35.5068 36.369 35.3716 35.4714 35.1006C34.5897 34.8122 33.8739 34.4492 33.3211 34.0135L33.2293 33.9414L33.1672 34.0405L33.0388 34.2459L32.9863 34.3301L33.0674 34.3873C34.5779 35.4462 36.3982 35.9733 38.5228 35.9733C39.6606 35.9733 40.6564 35.8441 41.508 35.5833L41.5092 35.583C42.3866 35.3023 43.1315 34.7755 43.7429 34.0069C44.3586 33.233 44.6651 32.3016 44.6651 31.2185C44.6651 30.1291 44.4835 29.2289 44.1137 28.524C43.7469 27.8083 43.2649 27.2462 42.6663 26.8413C42.0783 26.4436 41.4306 26.0895 40.7229 25.7789C40.0186 25.4697 39.3141 25.1947 38.6095 24.9541C37.9283 24.6986 37.2989 24.4263 36.7209 24.1374C35.4469 23.4666 34.8253 22.5309 34.8253 21.3275C34.8253 20.3303 35.1973 19.5573 35.9398 18.9962C36.686 18.4323 37.7312 18.1439 39.0881 18.1439C40.46 18.1439 41.9205 18.4403 43.4691 19.0361ZM58.0759 24.5932C56.8868 25.7998 56.2984 27.4913 56.2984 29.6514C56.2984 31.8096 56.8684 33.4273 58.0283 34.4818C59.1813 35.5298 60.6722 36.0504 62.4919 36.0504C64.3321 36.0504 65.85 35.4502 67.0363 34.2468C68.2428 33.0403 68.8396 31.3493 68.8396 29.189C68.8396 27.0307 68.2696 25.413 67.1097 24.3586C65.9564 23.3102 64.4567 22.7899 62.6203 22.7899C60.7965 22.7899 59.2789 23.3902 58.0759 24.5932ZM59.5186 24.9099C60.3577 23.7686 61.4072 23.2049 62.6716 23.2049C63.9424 23.2049 64.9565 23.6879 65.7239 24.6553C66.4903 25.6217 66.8828 27.1263 66.8828 29.189C66.8828 31.2307 66.4573 32.8159 65.6191 33.9563C64.7803 35.0804 63.731 35.6355 62.4661 35.6355C61.1956 35.6355 60.1812 35.1525 59.4138 34.185C58.6474 33.2185 58.2549 31.7223 58.2549 29.6771C58.2549 27.6175 58.6806 26.0328 59.5186 24.9099ZM86.3435 23.0775L86.2671 23.154L86.346 23.2281C86.5927 23.4593 86.724 23.8044 86.724 24.282C86.724 24.764 86.6242 25.1736 86.4292 25.5145L86.4271 25.5184L86.4252 25.5226L82.806 33.3601L78.9628 22.9611L78.9376 22.8927H78.8645H77.0662H76.9162L76.9678 23.0334L77.9036 25.5877L74.3279 33.3598L70.4849 22.9611L70.4594 22.8927H70.3864H68.5881H68.4374L68.49 23.034L73.2684 35.8795L73.2938 35.9475H73.3666H73.6236H73.6911L73.719 35.8863L78.1354 26.1749L81.7465 35.8795L81.7717 35.9475H81.8448H82.1014H82.1689L82.1969 35.8863L86.8727 25.61L86.8737 25.6078C87.0841 25.1169 87.1904 24.6318 87.1904 24.1535C87.1904 24.0255 87.1723 23.8904 87.1372 23.7487C87.1161 23.5911 87.0388 23.4239 86.9166 23.2486C86.8643 23.1618 86.8147 23.0894 86.7678 23.0331C86.7217 22.9777 86.672 22.9304 86.6185 22.9037L86.5511 22.8699L86.4976 22.9233L86.3435 23.0775Z" stroke="#424242" stroke-width="0.209568"/>
<path d="M91.17 18.0454C91.6521 17.3064 92.434 16.7339 93.5196 16.6833L93.2928 34.1979V34.1992C93.2928 34.3577 93.3422 34.528 93.4323 34.7086C93.8541 35.5524 94.8604 35.948 96.3777 35.948H97.174H97.2791V35.8433V35.6378V35.5331H97.174H96.3871L96.1138 35.4834L96.1088 35.4824L96.1039 35.4821C95.9408 35.4685 95.7599 35.3581 95.5628 35.1129C95.3922 34.863 95.3009 34.5028 95.3009 34.0193V16.6009V16.4978L95.1976 16.4962L93.6275 16.4704L93.5225 16.4688L93.5222 16.4719C91.7643 16.5035 90.4642 16.9169 89.6471 17.7339C88.8123 18.5511 88.4084 19.9134 88.4084 21.7905V22.8932H87.9738H87.8691V22.998V23.413V23.5178H87.9738H88.4084V35.8433V35.948H88.5134H90.3116H90.4164V35.8433V23.5178H92.3411H92.4459V23.413V22.998V22.8932H92.3411H90.4164V21.7905C90.4164 20.0312 90.6738 18.7903 91.1695 18.0464L91.17 18.0454ZM104.85 29.5635C104.5 29.5354 104.115 29.5214 103.697 29.5214C103.23 29.5214 102.722 29.5473 102.172 29.5988C101.065 29.6676 100.147 29.7966 99.4246 29.9873C98.7017 30.1776 98.1622 30.4317 97.8178 30.7576C97.487 31.0711 97.2737 31.37 97.1979 31.6544C97.1274 31.9185 97.0917 32.1675 97.0917 32.401C97.0917 32.612 97.109 32.823 97.1441 33.0337C97.2927 34.0285 97.6812 34.7875 98.3192 35.296C98.9563 35.8035 99.8275 36.0509 100.921 36.0509C101.861 36.0509 102.678 35.8573 103.369 35.4657C103.959 35.1312 104.453 34.6551 104.85 34.0397V34.1992C104.85 34.5192 105.076 34.8707 105.472 35.2497C105.932 35.7264 106.766 35.948 107.936 35.948H108.732H108.836V35.8433V35.6378V35.5331H108.732H107.944L107.671 35.4834L107.666 35.4824L107.661 35.4821C107.499 35.4685 107.317 35.3581 107.12 35.1129C106.949 34.863 106.858 34.5028 106.858 34.0193V25.4129C106.858 24.8337 106.622 24.2875 106.164 23.776C105.862 23.4388 105.41 23.1933 104.816 23.0317C104.222 22.87 103.479 22.7904 102.591 22.7904C100.999 22.7904 99.4343 23.1452 97.8978 23.8534L97.7934 23.9012L97.851 24.0005L97.9534 24.1803L98.0051 24.2709L98.0958 24.2196C98.4773 24.0037 99.0841 23.7837 99.9211 23.5617L99.9221 23.5613C100.773 23.3231 101.507 23.2055 102.129 23.2055C102.754 23.2055 103.253 23.2902 103.628 23.4537L103.632 23.4552C104.017 23.6057 104.269 23.7841 104.407 23.9824C104.555 24.198 104.671 24.421 104.753 24.6517L104.755 24.6561L104.757 24.6604C104.855 24.8723 104.88 25.0355 104.853 25.1576C104.835 25.2282 104.824 25.2911 104.824 25.3422C104.824 25.3679 104.827 25.3969 104.837 25.4246C104.841 25.4335 104.845 25.4429 104.85 25.452V29.5635ZM99.1504 33.0085V33.007C99.1339 32.8382 99.1251 32.6878 99.1251 32.5551C99.1251 31.8197 99.3173 31.2569 99.688 30.8532C99.8685 30.657 100.161 30.4845 100.577 30.3419C100.991 30.1995 101.52 30.0894 102.167 30.0129C102.625 29.962 103.084 29.9365 103.543 29.9365C103.985 29.9365 104.422 29.9512 104.85 29.9806V32.9871C104.801 33.5276 104.431 34.1109 103.705 34.7362C103.004 35.3373 102.214 35.636 101.333 35.636C100.673 35.636 100.172 35.4187 99.8138 34.9923C99.4519 34.5619 99.2265 33.9055 99.1504 33.0085ZM111.02 16.5752V16.4704H110.916H109.117H109.013V16.5752V35.8433V35.948H109.117H110.916H111.02V35.8433V29.6911L111.599 29.0267L116.276 35.9023L116.307 35.948H116.363H118.161H118.359L118.248 35.7845L112.77 27.7335L116.903 23.0674L117.057 22.8932H116.825H116.568H116.521L116.49 22.9284L111.02 29.0932V16.5752ZM128.238 34.9286L128.198 34.836L128.104 34.872C126.782 35.3805 125.271 35.636 123.568 35.636C122.386 35.636 121.432 35.1555 120.697 34.1876C119.981 33.2211 119.614 31.6902 119.614 29.5748C119.614 29.1151 119.636 28.6704 119.681 28.2409H128.758H128.863V28.1361V28.1351V28.1335V28.1321V28.1306V28.1295V28.1281V28.1265V28.1255V28.1241V28.123V28.1215V28.1206V28.1195V28.1185V28.1171V28.116V28.1145V28.1131V28.112V28.111V28.1095V28.1085V28.107V28.1059V28.1045V28.1035V28.1024V28.1014V28.1V28.0989V28.0974V28.096V28.0949V28.0939V28.0925V28.0914V28.0899V28.0884V28.0869V28.0859V28.0849V28.0839V28.0824V28.0809V28.0794V28.0784V28.0773V28.0759V28.0744V28.0733V28.0719V28.0708V28.0698V28.0684V28.0673V28.0658V28.0644V28.0633V28.0623V28.0609V28.0598V28.0583V28.0569V28.0558V28.0548V28.0533V28.0523V28.0508V28.0493V28.0478V28.0468V28.0457V28.0448V28.0433V28.0422V28.0408V28.0398V28.0387V28.0377V28.0363V28.0352V28.0337V28.0323V28.0312V28.0302V28.0288V28.0277V28.0262V28.0247V28.0232V28.0222V28.0212V28.0202V28.0187V28.0176V28.0162V28.0152V28.0141V28.0132V28.0117V28.0106V28.0092V28.0082V28.0071V28.0061V28.0047V28.0036V28.0021V28.0007V27.9996V27.9986V27.9972V27.9961V27.9946V27.9931V27.9916V27.9906V27.9895V27.9886V27.9871V27.986V27.9846V27.9836V27.9825V27.9815V27.9801V27.979V27.9775V27.9761V27.975V27.974V27.9726V27.9715V27.97V27.9685V27.967V27.966V27.965V27.964V27.9625V27.9614V27.96V27.959V27.9579V27.957V27.9555V27.9544V27.953V27.952V27.9509V27.9499V27.9485V27.9474V27.9459V27.9445V27.9434V27.9424V27.941V27.9399V27.9384V27.9369V27.9354V27.9344V27.9334V27.9324V27.9309V27.9298V27.9284V27.9274V27.9263V27.9254V27.9239V27.9228V27.9214V27.9199V27.9188V27.9178V27.9164V27.9153V27.9138V27.9123V27.9108V27.9098V27.9088V27.9078V27.9063V27.9053V27.9038V27.9028V27.9017V27.9008V27.8993V27.8982V27.8968V27.8958V27.8947V27.8937V27.8923V27.8912V27.8897V27.8883V27.8872V27.8862V27.8848V27.8837V27.8822V27.8807V27.8792C128.863 26.2141 128.376 24.9398 127.388 24.0752C126.408 23.2175 125.201 22.7904 123.774 22.7904C122.001 22.7904 120.533 23.3914 119.382 24.5954C118.228 25.8021 117.657 27.4926 117.657 29.6518C117.657 31.8089 118.201 33.4259 119.308 34.4804C120.409 35.5297 121.833 36.0509 123.568 36.0509C125.309 36.0509 126.872 35.7839 128.256 35.2475L128.358 35.2083L128.315 35.1086L128.238 34.9286ZM125.978 24.347C126.561 25.0919 126.875 26.2455 126.905 27.8258H119.732C119.945 26.3898 120.412 25.269 121.128 24.4549C121.884 23.6166 122.73 23.2055 123.671 23.2055C124.614 23.2055 125.38 23.5838 125.978 24.347Z" fill="#424242" stroke="#424242" stroke-width="0.209568"/>
<path d="M131.128 16.3047V16.9834H130.356V19.0483H129.623V16.9834H128.852V16.3047H131.128Z" fill="#424242"/>
<path d="M134.137 16.2637V19.0608H133.404V17.7033L132.868 18.341H132.648L132.112 17.7033V19.0608H131.379V16.2637H131.637L132.757 17.4566L133.878 16.2637H134.137Z" fill="#424242"/>
<path fill-rule="evenodd" clip-rule="evenodd" d="M13.0756 31.3741L13.0644 40.1952L14.9291 40.1977L14.9403 31.3353L18.3421 39.5189L20.0639 38.8031L16.6856 30.6757L22.9012 36.9073L24.2214 35.5901L17.9793 29.3321L26.1434 32.7203L26.8579 30.9979L18.693 27.6093H27.5333V25.7445H18.7142L26.8657 22.378L26.1536 20.6544L18.0371 24.0066L24.2783 17.8291L22.9667 16.5038L16.6479 22.7579L20.0531 14.5453L18.3304 13.8311L14.9522 21.9789L14.9634 13.1586L13.0986 13.1562L13.0874 22.0195L9.68532 13.8351L7.9634 14.5509L11.3415 22.6775L5.12632 16.4465L3.80606 17.7635L10.0485 24.0217L1.88423 20.6334L1.16944 22.3557L9.33487 25.7445H0.494141V27.6093H9.31389L1.16213 30.976L1.87395 32.6995L9.99018 29.3476L3.74906 35.5249L5.06086 36.8501L11.3793 30.5963L7.97443 38.8084L9.69698 39.5226L13.0756 31.3741Z" fill="#424242"/>
</g>
</g>
<defs>
<clipPath id="clip0_321_1068">
<rect width="141.46" height="39.999" fill="white"/>
</clipPath>
</defs>
</svg>
