<svg width="1902" height="442" viewBox="0 0 1902 442" fill="none" xmlns="http://www.w3.org/2000/svg">
<mask id="mask0_436_806" style="mask-type:luminance" maskUnits="userSpaceOnUse" x="-1" y="0" width="1904" height="442">
<path d="M1661.53 310.002L1660.8 307.844L1660.87 307.512C1661.09 308.35 1661.31 309.181 1661.53 310.004M1661.2 319.412C1660.54 317.604 1659.85 315.766 1659.13 313.896C1659.29 313.436 1659.44 312.97 1659.59 312.496C1660.21 314.411 1660.8 316.284 1661.36 318.116C1661.31 318.551 1661.26 318.981 1661.2 319.41L1661.2 319.412ZM1663.89 326.973L1662.96 324.294L1663.05 323.889C1663.34 324.929 1663.62 325.956 1663.89 326.971L1663.89 326.973ZM979.53 89.8429L979.418 89.7954L979.545 89.8473L979.53 89.8429ZM1659.8 326.538C1658.84 324.193 1657.85 321.799 1656.82 319.356C1657.13 318.75 1657.42 318.13 1657.7 317.496C1658.61 319.908 1659.47 322.265 1660.29 324.568C1660.13 325.24 1659.97 325.896 1659.8 326.538ZM1663.49 335.963C1662.77 334.074 1662.03 332.151 1661.26 330.195C1661.43 329.736 1661.59 329.269 1661.74 328.794C1662.42 330.783 1663.05 332.731 1663.65 334.639C1663.6 335.086 1663.55 335.528 1663.49 335.963ZM1666.45 344.065C1666.05 342.938 1665.65 341.796 1665.23 340.64L1665.34 340.147C1665.72 341.477 1666.09 342.783 1666.44 344.065L1666.45 344.065ZM996.54 97.0297L994.812 96.6043C992.814 95.7092 990.818 94.8194 988.824 93.9346L990.133 94.2949C992.267 95.2002 994.403 96.1118 996.54 97.0297ZM1006.9 99.6297L1006.66 99.5701L1004.91 98.8076L1006.9 99.6297ZM1658.76 291.254L1658.81 290.988L1659.28 292.851L1658.76 291.254ZM1657.09 297.453C1657.24 296.995 1657.39 296.532 1657.53 296.064C1658.11 297.905 1658.66 299.71 1659.18 301.478C1659.13 301.905 1659.08 302.326 1659.03 302.743C1658.4 301.008 1657.76 299.245 1657.09 297.453L1657.09 297.453ZM1654.82 303.088C1655.12 302.47 1655.41 301.844 1655.69 301.2C1656.53 303.539 1657.34 305.83 1658.11 308.07C1657.96 308.743 1657.8 309.404 1657.64 310.053C1656.73 307.773 1655.79 305.452 1654.82 303.09L1654.82 303.088ZM1651.97 308.098C1652.41 307.435 1652.83 306.762 1653.24 306.068C1654.35 308.8 1655.4 311.469 1656.41 314.076C1656.13 314.85 1655.84 315.605 1655.53 316.34L1654.33 313.559C1653.52 311.724 1652.73 309.904 1651.97 308.1L1651.97 308.098ZM1013.33 104.339C1012.38 104.118 1011.43 103.916 1010.47 103.705C1007.84 102.498 1005.2 101.298 1002.57 100.105L1005.23 100.787C1007.93 101.957 1010.62 103.141 1013.33 104.337L1013.33 104.339ZM1024.01 106.822C1023.36 106.666 1022.71 106.505 1022.07 106.352C1019.97 105.421 1017.88 104.493 1015.8 103.57L1017.33 103.988C1019.56 104.925 1021.78 105.869 1024.01 106.82L1024.01 106.822ZM1034.48 109.393L1034.01 109.283L1030.61 107.815L1034.48 109.393ZM1656.83 274.516L1656.88 274.305L1657.23 275.764L1656.83 274.516ZM1655.17 280.876C1655.31 280.419 1655.46 279.955 1655.59 279.489C1656.12 281.266 1656.63 283.015 1657.12 284.734L1656.97 285.981C1656.39 284.306 1655.8 282.605 1655.17 280.879L1655.17 280.876ZM1652.99 286.522C1653.26 285.939 1653.51 285.347 1653.76 284.745C1654.56 287.029 1655.32 289.265 1656.04 291.453C1655.9 292.133 1655.75 292.803 1655.57 293.46C1655.16 292.396 1654.75 291.322 1654.33 290.239C1653.87 288.994 1653.43 287.755 1653 286.522L1652.99 286.522ZM1650.3 291.581C1650.67 290.987 1651.02 290.384 1651.37 289.764L1651.64 290.506L1651.64 290.517C1652.58 292.93 1653.49 295.296 1654.36 297.614C1654.09 298.39 1653.81 299.147 1653.51 299.887C1652.41 297.084 1651.34 294.316 1650.3 291.584L1650.3 291.581ZM1647.03 296.153C1647.54 295.533 1648.04 294.893 1648.51 294.235C1649.51 296.855 1650.55 299.507 1651.63 302.191L1652.05 303.185C1651.67 303.958 1651.26 304.709 1650.84 305.438C1649.52 302.301 1648.25 299.207 1647.03 296.156L1647.03 296.153ZM1030.18 111.864C1028.93 111.611 1027.69 111.358 1026.44 111.112C1023.32 109.65 1020.21 108.198 1017.09 106.756C1018.27 107.029 1019.46 107.299 1020.64 107.579C1023.82 108.997 1027 110.425 1030.18 111.864ZM1040.94 114.145C1039.92 113.924 1038.89 113.703 1037.87 113.482C1035.15 112.244 1032.44 111.013 1029.72 109.788L1032.6 110.509C1035.38 111.711 1038.16 112.923 1040.94 114.145ZM1051.72 116.589L1049.55 116.078C1047.36 115.11 1045.17 114.145 1042.98 113.183L1044.79 113.67C1047.09 114.635 1049.4 115.607 1051.72 116.588L1051.72 116.589ZM1062.29 119.122L1061.58 118.949L1057.14 117.053L1057.28 117.091C1058.94 117.764 1060.6 118.439 1062.28 119.117L1062.29 119.122ZM1653.51 250.831L1653.44 251.348C1653.07 249.716 1652.71 248.098 1652.37 246.494C1652.76 247.959 1653.14 249.405 1653.51 250.831ZM1655.09 257.689L1655.12 257.521L1655.37 258.677L1655.09 257.689ZM1653.49 263.853C1653.6 263.493 1653.71 263.134 1653.82 262.769C1654.31 264.484 1654.78 266.17 1655.22 267.828C1655.18 268.25 1655.13 268.673 1655.07 269.089L1654.34 266.911L1653.49 263.853ZM1651.46 269.405C1651.64 268.995 1651.81 268.585 1651.98 268.166C1652.73 270.387 1653.44 272.566 1654.12 274.702C1653.98 275.334 1653.84 275.957 1653.69 276.571C1652.92 274.153 1652.18 271.764 1651.46 269.405ZM1648.92 274.583C1649.21 274.058 1649.5 273.526 1649.78 272.983C1650.38 274.912 1651 276.859 1651.63 278.823L1651.63 278.84L1652.42 281.004C1652.21 281.667 1651.98 282.33 1651.74 282.969C1650.76 280.133 1649.82 277.34 1648.92 274.588L1648.92 274.583ZM1645.83 279.323C1646.27 278.734 1646.7 278.132 1647.1 277.517C1648.1 280.494 1649.14 283.517 1650.22 286.584C1649.89 287.29 1649.55 287.985 1649.2 288.658C1648.02 285.496 1646.9 282.384 1645.83 279.323ZM1642.21 283.607C1642.79 283.006 1643.36 282.386 1643.9 281.746C1645.05 284.971 1646.25 288.249 1647.51 291.581C1647.05 292.308 1646.56 293.011 1646.06 293.695C1644.71 290.271 1643.43 286.909 1642.21 283.607ZM1047.16 119.633C1045.7 119.367 1044.24 119.101 1042.78 118.844C1039.25 117.155 1035.72 115.477 1032.19 113.811C1033.61 114.106 1035.03 114.406 1036.46 114.713C1040.02 116.34 1043.59 117.98 1047.16 119.633ZM1057.93 121.683C1056.62 121.422 1055.31 121.168 1054.01 120.909C1050.8 119.414 1047.59 117.929 1044.38 116.453C1045.63 116.734 1046.88 117.012 1048.13 117.301C1051.39 118.751 1054.66 120.212 1057.93 121.683ZM1068.77 123.905C1067.68 123.672 1066.59 123.447 1065.49 123.22C1062.69 121.948 1059.88 120.683 1057.06 119.424L1060.13 120.171C1063.01 121.407 1065.89 122.651 1068.77 123.905L1068.77 123.905ZM1079.65 126.303L1077.28 125.769C1074.98 124.76 1072.68 123.756 1070.39 122.757L1072.41 123.284C1074.82 124.284 1077.24 125.289 1079.65 126.3L1079.65 126.303ZM1090.4 128.815L1089.39 128.573C1087.79 127.893 1086.19 127.217 1084.59 126.543L1085.02 126.661C1086.81 127.378 1088.6 128.096 1090.4 128.815L1090.4 128.815ZM1650.3 251.53L1650.57 250.851C1650.91 252.372 1651.26 253.903 1651.62 255.447L1651.64 255.474L1652.35 257.784L1652.13 258.778C1651.49 256.333 1650.88 253.917 1650.3 251.53ZM1647.88 256.9C1648.1 256.464 1648.33 256.025 1648.54 255.574C1649.24 258.319 1649.98 261.103 1650.75 263.926C1650.6 264.413 1650.44 264.891 1650.27 265.363C1649.43 262.502 1648.63 259.681 1647.88 256.9L1647.88 256.9ZM1644.97 261.889C1645.33 261.344 1645.68 260.784 1646.03 260.219C1646.88 263.239 1647.77 266.308 1648.7 269.425C1648.43 270.054 1648.15 270.671 1647.86 271.277C1646.83 268.094 1645.87 264.965 1644.97 261.889L1644.97 261.889ZM1641.56 266.438C1642.06 265.848 1642.55 265.246 1643.02 264.627C1644 267.874 1645.04 271.178 1646.13 274.54C1645.73 275.231 1645.32 275.905 1644.89 276.564C1643.71 273.125 1642.6 269.749 1641.55 266.438L1641.56 266.438ZM1637.65 270.539C1638.28 269.946 1638.9 269.341 1639.51 268.714C1640.61 272.149 1641.78 275.648 1643.02 279.212C1642.48 279.911 1641.93 280.595 1641.36 281.252C1640.04 277.608 1638.8 274.037 1637.64 270.539L1637.65 270.539ZM544.976 179.26L546.766 179.117L546.409 179.284L544.549 179.521L544.976 179.26ZM1064.31 127.664C1062.7 127.409 1061.09 127.161 1059.49 126.918C1055.6 125.024 1051.71 123.14 1047.83 121.269C1049.42 121.564 1051.02 121.868 1052.62 122.174C1056.51 123.989 1060.41 125.819 1064.31 127.664ZM1075.05 129.466C1073.52 129.2 1072.01 128.935 1070.49 128.679C1066.87 126.959 1063.26 125.252 1059.65 123.556C1061.13 123.856 1062.62 124.16 1064.1 124.469C1067.75 126.123 1071.4 127.789 1075.05 129.466L1075.05 129.466ZM1085.92 131.455C1084.53 131.192 1083.15 130.929 1081.78 130.674C1078.48 129.149 1075.18 127.633 1071.88 126.126C1073.21 126.414 1074.53 126.706 1075.86 127.002C1079.21 128.477 1082.56 129.962 1085.92 131.458L1085.92 131.455ZM1096.88 133.628C1095.71 133.386 1094.53 133.145 1093.36 132.91C1090.45 131.604 1087.54 130.306 1084.63 129.016C1085.72 129.27 1086.81 129.523 1087.9 129.783C1090.89 131.057 1093.88 132.339 1096.88 133.63L1096.88 133.628ZM1107.89 135.962L1105.25 135.387C1102.84 134.338 1100.44 133.298 1098.03 132.266C1098.78 132.453 1099.53 132.636 1100.27 132.826C1102.81 133.864 1105.35 134.91 1107.89 135.964L1107.89 135.962ZM1118.78 138.411L1117.38 138.091C1115.64 137.36 1113.9 136.633 1112.16 135.91L1113.02 136.131C1114.94 136.889 1116.86 137.65 1118.78 138.414L1118.78 138.411ZM1649.62 232.556L1649.65 232.466L1650.11 235.292L1649.62 232.556ZM1647.29 238.289C1647.44 237.969 1647.59 237.653 1647.73 237.328C1648.27 240.137 1648.84 242.988 1649.46 245.88L1649.17 246.847C1648.5 243.949 1647.88 241.097 1647.29 238.291L1647.29 238.289ZM1644.52 243.616C1644.8 243.131 1645.08 242.641 1645.36 242.143C1646.03 245.217 1646.76 248.345 1647.53 251.527C1647.32 252.064 1647.1 252.594 1646.87 253.117C1646.03 249.895 1645.25 246.728 1644.52 243.618L1644.52 243.616ZM1641.28 248.524C1641.71 247.956 1642.11 247.374 1642.51 246.784C1643.31 250.076 1644.17 253.431 1645.09 256.848C1644.75 257.491 1644.41 258.119 1644.05 258.737C1643.06 255.265 1642.14 251.862 1641.29 248.526L1641.28 248.524ZM1637.59 252.978C1638.14 252.382 1638.68 251.772 1639.21 251.148C1640.12 254.616 1641.1 258.152 1642.16 261.756C1641.69 262.444 1641.21 263.116 1640.72 263.772C1639.6 260.098 1638.55 256.501 1637.59 252.98L1637.59 252.978ZM1633.44 256.993C1634.12 256.404 1634.79 255.804 1635.44 255.179C1636.45 258.789 1637.54 262.48 1638.72 266.251C1638.12 266.934 1637.51 267.593 1636.88 268.235C1635.64 264.401 1634.49 260.654 1633.44 256.995L1633.44 256.993ZM555.735 176.771L557.527 176.68L557.366 176.741L555.437 176.917L555.735 176.771ZM548.48 177.111L551.263 176.986L550.502 177.352L547.71 177.586L548.48 177.111ZM1081.74 135.998C1080 135.764 1078.28 135.538 1076.55 135.32C1072.35 133.233 1068.15 131.161 1063.95 129.102C1065.67 129.377 1067.4 129.66 1069.12 129.952C1073.33 131.953 1077.53 133.969 1081.74 135.998ZM1092.38 137.523C1090.7 137.27 1089.03 137.024 1087.37 136.785C1083.39 134.858 1079.42 132.943 1075.44 131.039C1077.09 131.333 1078.75 131.636 1080.41 131.941C1084.4 133.788 1088.39 135.649 1092.38 137.523L1092.38 137.523ZM1103.19 139.246C1101.61 138.983 1100.03 138.725 1098.45 138.472C1094.74 136.718 1091.02 134.975 1087.3 133.242C1088.85 133.542 1090.4 133.851 1091.95 134.162C1095.7 135.845 1099.44 137.539 1103.19 139.246ZM1114.15 141.159C1112.71 140.896 1111.26 140.642 1109.82 140.386C1106.41 138.821 1103 137.266 1099.59 135.72C1100.99 136.015 1102.39 136.317 1103.79 136.619C1107.25 138.123 1110.7 139.636 1114.15 141.159ZM1125.25 143.259C1124 143.014 1122.75 142.772 1121.49 142.535C1118.47 141.19 1115.44 139.852 1112.41 138.521C1113.59 138.788 1114.77 139.058 1115.95 139.331C1119.05 140.629 1122.15 141.938 1125.25 143.256L1125.25 143.259ZM1136.4 145.517C1135.4 145.31 1134.41 145.106 1133.41 144.901C1130.86 143.808 1128.32 142.722 1125.77 141.641L1128.44 142.286C1131.09 143.355 1133.75 144.431 1136.4 145.514L1136.4 145.517ZM1147.38 147.879L1145.61 147.494C1143.72 146.712 1141.83 145.933 1139.93 145.156L1141.17 145.47C1143.24 146.267 1145.31 147.069 1147.38 147.875L1147.38 147.879ZM1647.36 218.266L1647.57 217.75C1647.91 220.616 1648.3 223.528 1648.73 226.487L1648.64 226.834C1648.17 223.927 1647.74 221.07 1647.36 218.263L1647.36 218.266ZM1644.66 224.169C1644.87 223.764 1645.07 223.351 1645.28 222.939C1645.75 226.085 1646.27 229.29 1646.85 232.553C1646.7 232.971 1646.55 233.385 1646.39 233.797C1645.76 230.522 1645.18 227.311 1644.66 224.166L1644.66 224.169ZM1641.56 229.56C1641.9 229.029 1642.23 228.49 1642.56 227.941C1643.15 231.301 1643.81 234.729 1644.53 238.226C1644.26 238.811 1643.97 239.386 1643.68 239.954C1642.9 236.411 1642.19 232.946 1641.56 229.557L1641.56 229.56ZM1638.04 234.477C1638.51 233.888 1638.97 233.287 1639.42 232.673C1640.12 236.198 1640.89 239.802 1641.75 243.484C1641.35 244.147 1640.95 244.796 1640.53 245.432C1639.6 241.697 1638.78 238.045 1638.04 234.477ZM1634.11 238.939C1634.71 238.334 1635.29 237.714 1635.86 237.08C1636.64 240.739 1637.52 244.487 1638.49 248.322C1637.97 249.011 1637.43 249.688 1636.9 250.343C1635.86 246.448 1634.93 242.648 1634.11 238.943L1634.11 238.939ZM1629.77 242.954C1630.49 242.358 1631.18 241.75 1631.87 241.122C1632.73 244.892 1633.7 248.759 1634.78 252.724C1634.13 253.4 1633.47 254.057 1632.8 254.693C1631.67 250.675 1630.66 246.763 1629.76 242.957L1629.77 242.954ZM567.369 174.657L568.425 174.634L567.252 174.704L567.369 174.657ZM559.68 174.815L562.548 174.76L561.914 175.008L558.987 175.166L559.68 174.815ZM551.948 174.933L555.58 174.882L554.549 175.392L550.957 175.562L551.948 174.933ZM517.923 188.76C518.867 188.266 519.814 187.777 520.765 187.295L520.193 187.818C519.253 188.35 518.314 188.887 517.376 189.431L517.923 188.76ZM510.478 192.792C511.167 192.406 511.857 192.022 512.549 191.642L511.363 193.035L509.706 194.064L510.478 192.792ZM1099.44 144.628C1097.61 144.427 1095.78 144.234 1093.97 144.049C1089.5 141.792 1085.03 139.545 1080.56 137.309C1082.38 137.553 1084.2 137.805 1086.02 138.065C1090.49 140.24 1094.97 142.428 1099.44 144.628ZM1109.98 145.879C1108.19 145.653 1106.4 145.432 1104.61 145.216C1100.33 143.102 1096.05 141.002 1091.76 138.917C1093.54 139.188 1095.32 139.465 1097.11 139.751C1101.4 141.779 1105.69 143.821 1109.98 145.879ZM1120.71 147.315C1118.97 147.068 1117.24 146.828 1115.51 146.595C1111.45 144.64 1107.38 142.696 1103.31 140.765C1105.02 141.052 1106.74 141.347 1108.45 141.649C1112.53 143.528 1116.61 145.419 1120.7 147.321L1120.71 147.315ZM1131.62 148.948C1129.97 148.69 1128.33 148.436 1126.68 148.188C1122.87 146.403 1119.05 144.631 1115.24 142.872C1116.85 143.167 1118.46 143.469 1120.08 143.779C1123.93 145.493 1127.77 147.217 1131.62 148.952L1131.62 148.948ZM1142.7 150.763C1141.17 150.503 1139.65 150.245 1138.13 149.989C1134.62 148.397 1131.1 146.813 1127.59 145.238C1129.06 145.533 1130.54 145.831 1132.01 146.134C1135.57 147.673 1139.14 149.218 1142.7 150.768L1142.7 150.763ZM1153.92 152.76C1152.55 152.509 1151.19 152.262 1149.83 152.018C1146.68 150.635 1143.53 149.26 1140.37 147.894C1141.67 148.173 1142.96 148.457 1144.26 148.74C1147.48 150.075 1150.7 151.417 1153.92 152.765L1153.92 152.76ZM1165.14 154.9L1161.81 154.25C1159.13 153.118 1156.45 151.99 1153.76 150.867C1154.75 151.094 1155.75 151.324 1156.75 151.555C1159.55 152.666 1162.35 153.783 1165.14 154.905L1165.14 154.9ZM1176.25 157.147L1174.07 156.693C1172.01 155.858 1169.95 155.027 1167.89 154.199L1169.55 154.605C1171.78 155.451 1174.02 156.301 1176.25 157.153L1176.25 157.147ZM1187.02 159.44L1186.64 159.358L1184.66 158.592L1187.02 159.44ZM1645.69 202.78L1646.05 201.912C1646.28 205.12 1646.56 208.394 1646.9 211.734L1646.65 212.528C1646.27 209.211 1645.95 205.963 1645.69 202.785L1645.69 202.78ZM1642.6 209.036C1642.87 208.561 1643.12 208.077 1643.37 207.591C1643.71 211.036 1644.12 214.559 1644.6 218.159C1644.39 218.667 1644.18 219.175 1643.97 219.672C1643.43 216.044 1642.97 212.501 1642.6 209.042L1642.6 209.036ZM1639.18 214.631C1639.57 214.059 1639.95 213.48 1640.32 212.893C1640.76 216.507 1641.28 220.211 1641.9 224.002C1641.57 224.634 1641.23 225.255 1640.89 225.866C1640.22 222.026 1639.65 218.283 1639.18 214.636L1639.18 214.631ZM1635.4 219.681C1635.91 219.067 1636.4 218.44 1636.88 217.802C1637.41 221.552 1638.05 225.401 1638.78 229.349C1638.34 230.035 1637.88 230.712 1637.41 231.371C1636.63 227.368 1635.96 223.473 1635.4 219.686L1635.4 219.681ZM1631.28 224.231C1631.89 223.613 1632.49 222.977 1633.09 222.331C1633.69 226.186 1634.41 230.148 1635.24 234.22C1634.68 234.914 1634.11 235.591 1633.52 236.251C1632.64 232.127 1631.9 228.122 1631.28 224.236L1631.28 224.231ZM1626.81 228.319C1627.53 227.72 1628.23 227.098 1628.92 226.467C1629.58 230.4 1630.37 234.451 1631.29 238.622C1630.61 239.298 1629.92 239.948 1629.22 240.591C1628.27 236.372 1627.47 232.282 1626.81 228.322L1626.81 228.319ZM571.75 172.891L574.628 172.906L574.146 173.057L571.154 173.134L571.75 172.891ZM563.586 172.825L567.348 172.859L566.382 173.247L562.612 173.327L563.586 172.825ZM555.373 172.725L559.754 172.784L558.535 173.404L554.224 173.471L555.373 172.725ZM550.263 173.523L550.912 173.328L550.616 173.519L550.263 173.523ZM531.355 180.124C532.877 179.52 534.399 178.931 535.922 178.356C534.274 179.044 532.633 179.751 530.998 180.477L531.355 180.124ZM521.486 184.277C523.004 183.603 524.523 182.945 526.045 182.302L525.144 183.173C523.635 183.891 522.131 184.625 520.63 185.374L521.486 184.277ZM513.244 188.085C514.456 187.503 515.667 186.931 516.877 186.369L515.609 187.938C514.502 188.518 513.398 189.108 512.299 189.706L513.244 188.085ZM1117.45 153.568C1115.54 153.407 1113.64 153.255 1111.74 153.112C1107.03 150.691 1102.31 148.283 1097.58 145.889C1099.48 146.094 1101.38 146.309 1103.29 146.533C1108.02 148.864 1112.74 151.21 1117.45 153.568L1117.45 153.568ZM1127.88 154.536C1125.99 154.346 1124.11 154.165 1122.23 153.993C1117.68 151.709 1113.12 149.436 1108.56 147.173C1110.43 147.408 1112.31 147.652 1114.2 147.904C1118.77 150.101 1123.33 152.312 1127.89 154.536L1127.88 154.536ZM1138.51 155.691C1136.65 155.476 1134.8 155.268 1132.95 155.067C1128.59 152.927 1124.21 150.798 1119.82 148.681C1121.65 148.942 1123.49 149.21 1125.34 149.485C1129.74 151.542 1134.13 153.611 1138.51 155.692L1138.51 155.691ZM1149.34 157.032C1147.54 156.797 1145.74 156.568 1143.95 156.345C1139.78 154.356 1135.6 152.381 1131.42 150.419C1133.2 150.7 1134.98 150.986 1136.76 151.279C1140.96 153.184 1145.16 155.102 1149.35 157.032L1149.34 157.032ZM1160.36 158.549C1158.64 158.299 1156.91 158.055 1155.19 157.818C1151.26 156.002 1147.33 154.197 1143.4 152.404C1145.09 152.698 1146.78 152.996 1148.47 153.297C1152.44 155.036 1156.4 156.786 1160.36 158.549L1160.36 158.549ZM1171.56 160.241C1169.93 159.985 1168.31 159.733 1166.68 159.486C1163.04 157.858 1159.4 156.239 1155.75 154.629C1157.33 154.924 1158.91 155.224 1160.49 155.529C1164.18 157.09 1167.87 158.661 1171.56 160.241ZM1182.83 162.087C1181.36 161.838 1179.9 161.593 1178.44 161.351C1175.15 159.93 1171.85 158.519 1168.55 157.115C1169.94 157.395 1171.34 157.678 1172.73 157.964C1176.1 159.329 1179.47 160.703 1182.83 162.087L1182.83 162.087ZM1194.14 164.068L1190.46 163.405C1187.62 162.226 1184.77 161.055 1181.92 159.89L1185.29 160.617C1188.24 161.763 1191.19 162.913 1194.14 164.068ZM1205.41 166.167L1202.74 165.659C1200.49 164.771 1198.23 163.887 1195.98 163.007L1198.15 163.5C1200.57 164.381 1202.99 165.269 1205.41 166.164L1205.41 166.167ZM1216.28 168.293L1215.32 168.102L1211.09 166.522L1211.32 166.576L1216.28 168.293ZM1649.05 165.058L1649.03 165.154C1649.09 164.437 1649.17 163.724 1649.24 163.015L1649.05 165.058ZM1648.25 177.45L1648.28 177.358C1648.21 179.568 1648.16 181.814 1648.14 184.098C1648.15 181.842 1648.18 179.625 1648.25 177.447L1648.25 177.45ZM1644.93 185.723C1645.11 185.352 1645.27 184.972 1645.43 184.596C1645.43 188.157 1645.52 191.809 1645.69 195.554L1645.27 196.738C1645.06 192.961 1644.95 189.288 1644.93 185.72L1644.93 185.723ZM1641.43 192.592C1641.73 192.068 1642.02 191.532 1642.31 190.999C1642.42 194.767 1642.63 198.642 1642.94 202.624C1642.68 203.208 1642.42 203.787 1642.15 204.359C1641.79 200.315 1641.55 196.392 1641.43 192.589L1641.43 192.592ZM1637.68 198.559C1638.1 197.964 1638.5 197.361 1638.9 196.75C1639.1 200.654 1639.42 204.674 1639.86 208.809C1639.48 209.478 1639.1 210.137 1638.71 210.785C1638.24 206.575 1637.89 202.498 1637.68 198.554L1637.68 198.559ZM1633.67 203.855C1634.19 203.231 1634.69 202.597 1635.19 201.952C1635.47 205.956 1635.88 210.089 1636.42 214.351C1635.94 215.056 1635.45 215.747 1634.94 216.424C1634.37 212.087 1633.94 207.896 1633.67 203.851L1633.67 203.855ZM1629.39 208.587C1630 207.968 1630.6 207.338 1631.19 206.696C1631.53 210.773 1632.01 214.991 1632.63 219.349C1632.05 220.05 1631.45 220.735 1630.84 221.405C1630.19 216.973 1629.71 212.699 1629.39 208.582L1629.39 208.587ZM1624.86 212.826C1625.55 212.232 1626.23 211.627 1626.9 211.008C1627.27 215.133 1627.8 219.41 1628.49 223.84C1627.81 224.517 1627.11 225.178 1626.4 225.822C1625.71 221.317 1625.2 216.983 1624.86 212.82L1624.86 212.826ZM584.675 171.359L587.532 171.436L587.281 171.499L584.244 171.499L584.675 171.359ZM576.086 171.102L579.924 171.219L579.079 171.494L575.18 171.482L576.086 171.102ZM567.449 170.816L572.001 170.97L570.813 171.459L566.293 171.424L567.449 170.816ZM558.765 170.499L563.837 170.689L562.5 171.386L557.527 171.328L558.765 170.499ZM553.159 171.272L554.638 170.919L554.082 171.285L553.159 171.272ZM546.726 172.923L547.571 172.689L546.658 172.972L546.726 172.923ZM534.954 176.47C537.217 175.725 539.48 175.016 541.745 174.343L541.273 174.724C538.908 175.527 536.549 176.371 534.196 177.256L534.954 176.47ZM524.698 180.079C526.583 179.375 528.468 178.693 530.352 178.034L529.208 179.191C527.349 179.933 525.492 180.7 523.638 181.49L524.698 180.079ZM515.805 183.566C517.39 182.915 518.976 182.28 520.563 181.66L519.212 183.421C517.724 184.084 516.239 184.761 514.755 185.454L515.805 183.566ZM1135.77 162.817C1133.81 162.702 1131.84 162.595 1129.88 162.494C1124.95 159.923 1120.01 157.364 1115.07 154.817C1117.03 154.978 1118.99 155.149 1120.96 155.33C1125.9 157.811 1130.84 160.307 1135.77 162.817ZM1146.11 163.507C1144.14 163.359 1142.18 163.222 1140.23 163.096C1135.43 160.648 1130.62 158.212 1125.81 155.788C1127.76 155.981 1129.72 156.182 1131.68 156.393C1136.5 158.751 1141.3 161.122 1146.11 163.507ZM1156.64 164.372C1154.69 164.197 1152.75 164.031 1150.8 163.872C1146.15 161.558 1141.49 159.255 1136.82 156.963C1138.76 157.184 1140.7 157.414 1142.64 157.653C1147.32 159.882 1151.98 162.121 1156.64 164.372ZM1167.37 165.405C1165.45 165.206 1163.53 165.015 1161.62 164.831C1157.14 162.66 1152.65 160.5 1148.16 158.353C1150.06 158.6 1151.96 158.855 1153.86 159.116C1158.37 161.2 1162.87 163.297 1167.37 165.405ZM1178.29 166.604C1176.42 166.383 1174.55 166.171 1172.68 165.97C1168.39 163.954 1164.1 161.949 1159.81 159.953C1161.65 160.22 1163.5 160.493 1165.35 160.772C1169.66 162.705 1173.98 164.649 1178.29 166.604ZM1189.41 167.967C1187.59 167.733 1185.77 167.505 1183.95 167.282C1179.9 165.436 1175.84 163.599 1171.78 161.773C1173.56 162.056 1175.35 162.344 1177.13 162.637C1181.23 164.404 1185.32 166.181 1189.41 167.967ZM1200.63 169.476C1198.91 169.236 1197.19 168.997 1195.48 168.766C1191.7 167.107 1187.92 165.455 1184.13 163.812C1185.8 164.097 1187.46 164.388 1189.13 164.684C1192.96 166.273 1196.8 167.87 1200.63 169.476ZM1211.96 171.123C1210.39 170.887 1208.82 170.654 1207.25 170.424C1203.8 168.973 1200.36 167.528 1196.91 166.088C1198.41 166.365 1199.91 166.645 1201.41 166.929C1204.93 168.32 1208.45 169.718 1211.96 171.123ZM1223.37 172.901L1219.26 172.248C1216.24 171.033 1213.22 169.822 1210.2 168.616C1211.47 168.865 1212.74 169.116 1214.01 169.369C1217.13 170.54 1220.25 171.717 1223.37 172.901L1223.37 172.901ZM1234.66 174.761L1231.52 174.234C1229.06 173.295 1226.6 172.359 1224.15 171.426L1226.83 171.985C1229.44 172.906 1232.05 173.831 1234.66 174.761L1234.66 174.761ZM1245.63 176.657L1244.01 176.371L1239.01 174.577L1239.96 174.783L1245.63 176.657ZM1643.25 165.264C1643 165.823 1642.74 166.368 1642.48 166.921C1643.2 161.276 1644.23 155.967 1645.59 150.993C1644.59 155.514 1643.81 160.27 1643.25 165.264ZM1648 152.648L1647.81 153.255C1647.99 152.36 1648.18 151.476 1648.38 150.603C1648.25 151.278 1648.13 151.96 1648 152.648ZM1645.91 165.625L1646.38 164.56C1645.97 168.621 1645.7 172.826 1645.55 177.175C1645.38 177.67 1645.2 178.162 1645.02 178.65C1645.16 174.137 1645.46 169.795 1645.91 165.625ZM1641.78 173.872C1642.07 173.364 1642.34 172.846 1642.63 172.325C1642.34 176.542 1642.21 180.919 1642.22 185.455C1641.93 186.089 1641.63 186.715 1641.33 187.333C1641.3 182.667 1641.45 178.18 1641.78 173.872ZM1637.66 180.573C1638.04 180.007 1638.42 179.432 1638.79 178.851C1638.6 183.152 1638.57 187.624 1638.71 192.267C1638.31 192.954 1637.91 193.633 1637.5 194.302C1637.36 189.529 1637.41 184.952 1637.66 180.573ZM1633.41 186.327C1633.88 185.737 1634.35 185.144 1634.8 184.545C1634.68 188.91 1634.73 193.458 1634.97 198.188C1634.47 198.893 1633.97 199.585 1633.46 200.266C1633.23 195.409 1633.21 190.762 1633.41 186.327ZM1629.04 191.394C1629.58 190.82 1630.11 190.236 1630.63 189.644C1630.53 194.048 1630.64 198.649 1630.95 203.445C1630.37 204.136 1629.78 204.809 1629.18 205.473C1628.89 200.553 1628.84 195.86 1629.04 191.394ZM1624.54 195.857C1625.13 195.314 1625.71 194.761 1626.29 194.2C1626.19 198.634 1626.32 203.277 1626.67 208.13C1626.02 208.789 1625.35 209.433 1624.66 210.063C1624.36 205.083 1624.31 200.348 1624.54 195.857ZM598.481 170.202L601.017 170.325L598.244 170.266L598.481 170.202ZM589.449 169.751L593.327 169.949L592.636 170.129L588.642 170.025L589.449 169.751ZM580.38 169.272L585.055 169.523L583.935 169.897L579.248 169.759L580.38 169.272ZM571.264 168.767L576.547 169.064L575.201 169.631L569.987 169.461L571.264 168.767ZM562.106 168.237L567.812 168.568L566.378 169.333L560.786 169.131L562.106 168.237ZM550.082 170.092C552.806 169.512 555.521 168.988 558.226 168.518L557.495 169.01L556.66 168.978L556.331 168.965L556.033 169.031C553.86 169.507 551.689 170.019 549.519 170.57L550.082 170.092ZM538.304 172.928C540.777 172.265 543.242 171.646 545.701 171.071L544.807 171.816C542.29 172.511 539.775 173.251 537.26 174.037L538.304 172.928ZM527.678 176.005C529.845 175.331 532.008 174.685 534.166 174.068L532.835 175.462C530.71 176.167 528.588 176.902 526.469 177.666L527.678 176.005ZM518.198 179.123C520.088 178.468 521.977 177.832 523.864 177.217L522.433 179.154C520.644 179.828 518.854 180.521 517.065 181.233L518.198 179.123ZM1154.41 172.371C1152.38 172.303 1150.36 172.244 1148.35 172.194C1143.22 169.484 1138.09 166.784 1132.95 164.094C1134.96 164.206 1136.97 164.327 1138.99 164.459C1144.14 167.086 1149.28 169.723 1154.41 172.371ZM1164.67 172.79C1162.64 172.693 1160.61 172.604 1158.59 172.523C1153.57 169.927 1148.54 167.34 1143.5 164.764C1145.51 164.907 1147.53 165.059 1149.55 165.219C1154.6 167.731 1159.63 170.255 1164.66 172.79L1164.67 172.79ZM1175.11 173.363C1173.08 173.238 1171.06 173.121 1169.03 173.013C1164.13 170.536 1159.22 168.071 1154.3 165.616C1156.32 165.792 1158.34 165.976 1160.36 166.168C1165.28 168.555 1170.2 170.953 1175.11 173.363ZM1185.73 174.087C1183.72 173.939 1181.71 173.797 1179.71 173.659C1174.94 171.317 1170.17 168.984 1165.39 166.66C1167.39 166.862 1169.39 167.073 1171.39 167.292C1176.18 169.544 1180.96 171.809 1185.73 174.087ZM1196.54 174.956C1194.56 174.785 1192.57 174.62 1190.59 174.461C1185.99 172.264 1181.38 170.075 1176.76 167.896C1178.74 168.122 1180.7 168.355 1182.67 168.594C1187.3 170.704 1191.92 172.825 1196.54 174.956ZM1207.53 175.971C1205.58 175.779 1203.62 175.595 1201.66 175.418C1197.25 173.376 1192.83 171.343 1188.4 169.318C1190.34 169.567 1192.27 169.82 1194.21 170.079C1198.66 172.032 1203.1 173.996 1207.54 175.971L1207.53 175.971ZM1218.65 177.114C1216.76 176.91 1214.86 176.711 1212.96 176.516C1208.77 174.644 1204.58 172.78 1200.37 170.924C1202.24 171.187 1204.1 171.455 1205.97 171.727C1210.21 173.514 1214.44 175.31 1218.66 177.114L1218.65 177.114ZM1229.9 178.384C1228.09 178.171 1226.28 177.962 1224.48 177.758C1220.55 176.074 1216.62 174.397 1212.68 172.727C1214.45 172.994 1216.21 173.266 1217.97 173.543C1221.96 175.148 1225.94 176.762 1229.91 178.384L1229.9 178.384ZM1241.26 179.768C1239.57 179.553 1237.88 179.343 1236.19 179.138C1232.59 177.664 1228.98 176.193 1225.37 174.724C1227 174.987 1228.62 175.255 1230.23 175.527C1233.92 176.934 1237.6 178.347 1241.27 179.768L1241.26 179.768ZM1252.63 181.244C1251.13 181.043 1249.62 180.844 1248.12 180.648C1244.92 179.403 1241.73 178.163 1238.53 176.928L1242.75 177.661C1246.05 178.853 1249.34 180.047 1252.64 181.244L1252.63 181.244ZM1263.92 182.791L1260.25 182.279C1257.58 181.302 1254.91 180.327 1252.24 179.355L1255.5 179.949C1258.31 180.892 1261.12 181.84 1263.93 182.791L1263.92 182.791ZM1274.89 184.36L1272.54 184.018L1266.75 182.045L1268.47 182.376C1270.61 183.033 1272.76 183.695 1274.9 184.36L1274.89 184.36ZM1658.39 119.032C1663.57 108.908 1668.82 99.3447 1674.12 90.3435C1670.54 96.9056 1667.05 103.789 1663.63 110.994C1662.8 112.267 1661.99 113.57 1661.22 114.903C1660.24 116.239 1659.3 117.616 1658.39 119.032ZM1641.15 157.514L1641.44 157.036C1640.36 162.192 1639.59 167.668 1639.12 173.462C1638.77 174.091 1638.41 174.717 1638.05 175.331C1638.65 168.959 1639.69 163.02 1641.15 157.514ZM1636.44 164.661L1637.02 163.84C1636.02 168.945 1635.35 174.373 1635 180.124C1634.57 180.765 1634.13 181.397 1633.68 182.021C1634.17 175.813 1635.09 170.026 1636.44 164.661ZM1632.01 170.435C1632.23 170.163 1632.45 169.882 1632.67 169.605C1631.69 174.68 1631.05 180.094 1630.76 185.848C1630.27 186.463 1629.76 187.069 1629.25 187.666C1629.71 181.478 1630.63 175.734 1632.01 170.435L1632.01 170.435ZM1627.77 175.243C1627.98 175.022 1628.18 174.791 1628.38 174.567C1627.34 179.633 1626.68 185.059 1626.4 190.847C1625.85 191.425 1625.3 191.994 1624.74 192.553C1625.24 186.305 1626.25 180.535 1627.77 175.243L1627.77 175.243ZM603.688 168.801L607.556 169.07L607.066 169.171L603.016 168.984L603.688 168.801ZM594.178 168.124L598.95 168.466L597.938 168.736L593.103 168.498L594.178 168.124ZM584.63 167.425L590.064 167.825L588.751 168.275L583.337 167.991L584.63 167.425ZM575.042 166.702L580.981 167.152L579.516 167.785C577.572 167.68 575.621 167.572 573.662 167.461L575.042 166.702ZM565.418 165.957L571.722 166.448L570.22 167.268L564.049 166.908L565.418 165.957ZM553.372 167.277C556.177 166.835 558.966 166.449 561.739 166.128L560.874 166.722L560.511 166.7L560.236 166.684L559.959 166.729C557.464 167.125 554.963 167.571 552.457 168.067L553.372 167.277ZM541.51 169.462C544.156 168.906 546.788 168.398 549.405 167.938L548.228 168.944C545.58 169.517 542.926 170.143 540.267 170.823L541.51 169.462ZM530.521 172.015C532.916 171.405 535.311 170.832 537.706 170.296L536.227 171.876C533.888 172.51 531.545 173.179 529.198 173.883L530.521 172.015ZM520.497 174.742C522.651 174.117 524.799 173.52 526.941 172.95L525.451 175.033C523.405 175.676 521.353 176.348 519.299 177.038L520.497 174.742ZM1163.3 182.193C1153.81 182.232 1144.36 182.455 1134.98 182.899C1061.17 185.647 980.906 186.347 888.395 183.418C842.878 181.976 794.394 179.656 742.251 176.268C787.206 177.935 829.321 178.741 869.148 178.94C957.604 179.382 1034.69 176.83 1106.45 174.078L1106.49 174.078C1119.85 173.409 1133.44 173.286 1147.16 173.601C1152.55 176.454 1157.93 179.319 1163.31 182.193L1163.3 182.193ZM1173.34 182.222C1171.27 182.202 1169.19 182.19 1167.12 182.187C1161.83 179.351 1156.52 176.523 1151.2 173.704C1153.26 173.764 1155.32 173.834 1157.39 173.913C1162.72 176.671 1168.04 179.441 1173.35 182.222L1173.34 182.222ZM1183.56 182.382C1181.47 182.335 1179.38 182.299 1177.3 182.271C1172.08 179.535 1166.85 176.81 1161.6 174.095C1163.68 174.186 1165.75 174.286 1167.83 174.396C1173.09 177.045 1178.33 179.707 1183.56 182.382L1183.56 182.382ZM1193.93 182.671C1191.84 182.598 1189.75 182.534 1187.65 182.481C1182.52 179.856 1177.39 177.241 1172.24 174.636C1174.32 174.756 1176.4 174.886 1178.48 175.025C1183.64 177.564 1188.79 180.113 1193.93 182.671L1193.93 182.671ZM1204.47 183.086C1202.38 182.991 1200.29 182.905 1198.21 182.825C1193.19 180.32 1188.16 177.826 1183.12 175.343C1185.19 175.49 1187.27 175.647 1189.35 175.813C1194.4 178.228 1199.44 180.652 1204.47 183.086L1204.47 183.086ZM1215.16 183.619C1213.09 183.506 1211.01 183.398 1208.94 183.295C1204.05 180.926 1199.15 178.565 1194.25 176.214C1196.31 176.387 1198.37 176.568 1200.43 176.756C1205.36 179.035 1210.27 181.323 1215.17 183.619L1215.16 183.619ZM1226.03 184.269C1223.96 184.137 1221.9 184.009 1219.84 183.887C1215.11 181.664 1210.36 179.448 1205.61 177.24C1207.66 177.438 1209.71 177.641 1211.75 177.85C1216.52 179.982 1221.28 182.122 1226.03 184.269L1226.03 184.269ZM1237.02 185.024C1234.99 184.877 1232.96 184.733 1230.93 184.594C1226.38 182.531 1221.82 180.475 1217.24 178.424C1219.25 178.639 1221.26 178.86 1223.27 179.087C1227.86 181.058 1232.44 183.037 1237.01 185.024L1237.02 185.024ZM1248.11 185.876C1246.14 185.716 1244.16 185.561 1242.18 185.41C1237.85 183.521 1233.5 181.638 1229.15 179.762C1231.1 179.991 1233.04 180.224 1234.99 180.46C1239.37 182.259 1243.74 184.064 1248.1 185.876L1248.11 185.876ZM1259.31 186.817C1257.41 186.652 1255.51 186.488 1253.61 186.328C1249.53 184.633 1245.44 182.939 1241.35 181.245C1243.21 181.481 1245.08 181.721 1246.94 181.963C1251.07 183.576 1255.19 185.194 1259.31 186.817L1259.31 186.817ZM1270.57 187.834C1268.77 187.667 1266.98 187.502 1265.18 187.34C1261.42 185.851 1257.65 184.366 1253.86 182.886C1255.61 183.12 1257.34 183.358 1259.08 183.598C1262.91 185.006 1266.74 186.417 1270.56 187.834L1270.57 187.834ZM1281.82 188.911L1276.92 188.434C1273.53 187.182 1270.15 185.929 1266.77 184.677L1271.42 185.34C1274.89 186.528 1278.36 187.719 1281.82 188.911L1281.82 188.911ZM1292.97 190.026L1288.78 189.602C1285.9 188.605 1283.02 187.611 1280.14 186.618L1283.96 187.187C1286.96 188.131 1289.97 189.077 1292.96 190.026L1292.97 190.026ZM1303.83 191.15L1300.79 190.833L1294.2 188.744L1296.68 189.126L1303.83 191.15ZM1313.95 192.221L1312.94 192.11L1309.46 191.116L1309.58 191.137L1313.95 192.221ZM618.835 168.249L622.639 168.581L622.37 168.624L618.34 168.356L618.835 168.249ZM608.872 167.365L613.691 167.794L612.807 167.981L607.881 167.642L608.872 167.365ZM598.885 166.466L604.458 166.97L603.19 167.315L597.598 166.919L598.885 166.466ZM588.861 165.545L594.99 166.111L593.511 166.626L587.426 166.184L588.861 165.545ZM578.806 164.608L585.357 165.221L583.802 165.912L577.337 165.425L578.806 164.608ZM568.715 163.65L575.598 164.304L574.038 165.173L567.295 164.65L568.715 163.65ZM556.608 164.444C559.494 164.141 562.359 163.9 565.203 163.72L564.218 164.409L564.125 164.402L563.892 164.426C561.09 164.712 558.272 165.061 555.439 165.471L556.608 164.444ZM544.608 166.028C547.409 165.586 550.19 165.197 552.952 164.86L551.574 166.062C548.805 166.51 546.023 167.013 543.226 167.57L544.608 166.028ZM533.262 168.071C535.874 167.545 538.47 167.06 541.051 166.615L539.483 168.346C536.947 168.89 534.408 169.473 531.865 170.096L533.262 168.071ZM522.725 170.385C525.12 169.818 527.501 169.281 529.868 168.775L528.331 170.985C526.054 171.574 523.772 172.19 521.484 172.83L522.725 170.385ZM1182.48 192.515C1176.21 192.657 1169.94 192.865 1163.69 193.14C1087.79 195.888 1004.31 194.739 907.611 189.321C863.654 186.858 816.949 183.512 766.992 179.249C809.766 181.805 850.046 183.633 888.232 184.843C980.885 187.778 1061.26 187.076 1135.18 184.324L1135.2 184.324C1145.38 183.843 1155.64 183.622 1165.97 183.618C1171.49 186.577 1176.99 189.543 1182.48 192.517L1182.48 192.515ZM1192.56 192.339C1190.42 192.365 1188.29 192.399 1186.15 192.438C1180.72 189.492 1175.27 186.554 1169.81 183.625C1171.93 183.636 1174.03 183.655 1176.14 183.682C1181.62 186.561 1187.1 189.448 1192.55 192.341L1192.56 192.339ZM1202.78 192.265C1200.63 192.27 1198.48 192.282 1196.33 192.3C1190.94 189.442 1185.54 186.59 1180.12 183.743C1182.24 183.782 1184.37 183.828 1186.5 183.882C1191.94 186.668 1197.37 189.463 1202.77 192.267L1202.78 192.265ZM1213.12 192.287C1210.96 192.272 1208.81 192.264 1206.65 192.262C1201.32 189.501 1195.98 186.747 1190.62 183.997C1192.76 184.062 1194.89 184.136 1197.03 184.218C1202.41 186.901 1207.77 189.591 1213.11 192.289L1213.12 192.287ZM1223.59 192.397C1221.44 192.364 1219.28 192.337 1217.12 192.317C1211.88 189.665 1206.62 187.021 1201.34 184.384C1203.47 184.475 1205.61 184.571 1207.76 184.674C1213.05 187.242 1218.33 189.817 1223.59 192.401L1223.59 192.397ZM1234.19 192.599C1232.04 192.551 1229.88 192.508 1227.73 192.47C1222.58 189.944 1217.42 187.422 1212.25 184.907C1214.38 185.019 1216.52 185.138 1218.66 185.263C1223.85 187.699 1229.03 190.145 1234.19 192.599ZM1244.9 192.87C1242.76 192.809 1240.61 192.752 1238.47 192.699C1233.45 190.31 1228.41 187.926 1223.36 185.547C1225.49 185.679 1227.62 185.818 1229.76 185.962C1234.82 188.256 1239.87 190.558 1244.91 192.867L1244.9 192.87ZM1255.72 193.214C1253.59 193.14 1251.46 193.071 1249.34 193.005C1244.47 190.767 1239.58 188.533 1234.68 186.306C1236.79 186.453 1238.91 186.609 1241.02 186.773C1245.93 188.911 1250.83 191.057 1255.72 193.211L1255.72 193.214ZM1266.61 193.617C1264.52 193.535 1262.43 193.455 1260.33 193.379C1255.64 191.308 1250.93 189.241 1246.22 187.178C1248.29 187.342 1250.37 187.511 1252.44 187.686C1257.18 189.656 1261.9 191.632 1266.61 193.614L1266.61 193.617ZM1277.59 194.076C1275.55 193.987 1273.5 193.9 1271.45 193.814C1266.97 191.925 1262.48 190.039 1257.98 188.157C1260.01 188.332 1262.04 188.511 1264.06 188.695C1268.58 190.481 1273.09 192.274 1277.59 194.073L1277.59 194.076ZM1288.61 194.573L1282.67 194.3C1278.44 192.61 1274.21 190.922 1269.97 189.236C1271.92 189.419 1273.87 189.603 1275.82 189.789C1280.1 191.379 1284.36 192.973 1288.6 194.57L1288.61 194.573ZM1299.65 195.104L1293.98 194.828C1290.07 193.355 1286.14 191.882 1282.21 190.409L1287.74 190.961C1291.71 192.337 1295.68 193.717 1299.64 195.1L1299.65 195.104ZM1310.63 195.651L1305.38 195.386C1301.84 194.147 1298.29 192.908 1294.74 191.669L1299.81 192.192C1303.41 193.341 1307.02 194.493 1310.62 195.647L1310.63 195.651ZM1321.5 196.203L1320.13 196.135L1316.85 195.968C1313.79 194.985 1310.72 194.001 1307.64 193.016L1311.99 193.479C1315.16 194.382 1318.32 195.288 1321.48 196.196L1321.5 196.203ZM1332.06 196.736L1328.4 196.551L1321.11 194.452L1324.31 194.796L1332.06 196.736ZM1341.96 197.224L1339.97 197.129L1335.47 196.002L1336.73 196.139L1339.7 196.757L1341.96 197.224ZM634.871 168.112L638.527 168.492L634.59 168.161L634.871 168.112ZM624.456 167.019L629.272 167.526L628.556 167.642L623.588 167.213L624.456 167.019ZM614.01 165.914L619.669 166.515L618.499 166.771L612.778 166.266L614.01 165.914ZM603.543 164.791L609.847 165.468L608.401 165.876L602.112 165.31L603.543 164.791ZM593.046 163.648L599.832 164.386L598.247 164.955L591.53 164.341L593.046 163.648ZM582.523 162.494L589.681 163.281L588.054 164.018L581.008 163.362L582.523 162.494ZM571.974 161.328L579.41 162.151L577.811 163.059L570.522 162.367L571.974 161.328ZM559.797 161.595C562.769 161.429 565.713 161.329 568.628 161.294L567.415 162.16C564.448 162.307 561.458 162.522 558.446 162.806L559.797 161.595ZM547.632 162.604C550.578 162.283 553.497 162.02 556.388 161.814L554.864 163.172C551.974 163.49 549.067 163.867 546.14 164.302L547.632 162.604ZM535.927 164.142C538.732 163.712 541.513 163.329 544.27 162.994L542.632 164.846C539.927 165.288 537.206 165.773 534.468 166.302L535.927 164.142ZM524.886 166.046C527.499 165.549 530.095 165.086 532.676 164.659L531.104 166.973C528.619 167.485 526.121 168.031 523.612 168.613L524.886 166.046ZM1201.79 203.03C1198.66 203.14 1195.54 203.259 1192.41 203.388C1114.43 206.136 1027.72 203.139 926.811 195.234C884.755 191.938 840.219 187.789 792.838 182.848C833.042 186.091 871.103 188.719 907.313 190.748C1004.19 196.175 1087.83 197.325 1163.88 194.571L1163.91 194.571C1170.93 194.259 1177.97 194.034 1185.03 193.897C1190.64 196.936 1196.22 199.981 1201.79 203.032L1201.79 203.03ZM1211.99 202.698C1209.78 202.762 1207.57 202.831 1205.36 202.904C1199.83 199.874 1194.28 196.848 1188.71 193.825C1190.87 193.79 1193.03 193.762 1195.2 193.741C1200.82 196.725 1206.42 199.713 1212 202.705L1211.99 202.698ZM1222.29 202.426C1220.07 202.479 1217.85 202.536 1215.63 202.596C1210.1 199.631 1204.55 196.669 1198.98 193.711C1201.17 193.698 1203.35 193.691 1205.54 193.691C1211.14 196.602 1216.73 199.516 1222.3 202.433L1222.29 202.426ZM1232.66 202.205C1230.44 202.248 1228.21 202.294 1225.99 202.343C1220.48 199.458 1214.96 196.577 1209.42 193.7C1211.61 193.708 1213.8 193.721 1215.99 193.74C1221.57 196.56 1227.13 199.384 1232.67 202.212L1232.66 202.205ZM1243.11 202.026C1240.89 202.059 1238.67 202.096 1236.45 202.137C1230.99 199.349 1225.51 196.564 1220.01 193.782C1222.21 193.808 1224.41 193.84 1226.6 193.878C1232.13 196.592 1237.63 199.31 1243.12 202.031L1243.11 202.026ZM1253.63 201.885L1246.98 201.971C1241.59 199.295 1236.19 196.623 1230.76 193.954C1232.96 193.998 1235.15 194.046 1237.35 194.098C1242.79 196.693 1248.22 199.29 1253.63 201.889L1253.63 201.885ZM1264.21 201.774L1257.58 201.842C1252.29 199.294 1246.98 196.751 1241.65 194.211C1243.85 194.27 1246.05 194.333 1248.24 194.4C1253.59 196.856 1258.91 199.315 1264.22 201.777L1264.21 201.774ZM1274.84 201.684L1268.25 201.738C1263.08 199.336 1257.9 196.938 1252.69 194.542C1254.88 194.616 1257.06 194.691 1259.24 194.769C1264.46 197.072 1269.66 199.378 1274.84 201.686L1274.84 201.684ZM1285.49 201.609L1278.99 201.659C1273.97 199.421 1268.94 197.184 1263.89 194.948C1266.05 195.031 1268.22 195.117 1270.38 195.206C1275.43 197.338 1280.47 199.473 1285.49 201.611L1285.49 201.609ZM1296.18 201.54L1293.4 201.558L1289.77 201.581C1284.93 199.523 1280.08 197.464 1275.22 195.404C1277.36 195.495 1279.49 195.589 1281.62 195.686C1286.49 197.638 1291.34 199.59 1296.19 201.542L1296.18 201.54ZM1306.87 201.468L1300.59 201.511C1295.97 199.646 1291.35 197.782 1286.7 195.918L1292.97 196.212C1297.62 197.965 1302.26 199.718 1306.87 201.47L1306.87 201.468ZM1317.54 201.384L1311.44 201.434C1307.09 199.781 1302.72 198.127 1298.34 196.473L1304.41 196.772C1308.81 198.312 1313.19 199.85 1317.55 201.387L1317.54 201.384ZM1328.16 201.283L1322.31 201.342C1318.27 199.915 1314.21 198.487 1310.14 197.058L1315.94 197.351C1320.03 198.665 1324.1 199.976 1328.16 201.285L1328.16 201.283ZM1338.68 201.15L1333.18 201.223L1322.14 197.666L1327.53 197.939L1338.68 201.15ZM1349.03 200.983C1347.38 201.014 1345.72 201.042 1344.06 201.068L1342.77 200.695L1334.41 198.284L1339.2 198.521L1340.95 198.963L1349.03 200.983ZM1359.08 200.775C1357.7 200.806 1356.31 200.841 1354.92 200.869L1347.06 198.903L1350.91 199.084L1359.08 200.775ZM1368.52 200.535L1365.74 200.61L1360.43 199.517L1362.65 199.611L1368.52 200.535ZM651.841 168.399L652.077 168.427L651.822 168.402L651.841 168.399ZM640.953 167.088L645.729 167.665L645.222 167.724L640.243 167.209L640.953 167.088ZM630.05 165.762L635.756 166.455L634.7 166.63L628.89 166.021L630.05 165.762ZM619.12 164.427L625.553 165.213L624.165 165.523L617.71 164.838L619.12 164.427ZM608.175 163.081L615.162 163.941L613.579 164.398L606.628 163.655L608.175 163.081ZM597.207 161.725L604.604 162.641L602.932 163.257L595.611 162.462L597.207 161.725ZM586.218 160.358L593.946 161.321L592.255 162.094L584.647 161.261L586.218 160.358ZM575.196 158.99L575.323 158.996L583.181 159.978L581.551 160.922L573.732 160.056L575.196 158.99ZM562.956 158.723C566.019 158.694 569.04 158.735 572.02 158.846L570.627 159.856C567.608 159.856 564.557 159.929 561.473 160.077L562.956 158.723ZM550.597 159.181C553.681 158.984 556.731 158.849 559.746 158.776L558.117 160.257C555.113 160.442 552.084 160.69 549.029 161L550.597 159.181ZM538.526 160.229C541.507 159.904 544.466 159.63 547.402 159.405L545.711 161.358C542.841 161.687 539.953 162.065 537.047 162.493L538.526 160.229ZM527.004 161.7C529.822 161.287 532.618 160.916 535.392 160.587L533.796 162.986C531.119 163.409 528.422 163.871 525.704 164.372L527.004 161.7ZM1221.07 213.634C1141.02 216.379 1051.09 211.535 946.019 201.148C906.276 197.217 864.353 192.488 819.973 187.082C857.185 190.804 892.594 194.005 926.409 196.655C1027.51 204.575 1114.41 207.577 1192.6 204.82L1192.62 204.82C1196.5 204.66 1200.38 204.515 1204.26 204.385C1209.89 207.468 1215.49 210.552 1221.08 213.639L1221.07 213.634ZM1231.56 213.237L1224.61 213.502C1219.04 210.421 1213.45 207.342 1207.84 204.264C1210.07 204.19 1212.31 204.124 1214.54 204.064C1220.24 207.123 1225.91 210.183 1231.57 213.242L1231.56 213.237ZM1242.06 212.83L1235.12 213.1C1229.49 210.055 1223.84 207.01 1218.18 203.966C1220.42 203.907 1222.67 203.853 1224.91 203.802C1230.65 206.813 1236.37 209.823 1242.06 212.834L1242.06 212.83ZM1252.55 212.406L1245.63 212.687C1239.98 209.698 1234.31 206.709 1228.62 203.721C1230.87 203.673 1233.12 203.629 1235.37 203.588C1241.12 206.529 1246.85 209.47 1252.55 212.411L1252.55 212.406ZM1263.04 211.965L1256.16 212.26C1250.51 209.348 1244.85 206.438 1239.16 203.53C1241.41 203.493 1243.67 203.456 1245.92 203.42C1251.65 206.268 1257.36 209.116 1263.04 211.966L1263.04 211.965ZM1273.51 211.494C1271.24 211.6 1268.96 211.703 1266.68 211.804C1261.07 208.992 1255.43 206.18 1249.77 203.368L1256.54 203.286C1262.22 206.023 1267.88 208.759 1273.52 211.494L1273.51 211.494ZM1283.98 210.989C1281.72 211.102 1279.46 211.212 1277.19 211.32C1271.65 208.629 1266.08 205.937 1260.49 203.243L1267.23 203.178C1272.84 205.783 1278.43 208.387 1283.98 210.99L1283.98 210.989ZM1294.4 210.445C1292.17 210.567 1289.92 210.685 1287.68 210.801C1282.23 208.25 1276.77 205.698 1271.28 203.145L1277.99 203.093C1283.49 205.546 1288.96 207.997 1294.42 210.446L1294.4 210.445ZM1304.78 209.858C1302.58 209.989 1300.36 210.116 1298.14 210.24C1292.83 207.849 1287.5 205.455 1282.14 203.057L1288.8 203.014C1294.15 205.299 1299.48 207.581 1304.79 209.86L1304.78 209.858ZM1315.14 209.22C1312.96 209.36 1310.78 209.497 1308.59 209.631C1303.44 207.421 1298.27 205.208 1293.08 202.991L1293.44 202.991L1299.68 202.95C1304.85 205.043 1310 207.133 1315.13 209.221L1315.14 209.22ZM1325.42 208.527C1323.28 208.678 1321.13 208.825 1318.98 208.969C1314.03 206.956 1309.06 204.94 1304.07 202.92L1310.57 202.873C1315.54 204.762 1320.48 206.647 1325.41 208.528L1325.42 208.527ZM1335.62 207.771C1333.53 207.934 1331.43 208.092 1329.33 208.245C1324.62 206.448 1319.89 204.645 1315.14 202.837L1321.51 202.782L1335.62 207.771ZM1345.73 206.951C1343.7 207.124 1341.66 207.292 1339.61 207.457L1326.26 202.735L1332.45 202.665L1341.53 205.594L1345.73 206.951ZM1355.73 206.067C1353.77 206.25 1351.8 206.427 1349.84 206.6L1342.96 204.38L1337.47 202.604C1339.45 202.578 1341.44 202.548 1343.42 202.517L1355.73 206.067ZM1365.57 205.107C1363.72 205.296 1361.86 205.48 1360 205.659L1348.78 202.425C1350.64 202.392 1352.51 202.355 1354.37 202.315C1358.12 203.252 1361.85 204.182 1365.56 205.105L1365.57 205.107ZM1375.2 204.08C1373.49 204.271 1371.78 204.457 1370.07 204.64L1360.2 202.19C1361.91 202.148 1363.62 202.105 1365.32 202.061C1368.63 202.739 1371.92 203.412 1375.2 204.078L1375.2 204.08ZM1384.51 202.999C1383.03 203.179 1381.54 203.356 1380.05 203.528C1377.35 202.982 1374.63 202.43 1371.9 201.87C1373.36 201.826 1374.81 201.783 1376.26 201.735C1379.01 202.162 1381.76 202.582 1384.51 202.996L1384.51 202.999ZM1393.25 201.894L1389.94 202.322C1388.01 202.035 1386.08 201.745 1384.14 201.451L1387.15 201.328C1389.18 201.521 1391.22 201.71 1393.24 201.894L1393.25 201.894ZM1400.66 200.886L1399.76 201.014L1397.77 200.842L1398.02 200.828L1400.66 200.886ZM658.371 167.582L663.056 168.215L662.786 168.238L657.847 167.648L658.371 167.582ZM646.991 166.035L652.716 166.814L651.815 166.924L645.947 166.219L646.991 166.035ZM635.606 164.488L642.126 165.372L640.813 165.598L634.235 164.8L635.606 164.488ZM624.194 162.926L631.343 163.905L629.778 164.263L622.637 163.393L624.194 162.926ZM612.782 161.361L620.415 162.408L618.714 162.911L611.142 161.981L612.782 161.361ZM601.334 159.781L609.333 160.886L607.585 161.542L599.688 160.565L601.334 159.781ZM589.888 158.204L598.171 159.345L596.442 160.158L588.293 159.145L589.888 158.204ZM578.392 156.644L579.041 156.704L586.919 157.793L585.262 158.766L576.927 157.724L578.392 156.644ZM566.101 155.825C569.25 155.934 572.349 156.116 575.399 156.369L573.878 157.488C570.797 157.35 567.677 157.283 564.518 157.286L566.101 155.825ZM553.522 155.752C556.739 155.685 559.914 155.682 563.049 155.743L561.346 157.314C558.232 157.366 555.083 157.482 551.897 157.663L553.522 155.752ZM541.092 156.304C544.247 156.091 547.366 155.934 550.447 155.832L548.719 157.862C545.696 158.073 542.644 158.338 539.561 158.657L541.092 156.304ZM529.09 157.357C532.108 157.036 535.1 156.754 538.061 156.522L536.444 158.995C533.579 159.322 530.69 159.693 527.78 160.109L529.09 157.357ZM541.607 151.015C538.389 151.13 535.137 151.296 531.85 151.514C534.749 145.317 537.636 139.011 540.538 132.67C567.058 74.7101 594.903 13.8609 646.976 10.1195C708.554 5.69953 779.23 19.0312 854.059 43.2933C789.898 24.7815 729.214 15.1162 675.333 18.9483C620.823 22.6632 588.052 75.8836 555.76 128.302C551.052 135.945 546.358 143.572 541.607 151.021L541.607 151.015ZM554.64 150.84C551.322 150.803 547.953 150.84 544.549 150.924C549.186 143.64 553.772 136.196 558.368 128.734C590.389 76.7422 622.903 23.955 675.694 20.3604C736.998 16.0024 807.333 29.334 881.664 53.3729C817.995 35.0689 757.664 25.4246 704.068 29.1871C648.853 32.7617 611.892 79.2262 574.562 126.159C567.971 134.457 561.36 142.764 554.64 150.847L554.64 150.84ZM567.743 151.351C564.411 151.13 561.029 150.978 557.599 150.895C564.18 142.966 570.651 134.829 577.111 126.707C614.133 80.1621 650.79 34.081 704.416 30.6103L704.433 30.6103C765.384 26.3274 835.274 39.6104 908.97 63.3255C845.915 45.3143 786.05 35.7484 732.819 39.4369C676.858 42.8877 636.147 83.5345 594.21 125.405C585.48 134.114 576.705 142.874 567.736 151.357L567.743 151.351ZM580.459 152.603C577.242 152.178 573.97 151.832 570.642 151.564C579.448 143.219 588.067 134.617 596.636 126.064C638.227 84.5423 678.591 44.2259 733.115 40.8634L733.136 40.8634C793.147 36.6976 861.817 49.6138 934.072 72.5389L934.706 72.7952C872.838 55.3983 813.98 46.101 761.531 49.6867C704.839 53.0259 660.748 88.5434 614.621 125.7C603.422 134.717 592.097 143.837 580.452 152.609L580.459 152.603ZM592.61 154.397L583.491 153.04L583.259 153.006C594.726 144.351 605.872 135.37 616.912 126.481C662.684 89.6141 706.43 54.3729 761.833 51.1099L761.861 51.1099C817.938 47.2723 881.56 58.3674 948.432 78.4118C949.734 78.9511 951.036 79.4921 952.338 80.0351C894.625 64.6857 839.627 56.6083 790.262 59.9343C732.904 63.1664 685.779 94.0783 635.87 126.81C621.768 136.059 607.438 145.452 592.604 154.404L592.61 154.397ZM604.716 156.215L595.518 154.834C610.09 146.016 624.165 136.786 638.022 127.694C687.556 95.2076 734.337 64.531 790.549 61.3575L790.577 61.3575C842.776 57.8348 901.485 67.2449 963.114 84.581C965.159 85.455 967.209 86.339 969.257 87.2219C915.942 73.9731 865.036 67.1311 818.999 70.1841C761.094 73.3123 711.297 100.019 658.041 128.589C640.763 137.851 623.104 147.315 604.709 156.221L604.716 156.215ZM616.804 158.03L610.479 157.08L607.795 156.687C625.794 147.932 643.073 138.664 659.994 129.585C712.893 101.216 762.36 74.6792 819.27 71.6029L819.301 71.6029C867.663 68.3918 921.557 76.2439 978.044 91.0374C980.662 92.1821 983.283 93.3368 985.906 94.5015C937.058 83.2881 890.318 77.6461 847.694 80.4284C789.446 83.4583 737.378 106.302 681.265 130.911C660.493 140.021 639.171 149.372 616.797 158.037L616.804 158.03ZM628.871 159.844L620.118 158.529C641.933 150.02 662.743 140.9 683.025 132.009C738.804 107.54 790.594 84.8263 847.994 81.8494L848.026 81.8494C892.617 78.94 941.834 85.371 993.33 97.8043C996.438 99.198 999.55 100.604 1002.66 102.021C958.24 92.7158 915.621 88.1622 876.414 90.6727C818.086 93.591 764.171 112.853 705.786 133.715C681.161 142.516 655.736 151.604 628.865 159.85L628.871 159.844ZM640.917 161.65L632.504 160.387C658.616 152.302 683.361 143.465 707.341 134.896C765.424 114.145 819.065 94.9777 876.704 92.1004L876.742 92.1004C917.628 89.4804 962.353 94.6518 1009.04 104.933C1012.52 106.532 1016.01 108.143 1019.5 109.767C979.443 102.23 940.909 98.6772 905.145 100.927C847.09 103.725 791.921 119.65 731.966 136.957C703.009 145.305 672.934 153.988 640.902 161.659L640.917 161.65ZM652.935 163.454L644.962 162.257C675.986 154.743 705.164 146.323 733.299 138.204C793.014 120.966 847.96 105.104 905.443 102.34L905.481 102.34C942.72 100.003 983.064 104.039 1025.06 112.352C1028.87 114.143 1032.69 115.947 1036.51 117.767C1000.74 111.839 966.218 109.182 933.888 111.166C876.653 113.825 820.958 126.641 760.36 140.585C726.439 148.389 690.999 156.543 652.921 163.46L652.935 163.454ZM664.924 165.25L657.496 164.138C694.268 157.352 728.591 149.46 761.455 141.896C821.863 127.997 877.382 115.221 934.152 112.587L934.188 112.587C967.837 110.523 1003.94 113.559 1041.41 120.107C1045.53 122.079 1049.65 124.068 1053.77 126.074C1022.17 121.577 991.568 119.685 962.644 121.412C907.038 123.905 851.823 133.833 791.822 144.617C752.106 151.762 710.291 159.277 664.91 165.257L664.924 165.25ZM676.899 167.04L670.161 166.033C713.878 160.145 754.282 152.883 792.711 145.973C852.546 135.215 907.605 125.31 962.869 122.837L962.913 122.837C993.026 121.035 1025.03 123.207 1058.12 128.19C1062.51 130.335 1066.91 132.495 1071.3 134.671C1043.74 131.417 1016.93 130.171 991.367 131.657C938.641 133.942 885.419 141.21 827.833 149.073C781.088 155.46 731.442 162.233 676.884 167.047L676.899 167.04ZM688.826 168.824L682.974 167.949C735.425 163.165 783.32 156.627 828.518 150.456C885.971 142.61 939.066 135.359 991.593 133.084L991.629 133.084C1018.28 131.537 1046.33 132.985 1075.22 136.62C1079.85 138.924 1084.48 141.244 1089.11 143.582C1065.44 141.378 1042.34 140.66 1020.09 141.913C972.245 143.921 923.385 148.789 870.972 154.011C815.28 159.551 755.572 165.498 688.811 168.83L688.826 168.824ZM700.758 170.601L696.016 169.893C760.092 166.5 817.664 160.766 871.48 155.406C923.793 150.193 972.564 145.333 1020.31 143.33L1020.35 143.33C1043.59 142.018 1067.82 142.888 1092.68 145.369C1097.53 147.825 1102.38 150.295 1107.23 152.781C1087.32 151.43 1067.78 151.123 1048.82 152.151C1009.47 153.751 969.022 156.546 926.285 159.499C858.533 164.182 785.025 169.26 700.743 170.609L700.758 170.601ZM712.593 172.369L709.359 171.887C790.192 170.34 861.097 165.447 926.629 160.92C969.27 157.975 1009.63 155.185 1049.01 153.584L1049.05 153.584C1068.95 152.501 1089.5 152.908 1110.48 154.461C1115.54 157.061 1120.59 159.674 1125.63 162.3C1109.33 161.605 1093.26 161.584 1077.53 162.41C1054.16 163.332 1029.86 164.465 1004.84 165.629C919.268 169.605 825.13 173.985 712.589 172.37L712.593 172.369ZM724.499 174.13L723.204 173.938C831.166 175.14 922.138 170.906 1005.06 167.045C1029.78 165.894 1053.78 164.776 1077.74 163.831L1077.77 163.831C1094.38 162.962 1111.37 163.046 1128.66 163.876C1133.89 166.607 1139.12 169.352 1144.34 172.11C1131.51 171.875 1118.8 172.026 1106.26 172.653C1034.51 175.401 957.456 177.956 869.174 177.514C824.151 177.283 776.189 176.28 724.495 174.131L724.499 174.13ZM1239.96 224.114C1132.1 226.73 1005.38 213.653 848.567 191.982C882.279 195.952 914.592 199.477 945.507 202.557C1050.84 212.973 1141 217.825 1221.32 215.067L1221.33 215.067L1223.5 214.986C1229.01 218.03 1234.5 221.073 1239.96 224.114ZM1250.95 223.776C1248.49 223.861 1246.03 223.95 1243.55 224.022C1238.07 220.966 1232.56 217.909 1227.04 214.851L1234.04 214.583C1239.7 217.649 1245.34 220.713 1250.95 223.776L1250.95 223.776ZM1261.84 223.34C1259.41 223.451 1256.98 223.561 1254.52 223.656C1248.9 220.589 1243.26 217.519 1237.59 214.447L1244.59 214.172C1250.37 217.23 1256.12 220.286 1261.85 223.34L1261.84 223.34ZM1272.63 222.808C1270.23 222.945 1267.79 223.056 1265.36 223.17C1259.65 220.126 1253.91 217.078 1248.16 214.029L1255.13 213.742C1260.99 216.767 1266.83 219.789 1272.65 222.808L1272.63 222.808ZM1283.24 222.127C1280.87 222.289 1278.48 222.436 1276.1 222.586C1270.34 219.592 1264.55 216.594 1258.74 213.591C1261.06 213.492 1263.37 213.392 1265.68 213.289C1271.57 216.239 1277.42 219.185 1283.25 222.127L1283.24 222.127ZM1293.72 221.337C1291.39 221.525 1289.08 221.729 1286.74 221.902C1280.97 218.982 1275.16 216.057 1269.32 213.127C1271.62 213.023 1273.93 212.917 1276.22 212.808C1282.09 215.654 1287.92 218.497 1293.72 221.337L1293.72 221.337ZM1304.1 220.445C1301.79 220.66 1299.48 220.864 1297.16 221.059C1291.43 218.256 1285.67 215.447 1279.88 212.632C1282.18 212.52 1284.47 212.406 1286.75 212.29C1292.57 215.013 1298.35 217.731 1304.1 220.444L1304.1 220.445ZM1314.34 219.439C1312.07 219.678 1309.77 219.894 1307.47 220.113C1301.83 217.45 1296.15 214.779 1290.44 212.1C1292.72 211.981 1294.99 211.858 1297.26 211.732C1302.98 214.307 1308.68 216.876 1314.34 219.439L1314.34 219.439ZM1324.37 218.288C1322.15 218.553 1319.93 218.811 1317.7 219.062C1312.16 216.557 1306.59 214.043 1301 211.52C1303.26 211.392 1305.5 211.26 1307.74 211.124C1313.32 213.521 1318.86 215.909 1324.37 218.288L1324.37 218.288ZM1334.3 217.034C1332.12 217.324 1329.95 217.62 1327.76 217.892C1322.37 215.567 1316.96 213.235 1311.51 210.895C1313.74 210.757 1315.96 210.615 1318.19 210.468C1323.59 212.665 1328.97 214.854 1334.31 217.034L1334.3 217.034ZM1344.12 215.683C1341.97 215.998 1339.81 216.291 1337.64 216.582C1332.46 214.467 1327.25 212.344 1322.01 210.211C1324.21 210.064 1326.4 209.909 1328.59 209.748L1341.09 214.523L1344.12 215.683ZM1353.73 214.187C1351.64 214.526 1349.53 214.85 1347.43 215.169L1342.72 213.372L1332.5 209.466C1334.66 209.305 1336.82 209.138 1338.97 208.966L1341.36 209.809L1353.73 214.187ZM1363.18 212.582C1361.16 212.939 1359.14 213.313 1357.11 213.655L1342.93 208.64C1345.05 208.465 1347.16 208.286 1349.27 208.101C1353.94 209.606 1358.58 211.1 1363.2 212.582L1363.18 212.582ZM1372.52 210.885C1370.54 211.263 1368.55 211.631 1366.56 211.99C1362.18 210.584 1357.78 209.168 1353.36 207.74C1355.42 207.553 1357.47 207.362 1359.53 207.166C1363.89 208.415 1368.22 209.655 1372.53 210.885L1372.52 210.885ZM1381.66 209.075C1379.76 209.468 1377.82 209.839 1375.9 210.215C1371.88 209.071 1367.84 207.915 1363.77 206.748C1365.76 206.549 1367.74 206.345 1369.71 206.137C1373.72 207.13 1377.71 208.109 1381.67 209.075L1381.66 209.075ZM1390.53 207.155C1388.74 207.553 1386.94 207.957 1385.14 208.346C1381.5 207.462 1377.85 206.566 1374.18 205.657C1376.07 205.45 1377.96 205.237 1379.84 205.02C1383.43 205.742 1387 206.453 1390.54 207.155L1390.53 207.155ZM1399.24 205.172C1397.56 205.568 1395.89 205.967 1394.2 206.348C1391.03 205.725 1387.85 205.093 1384.65 204.452C1386.4 204.24 1388.15 204.025 1389.9 203.805C1393.02 204.269 1396.14 204.725 1399.24 205.172ZM1407.59 203.133C1406.09 203.512 1404.58 203.869 1403.07 204.238C1400.48 203.87 1397.87 203.494 1395.25 203.109C1396.79 202.905 1398.33 202.697 1399.87 202.485C1402.45 202.709 1405.03 202.925 1407.59 203.133ZM1415.27 201.115C1414.15 201.416 1413.03 201.721 1411.89 202.02C1410.02 201.872 1408.15 201.722 1406.27 201.568C1407.42 201.398 1408.58 201.225 1409.73 201.051C1411.59 201.077 1413.44 201.098 1415.27 201.115ZM1421.96 199.321C1421.5 199.452 1421.02 199.568 1420.56 199.698L1418.4 199.69L1419.52 199.506C1420.33 199.449 1421.15 199.383 1421.96 199.321ZM1416.94 202.406C1418.49 201.989 1420.06 201.583 1421.61 201.153C1524.14 201.47 1610.62 185.616 1654.28 103.863C1673.55 76.4594 1691.82 53.0072 1709.44 33.0954C1690.27 55.226 1671.13 82.3323 1651.67 115.085L1651.65 115.127L1651.65 115.147C1616.36 202.07 1525.93 210.517 1416.94 202.406ZM1407.51 204.862C1409.25 204.431 1410.99 203.991 1412.71 203.543C1524.76 212.281 1618.09 204.68 1654.32 115.465C1665.88 95.9944 1677.33 78.5378 1688.73 62.9388C1676.01 81.2815 1663.67 102.466 1651.66 126.787L1651.64 126.817L1651.64 126.855C1651.15 128.504 1650.63 130.113 1650.1 131.706C1648.89 133.441 1647.75 135.246 1646.68 137.121C1644.82 139.543 1643.11 142.119 1641.57 144.848C1639.66 147.299 1637.93 149.914 1636.36 152.693C1631.51 158.856 1627.81 166.093 1625.35 174.479C1590.94 211.029 1533.32 216.955 1464.32 211.349C1446.1 209.871 1427.1 207.592 1407.51 204.864L1407.51 204.862ZM1398.22 207.134C1400.04 206.706 1401.84 206.25 1403.65 205.808C1424.43 208.743 1444.58 211.198 1463.88 212.769C1531.82 218.287 1588.89 212.83 1624.2 178.846C1623.02 183.918 1622.27 189.382 1621.94 195.239C1595.88 219.043 1556.09 225.424 1507.89 222.744C1474.75 220.896 1437.61 214.8 1398.22 207.134L1398.22 207.134ZM1388.78 209.233C1390.71 208.809 1392.65 208.39 1394.57 207.952C1435.14 215.9 1473.42 222.267 1507.59 224.168C1555.45 226.831 1595.19 220.799 1621.81 198.274C1621.68 202.717 1621.8 207.385 1622.16 212.276C1601.55 229.735 1571.55 235.61 1535.1 234.395C1493.38 232.999 1443.12 222.4 1388.79 209.23L1388.78 209.233ZM1379.34 211.198C1381.36 210.801 1383.38 210.406 1385.38 209.982C1440.84 223.463 1492.18 234.402 1534.93 235.822C1571.25 237.038 1601.32 231.44 1622.37 214.862C1622.75 219.025 1623.31 223.35 1624.04 227.834C1607.22 241.574 1583.42 246.884 1554.45 246.485C1507.28 245.833 1446.27 230.203 1379.35 211.194L1379.34 211.198ZM1369.86 213.041C1371.91 212.663 1373.94 212.26 1375.97 211.863C1444.01 231.223 1506.12 247.247 1554.4 247.911C1583.33 248.31 1607.23 243.244 1624.45 230.188C1625.15 234.177 1625.99 238.293 1626.96 242.536C1612.87 254.014 1593.23 258.878 1569.27 258.964C1518.43 259.146 1447.99 238.097 1369.86 213.041ZM1360.22 214.747C1362.32 214.384 1364.41 214.016 1366.49 213.642C1445.74 239.08 1517.28 260.579 1569.28 260.397C1593.25 260.312 1613.04 255.668 1627.49 244.77C1628.41 248.623 1629.45 252.58 1630.61 256.642C1618.54 266.786 1601.75 271.373 1581.15 271.764C1527.78 272.777 1448.71 245.999 1360.22 214.75L1360.22 214.747ZM1350.45 216.318C1352.62 215.987 1354.78 215.655 1356.92 215.307C1446.52 246.964 1526.67 274.23 1581.26 273.195C1601.87 272.803 1618.82 268.428 1631.23 258.811C1632.32 262.537 1633.5 266.35 1634.78 270.251C1624.25 279.728 1609.43 284.213 1591.1 284.815C1535.93 286.626 1448.73 253.876 1350.45 216.321L1350.45 216.318ZM1340.6 217.78C1342.79 217.475 1344.98 217.159 1347.15 216.832C1446.53 254.818 1534.81 288.096 1591.26 286.243C1609.64 285.639 1624.62 281.364 1635.5 272.405C1636.7 275.996 1637.99 279.661 1639.35 283.398C1630.02 292.745 1616.55 297.299 1599.65 298.065C1543.54 300.606 1449.39 262.179 1342.52 218.567L1340.6 217.78ZM1330.66 219.134C1332.88 218.85 1335.06 218.534 1337.27 218.234L1340.85 219.695C1448.17 263.492 1542.73 302.087 1599.89 299.495C1616.84 298.727 1630.48 294.397 1640.18 285.591C1641.44 289.013 1642.78 292.497 1644.19 296.043C1635.87 305.752 1623.31 310.572 1607.19 311.486C1551.8 314.625 1454.22 272.492 1342.36 224.192L1330.66 219.134ZM1320.5 220.325C1322.76 220.064 1325.02 219.807 1327.26 219.533L1340.61 225.295C1452.95 273.804 1550.94 316.115 1607.48 312.91C1623.63 311.995 1636.38 307.425 1645.1 298.316C1646.39 301.527 1647.74 304.79 1649.15 308.104C1641.78 318.687 1629.81 323.978 1613.97 325.039C1559.4 328.694 1458.76 283.043 1342.27 230.199C1335.07 226.937 1327.81 223.649 1320.49 220.334L1320.5 220.325ZM1310.24 221.41C1312.57 221.189 1314.89 220.968 1317.18 220.714C1325.01 224.259 1332.78 227.782 1340.49 231.282C1457.48 284.35 1558.54 330.194 1614.33 326.457C1630.18 325.395 1642.36 320.396 1650.2 310.521L1651.65 313.878C1652.48 315.769 1653.28 317.624 1654.06 319.459C1647.72 331.47 1636.14 337.48 1620.18 338.698C1566.51 342.801 1463.1 293.811 1342.28 236.572C1331.73 231.574 1321.05 226.52 1310.24 221.413L1310.24 221.41ZM1299.9 222.391C1302.23 222.188 1304.55 221.965 1306.88 221.744C1318.2 227.085 1329.4 232.381 1340.46 237.632C1461.79 295.117 1565.64 344.317 1620.59 340.118C1636.51 338.903 1648.3 333.281 1655.22 322.2C1656.39 324.999 1657.51 327.732 1658.57 330.4C1653.39 344.193 1642.19 351.071 1625.94 352.454C1573.2 356.942 1467.28 304.776 1342.42 243.282C1328.46 236.415 1314.29 229.452 1299.9 222.394L1299.9 222.391ZM1289.41 223.243C1291.77 223.062 1294.11 222.865 1296.46 222.67C1311.37 229.962 1326.07 237.182 1340.54 244.327C1465.93 306.081 1572.29 358.472 1626.37 353.866C1642.47 352.496 1653.92 346.161 1659.83 333.645C1660.8 336.136 1661.71 338.567 1662.58 340.938C1658.78 356.844 1647.96 364.726 1631.33 366.275C1579.55 371.093 1471.33 315.915 1342.67 250.31C1325.25 241.444 1307.47 232.378 1289.4 223.246L1289.41 223.243ZM1278.76 223.959C1281.17 223.809 1283.58 223.663 1285.97 223.493C1304.56 232.885 1322.85 242.216 1340.75 251.338C1469.96 317.223 1578.64 372.637 1631.79 367.693C1648.13 366.172 1659.2 359.054 1664 344.95C1664.73 347.023 1665.42 349.049 1666.06 351.028C1663.87 369.417 1653.51 378.459 1636.41 380.177C1585.61 385.28 1475.29 327.234 1343.04 257.653C1322.1 246.645 1300.63 235.346 1278.75 223.962L1278.76 223.959ZM1268.01 224.575C1270.45 224.453 1272.88 224.326 1275.3 224.183C1297.7 235.833 1319.68 247.398 1341.1 258.659C1473.91 328.537 1584.7 386.828 1636.92 381.582C1653.46 379.924 1664.1 372.014 1667.71 356.277C1668.16 357.751 1668.58 359.198 1668.98 360.62C1668.7 381.88 1658.89 392.237 1641.26 394.128C1591.45 399.472 1479.2 338.707 1343.56 265.279C1319.06 252.021 1293.8 238.345 1268 224.578L1268.01 224.575ZM1257.16 225.089C1259.62 224.989 1262.06 224.862 1264.5 224.746C1290.83 238.793 1316.6 252.746 1341.58 266.272C1477.79 340.01 1590.52 401.034 1641.81 395.531C1658.33 393.763 1668.46 385.221 1670.94 368.184L1671.27 369.639C1673.26 394.206 1664.11 406.055 1645.91 408.122C1597.08 413.674 1483.05 350.318 1344.21 273.176C1316.1 257.562 1286.97 241.381 1257.16 225.093L1257.16 225.089ZM1246.15 225.461C1248.64 225.381 1251.12 225.302 1253.59 225.21C1283.95 241.785 1313.61 258.264 1342.21 274.161C1481.63 351.63 1596.14 415.253 1646.5 409.529C1662.1 407.761 1671.53 399.459 1673.63 383.046C1676.49 407.991 1668.06 420.053 1650.41 422.162C1602.54 427.887 1486.88 362.071 1345 281.336C1313.2 263.247 1280.1 244.411 1246.14 225.464L1246.15 225.461ZM676.719 168.51L681.039 169.156L676.427 168.535L676.719 168.51ZM664.865 166.742L670.571 167.595L669.861 167.655L663.98 166.86L664.865 166.742ZM652.997 164.963L659.576 165.95L658.384 166.102L651.708 165.196L652.997 164.963ZM641.124 163.183L648.396 164.273L646.887 164.542L639.59 163.547L641.124 163.183ZM629.23 161.397L637.049 162.572L635.359 162.97L627.567 161.904L629.23 161.397ZM617.336 159.611L625.578 160.85L623.797 161.388L615.622 160.268L617.336 159.611ZM605.434 157.823L609.722 158.468L614.008 159.111L612.209 159.798L603.756 158.635L605.434 157.823ZM593.528 156.035L602.349 157.361L600.592 158.2L591.911 157.004L593.528 156.035ZM581.602 154.256C581.985 154.311 582.369 154.358 582.75 154.416L590.615 155.597L588.948 156.592L580.11 155.373L581.602 154.256ZM569.222 152.905C572.463 153.153 575.646 153.475 578.772 153.871L577.16 155.073C574.012 154.791 570.818 154.584 567.576 154.451L569.222 152.905ZM556.413 152.314C559.758 152.376 563.054 152.507 566.301 152.708L564.55 154.35C561.327 154.265 558.061 154.248 554.75 154.3L556.413 152.314ZM543.619 152.387C546.94 152.29 550.218 152.253 553.452 152.277L551.694 154.368C548.523 154.455 545.314 154.603 542.068 154.81L543.619 152.387ZM531.15 153.007C534.358 152.786 537.528 152.614 540.66 152.491L539.037 155.014C535.99 155.239 532.915 155.511 529.813 155.829L531.15 153.007ZM441.704 441.993L422.134 441.993C370.936 436.28 312.875 415.6 254.01 394.626C186.948 370.735 118.824 346.465 59.1606 343.74C38.3062 342.788 18.4578 344.488 0.00419606 349.767L0.00419614 348.109C18.5466 342.986 38.4669 341.348 59.3889 342.304C119.765 345.066 188.192 369.44 255.553 393.438C321.692 417.004 386.799 440.195 441.704 441.993ZM1902 3.60675L1902 5.14267C1891.91 3.027 1882.01 1.3128 1872.31 8.18417e-05L1882.42 8.22837e-05C1888.87 1.0314 1895.4 2.23362 1902 3.60675ZM-2.91159e-05 315.778C9.24369 314.783 18.8192 314.615 28.6758 315.143C73.8314 317.574 125.071 334.36 177.032 351.387C242.797 372.934 309.705 394.861 367.709 388.846C416.335 383.572 433.793 344.271 454.229 298.263C461.415 282.102 468.955 265.113 478.342 248.489C468.488 268.618 461.685 289.205 455.339 308.407C440.29 353.96 427.827 391.671 383.597 396.417C326.258 402.318 258.412 379.713 191.271 357.345C136.5 339.095 82.1875 321.001 33.9866 318.491C22.2576 317.87 10.9005 318.18 -2.92841e-05 319.626L-2.93497e-05 321.127C10.8097 319.633 22.078 319.301 33.7224 319.911C81.2724 322.386 135.312 340.39 189.807 358.546C257.408 381.069 325.726 403.829 384.126 397.819C430.196 392.881 442.811 354.732 458.035 308.647C462.979 293.686 468.203 277.882 474.929 262.121C467.955 281.686 463.617 301.278 459.591 319.438C449.563 364.686 441.511 400.999 400.012 405.392C342.299 411.275 273.06 387.849 204.104 364.52C146.794 345.129 89.6772 325.806 39.0523 323.246C25.5142 322.561 12.4602 323.076 0.00631048 325.094L0.00631041 326.616C12.3714 324.533 25.341 323.99 38.7944 324.67C88.7536 327.196 145.592 346.425 202.618 365.721C272.039 389.207 341.749 412.793 400.553 406.792C444.011 402.193 452.171 365.418 462.328 319.594C465.375 305.846 468.606 291.276 473.021 276.523C468.659 295.343 466.484 313.872 464.485 330.953C459.257 375.578 455.187 410.322 416.439 414.36C358.322 420.238 287.694 396.003 216.94 371.721C157.114 351.188 97.1837 330.615 44.1116 328.011C28.754 327.255 13.9945 328.004 -2.97671e-05 330.676L-2.9835e-05 332.23C13.9057 329.467 28.5849 328.684 43.8643 329.435C96.2327 332.011 155.886 352.483 215.437 372.921C286.657 397.364 357.745 421.761 416.965 415.766C457.784 411.512 461.911 376.283 467.212 331.036C468.678 318.521 470.236 305.232 472.681 291.625C470.631 309.526 470.356 326.908 470.09 342.877C469.384 386.59 468.847 419.644 432.857 423.336C374.318 429.209 302.327 404.172 229.787 378.943C167.444 357.26 104.69 335.434 49.1878 332.776C31.9916 331.951 15.5139 332.961 -0.00848335 336.371L-0.00848342 337.957C15.4189 334.439 31.8204 333.38 48.9405 334.2C103.739 336.825 166.209 358.553 228.274 380.137C301.281 405.529 373.741 430.728 433.377 424.742C471.561 420.826 472.106 387.268 472.82 342.888C473.002 331.664 473.196 319.74 474.01 307.429C473.97 324.225 475.278 340.348 476.502 355.125C479.987 397.673 482.55 428.958 449.28 432.311C390.318 438.182 316.968 412.351 242.657 386.184C177.805 363.346 112.222 340.252 54.2746 337.544C35.2229 336.653 17.025 337.961 -0.0127103 342.184L-0.0127103 343.792C16.9383 339.434 35.0686 338.075 54.0379 338.962C111.259 341.638 176.556 364.63 241.123 387.367C315.905 413.7 389.726 439.695 449.791 433.712C485.382 430.127 482.776 398.322 479.232 355.064C478.425 345.208 477.569 334.75 477.102 323.897C478.742 339.383 481.362 354.129 483.759 367.629C491.073 408.792 496.308 438.257 465.703 441.282C462.163 441.629 458.588 441.864 454.994 441.985L470.935 441.985C498.713 436.35 493.548 407.289 486.485 367.5C481.288 338.254 475.054 303.148 480.02 267.369C480.881 262.47 481.951 257.566 483.231 252.659C484.592 248.165 486.148 243.682 487.899 239.209C489.716 235.054 491.713 230.929 493.89 226.833C496.067 223.096 498.406 219.4 500.906 215.746C503.413 212.366 506.067 209.037 508.869 205.758C511.596 202.802 514.449 199.906 517.429 197.068C520.305 194.527 523.287 192.051 526.374 189.64L526.719 189.464C529.596 188.359 532.445 187.219 535.267 186.045C538.437 185.059 541.579 184.04 544.693 182.989C548.166 182.121 551.606 181.223 555.014 180.295C558.779 179.55 562.512 178.776 566.215 177.974C570.254 177.358 574.261 176.715 578.235 176.047C582.573 175.556 586.877 175.041 591.146 174.5C595.795 174.138 600.408 173.754 604.984 173.349C609.915 173.121 614.805 172.873 619.655 172.604C624.868 172.512 630.034 172.401 635.154 172.272C640.723 172.321 646.247 172.351 651.725 172.363C657.587 172.555 663.4 172.73 669.164 172.887C675.363 173.227 681.513 173.551 687.615 173.859C694.12 174.35 700.57 174.826 706.965 175.285C713.787 175.931 720.549 176.561 727.253 177.176C734.416 177.99 741.512 178.784 748.543 179.56C756.073 180.534 763.536 181.492 770.931 182.433C965.536 210.72 1116.85 228.869 1242.6 225.578C1277.09 244.813 1310.72 263.944 1342.98 282.307C1485.46 363.38 1601.6 429.472 1651.02 423.561C1672.97 420.937 1681.73 404.405 1673.8 369.141C1673.4 364.192 1672.56 358.754 1671.26 352.8C1670.88 347.795 1670.06 342.304 1668.81 336.329C1668.45 331.293 1667.67 325.791 1666.49 319.825C1666.15 314.702 1665.4 309.121 1664.25 303.083C1663.94 297.944 1663.25 292.371 1662.17 286.362C1661.9 281.132 1661.25 275.474 1660.23 269.388C1660.01 264.138 1659.43 258.478 1658.49 252.407C1658.33 247.094 1657.82 241.381 1656.97 235.269C1656.88 229.891 1656.45 224.127 1655.7 217.976C1655.7 212.574 1655.39 206.804 1654.76 200.663C1654.83 197.274 1654.78 193.746 1654.61 190.079C1654.97 182.639 1655.53 175.498 1656.29 168.657C1657.98 156.56 1660.18 145.3 1662.89 134.879C1672.09 130.708 1682.78 127.974 1694.8 126.536C1745.02 120.531 1818.25 136.907 1902 165.527L1902 163.882C1818.19 135.363 1744.8 119.091 1694.2 125.143C1682.73 126.514 1672.43 129.025 1663.44 132.784L1663.81 131.415L1663.84 131.343L1663.84 131.336C1664.15 130.275 1664.46 129.221 1664.78 128.175C1675.68 122.344 1688.82 118.728 1703.91 117.073C1753.08 111.678 1822.76 126.819 1902 153.387L1902 151.748C1822.71 125.282 1752.88 110.235 1703.36 115.67C1688.94 117.251 1676.24 120.558 1665.53 125.799C1665.96 124.432 1666.4 123.084 1666.85 121.745C1679.35 113.951 1695.02 109.369 1713.34 107.544C1761.29 102.779 1827.34 116.698 1902 141.22L1902 139.585C1827.3 115.165 1761.12 101.339 1712.84 106.136C1695.3 107.877 1680.13 112.057 1667.76 119.041C1668.15 117.905 1668.55 116.778 1668.95 115.661C1683 105.543 1701.34 99.8773 1723.14 97.9491C1769.71 93.8286 1832.01 106.543 1902 129.022L1902 127.396C1831.98 105.018 1769.56 92.3888 1722.7 96.5325C1701.86 98.3745 1684.11 103.51 1670.12 112.528C1670.45 111.663 1670.77 110.797 1671.11 109.944C1686.68 97.0938 1707.84 90.244 1733.36 88.286C1778.3 84.8296 1836.77 96.3734 1902 116.819L1902 115.195C1836.75 94.8496 1778.19 83.3887 1732.96 86.8672C1708.63 88.7302 1688.17 94.8949 1672.58 106.255C1672.81 105.703 1673.04 105.169 1673.27 104.624C1690.35 88.5954 1714.52 80.455 1744.01 78.5467C1787.13 75.7566 1841.61 86.1512 1902 104.572L1902 102.959C1841.61 84.6351 1787.03 74.3168 1743.68 77.1224C1715.69 78.9334 1692.39 86.1711 1675.2 100.169L1675.37 99.79C1693.99 80.0384 1721.4 70.4814 1755.17 68.73C1796.17 66.6051 1846.56 75.8804 1902 92.2982L1902 90.686C1846.57 74.3654 1796.12 65.1686 1754.91 67.3046C1724.23 68.8958 1698.68 76.719 1679.99 92.4816C1700.24 70.4659 1730.15 60.2426 1766.88 58.8404C1805.48 57.3664 1851.62 65.5642 1902.01 80.0008L1902.01 78.3953C1851.66 64.0548 1805.46 55.9288 1766.69 57.4095C1733.53 58.6747 1705.81 66.9057 1685.54 84.1744C1707.6 60.3907 1739.88 49.7972 1779.18 48.8668C1815.05 48.016 1856.8 55.1652 1902.01 67.6582L1902.01 66.0659C1856.85 53.6702 1815.07 46.5828 1779.06 47.4359C1743.24 48.2878 1713.15 56.9177 1691.09 75.8605C1715.22 50.1199 1750.05 39.1563 1792.09 38.8093C1824.87 38.5397 1862.07 44.6856 1902 55.2735L1902 53.6868C1862.13 43.1894 1824.93 37.112 1792.04 37.3794C1753.33 37.6999 1720.61 46.7607 1696.5 67.6648C1723.01 39.6402 1760.67 28.3064 1805.66 28.6722C1834.98 28.912 1867.45 34.0866 1902 42.8303L1902 41.2568C1867.52 32.6026 1835.08 27.4821 1805.7 27.2423C1763.91 26.9009 1728.35 36.3662 1701.93 59.447C1731.14 28.8898 1771.79 17.2168 1819.87 18.4522C1845.34 19.1074 1872.92 23.3683 1901.99 30.3407L1901.99 28.7794C1873.02 21.8898 1845.49 17.6798 1820 17.0234C1774.88 15.8632 1736.19 25.7705 1707.14 51.4558C1739.47 17.8931 1783.34 5.86643 1834.7 8.15154C1855.94 9.0963 1878.47 12.4753 1902 17.7782L1902 16.2312C1878.58 11.0035 1856.14 7.66645 1834.93 6.7228C1786.36 4.56366 1744.38 14.872 1712.33 43.4701C1736.03 19.1108 1764.64 5.45869 1797.07 0.00228852L1788.83 0.00228816C1761.96 5.6377 1737.84 17.1085 1717.11 35.8601C1732.89 19.7406 1750.29 8.00347 1769.15 0.0022873L1764.81 0.00228711C1749.36 6.89517 1734.91 16.303 1721.54 28.5782C1732.91 17.0345 1744.83 7.58026 1757.31 7.68149e-05L1753.69 7.6657e-05C1744.01 6.0366 1734.67 13.198 1725.66 21.5804C1733.72 13.4543 1741.93 6.28411 1750.3 7.65084e-05L1746.98 7.63634e-05C1740.74 4.75371 1734.59 10.0046 1728.53 15.7527C1734.17 10.0878 1739.82 4.83695 1745.48 7.62981e-05L1742.31 7.61595e-05C1737.32 4.30877 1732.35 8.9265 1727.38 13.8532C1732.18 8.96775 1736.95 4.35002 1741.68 7.61319e-05L1738.55 7.5995e-05C1711.13 25.3782 1682.68 59.3244 1651.69 103.372L1651.66 103.428C1609.29 182.837 1525.92 199.42 1426.7 199.701C1427.9 199.357 1429.1 198.998 1430.3 198.645C1523.43 190.602 1603.2 166.617 1654.24 92.2352C1685.35 54.4326 1712.82 23.9926 1738.15 7.59776e-05L1735.05 7.58418e-05C1709.82 23.9616 1682.53 54.2249 1651.73 91.6639L1651.7 91.7059C1602.58 163.324 1526.5 187.839 1437.45 196.508C1438.01 196.337 1438.56 196.151 1439.11 195.978C1447.67 194.302 1456.12 192.457 1464.46 190.441C1537.67 172.664 1601.9 140.692 1654.24 80.5798C1684.54 48.816 1710.81 22.113 1734.38 7.58128e-05L1731.26 7.56762e-05C1707.81 22.029 1681.74 48.5276 1651.76 79.9555L1651.73 79.9776C1599.72 139.737 1535.95 171.501 1463.31 189.139C1459.58 190.046 1455.82 190.916 1452.04 191.749C1524.7 166.997 1589.86 127.489 1654.17 68.9587C1666.26 57.9586 1675.65 49.3718 1684.64 41.1618C1701.04 26.1738 1716.04 12.4709 1729.89 7.56165e-05L1726.72 7.54779e-05C1713.08 12.2853 1698.35 25.7462 1682.26 40.4491C1671.94 49.8746 1661.06 59.8183 1651.8 68.246C1583.82 130.125 1514.84 170.64 1436.92 194.877C1431.03 196.017 1425.08 197.082 1419.08 198.074C1412.09 198.589 1405.02 199.027 1397.88 199.385C1390.25 199.207 1382.54 198.96 1374.77 198.666C1366.54 197.844 1358.24 196.974 1349.88 196.084L1337.73 194.135C1333.01 193.377 1328.28 192.619 1323.54 191.86C1314.47 189.986 1305.36 188.123 1296.19 186.274C1286.92 184.017 1277.61 181.797 1268.27 179.614C1258.78 177.036 1249.27 174.514 1239.74 172.05C1230.27 169.264 1220.79 166.554 1211.29 163.92C1201.83 160.973 1192.37 158.113 1182.9 155.339C1173.41 152.245 1163.91 149.251 1154.42 146.358C1144.98 143.18 1135.55 140.109 1126.13 137.147C1116.79 133.918 1107.46 130.805 1098.16 127.806C1088.84 124.522 1079.56 121.358 1070.3 118.314C1061.18 115.043 1052.09 111.894 1043.02 108.867C1033.91 105.552 1024.83 102.365 1015.79 99.3037C1006.55 95.9033 997.343 92.6366 988.167 89.5037C979.208 86.1821 970.286 82.9879 961.402 79.9212C952.477 76.5857 943.589 73.3772 934.74 70.2957C925.687 66.8894 916.67 63.6154 907.689 60.4735C813.122 24.7251 723.033 3.20448 646.61 8.70066C592.672 12.5769 564.613 73.9134 537.877 132.348C534.891 138.874 531.924 145.364 528.938 151.731C462.93 156.678 383.395 181.356 306.055 205.36C239.149 226.124 173.896 246.378 120.807 252.794C71.6589 258.732 32.2579 253.777 -2.61866e-05 248.764L-2.62518e-05 250.254C32.4375 255.278 71.9991 260.163 121.419 254.19C174.925 247.725 240.362 227.415 307.45 206.593C384.164 182.787 463.029 158.311 528.234 153.222L526.856 156.142C466.155 162.91 394.851 186.892 324.6 210.524C257.708 233.024 191.77 255.204 137.229 261.765C83.1005 268.23 38.7479 260.21 2.25279 253.61L-2.63807e-05 253.205L-2.64469e-05 254.717L1.36307 254.964C38.2048 261.626 82.961 269.719 137.84 263.165C192.848 256.547 258.985 234.301 326.081 211.732C395.639 188.334 466.233 164.592 526.116 157.692L524.741 160.565C469.128 168.97 405.479 192.278 342.094 215.5C275.667 239.832 209.529 264.06 153.652 270.75C99.6458 277.124 53.461 267.908 14.5947 260.148C9.61564 259.154 4.75286 258.184 0.0126534 257.275L0.0126534 258.806C4.45065 259.662 8.98164 260.567 13.6225 261.493C52.8502 269.322 99.4513 278.62 154.271 272.15C210.651 265.4 277.016 241.091 343.668 216.679C406.303 193.736 469.2 170.698 523.976 162.176L522.606 164.977C471.831 174.836 415.232 197.525 358.4 220.305C292.908 246.548 227.111 272.931 170.077 279.72C116.09 286.018 68.1317 275.659 26.9598 266.762C17.6273 264.746 8.64139 262.804 -2.67277e-05 261.143L-2.67945e-05 262.67C8.31171 264.282 16.9531 266.149 25.92 268.084C67.4597 277.06 115.842 287.518 170.683 281.115C228.308 274.252 294.339 247.78 360.066 221.429C416.069 198.974 471.871 176.611 521.765 166.654L520.41 169.37C474.192 180.517 424.023 202.642 373.388 224.976C309.324 253.232 244.504 281.823 186.504 288.694C132.47 294.932 82.794 283.468 39.3904 273.446C25.6241 270.279 12.4855 267.245 -2.68944e-05 264.956L-2.69608e-05 266.475C12.1157 268.726 24.9014 271.678 38.283 274.763C82.067 284.869 132.176 296.434 187.095 290.092C245.757 283.142 310.833 254.438 375.148 226.071C424.905 204.125 474.204 182.382 519.489 171.17C519.045 172.046 518.599 172.918 518.151 173.785C476.174 186.073 431.815 207.715 386.928 229.618C324.796 259.933 261.65 290.748 202.926 297.669C148.768 303.857 97.4268 291.329 51.8527 280.21C33.6125 275.758 16.2726 271.53 -2.70622e-05 268.794L-2.71279e-05 270.298C15.8838 273.011 32.8496 277.148 50.6988 281.507C96.6765 292.723 148.47 305.361 203.512 299.076C262.964 292.072 326.394 261.122 388.792 230.677C432.732 209.241 476.164 188.045 517.139 175.737L515.822 178.235C477.736 191.544 438.569 212.811 398.938 234.33C339.251 266.74 278.495 299.729 219.345 306.657C165.032 312.795 112.066 299.239 64.3615 287.033C41.6157 281.2 20.0492 275.681 -2.72333e-05 272.71L-2.72983e-05 274.197C19.6033 277.158 40.8084 282.584 63.1675 288.305C111.28 300.617 164.709 314.288 219.935 308.046C279.903 301.024 340.948 267.876 400.918 235.312C439.529 214.347 477.698 193.626 514.687 180.358C514.265 181.149 513.837 181.935 513.403 182.717C478.841 196.971 444.271 217.983 409.382 239.197C352.635 273.704 295.021 308.732 235.782 315.624C181.286 321.72 126.713 307.166 76.9232 293.887C49.6443 286.612 23.7855 279.714 -0.00214074 276.749L-0.00214081 278.223C23.2847 281.193 48.7863 287.994 75.6763 295.166C125.876 308.554 180.901 323.233 236.349 317.027C296.501 310.025 354.417 274.809 411.466 240.128C445.252 219.587 478.736 199.232 512.08 185.106C511.665 185.842 511.251 186.573 510.837 187.298C479.433 202.452 448.916 223.368 418.26 244.378C364.918 280.939 311.163 317.782 252.201 324.6C197.478 330.661 141.344 315.134 89.5102 300.797C57.694 291.997 27.4881 283.641 -2.75922e-05 280.919L-2.76559e-05 282.377C26.9386 285.111 56.7979 293.371 88.2338 302.065C140.488 316.518 197.07 332.17 252.772 326.002L252.782 326.002C312.731 319.074 366.792 282.024 420.441 245.25C449.897 225.061 479.23 204.957 509.25 190.042C508.853 190.717 508.455 191.387 508.056 192.053C479.479 208.11 452.537 229.086 425.661 250.009C376.171 288.536 326.905 326.892 268.619 333.579C213.641 339.605 155.979 323.133 102.135 307.754C65.7859 297.367 31.1526 287.479 -2.77812e-05 285.245L-2.78444e-05 286.689C30.5588 288.939 64.8392 298.733 100.825 309.01C155.095 324.511 213.227 341.116 269.19 334.977C328.547 328.167 378.126 289.57 427.925 250.8C453.479 230.91 479.097 210.964 506.05 195.31C505.67 195.92 505.289 196.526 504.907 197.129C478.913 214.109 455.199 235.267 431.739 256.196C386.514 296.548 342.237 336.037 285.032 342.549C229.778 348.547 170.599 331.15 114.784 314.739C75.5178 303.194 37.8878 292.132 4.1569 289.936C2.76421 289.846 1.37998 289.774 -2.79767e-05 289.715L-2.80395e-05 291.152C1.26797 291.208 2.53597 291.275 3.82299 291.357C37.0213 293.518 74.4189 304.513 113.452 315.991C169.705 332.528 229.345 350.063 285.611 343.947C343.983 337.302 388.555 297.538 434.1 256.913C456.057 237.35 478.228 217.571 502.225 201.247L502.128 201.391C501.791 201.891 501.458 202.392 501.128 202.895C477.67 220.779 457 242.137 436.748 263.057C396.117 305.034 357.2 345.236 301.463 351.528C245.899 357.503 185.229 339.199 127.476 321.77C85.5667 309.124 45.1725 296.935 9.04504 294.686C5.99761 294.496 2.98259 294.38 -2.81787e-05 294.336L-2.82415e-05 295.773C2.87833 295.813 5.78628 295.924 8.72381 296.104C44.3123 298.32 84.4615 310.435 126.113 323.003C184.316 340.566 245.449 359.011 302.027 352.924L302.044 352.924C359.053 346.487 398.26 305.984 439.199 263.694C457.82 244.459 476.802 224.851 497.939 207.959L497.227 209.151C476.14 227.965 458.264 249.639 440.941 270.642C405.191 313.986 371.805 354.463 317.894 360.496C262.013 366.451 199.877 347.256 140.199 328.82C95.6854 315.069 52.5248 301.735 13.9818 299.433C9.34338 299.15 4.67252 299.039 0.00419828 299.101L0.00419822 300.538C4.5684 300.47 9.13592 300.576 13.6711 300.853C51.635 303.121 94.5484 316.378 138.802 330.048C198.932 348.624 261.533 367.963 318.452 361.894L318.462 361.894C373.766 355.706 407.423 314.9 443.462 271.204C459.168 252.162 475.333 232.567 493.901 215.09L493.596 215.667C474.636 235.515 459.303 257.722 444.616 278.996C413.958 323.404 386.119 363.726 334.319 369.469C278.104 375.404 214.512 355.335 152.936 335.902C105.838 321.038 59.9045 306.541 18.9502 304.189C12.658 303.816 6.31128 303.764 -2.86026e-05 304.035L-2.8666e-05 305.485C6.20799 305.207 12.4535 305.254 18.6438 305.624C58.9958 307.944 104.675 322.363 151.513 337.145C213.54 356.72 277.595 376.935 334.866 370.884L334.883 370.884C388.169 364.976 416.257 324.297 447.181 279.492C460.032 260.877 473.387 241.546 489.205 223.736C472.706 244.399 460.041 266.847 448.056 288.114C422.603 333.254 400.177 373.028 350.746 378.456C294.176 384.379 229.149 363.451 165.685 343.03C116.022 327.046 67.3096 311.366 23.9377 308.953C15.7485 308.499 7.76013 308.518 -2.88236e-05 309.09L-2.88874e-05 310.55C7.66503 309.958 15.5583 309.929 23.6482 310.378C66.3903 312.752 114.849 328.349 164.257 344.249C228.164 364.816 293.652 385.894 351.287 379.859C402.343 374.258 424.991 334.099 450.692 288.519C460.5 271.122 470.768 252.931 483.197 235.59C470.141 256.112 460.559 277.672 451.562 297.929C431.342 343.454 414.07 382.335 367.179 387.427C310.218 393.339 243.777 371.566 178.473 350.168C126.244 333.057 74.7317 316.178 28.9526 313.719C19.001 313.185 9.33245 313.333 -2.90513e-05 314.299L-2.91159e-05 315.778ZM1654.23 80.5821L1654.23 80.5743L1654.23 80.5821ZM1654.32 290.245L1654.32 290.236L1654.32 290.245Z" fill="white"/>
</mask>
<g mask="url(#mask0_436_806)">
<path d="M-2.25549e-05 515.997L0 0L1902 8.31391e-05L1902 515.997L-2.25549e-05 515.997Z" fill="#C7C7C7"/>
</g>
</svg>
