<svg width="1902" height="383" viewBox="0 0 1902 383" fill="none" xmlns="http://www.w3.org/2000/svg">
<mask id="mask0_484_2078" style="mask-type:luminance" maskUnits="userSpaceOnUse" x="-1" y="0" width="1904" height="383">
<path d="M240.477 267.968L241.204 266.102L241.132 265.816C240.908 266.54 240.69 267.258 240.477 267.97M240.798 276.102C241.465 274.539 242.157 272.95 242.876 271.334C242.716 270.936 242.563 270.533 242.415 270.124C241.791 271.779 241.2 273.398 240.642 274.981C240.688 275.358 240.743 275.729 240.798 276.1L240.798 276.102ZM238.112 282.638L239.04 280.322L238.951 279.972C238.661 280.871 238.381 281.759 238.112 282.636L238.112 282.638ZM922.473 77.6608L922.585 77.6197L922.458 77.6646L922.473 77.6608ZM242.208 282.262C243.159 280.235 244.151 278.165 245.186 276.053C244.877 275.53 244.581 274.994 244.298 274.446C243.391 276.53 242.53 278.568 241.718 280.559C241.87 281.139 242.033 281.707 242.208 282.262ZM238.514 290.409C239.228 288.776 239.971 287.114 240.741 285.423C240.574 285.026 240.413 284.622 240.259 284.212C239.587 285.931 238.953 287.615 238.357 289.264C238.401 289.651 238.453 290.033 238.514 290.409ZM235.555 297.412C235.951 296.438 236.357 295.451 236.772 294.451L236.66 294.025C236.28 295.175 235.915 296.304 235.566 297.412L235.555 297.412ZM905.463 83.8731L907.191 83.5054C909.189 82.7317 911.185 81.9625 913.178 81.1977L911.87 81.5091C909.736 82.2917 907.6 83.0797 905.463 83.8731ZM895.107 86.1206L895.342 86.069L897.092 85.41L895.107 86.1206ZM243.248 251.762L243.195 251.532L242.726 253.143L243.248 251.762ZM244.911 257.12C244.759 256.725 244.612 256.324 244.471 255.919C243.894 257.511 243.344 259.071 242.823 260.6C242.871 260.968 242.921 261.333 242.975 261.693C243.599 260.194 244.246 258.669 244.915 257.12L244.911 257.12ZM247.178 261.991C246.88 261.457 246.591 260.916 246.316 260.359C245.471 262.381 244.663 264.361 243.892 266.298C244.04 266.879 244.199 267.451 244.368 268.012C245.271 266.041 246.209 264.035 247.183 261.993L247.178 261.991ZM250.033 266.322C249.592 265.749 249.173 265.167 248.766 264.567C247.655 266.929 246.599 269.236 245.595 271.489C245.87 272.159 246.162 272.811 246.473 273.447L247.677 271.042C248.483 269.456 249.27 267.883 250.038 266.324L250.033 266.322ZM888.672 90.1915C889.628 90.0004 890.574 89.8256 891.536 89.6432C894.168 88.6002 896.799 87.5629 899.429 86.5313L896.773 87.1206C894.078 88.1325 891.379 89.1554 888.677 90.1896L888.672 90.1915ZM877.991 92.3377C878.638 92.203 879.289 92.0636 879.936 91.9318C882.028 91.1262 884.118 90.3245 886.206 89.5267L884.67 89.8877C882.446 90.6977 880.222 91.5137 877.996 92.3358L877.991 92.3377ZM867.526 94.5603L867.991 94.4648L871.392 93.1964L867.526 94.5603ZM245.171 237.294L245.126 237.111L244.778 238.372L245.171 237.294ZM246.834 242.791C246.688 242.396 246.547 241.995 246.411 241.592C245.879 243.129 245.37 244.64 244.885 246.126L245.033 247.204C245.608 245.756 246.207 244.286 246.83 242.794L246.834 242.791ZM249.011 247.672C248.746 247.168 248.491 246.656 248.246 246.136C247.447 248.11 246.685 250.042 245.961 251.934C246.102 252.522 246.258 253.1 246.428 253.669C246.838 252.749 247.255 251.821 247.677 250.885C248.129 249.809 248.573 248.738 249.006 247.672L249.011 247.672ZM251.705 252.044C251.337 251.531 250.98 251.01 250.636 250.474L250.367 251.115L250.367 251.125C249.419 253.211 248.513 255.256 247.647 257.259C247.91 257.93 248.191 258.585 248.493 259.224C249.597 256.801 250.667 254.409 251.701 252.047L251.705 252.044ZM254.974 255.997C254.46 255.461 253.967 254.908 253.495 254.339C252.489 256.604 251.448 258.896 250.372 261.216L249.949 262.075C250.334 262.743 250.738 263.393 251.162 264.023C252.484 261.311 253.753 258.637 254.97 256L254.974 255.997ZM871.823 96.6961C873.07 96.4773 874.316 96.2586 875.561 96.0456C878.68 94.7823 881.798 93.5272 884.913 92.2804C883.729 92.5163 882.548 92.7503 881.36 92.992C878.182 94.2178 875.003 95.4525 871.823 96.6961ZM861.059 98.6675C862.084 98.4765 863.109 98.2854 864.134 98.0944C866.851 97.0246 869.566 95.9603 872.279 94.9013L869.407 95.525C866.626 96.5636 863.843 97.6111 861.059 98.6675ZM850.281 100.78L852.454 100.339C854.643 99.5017 856.833 98.6675 859.022 97.8365L857.213 98.2568C854.908 99.091 852.6 99.9318 850.288 100.779L850.281 100.78ZM839.715 102.97L840.425 102.821L844.863 101.181L844.725 101.214C843.064 101.796 841.398 102.38 839.727 102.966L839.715 102.97ZM248.497 216.82L248.565 217.267C248.933 215.856 249.289 214.457 249.634 213.071C249.24 214.338 248.861 215.587 248.497 216.82ZM246.916 222.748L246.88 222.603L246.629 223.602L246.916 222.748ZM248.514 228.077C248.402 227.765 248.292 227.455 248.187 227.14C247.695 228.621 247.226 230.079 246.779 231.512C246.828 231.877 246.876 232.243 246.931 232.602L247.664 230.72L248.514 228.077ZM250.541 232.875C250.365 232.521 250.192 232.167 250.027 231.805C249.276 233.724 248.563 235.608 247.886 237.454C248.02 238.001 248.161 238.539 248.309 239.07C249.083 236.98 249.826 234.915 250.541 232.875ZM253.087 237.351C252.789 236.898 252.5 236.438 252.219 235.968C251.621 237.636 251.005 239.319 250.37 241.016L250.37 241.031L249.581 242.902C249.793 243.475 250.025 244.048 250.264 244.6C251.245 242.149 252.186 239.734 253.087 237.356L253.087 237.351ZM256.169 241.449C255.73 240.939 255.308 240.419 254.901 239.887C253.906 242.461 252.865 245.074 251.779 247.725C252.109 248.335 252.449 248.936 252.806 249.518C253.981 246.784 255.102 244.095 256.169 241.449ZM259.789 245.152C259.211 244.632 258.647 244.096 258.098 243.543C256.955 246.331 255.754 249.164 254.495 252.044C254.958 252.673 255.442 253.28 255.942 253.872C257.293 250.912 258.576 248.006 259.789 245.152ZM854.846 103.412C856.307 103.182 857.765 102.951 859.223 102.73C862.755 101.27 866.285 99.8194 869.813 98.379C868.393 98.6338 866.97 98.8936 865.546 99.1585C861.983 100.565 858.416 101.983 854.846 103.412ZM844.068 105.184C845.379 104.958 846.689 104.738 847.997 104.515C851.206 103.222 854.415 101.938 857.623 100.663C856.376 100.905 855.127 101.146 853.876 101.395C850.61 102.649 847.341 103.912 844.068 105.184ZM833.233 107.104C834.326 106.903 835.416 106.708 836.509 106.512C839.317 105.412 842.127 104.319 844.939 103.231L841.875 103.877C838.995 104.945 836.115 106.021 833.235 107.104L833.233 107.104ZM822.352 109.177L824.725 108.716C827.023 107.843 829.319 106.975 831.614 106.112L829.592 106.568C827.18 107.432 824.767 108.301 822.354 109.174L822.352 109.177ZM811.603 111.348L812.611 111.139C814.21 110.552 815.809 109.967 817.409 109.384L816.986 109.487C815.192 110.106 813.399 110.727 811.605 111.348L811.603 111.348ZM251.701 217.424L251.435 216.837C251.092 218.152 250.74 219.476 250.378 220.81L250.367 220.834L249.657 222.83L249.869 223.69C250.514 221.576 251.125 219.488 251.701 217.424ZM254.119 222.066C253.907 221.69 253.675 221.309 253.459 220.92C252.762 223.292 252.027 225.699 251.255 228.14C251.407 228.56 251.568 228.974 251.733 229.381C252.577 226.908 253.375 224.47 254.127 222.066L254.119 222.066ZM257.029 226.378C256.669 225.908 256.319 225.423 255.972 224.935C255.127 227.546 254.235 230.198 253.299 232.893C253.572 233.436 253.854 233.97 254.144 234.493C255.168 231.743 256.133 229.038 257.037 226.378L257.029 226.378ZM260.442 230.311C259.941 229.801 259.455 229.28 258.981 228.745C258.004 231.552 256.967 234.408 255.87 237.314C256.272 237.911 256.687 238.495 257.115 239.064C258.296 236.091 259.407 233.173 260.45 230.311L260.442 230.311ZM264.356 233.855C263.722 233.343 263.098 232.82 262.494 232.278C261.395 235.247 260.225 238.272 258.984 241.352C259.518 241.957 260.07 242.548 260.638 243.117C261.964 239.966 263.206 236.879 264.364 233.855L264.356 233.855ZM1357.03 154.954L1355.24 154.83L1355.59 154.974L1357.45 155.179L1357.03 154.954ZM837.697 110.354C839.307 110.133 840.914 109.919 842.517 109.709C846.404 108.071 850.291 106.443 854.176 104.825C852.581 105.08 850.983 105.343 849.386 105.608C845.488 107.177 841.592 108.759 837.697 110.354ZM826.957 111.912C828.478 111.681 829.998 111.452 831.517 111.231C835.13 109.744 838.742 108.268 842.354 106.803C840.871 107.062 839.386 107.325 837.899 107.592C834.252 109.022 830.602 110.462 826.95 111.912L826.957 111.912ZM816.088 113.631C817.47 113.404 818.85 113.176 820.228 112.956C823.525 111.637 826.821 110.326 830.118 109.024C828.797 109.273 827.473 109.526 826.147 109.782C822.794 111.056 819.441 112.34 816.088 113.633L816.088 113.631ZM805.12 115.509C806.295 115.3 807.472 115.091 808.645 114.888C811.552 113.759 814.46 112.637 817.368 111.522C816.282 111.742 815.196 111.96 814.108 112.185C811.116 113.286 808.12 114.395 805.12 115.511L805.12 115.509ZM794.115 117.526L796.755 117.029C799.161 116.123 801.567 115.224 803.972 114.332C803.224 114.493 802.478 114.651 801.73 114.815C799.191 115.713 796.653 116.617 794.115 117.528L794.115 117.526ZM783.227 119.644L784.627 119.367C786.368 118.735 788.108 118.106 789.847 117.481L788.986 117.672C787.067 118.328 785.148 118.986 783.227 119.646L783.227 119.644ZM252.388 201.023L252.356 200.945L251.889 203.388L252.388 201.023ZM254.712 205.978C254.564 205.702 254.417 205.429 254.273 205.148C253.736 207.576 253.158 210.04 252.54 212.54L252.829 213.376C253.499 210.871 254.125 208.406 254.708 205.98L254.712 205.978ZM257.485 210.583C257.202 210.164 256.921 209.741 256.64 209.31C255.969 211.967 255.246 214.671 254.471 217.422C254.686 217.886 254.905 218.344 255.129 218.796C255.973 216.011 256.757 213.273 257.481 210.585L257.485 210.583ZM260.719 214.826C260.296 214.335 259.89 213.831 259.489 213.321C258.693 216.168 257.834 219.068 256.912 222.021C257.248 222.577 257.597 223.119 257.954 223.654C258.942 220.653 259.862 217.711 260.714 214.828L260.719 214.826ZM264.413 218.676C263.862 218.161 263.322 217.634 262.794 217.094C261.885 220.092 260.902 223.148 259.846 226.264C260.311 226.859 260.788 227.439 261.279 228.006C262.406 224.83 263.449 221.721 264.408 218.678L264.413 218.676ZM268.565 222.146C267.887 221.637 267.217 221.118 266.564 220.579C265.555 223.699 264.462 226.889 263.284 230.149C263.88 230.74 264.493 231.309 265.123 231.864C266.365 228.55 267.511 225.311 268.561 222.148L268.565 222.146ZM1346.27 152.802L1344.48 152.723L1344.64 152.776L1346.57 152.928L1346.27 152.802ZM1353.52 153.096L1350.74 152.988L1351.5 153.304L1354.29 153.507L1353.52 153.096ZM820.268 117.558C821.998 117.355 823.726 117.16 825.452 116.971C829.649 115.168 833.848 113.376 838.049 111.596C836.329 111.834 834.605 112.079 832.878 112.331C828.674 114.061 824.471 115.803 820.268 117.558ZM809.627 118.876C811.301 118.657 812.971 118.445 814.636 118.238C818.609 116.573 822.584 114.917 826.561 113.271C824.909 113.525 823.25 113.787 821.593 114.05C817.604 115.647 813.614 117.256 809.621 118.876L809.627 118.876ZM798.818 120.365C800.397 120.137 801.975 119.915 803.551 119.696C807.267 118.18 810.983 116.673 814.701 115.175C813.152 115.434 811.599 115.702 810.052 115.97C806.304 117.425 802.56 118.89 798.818 120.365ZM787.854 122.019C789.297 121.792 790.738 121.572 792.18 121.351C795.589 119.998 799.001 118.653 802.414 117.317C801.015 117.572 799.612 117.834 798.209 118.094C794.756 119.394 791.304 120.702 787.854 122.019ZM776.754 123.834C778.005 123.622 779.257 123.413 780.51 123.208C783.536 122.046 786.565 120.889 789.597 119.738C788.415 119.969 787.233 120.203 786.051 120.438C782.949 121.561 779.85 122.692 776.754 123.831L776.754 123.834ZM765.604 125.786C766.602 125.607 767.597 125.431 768.595 125.253C771.139 124.309 773.684 123.37 776.228 122.436L773.559 122.993C770.909 123.917 768.257 124.847 765.604 125.783L765.604 125.786ZM754.626 127.827L756.388 127.495C758.282 126.819 760.175 126.145 762.069 125.474L760.833 125.745C758.766 126.434 756.697 127.127 754.626 127.825L754.626 127.827ZM254.638 188.671L254.438 188.225C254.093 190.702 253.704 193.219 253.273 195.777L253.364 196.077C253.835 193.564 254.259 191.094 254.638 188.668L254.638 188.671ZM257.339 193.773C257.128 193.423 256.929 193.066 256.726 192.71C256.257 195.43 255.732 198.2 255.152 201.02C255.302 201.382 255.456 201.739 255.613 202.096C256.245 199.264 256.821 196.489 257.339 193.77L257.339 193.773ZM260.446 198.433C260.104 197.974 259.768 197.508 259.44 197.034C258.852 199.938 258.197 202.901 257.474 205.924C257.747 206.43 258.03 206.927 258.32 207.418C259.103 204.355 259.812 201.36 260.446 198.431L260.446 198.433ZM263.958 202.684C263.489 202.174 263.029 201.655 262.578 201.124C261.885 204.171 261.11 207.286 260.254 210.469C260.648 211.042 261.055 211.604 261.475 212.153C262.398 208.924 263.226 205.768 263.958 202.684ZM267.889 206.541C267.297 206.017 266.717 205.482 266.148 204.933C265.36 208.097 264.482 211.336 263.512 214.651C264.03 215.247 264.569 215.832 265.108 216.398C266.145 213.031 267.075 209.747 267.898 206.544L267.889 206.541ZM272.23 210.011C271.516 209.496 270.82 208.971 270.136 208.427C269.269 211.686 268.3 215.029 267.228 218.456C267.87 219.041 268.529 219.608 269.206 220.158C270.336 216.685 271.347 213.303 272.238 210.014L272.23 210.011ZM1334.63 150.975L1333.58 150.955L1334.75 151.016L1334.63 150.975ZM1342.32 151.111L1339.45 151.063L1340.09 151.278L1343.02 151.415L1342.32 151.111ZM1350.06 151.213L1346.42 151.169L1347.45 151.61L1351.05 151.757L1350.06 151.213ZM1384.08 163.165C1383.14 162.738 1382.19 162.316 1381.24 161.899L1381.81 162.351C1382.75 162.811 1383.69 163.275 1384.63 163.745L1384.08 163.165ZM1391.53 166.651C1390.84 166.317 1390.15 165.986 1389.45 165.656L1390.64 166.861L1392.3 167.75L1391.53 166.651ZM802.564 125.017C804.396 124.844 806.219 124.677 808.034 124.517C812.501 122.566 816.972 120.624 821.445 118.69C819.628 118.902 817.807 119.12 815.984 119.345C811.508 121.224 807.035 123.115 802.564 125.017ZM792.019 126.099C793.811 125.903 795.602 125.712 797.391 125.525C801.67 123.698 805.954 121.883 810.242 120.081C808.463 120.315 806.681 120.555 804.896 120.801C800.603 122.554 796.31 124.32 792.019 126.099ZM781.294 127.34C783.028 127.126 784.761 126.919 786.493 126.718C790.556 125.028 794.623 123.348 798.695 121.678C796.98 121.926 795.266 122.181 793.553 122.442C789.472 124.067 785.388 125.701 781.302 127.345L781.294 127.34ZM770.383 128.752C772.031 128.529 773.677 128.309 775.322 128.095C779.134 126.552 782.949 125.02 786.765 123.5C785.153 123.754 783.54 124.016 781.924 124.284C778.077 125.765 774.23 127.255 770.383 128.755L770.383 128.752ZM759.307 130.32C760.833 130.096 762.356 129.873 763.878 129.652C767.387 128.275 770.899 126.906 774.413 125.545C772.94 125.799 771.466 126.058 769.99 126.319C766.428 127.649 762.867 128.985 759.307 130.325L759.307 130.32ZM748.083 132.046C749.448 131.83 750.812 131.616 752.174 131.405C755.324 130.21 758.478 129.021 761.634 127.841C760.336 128.082 759.038 128.327 757.741 128.571C754.52 129.726 751.301 130.886 748.083 132.051L748.083 132.046ZM736.861 133.896L740.194 133.335C742.871 132.356 745.555 131.381 748.245 130.41C747.248 130.607 746.25 130.805 745.253 131.005C742.455 131.965 739.658 132.931 736.861 133.901L736.861 133.896ZM725.749 135.839L727.932 135.447C729.992 134.725 732.053 134.006 734.116 133.291L732.448 133.641C730.218 134.373 727.985 135.107 725.749 135.844L725.749 135.839ZM714.984 137.821L715.36 137.751L717.346 137.088L714.984 137.821ZM256.316 175.284L255.949 174.535C255.726 177.307 255.444 180.137 255.103 183.024L255.357 183.711C255.737 180.843 256.057 178.036 256.316 175.289L256.316 175.284ZM259.4 180.692C259.138 180.282 258.88 179.863 258.628 179.443C258.294 182.421 257.886 185.466 257.403 188.578C257.614 189.018 257.825 189.456 258.037 189.886C258.575 186.75 259.029 183.687 259.4 180.697L259.4 180.692ZM262.823 185.528C262.437 185.034 262.057 184.533 261.682 184.026C261.245 187.151 260.719 190.352 260.104 193.629C260.433 194.175 260.769 194.712 261.112 195.24C261.779 191.921 262.35 188.685 262.823 185.533L262.823 185.528ZM266.602 189.893C266.097 189.363 265.6 188.821 265.123 188.27C264.592 191.511 263.958 194.839 263.221 198.251C263.667 198.844 264.123 199.429 264.592 199.999C265.374 196.538 266.044 193.171 266.602 189.898L266.602 189.893ZM270.727 193.827C270.11 193.293 269.51 192.743 268.916 192.185C268.312 195.516 267.593 198.942 266.758 202.461C267.322 203.061 267.897 203.646 268.483 204.217C269.359 200.652 270.105 197.19 270.721 193.831L270.727 193.827ZM275.197 197.361C274.476 196.843 273.771 196.305 273.084 195.76C272.419 199.159 271.629 202.661 270.715 206.267C271.389 206.851 272.08 207.413 272.786 207.969C273.73 204.321 274.533 200.786 275.197 197.363L275.197 197.361ZM1330.25 149.448L1327.37 149.461L1327.86 149.592L1330.85 149.658L1330.25 149.448ZM1338.42 149.391L1334.66 149.421L1335.62 149.756L1339.39 149.825L1338.42 149.391ZM1346.63 149.305L1342.25 149.356L1343.47 149.891L1347.78 149.95L1346.63 149.305ZM1351.74 149.995L1351.09 149.826L1351.39 149.991L1351.74 149.995ZM1370.65 155.701C1369.13 155.179 1367.6 154.669 1366.08 154.172C1367.73 154.767 1369.37 155.378 1371 156.005L1370.65 155.701ZM1380.52 159.29C1379 158.708 1377.48 158.139 1375.96 157.583L1376.86 158.336C1378.37 158.957 1379.87 159.591 1381.37 160.239L1380.52 159.29ZM1388.76 162.582C1387.55 162.079 1386.34 161.585 1385.13 161.098L1386.39 162.455C1387.5 162.956 1388.6 163.466 1389.7 163.983L1388.76 162.582ZM784.557 132.746C786.459 132.606 788.361 132.475 790.263 132.351C794.973 130.258 799.693 128.177 804.422 126.107C802.524 126.285 800.622 126.47 798.716 126.664C793.985 128.679 789.264 130.707 784.552 132.746L784.557 132.746ZM774.121 133.582C776.009 133.418 777.893 133.261 779.772 133.112C784.327 131.138 788.886 129.173 793.448 127.217C791.57 127.42 789.689 127.631 787.805 127.849C783.237 129.748 778.675 131.659 774.117 133.582L774.121 133.582ZM763.493 134.58C765.349 134.394 767.201 134.215 769.049 134.041C773.417 132.191 777.795 130.351 782.183 128.521C780.352 128.746 778.511 128.978 776.661 129.216C772.264 130.994 767.873 132.782 763.489 134.581L763.493 134.58ZM752.66 135.74C754.461 135.536 756.259 135.338 758.056 135.146C762.227 133.427 766.402 131.719 770.579 130.023C768.804 130.266 767.027 130.514 765.247 130.766C761.045 132.413 756.848 134.071 752.656 135.74L752.66 135.74ZM741.643 137.05C743.368 136.835 745.09 136.624 746.811 136.419C750.741 134.849 754.674 133.289 758.607 131.739C756.917 131.993 755.226 132.251 753.535 132.511C749.566 134.014 745.601 135.527 741.639 137.05L741.643 137.05ZM730.443 138.514C732.07 138.292 733.697 138.074 735.325 137.86C738.964 136.453 742.606 135.054 746.25 133.662C744.674 133.917 743.096 134.176 741.517 134.44C737.823 135.79 734.131 137.148 730.443 138.514ZM719.172 140.109C720.639 139.894 722.104 139.682 723.566 139.473C726.856 138.245 730.15 137.025 733.448 135.812C732.059 136.054 730.667 136.298 729.274 136.545C725.906 137.725 722.537 138.913 719.17 140.109L719.172 140.109ZM707.862 141.821L711.543 141.248C714.388 140.229 717.234 139.217 720.083 138.21L716.715 138.838C713.761 139.829 710.811 140.823 707.862 141.821ZM696.591 143.636L699.261 143.197C701.515 142.429 703.769 141.665 706.023 140.904L703.853 141.33C701.43 142.092 699.009 142.86 696.591 143.633L696.591 143.636ZM685.72 145.474L686.684 145.309L690.911 143.943L690.685 143.99L685.72 145.474ZM252.954 142.677L252.977 142.76C252.908 142.14 252.838 141.524 252.766 140.911L252.954 142.677ZM253.753 153.389L253.719 153.309C253.797 155.219 253.843 157.162 253.859 159.136C253.856 157.186 253.821 155.269 253.753 153.386L253.753 153.389ZM257.069 160.541C256.898 160.22 256.737 159.891 256.57 159.566C256.57 162.644 256.484 165.801 256.312 169.039L256.735 170.062C256.939 166.797 257.05 163.622 257.069 160.538L257.069 160.541ZM260.575 166.478C260.277 166.025 259.987 165.562 259.698 165.1C259.588 168.358 259.376 171.707 259.064 175.15C259.323 175.655 259.587 176.154 259.854 176.649C260.211 173.154 260.452 169.763 260.577 166.475L260.575 166.478ZM264.32 171.636C263.907 171.122 263.503 170.601 263.107 170.072C262.901 173.447 262.581 176.921 262.147 180.496C262.519 181.074 262.9 181.643 263.29 182.204C263.765 178.565 264.108 175.04 264.32 171.632L264.32 171.636ZM268.335 176.214C267.817 175.674 267.309 175.126 266.813 174.569C266.532 178.03 266.12 181.602 265.579 185.287C266.062 185.895 266.556 186.493 267.058 187.079C267.633 183.329 268.058 179.706 268.333 176.21L268.335 176.214ZM272.612 180.304C272.004 179.769 271.404 179.224 270.814 178.669C270.477 182.194 269.996 185.84 269.37 189.607C269.955 190.212 270.553 190.805 271.165 191.384C271.811 187.553 272.293 183.858 272.61 180.3L272.612 180.304ZM277.145 183.969C276.452 183.455 275.77 182.932 275.1 182.396C274.729 185.962 274.199 189.66 273.508 193.489C274.193 194.074 274.892 194.645 275.605 195.202C276.294 191.308 276.807 187.562 277.143 183.963L277.145 183.969ZM1317.33 148.123L1314.47 148.19L1314.72 148.245L1317.76 148.245L1317.33 148.123ZM1325.92 147.902L1322.08 148.003L1322.92 148.241L1326.82 148.23L1325.92 147.902ZM1334.55 147.654L1330 147.787L1331.19 148.21L1335.71 148.18L1334.55 147.654ZM1343.24 147.38L1338.17 147.545L1339.5 148.147L1344.48 148.097L1343.24 147.38ZM1348.84 148.049L1347.36 147.743L1347.92 148.059L1348.84 148.049ZM1355.28 149.476L1354.43 149.273L1355.34 149.518L1355.28 149.476ZM1367.05 152.542C1364.79 151.898 1362.52 151.285 1360.26 150.703L1360.73 151.033C1363.1 151.727 1365.45 152.456 1367.81 153.221L1367.05 152.542ZM1377.3 155.662C1375.42 155.053 1373.54 154.463 1371.65 153.894L1372.79 154.894C1374.65 155.535 1376.51 156.198 1378.37 156.881L1377.3 155.662ZM1386.2 158.676C1384.61 158.113 1383.03 157.564 1381.44 157.028L1382.79 158.55C1384.28 159.123 1385.76 159.709 1387.25 160.307L1386.2 158.676ZM766.232 140.74C768.198 140.641 770.16 140.548 772.12 140.461C777.051 138.239 781.989 136.027 786.934 133.825C784.976 133.964 783.012 134.112 781.042 134.268C776.099 136.413 771.162 138.571 766.232 140.74ZM755.896 141.336C757.86 141.209 759.819 141.09 761.773 140.981C766.573 138.865 771.379 136.759 776.192 134.664C774.24 134.831 772.283 135.005 770.321 135.187C765.507 137.225 760.699 139.275 755.896 141.336ZM745.359 142.084C747.309 141.933 749.257 141.789 751.204 141.652C755.854 139.652 760.512 137.661 765.18 135.68C763.244 135.871 761.305 136.07 759.362 136.277C754.687 138.203 750.019 140.139 745.359 142.084ZM734.634 142.977C736.552 142.805 738.469 142.64 740.384 142.481C744.864 140.604 749.351 138.738 753.846 136.881C751.944 137.095 750.042 137.315 748.14 137.541C743.633 139.343 739.131 141.155 734.634 142.977ZM723.714 144.013C725.586 143.822 727.457 143.64 729.325 143.465C733.613 141.723 737.904 139.989 742.197 138.264C740.351 138.496 738.505 138.731 736.656 138.972C732.339 140.643 728.025 142.323 723.714 144.013ZM712.598 145.192C714.415 144.99 716.232 144.792 718.048 144.6C722.101 143.004 726.161 141.416 730.225 139.838C728.441 140.082 726.657 140.331 724.872 140.584C720.776 142.112 716.685 143.648 712.598 145.192ZM701.374 146.496C703.092 146.289 704.812 146.082 706.526 145.883C710.305 144.448 714.088 143.02 717.875 141.6C716.207 141.847 714.539 142.098 712.87 142.354C709.04 143.727 705.208 145.108 701.374 146.496ZM690.044 147.92C691.617 147.716 693.188 147.514 694.757 147.315C698.2 146.062 701.646 144.812 705.095 143.567C703.594 143.807 702.092 144.049 700.59 144.294C697.07 145.497 693.555 146.705 690.044 147.92ZM678.632 149.457L682.741 148.892C685.759 147.842 688.778 146.795 691.801 145.753C690.532 145.968 689.265 146.185 687.997 146.403C684.873 147.416 681.752 148.434 678.634 149.457L678.632 149.457ZM667.343 151.064L670.488 150.609C672.942 149.797 675.398 148.988 677.857 148.182L675.169 148.665C672.559 149.461 669.951 150.261 667.345 151.064L667.343 151.064ZM656.368 152.703L657.998 152.456L662.991 150.906L662.047 151.084L656.368 152.703ZM258.753 142.855C259.005 143.338 259.265 143.81 259.52 144.288C258.806 139.408 257.77 134.819 256.414 130.519C257.412 134.427 258.192 138.539 258.753 142.855ZM254 131.95L254.19 132.474C254.009 131.701 253.82 130.937 253.624 130.182C253.751 130.766 253.876 131.355 254 131.95ZM256.088 143.167L255.625 142.246C256.028 145.757 256.304 149.392 256.452 153.151C256.625 153.579 256.801 154.004 256.98 154.427C256.842 150.525 256.545 146.772 256.088 143.167ZM260.222 150.297C259.937 149.857 259.66 149.409 259.376 148.959C259.658 152.604 259.794 156.387 259.782 160.308C260.074 160.857 260.37 161.398 260.67 161.932C260.701 157.898 260.552 154.02 260.222 150.297ZM264.347 156.089C263.962 155.6 263.586 155.102 263.214 154.6C263.407 158.318 263.433 162.183 263.293 166.197C263.688 166.791 264.091 167.378 264.499 167.956C264.644 163.83 264.594 159.874 264.347 156.089ZM268.589 161.062C268.119 160.553 267.656 160.039 267.198 159.522C267.326 163.295 267.273 167.226 267.037 171.315C267.529 171.924 268.031 172.523 268.542 173.111C268.775 168.912 268.79 164.896 268.589 161.062ZM272.961 165.442C272.424 164.946 271.895 164.441 271.374 163.929C271.468 167.737 271.361 171.713 271.053 175.859C271.63 176.456 272.221 177.038 272.819 177.612C273.111 173.36 273.158 169.303 272.961 165.442ZM277.467 169.3C276.878 168.83 276.295 168.353 275.717 167.868C275.81 171.7 275.682 175.714 275.332 179.909C275.987 180.478 276.657 181.035 277.34 181.58C277.647 177.275 277.689 173.182 277.467 169.3ZM1303.52 147.123L1300.99 147.23L1303.76 147.179L1303.52 147.123ZM1312.55 146.734L1308.68 146.905L1309.37 147.06L1313.36 146.971L1312.55 146.734ZM1321.62 146.32L1316.95 146.537L1318.07 146.86L1322.76 146.74L1321.62 146.32ZM1330.74 145.884L1325.46 146.14L1326.8 146.631L1332.02 146.483L1330.74 145.884ZM1339.9 145.425L1334.19 145.712L1335.63 146.373L1341.22 146.198L1339.9 145.425ZM1351.92 147.029C1349.2 146.528 1346.48 146.074 1343.78 145.668L1344.51 146.094L1345.34 146.066L1345.67 146.055L1345.97 146.112C1348.14 146.523 1350.31 146.966 1352.48 147.441L1351.92 147.029ZM1363.7 149.48C1361.23 148.907 1358.76 148.372 1356.3 147.875L1357.2 148.519C1359.71 149.119 1362.23 149.759 1364.74 150.439L1363.7 149.48ZM1374.32 152.14C1372.16 151.557 1370 150.999 1367.84 150.466L1369.17 151.671C1371.29 152.28 1373.41 152.915 1375.53 153.575L1374.32 152.14ZM1383.81 154.835C1381.91 154.269 1380.03 153.719 1378.14 153.188L1379.57 154.862C1381.36 155.445 1383.15 156.044 1384.94 156.659L1383.81 154.835ZM747.597 148.998C749.618 148.94 751.638 148.889 753.656 148.846C758.783 146.503 763.917 144.169 769.058 141.844C767.046 141.94 765.03 142.046 763.009 142.16C757.864 144.43 752.726 146.71 747.597 148.998ZM737.336 149.36C739.365 149.277 741.391 149.2 743.414 149.13C748.436 146.886 753.465 144.65 758.504 142.423C756.49 142.547 754.472 142.678 752.449 142.817C747.405 144.988 742.37 147.169 737.345 149.36L737.336 149.36ZM726.894 149.856C728.922 149.748 730.946 149.647 732.968 149.553C737.873 147.413 742.785 145.281 747.704 143.16C745.686 143.312 743.667 143.471 741.648 143.637C736.721 145.7 731.803 147.773 726.894 149.856ZM716.269 150.482C718.281 150.354 720.29 150.231 722.296 150.112C727.059 148.087 731.832 146.071 736.614 144.062C734.616 144.237 732.616 144.419 730.614 144.609C725.822 146.555 721.041 148.513 716.269 150.482ZM705.461 151.233C707.448 151.085 709.432 150.942 711.414 150.806C716.017 148.906 720.626 147.014 725.24 145.13C723.267 145.326 721.299 145.527 719.335 145.734C714.703 147.557 710.078 149.391 705.461 151.233ZM694.472 152.11C696.426 151.945 698.381 151.786 700.338 151.633C704.751 149.868 709.171 148.11 713.599 146.359C711.667 146.575 709.732 146.794 707.796 147.017C703.344 148.706 698.901 150.403 694.465 152.11L694.472 152.11ZM683.349 153.099C685.247 152.923 687.144 152.75 689.041 152.581C693.229 150.963 697.425 149.352 701.63 147.748C699.766 147.975 697.9 148.207 696.033 148.442C691.796 149.986 687.565 151.539 683.343 153.099L683.349 153.099ZM672.102 154.196C673.91 154.012 675.718 153.832 677.527 153.655C681.454 152.199 685.384 150.75 689.319 149.306C687.554 149.537 685.793 149.772 684.036 150.012C680.045 151.399 676.065 152.794 672.096 154.196L672.102 154.196ZM660.741 155.392C662.432 155.207 664.122 155.025 665.813 154.848C669.414 153.574 673.019 152.303 676.629 151.033C675.006 151.26 673.386 151.491 671.768 151.726C668.078 152.943 664.401 154.165 660.735 155.392L660.741 155.392ZM649.373 156.668C650.876 156.494 652.38 156.323 653.883 156.153C657.078 155.077 660.277 154.005 663.478 152.937L659.251 153.572C655.953 154.602 652.658 155.634 649.367 156.668L649.373 156.668ZM638.082 158.006L641.755 157.563C644.422 156.718 647.091 155.876 649.762 155.036L646.507 155.549C643.69 156.365 640.879 157.183 638.075 158.006L638.082 158.006ZM627.113 159.362L629.459 159.067L635.254 157.361L633.536 157.647C631.389 158.215 629.246 158.787 627.107 159.362L627.113 159.362ZM243.609 102.892C238.428 94.1404 233.187 85.8742 227.884 78.0935C231.461 83.7658 234.956 89.7161 238.37 95.9444C239.203 97.0447 240.009 98.1709 240.788 99.3228C241.764 100.478 242.704 101.668 243.609 102.892ZM260.854 136.156L260.558 135.743C261.641 140.2 262.416 144.933 262.883 149.942C263.235 150.486 263.591 151.026 263.954 151.557C263.348 146.049 262.315 140.916 260.854 136.156ZM265.558 142.334L264.979 141.625C265.979 146.037 266.653 150.729 266.999 155.701C267.435 156.254 267.876 156.8 268.322 157.34C267.833 151.974 266.912 146.972 265.558 142.334ZM269.996 147.325C269.772 147.09 269.552 146.847 269.328 146.608C270.314 150.994 270.952 155.675 271.241 160.648C271.735 161.18 272.238 161.703 272.75 162.22C272.292 156.871 271.373 151.906 269.994 147.325L269.996 147.325ZM274.238 151.481C274.026 151.29 273.828 151.09 273.62 150.897C274.664 155.276 275.326 159.966 275.605 164.97C276.15 165.469 276.702 165.961 277.26 166.444C276.765 161.043 275.757 156.055 274.235 151.481L274.238 151.481ZM1298.31 145.912L1294.45 146.145L1294.94 146.232L1298.99 146.071L1298.31 145.912ZM1307.82 145.328L1303.05 145.623L1304.06 145.857L1308.9 145.651L1307.82 145.328ZM1317.37 144.723L1311.94 145.069L1313.25 145.458L1318.67 145.212L1317.37 144.723ZM1326.96 144.098L1321.02 144.487L1322.49 145.035C1324.43 144.943 1326.38 144.85 1328.34 144.755L1326.96 144.098ZM1336.58 143.455L1330.28 143.879L1331.78 144.587L1337.95 144.276L1336.58 143.455ZM1348.63 144.595C1345.83 144.213 1343.04 143.88 1340.26 143.602L1341.13 144.116L1341.49 144.097L1341.77 144.083L1342.04 144.121C1344.54 144.464 1347.04 144.85 1349.55 145.278L1348.63 144.595ZM1360.49 146.484C1357.85 146.004 1355.22 145.564 1352.6 145.166L1353.77 146.036C1356.42 146.532 1359.08 147.073 1361.74 147.66L1360.49 146.484ZM1371.48 148.691C1369.09 148.164 1366.69 147.668 1364.3 147.205L1365.78 148.57C1368.12 149.119 1370.46 149.697 1372.81 150.306L1371.48 148.691ZM1381.51 151.048C1379.35 150.508 1377.2 149.992 1375.06 149.499L1376.55 151.299C1378.6 151.855 1380.65 152.436 1382.7 153.033L1381.51 151.048ZM738.7 157.489C748.197 157.522 757.646 157.715 767.018 158.099C840.835 160.475 921.097 161.079 1013.61 158.548C1059.13 157.302 1107.61 155.296 1159.75 152.367C1114.8 153.809 1072.68 154.505 1032.85 154.677C944.399 155.059 867.311 152.853 795.55 150.474L795.516 150.474C782.15 149.896 768.567 149.789 754.843 150.062C749.451 152.528 744.07 155.004 738.697 157.489L738.7 157.489ZM728.659 157.514C730.734 157.496 732.808 157.487 734.881 157.484C740.177 155.032 745.484 152.588 750.803 150.151C748.741 150.203 746.68 150.263 744.617 150.332C739.287 152.716 733.967 155.11 728.657 157.514L728.659 157.514ZM718.448 157.652C720.534 157.612 722.621 157.58 724.707 157.557C729.927 155.192 735.158 152.836 740.399 150.488C738.326 150.567 736.25 150.654 734.171 150.749C728.917 153.039 723.675 155.34 718.445 157.652L718.448 157.652ZM708.073 157.902C710.165 157.839 712.258 157.784 714.35 157.738C719.478 155.469 724.617 153.208 729.767 150.956C727.687 151.06 725.605 151.172 723.522 151.293C718.359 153.488 713.209 155.691 708.071 157.902L708.073 157.902ZM697.534 158.261C699.625 158.179 701.712 158.104 703.796 158.035C708.814 155.87 713.843 153.714 718.881 151.568C716.808 151.695 714.733 151.83 712.655 151.974C707.603 154.061 702.562 156.157 697.532 158.261L697.534 158.261ZM686.838 158.722C688.915 158.624 690.991 158.53 693.066 158.441C697.952 156.393 702.849 154.353 707.756 152.32C705.695 152.47 703.633 152.626 701.57 152.789C696.646 154.759 691.735 156.736 686.836 158.722L686.838 158.722ZM675.976 159.284C678.038 159.169 680.1 159.059 682.162 158.953C686.895 157.031 691.64 155.116 696.395 153.208C694.346 153.378 692.298 153.554 690.249 153.735C685.482 155.578 680.723 157.427 675.974 159.284L675.976 159.284ZM664.986 159.936C667.014 159.809 669.043 159.685 671.075 159.564C675.624 157.781 680.186 156.004 684.759 154.231C682.748 154.417 680.739 154.608 678.729 154.804C674.145 156.508 669.567 158.219 664.995 159.936L664.986 159.936ZM653.891 160.672C655.864 160.534 657.841 160.4 659.822 160.269C664.157 158.637 668.5 157.009 672.852 155.387C670.907 155.585 668.96 155.787 667.013 155.991C662.636 157.545 658.265 159.106 653.9 160.672L653.891 160.672ZM642.691 161.486C644.596 161.343 646.498 161.202 648.397 161.063C652.473 159.598 656.558 158.134 660.654 156.669C658.79 156.874 656.926 157.081 655.06 157.29C650.932 158.685 646.81 160.083 642.693 161.486L642.691 161.486ZM631.437 162.365C633.231 162.22 635.026 162.078 636.822 161.938C640.585 160.651 644.358 159.368 648.139 158.088C646.398 158.29 644.659 158.496 642.923 158.704C639.09 159.92 635.262 161.14 631.439 162.365L631.437 162.365ZM620.184 163.296L625.087 162.884C628.468 161.801 631.849 160.719 635.231 159.636L630.581 160.209C627.109 161.236 623.643 162.265 620.186 163.296L620.184 163.296ZM609.036 164.26L613.223 163.893C616.098 163.032 618.979 162.172 621.866 161.314L618.045 161.806C615.04 162.622 612.038 163.44 609.038 164.26L609.036 164.26ZM598.173 165.231L601.212 164.957L607.8 163.152L605.319 163.481L598.173 165.231ZM588.051 166.157L589.067 166.061L592.546 165.202L592.419 165.22L588.051 166.157ZM1283.17 145.436L1279.36 145.722L1279.63 145.759L1283.66 145.528L1283.17 145.436ZM1293.13 144.672L1288.31 145.042L1289.2 145.204L1294.12 144.911L1293.13 144.672ZM1303.12 143.894L1297.55 144.33L1298.81 144.629L1304.41 144.286L1303.12 143.894ZM1313.14 143.098L1307.01 143.587L1308.49 144.033L1314.58 143.65L1313.14 143.098ZM1323.2 142.288L1316.65 142.819L1318.2 143.416L1324.67 142.994L1323.2 142.288ZM1333.29 141.46L1326.4 142.026L1327.96 142.777L1334.71 142.325L1333.29 141.46ZM1345.4 142.146C1342.51 141.884 1339.64 141.676 1336.8 141.52L1337.79 142.117L1337.88 142.11L1338.11 142.131C1340.91 142.379 1343.73 142.68 1346.56 143.034L1345.4 142.146ZM1357.39 143.516C1354.59 143.134 1351.81 142.797 1349.05 142.506L1350.43 143.545C1353.2 143.933 1355.98 144.367 1358.78 144.848L1357.39 143.516ZM1368.74 145.282C1366.13 144.827 1363.53 144.408 1360.95 144.023L1362.52 145.52C1365.06 145.99 1367.6 146.494 1370.14 147.032L1368.74 145.282ZM1379.28 147.282C1376.88 146.792 1374.5 146.328 1372.14 145.89L1373.67 147.801C1375.95 148.31 1378.23 148.842 1380.52 149.396L1379.28 147.282ZM719.519 166.411C725.796 166.534 732.06 166.714 738.313 166.952C814.209 169.327 897.694 168.334 994.392 163.65C1038.35 161.521 1085.05 158.629 1135.01 154.944C1092.24 157.154 1051.96 158.733 1013.77 159.779C921.118 162.316 840.742 161.71 766.826 159.331L766.798 159.331C756.623 158.915 746.36 158.724 736.033 158.721C730.515 161.278 725.012 163.842 719.521 166.413L719.519 166.411ZM709.445 166.259C711.582 166.282 713.717 166.311 715.85 166.345C721.283 163.798 726.73 161.258 732.19 158.727C730.077 158.736 727.968 158.753 725.863 158.776C720.378 161.265 714.907 163.76 709.449 166.261L709.445 166.259ZM699.227 166.195C701.377 166.199 703.527 166.21 705.677 166.226C711.063 163.755 716.466 161.289 721.886 158.829C719.763 158.862 717.635 158.902 715.504 158.949C710.058 161.357 704.633 163.773 699.229 166.197L699.227 166.195ZM688.886 166.214C691.042 166.201 693.197 166.194 695.353 166.192C700.683 163.806 706.026 161.425 711.383 159.049C709.247 159.105 707.109 159.168 704.969 159.24C699.595 161.558 694.235 163.884 688.888 166.216L688.886 166.214ZM678.41 166.31C680.567 166.281 682.724 166.258 684.879 166.24C690.126 163.948 695.388 161.662 700.664 159.383C698.528 159.461 696.389 159.545 694.246 159.633C688.955 161.853 683.678 164.079 678.413 166.313L678.41 166.31ZM667.816 166.483C669.968 166.442 672.12 166.405 674.272 166.373C679.419 164.189 684.579 162.009 689.753 159.835C687.618 159.932 685.482 160.035 683.343 160.142C678.153 162.249 672.977 164.362 667.816 166.483ZM657.1 166.718C659.245 166.666 661.39 166.616 663.532 166.57C668.555 164.505 673.591 162.444 678.641 160.388C676.511 160.502 674.379 160.622 672.246 160.747C667.179 162.73 662.13 164.719 657.097 166.716L657.1 166.718ZM646.286 167.016C648.412 166.952 650.538 166.892 652.666 166.835C657.536 164.9 662.422 162.969 667.322 161.044C665.209 161.171 663.095 161.306 660.982 161.448C656.069 163.296 651.17 165.151 646.283 167.013L646.286 167.016ZM635.398 167.364C637.486 167.293 639.576 167.224 641.668 167.158C646.362 165.368 651.069 163.581 655.787 161.798C653.712 161.939 651.636 162.086 649.559 162.237C644.824 163.94 640.103 165.648 635.396 167.361L635.398 167.364ZM624.408 167.761C626.454 167.683 628.502 167.608 630.552 167.534C635.031 165.901 639.521 164.271 644.024 162.644C641.995 162.795 639.967 162.95 637.94 163.109C633.422 164.653 628.913 166.203 624.415 167.758L624.408 167.761ZM613.392 168.19L619.334 167.954C623.561 166.493 627.795 165.034 632.038 163.577C630.082 163.735 628.129 163.894 626.179 164.055C621.908 165.429 617.647 166.807 613.398 168.187L613.392 168.19ZM602.358 168.649L608.019 168.411C611.936 167.137 615.862 165.864 619.797 164.59L614.262 165.068C610.289 166.257 606.323 167.45 602.364 168.646L602.358 168.649ZM591.369 169.122L596.622 168.893C600.162 167.822 603.71 166.751 607.267 165.68L602.195 166.132C598.591 167.125 594.987 168.121 591.383 169.119L591.369 169.122ZM580.506 169.599L581.869 169.54L585.151 169.396C588.213 168.546 591.284 167.696 594.365 166.845L590.014 167.245C586.845 168.025 583.681 168.808 580.521 169.593L580.506 169.599ZM569.939 170.06L573.6 169.9L580.895 168.085L577.693 168.383L569.939 170.06ZM560.045 170.482L562.038 170.4L566.535 169.425L565.277 169.544L562.302 170.078L560.045 170.482ZM1267.13 145.317L1263.48 145.646L1267.41 145.359L1267.13 145.317ZM1277.55 144.373L1272.73 144.811L1273.45 144.911L1278.42 144.54L1277.55 144.373ZM1287.99 143.417L1282.33 143.937L1283.5 144.158L1289.23 143.721L1287.99 143.417ZM1298.46 142.446L1292.16 143.032L1293.6 143.384L1299.89 142.895L1298.46 142.446ZM1308.96 141.458L1302.17 142.096L1303.76 142.588L1310.47 142.057L1308.96 141.458ZM1319.48 140.461L1312.32 141.141L1313.95 141.778L1320.99 141.211L1319.48 140.461ZM1330.03 139.453L1322.59 140.164L1324.19 140.949L1331.48 140.351L1330.03 139.453ZM1342.21 139.684C1339.23 139.54 1336.29 139.454 1333.37 139.424L1334.59 140.172C1337.55 140.299 1340.54 140.485 1343.56 140.731L1342.21 139.684ZM1354.37 140.556C1351.42 140.279 1348.51 140.051 1345.62 139.873L1347.14 141.047C1350.03 141.322 1352.94 141.648 1355.86 142.024L1354.37 140.556ZM1366.08 141.885C1363.27 141.513 1360.49 141.183 1357.73 140.893L1359.37 142.494C1362.08 142.876 1364.8 143.295 1367.53 143.753L1366.08 141.885ZM1377.12 143.531C1374.5 143.101 1371.91 142.702 1369.33 142.332L1370.9 144.332C1373.38 144.775 1375.88 145.248 1378.39 145.75L1377.12 143.531ZM700.216 175.5C703.339 175.596 706.465 175.699 709.593 175.81C787.575 178.185 874.287 175.595 975.192 168.762C1017.25 165.912 1061.78 162.326 1109.16 158.055C1068.96 160.859 1030.9 163.13 994.69 164.884C897.813 169.575 814.169 170.569 738.118 168.188L738.097 168.188C731.075 167.918 724.034 167.724 716.974 167.606C711.367 170.232 705.779 172.865 700.209 175.502L700.216 175.5ZM690.011 175.214C692.221 175.269 694.432 175.328 696.644 175.391C702.177 172.772 707.727 170.156 713.293 167.544C711.132 167.513 708.969 167.489 706.803 167.471C701.183 170.051 695.584 172.633 690.006 175.219L690.011 175.214ZM679.712 174.979C681.931 175.024 684.153 175.074 686.378 175.126C691.906 172.562 697.453 170.002 703.018 167.445C700.836 167.434 698.652 167.428 696.467 167.428C690.862 169.944 685.275 172.463 679.706 174.984L679.712 174.979ZM669.344 174.788C671.567 174.825 673.791 174.864 676.016 174.907C681.523 172.413 687.046 169.922 692.585 167.436C690.395 167.442 688.204 167.454 686.01 167.47C680.435 169.908 674.878 172.349 669.338 174.793L669.344 174.788ZM658.892 174.633C661.114 174.662 663.335 174.693 665.557 174.728C671.015 172.318 676.493 169.911 681.99 167.506C679.792 167.529 677.595 167.556 675.399 167.59C669.875 169.935 664.37 172.284 658.885 174.637L658.892 174.633ZM648.378 174.511L655.024 174.585C660.412 172.272 665.818 169.962 671.242 167.655C669.046 167.693 666.85 167.734 664.655 167.78C659.208 170.022 653.781 172.267 648.374 174.514L648.378 174.511ZM637.79 174.415L644.422 174.473C649.715 172.271 655.025 170.073 660.352 167.877C658.154 167.928 655.957 167.982 653.761 168.04C648.415 170.164 643.09 172.29 637.784 174.417L637.79 174.415ZM627.166 174.337L633.751 174.384C638.921 172.308 644.107 170.234 649.312 168.164C647.125 168.227 644.942 168.293 642.761 168.359C637.539 170.351 632.339 172.344 627.16 174.339L627.166 174.337ZM616.517 174.272L623.014 174.316C628.031 172.381 633.065 170.447 638.118 168.514C635.951 168.586 633.787 168.661 631.627 168.738C626.571 170.58 621.532 172.426 616.511 174.274L616.517 174.272ZM605.824 174.213L608.601 174.228L612.234 174.248C617.069 172.469 621.919 170.689 626.784 168.909C624.646 168.988 622.512 169.069 620.38 169.152C615.514 170.84 610.66 172.527 605.817 174.215L605.824 174.213ZM595.137 174.151L601.417 174.188C606.029 172.575 610.657 170.964 615.302 169.353L609.034 169.607C604.38 171.122 599.746 172.638 595.13 174.152L595.137 174.151ZM584.462 174.078L590.561 174.121C594.915 172.692 599.282 171.262 603.664 169.832L597.59 170.091C593.194 171.422 588.816 172.752 584.456 174.08L584.462 174.078ZM573.847 173.99L579.694 174.042C583.735 172.808 587.791 171.574 591.861 170.339L586.066 170.592C581.975 171.727 577.9 172.86 573.841 173.992L573.847 173.99ZM563.327 173.875L568.821 173.938L579.864 170.864L574.468 171.1L563.327 173.875ZM552.971 173.731C554.625 173.758 556.283 173.782 557.944 173.805L559.235 173.482L567.596 171.398L562.807 171.603L561.049 171.985L552.971 173.731ZM542.918 173.552C544.305 173.578 545.691 173.608 547.084 173.633L554.947 171.933L551.093 172.089L542.918 173.552ZM533.478 173.343L536.268 173.408L541.572 172.464L539.355 172.545L533.478 173.343ZM1250.16 145.566L1249.93 145.589L1250.18 145.567L1250.16 145.566ZM1261.05 144.432L1256.27 144.93L1256.78 144.982L1261.76 144.537L1261.05 144.432ZM1271.95 143.286L1266.25 143.885L1267.3 144.036L1273.11 143.51L1271.95 143.286ZM1282.88 142.132L1276.45 142.811L1277.84 143.079L1284.29 142.487L1282.88 142.132ZM1293.83 140.968L1286.84 141.712L1288.42 142.107L1295.37 141.464L1293.83 140.968ZM1304.8 139.796L1297.4 140.588L1299.07 141.12L1306.39 140.434L1304.8 139.796ZM1315.79 138.615L1308.06 139.447L1309.75 140.115L1317.36 139.395L1315.79 138.615ZM1326.81 137.432L1326.68 137.437L1318.82 138.286L1320.45 139.102L1328.27 138.353L1326.81 137.432ZM1339.05 137.201C1335.98 137.176 1332.96 137.212 1329.98 137.307L1331.38 138.18C1334.39 138.18 1337.45 138.244 1340.53 138.371L1339.05 137.201ZM1351.41 137.597C1348.32 137.427 1345.27 137.31 1342.26 137.247L1343.89 138.527C1346.89 138.688 1349.92 138.902 1352.97 139.17L1351.41 137.597ZM1363.48 138.503C1360.5 138.222 1357.54 137.985 1354.6 137.791L1356.29 139.479C1359.16 139.763 1362.05 140.09 1364.96 140.46L1363.48 138.503ZM1375 139.774C1372.18 139.418 1369.39 139.097 1366.61 138.813L1368.21 140.886C1370.88 141.252 1373.58 141.651 1376.3 142.084L1375 139.774ZM680.929 184.667C760.987 187.039 850.913 182.852 955.984 173.874C995.727 170.476 1037.65 166.388 1082.03 161.715C1044.82 164.932 1009.41 167.699 975.594 169.99C874.496 176.836 787.589 179.431 709.398 177.047L709.381 177.047C705.5 176.909 701.622 176.784 697.747 176.672C692.117 179.336 686.508 182.003 680.919 184.671L680.929 184.667ZM670.441 184.324L677.394 184.552C682.966 181.889 688.557 179.227 694.167 176.567C691.932 176.503 689.698 176.446 687.466 176.394C681.767 179.039 676.091 181.683 670.437 184.328L670.441 184.324ZM659.944 183.971L666.886 184.205C672.512 181.573 678.158 178.941 683.825 176.309C681.58 176.259 679.335 176.212 677.09 176.168C671.351 178.77 665.635 181.373 659.94 183.975L659.944 183.971ZM649.453 183.606L656.368 183.848C662.021 181.264 667.694 178.681 673.387 176.098C671.133 176.057 668.882 176.018 666.635 175.982C660.884 178.525 655.155 181.067 649.449 183.609L649.453 183.606ZM638.963 183.224L645.844 183.479C651.489 180.961 657.156 178.446 662.844 175.933C660.589 175.9 658.335 175.869 656.081 175.837C650.351 178.299 644.644 180.761 638.959 183.224L638.963 183.224ZM628.489 182.817C630.76 182.908 633.039 182.998 635.324 183.085C640.933 180.654 646.568 178.224 652.23 175.792L645.468 175.722C639.784 178.087 634.123 180.452 628.485 182.817L628.489 182.817ZM618.024 182.38C620.278 182.478 622.542 182.573 624.814 182.667C630.355 180.341 635.92 178.013 641.51 175.684L634.768 175.628C629.161 177.88 623.578 180.131 618.02 182.381L618.024 182.38ZM607.599 181.91C609.838 182.015 612.081 182.118 614.328 182.218C619.769 180.013 625.235 177.807 630.725 175.599L624.009 175.555C618.513 177.675 613.039 179.794 607.586 181.911L607.599 181.91ZM597.22 181.403C599.427 181.516 601.639 181.626 603.858 181.733C609.168 179.666 614.503 177.597 619.86 175.524L613.206 175.487C607.852 177.462 602.522 179.434 597.216 181.404L597.22 181.403ZM586.865 180.851C589.043 180.972 591.227 181.09 593.416 181.206C598.56 179.296 603.728 177.383 608.92 175.467L608.558 175.467L602.326 175.431C597.156 177.24 592.005 179.047 586.876 180.852L586.865 180.851ZM576.588 180.252C578.728 180.383 580.874 180.51 583.027 180.634C587.972 178.894 592.939 177.152 597.928 175.406L591.43 175.365C586.466 176.998 581.52 178.627 576.592 180.253L576.588 180.252ZM566.381 179.599C568.474 179.739 570.572 179.876 572.674 180.008C577.382 178.455 582.111 176.897 586.861 175.334L580.493 175.286L566.381 179.599ZM556.275 178.89C558.308 179.039 560.345 179.185 562.388 179.327L575.743 175.245L569.553 175.185L560.478 177.717L556.275 178.89ZM546.276 178.126C548.236 178.284 550.199 178.437 552.164 178.586L559.041 176.667L564.536 175.132C562.551 175.11 560.565 175.084 558.587 175.057L546.276 178.126ZM536.435 177.296C538.286 177.459 540.141 177.619 542.001 177.773L553.227 174.978C551.359 174.949 549.494 174.917 547.631 174.882C543.886 175.693 540.155 176.497 536.439 177.294L536.435 177.296ZM526.802 176.409C528.51 176.573 530.22 176.734 531.933 176.892L541.8 174.774C540.091 174.738 538.386 174.701 536.684 174.662C533.373 175.249 530.08 175.83 526.806 176.407L526.802 176.409ZM517.491 175.473C518.974 175.629 520.461 175.782 521.95 175.931C524.656 175.459 527.373 174.982 530.099 174.498C528.647 174.46 527.195 174.423 525.747 174.381C522.99 174.75 520.239 175.114 517.495 175.472L517.491 175.473ZM508.754 174.518L512.064 174.889C513.994 174.641 515.927 174.389 517.863 174.135L514.851 174.029C512.818 174.196 510.787 174.359 508.758 174.518L508.754 174.518ZM501.338 173.647L502.245 173.758L504.229 173.609L503.98 173.597L501.338 173.647ZM1243.63 144.859L1238.95 145.406L1239.22 145.426L1244.16 144.916L1243.63 144.859ZM1255.01 143.522L1249.29 144.195L1250.19 144.29L1256.06 143.681L1255.01 143.522ZM1266.4 142.184L1259.88 142.948L1261.19 143.144L1267.77 142.455L1266.4 142.184ZM1277.81 140.835L1270.66 141.681L1272.23 141.99L1279.37 141.238L1277.81 140.835ZM1289.22 139.481L1281.59 140.387L1283.29 140.821L1290.86 140.017L1289.22 139.481ZM1300.67 138.115L1292.67 139.071L1294.42 139.638L1302.32 138.794L1300.67 138.115ZM1312.11 136.752L1303.83 137.739L1305.56 138.442L1313.71 137.566L1312.11 136.752ZM1323.61 135.404L1322.96 135.456L1315.08 136.397L1316.74 137.239L1325.08 136.338L1323.61 135.404ZM1335.9 134.696C1332.75 134.791 1329.65 134.948 1326.6 135.167L1328.13 136.133C1331.21 136.014 1334.33 135.956 1337.49 135.959L1335.9 134.696ZM1348.48 134.633C1345.26 134.575 1342.09 134.572 1338.95 134.625L1340.66 135.983C1343.77 136.028 1346.92 136.129 1350.11 136.285L1348.48 134.633ZM1360.91 135.11C1357.76 134.926 1354.64 134.79 1351.56 134.703L1353.28 136.457C1356.31 136.639 1359.36 136.868 1362.44 137.144L1360.91 135.11ZM1372.91 136.021C1369.9 135.743 1366.9 135.499 1363.94 135.299L1365.56 137.436C1368.42 137.719 1371.31 138.04 1374.22 138.399L1372.91 136.021ZM1360.4 130.538C1363.61 130.637 1366.87 130.781 1370.15 130.97C1367.25 125.613 1364.37 120.162 1361.47 114.681C1334.94 64.5799 1307.1 11.9815 1255.03 8.74733C1193.45 4.92671 1122.77 16.4507 1047.94 37.423C1112.1 21.4213 1172.79 13.0665 1226.67 16.379C1281.18 19.5902 1313.95 65.5943 1346.24 110.905C1350.95 117.512 1355.64 124.104 1360.4 130.544L1360.4 130.538ZM1347.36 130.387C1350.68 130.355 1354.05 130.387 1357.45 130.46C1352.82 124.163 1348.23 117.729 1343.63 111.278C1311.61 66.3365 1279.1 20.7068 1226.31 17.5997C1165.01 13.8326 1094.67 25.3565 1020.34 46.1359C1084.01 30.3138 1144.34 21.9772 1197.94 25.2295C1253.15 28.3194 1290.11 68.4836 1327.44 109.053C1334.03 116.225 1340.64 123.406 1347.36 130.393L1347.36 130.387ZM1334.26 130.828C1337.59 130.637 1340.97 130.506 1344.4 130.435C1337.82 123.581 1331.35 116.547 1324.89 109.527C1287.87 69.2927 1251.21 29.4599 1197.59 26.4597L1197.57 26.4597C1136.62 22.7575 1066.73 34.2395 993.033 54.739C1056.09 39.17 1115.95 30.9012 1169.18 34.0895C1225.14 37.0724 1265.86 72.2078 1307.79 108.401C1316.52 115.929 1325.3 123.502 1334.27 130.834L1334.26 130.828ZM1321.54 131.911C1324.76 131.544 1328.03 131.245 1331.36 131.013C1322.55 123.8 1313.94 116.364 1305.37 108.971C1263.78 73.0789 1223.41 38.2291 1168.89 35.3226L1168.87 35.3226C1108.86 31.7217 1040.19 42.8865 967.931 62.7031L967.297 62.9247C1029.16 47.8867 1088.02 39.85 1140.47 42.9495C1197.16 45.836 1241.25 76.5375 1287.38 108.656C1298.58 116.451 1309.91 124.333 1321.55 131.916L1321.54 131.911ZM1309.39 133.462L1318.51 132.289L1318.74 132.259C1307.28 124.778 1296.13 117.015 1285.09 109.331C1239.32 77.4631 1195.57 47.0003 1140.17 44.1797L1140.14 44.1797C1084.06 40.8625 1020.44 50.4532 953.571 67.7797C952.269 68.2458 950.967 68.7135 949.665 69.1828C1007.38 55.9148 1062.38 48.9326 1111.74 51.8076C1169.1 54.6014 1216.22 81.3219 1266.13 109.615C1280.23 117.61 1294.57 125.73 1309.4 133.468L1309.39 133.462ZM1297.29 135.033L1306.48 133.839C1291.91 126.217 1277.84 118.239 1263.98 110.38C1214.45 82.298 1167.67 55.7811 1111.45 53.0379L1111.43 53.0379C1059.23 49.9928 1000.52 58.1269 938.889 73.1123C936.844 73.8679 934.794 74.632 932.746 75.3952C986.061 63.9429 1036.97 58.0285 1083 60.6676C1140.91 63.3717 1190.71 86.4568 1243.96 111.153C1261.24 119.159 1278.9 127.34 1297.29 135.039L1297.29 135.033ZM1285.2 136.602L1291.52 135.781L1294.21 135.441C1276.21 127.873 1258.93 119.862 1242.01 112.014C1189.11 87.4922 1139.64 64.5532 1082.73 61.894L1082.7 61.894C1034.34 59.1184 980.446 65.9057 923.959 78.6933C921.341 79.6829 918.72 80.681 916.097 81.6877C964.945 71.9948 1011.69 67.1178 1054.31 69.5229C1112.56 72.1419 1164.63 91.8878 1220.74 113.16C1241.51 121.035 1262.83 129.118 1285.21 136.608L1285.2 136.602ZM1273.13 138.17L1281.89 137.033C1260.07 129.679 1239.26 121.795 1218.98 114.109C1163.2 92.9585 1111.41 73.3244 1054.01 70.7512L1053.98 70.7512C1009.39 68.2363 960.169 73.7953 908.673 84.5427C905.565 85.7474 902.453 86.9624 899.338 88.1876C943.763 80.1442 986.382 76.208 1025.59 78.3781C1083.92 80.9007 1137.83 97.5509 1196.22 115.584C1220.84 123.192 1246.27 131.047 1273.14 138.176L1273.13 138.17ZM1261.09 139.731L1269.5 138.64C1243.39 131.651 1218.64 124.013 1194.66 116.605C1136.58 98.6675 1082.94 82.0994 1025.3 79.6122L1025.26 79.6122C984.375 77.3475 939.65 81.8176 892.967 90.7044C889.482 92.0868 885.996 93.4797 882.508 94.8832C922.56 88.3681 961.094 85.2973 996.858 87.2419C1054.91 89.6604 1110.08 103.426 1170.04 118.387C1198.99 125.603 1229.07 133.108 1261.1 139.739L1261.09 139.731ZM1249.07 141.29L1257.04 140.256C1226.02 133.761 1196.84 126.483 1168.7 119.464C1108.99 104.564 1054.04 90.8524 996.56 88.4636L996.522 88.4636C959.283 86.4434 918.939 89.9317 876.945 97.1182C873.129 98.6656 869.311 100.226 865.491 101.799C901.264 96.6741 935.785 94.3779 968.115 96.0924C1025.35 98.3915 1081.04 109.469 1141.64 121.522C1175.56 128.269 1211 135.317 1249.08 141.296L1249.07 141.29ZM1237.08 142.843L1244.51 141.882C1207.73 136.016 1173.41 129.194 1140.55 122.656C1080.14 110.641 1024.62 99.5978 967.85 97.3207L967.814 97.3207C934.166 95.5365 898.06 98.1613 860.592 103.822C856.474 105.526 852.355 107.245 848.234 108.979C879.83 105.092 910.435 103.457 939.358 104.95C994.964 107.104 1050.18 115.686 1110.18 125.008C1149.9 131.184 1191.71 137.68 1237.09 142.849L1237.08 142.843ZM1225.1 144.391L1231.84 143.52C1188.13 138.431 1147.72 132.153 1109.29 126.18C1049.46 116.88 994.398 108.318 939.134 106.181L939.09 106.181C908.977 104.624 876.975 106.501 843.882 110.808C839.488 112.662 835.094 114.529 830.701 116.41C858.268 113.598 885.073 112.521 910.636 113.805C963.362 115.78 1016.58 122.063 1074.17 128.86C1120.91 134.381 1170.56 140.235 1225.12 144.396L1225.1 144.391ZM1213.18 145.932L1219.03 145.176C1166.58 141.041 1118.68 135.389 1073.49 130.055C1016.03 123.273 962.937 117.006 910.41 115.039L910.374 115.039C883.727 113.702 855.677 114.953 826.786 118.095C822.15 120.087 817.519 122.092 812.89 124.113C836.56 122.208 859.667 121.587 881.91 122.671C929.758 124.406 978.618 128.614 1031.03 133.129C1086.72 137.917 1146.43 143.057 1213.19 145.938L1213.18 145.932ZM1201.24 147.468L1205.99 146.857C1141.91 143.924 1084.34 138.967 1030.52 134.334C978.21 129.828 929.438 125.627 881.694 123.895L881.656 123.895C858.409 122.761 834.182 123.513 809.327 125.658C804.474 127.781 799.623 129.916 794.775 132.064C814.687 130.897 834.22 130.632 853.181 131.52C892.531 132.903 932.98 135.32 975.718 137.872C1043.47 141.92 1116.98 146.31 1201.26 147.476L1201.24 147.468ZM1189.41 148.996L1192.64 148.58C1111.81 147.243 1040.91 143.013 975.374 139.1C932.733 136.555 892.375 134.143 852.989 132.759L852.948 132.759C833.056 131.823 812.504 132.174 791.525 133.517C786.467 135.764 781.415 138.023 776.37 140.293C792.674 139.692 808.74 139.674 824.469 140.389C847.84 141.185 872.146 142.164 897.168 143.171C982.735 146.608 1076.87 150.394 1189.41 148.997L1189.41 148.996ZM1177.5 150.519L1178.8 150.353C1070.84 151.392 979.865 147.732 896.94 144.395C872.226 143.4 848.227 142.434 824.264 141.617L824.233 141.617C807.626 140.865 790.63 140.938 773.348 141.655C768.111 144.016 762.882 146.389 757.663 148.773C770.497 148.57 783.206 148.7 795.738 149.242C867.488 151.617 944.547 153.827 1032.83 153.445C1077.85 153.245 1125.81 152.378 1177.51 150.52L1177.5 150.519ZM662.047 193.725C769.903 195.987 896.627 184.683 1053.44 165.95C1019.72 169.382 987.411 172.429 956.496 175.091C851.167 184.096 760.999 188.29 680.682 185.906L680.672 185.906L678.501 185.835C672.993 188.467 667.508 191.097 662.047 193.725ZM651.058 193.433C653.517 193.507 655.977 193.584 658.454 193.646C663.936 191.005 669.439 188.362 674.964 185.718L667.962 185.487C662.301 188.137 656.664 190.786 651.051 193.433L651.058 193.433ZM640.159 193.057C642.594 193.152 645.02 193.248 647.482 193.33C653.102 190.679 658.745 188.025 664.412 185.37L657.417 185.132C651.636 187.775 645.881 190.417 640.153 193.057L640.159 193.057ZM629.368 192.596C631.778 192.715 634.212 192.811 636.647 192.91C642.355 190.278 648.089 187.644 653.847 185.008L646.873 184.76C641.008 187.375 635.168 189.987 629.354 192.596L629.368 192.596ZM618.762 192.008C621.135 192.149 623.523 192.276 625.907 192.404C631.668 189.817 637.455 187.225 643.268 184.63C640.947 184.544 638.633 184.457 636.323 184.369C630.437 186.918 624.581 189.465 618.755 192.008L618.762 192.008ZM608.286 191.325C610.61 191.488 612.922 191.664 615.26 191.813C621.036 189.29 626.844 186.761 632.684 184.228C630.379 184.139 628.078 184.047 625.78 183.952C619.917 186.413 614.084 188.87 608.279 191.325L608.286 191.325ZM597.905 190.554C600.209 190.74 602.521 190.916 604.843 191.084C610.574 188.662 616.333 186.234 622.12 183.8C619.825 183.704 617.534 183.605 615.249 183.505C609.436 185.859 603.653 188.208 597.899 190.553L597.905 190.554ZM587.666 189.684C589.938 189.891 592.235 190.078 594.528 190.267C600.176 187.965 605.854 185.656 611.561 183.341C609.283 183.238 607.01 183.132 604.742 183.023C599.019 185.248 593.325 187.469 587.66 189.684L587.666 189.684ZM577.636 188.69C579.852 188.918 582.075 189.141 584.306 189.358C589.847 187.193 595.412 185.02 601.001 182.84C598.747 182.729 596.5 182.614 594.26 182.497C588.687 184.569 583.144 186.633 577.63 188.69L577.636 188.69ZM567.703 187.606C569.88 187.856 572.053 188.112 574.244 188.347C579.63 186.338 585.045 184.322 590.489 182.299C588.262 182.18 586.038 182.057 583.818 181.93C578.409 183.829 573.033 185.721 567.691 187.606L567.703 187.606ZM557.881 186.438C560.03 186.71 562.196 186.963 564.367 187.215C569.546 185.387 574.754 183.551 579.993 181.708C577.793 181.58 575.599 181.447 573.409 181.307L560.915 185.435L557.881 186.438ZM548.271 185.144C550.366 185.438 552.473 185.717 554.578 185.993L559.282 184.44L569.5 181.064C567.339 180.924 565.182 180.78 563.029 180.631L560.647 181.36L548.271 185.144ZM538.82 183.757C540.847 184.066 542.859 184.389 544.894 184.685L559.071 180.349C556.957 180.199 554.844 180.044 552.73 179.884C548.06 181.185 543.419 182.476 538.808 183.757L538.82 183.757ZM529.484 182.29C531.463 182.617 533.451 182.935 535.448 183.246C539.825 182.031 544.224 180.806 548.645 179.572C546.584 179.41 544.528 179.245 542.477 179.075C538.115 180.155 533.78 181.227 529.471 182.29L529.484 182.29ZM520.346 180.726C522.248 181.066 524.184 181.386 526.105 181.712C530.125 180.722 534.167 179.723 538.229 178.714C536.242 178.542 534.262 178.366 532.288 178.186C528.279 179.044 524.293 179.891 520.333 180.726L520.346 180.726ZM511.47 179.066C513.266 179.411 515.062 179.759 516.863 180.095C520.501 179.331 524.155 178.557 527.825 177.772C525.933 177.592 524.046 177.408 522.163 177.22C518.573 177.844 515.005 178.46 511.459 179.066L511.47 179.066ZM502.765 177.352C504.441 177.694 506.115 178.039 507.799 178.368C510.972 177.83 514.156 177.283 517.351 176.729C515.599 176.547 513.85 176.36 512.106 176.171C508.978 176.572 505.865 176.966 502.765 177.352ZM494.409 175.59C495.909 175.918 497.422 176.226 498.929 176.545C501.526 176.227 504.132 175.901 506.749 175.569C505.21 175.393 503.673 175.213 502.137 175.029C499.552 175.223 496.976 175.41 494.409 175.59ZM486.729 173.845C487.853 174.106 488.978 174.369 490.11 174.627C491.98 174.5 493.855 174.37 495.736 174.236C494.579 174.089 493.424 173.94 492.27 173.789C490.415 173.812 488.568 173.831 486.729 173.845ZM480.038 172.295C480.505 172.407 480.979 172.508 481.446 172.62L483.608 172.614L482.487 172.454C481.67 172.405 480.854 172.348 480.038 172.295ZM485.062 174.961C483.508 174.6 481.944 174.25 480.397 173.878C377.865 174.152 291.387 160.448 247.719 89.7798C228.448 66.092 210.18 45.8198 192.561 28.6079C211.729 47.7377 230.876 71.1686 250.332 99.4804L250.357 99.5167L250.357 99.5339C285.641 174.671 376.075 181.972 485.062 174.961ZM494.489 177.084C492.749 176.711 491.016 176.331 489.288 175.944C377.246 183.497 283.912 176.927 247.686 99.8089C236.119 82.9782 224.671 67.8886 213.272 54.4047C225.994 70.2603 238.336 88.5725 250.344 109.595L250.361 109.621L250.361 109.655C250.851 111.08 251.371 112.47 251.902 113.848C253.111 115.347 254.252 116.907 255.327 118.528C257.186 120.622 258.889 122.848 260.437 125.207C262.342 127.326 264.076 129.587 265.638 131.989C270.489 137.316 274.189 143.572 276.651 150.821C311.064 182.415 368.687 187.537 437.687 182.692C455.9 181.414 474.905 179.444 494.489 177.086L494.489 177.084ZM503.788 179.048C501.964 178.678 500.161 178.283 498.348 177.901C477.576 180.439 457.423 182.561 438.118 183.919C370.181 188.689 313.108 183.971 277.803 154.596C278.982 158.98 279.734 163.703 280.06 168.766C306.121 189.342 345.917 194.858 394.114 192.541C427.251 190.944 464.395 185.674 503.779 179.048L503.788 179.048ZM513.224 180.862C511.29 180.496 509.356 180.134 507.433 179.755C466.868 186.626 428.587 192.129 394.412 193.772C346.556 196.074 306.81 190.86 280.197 171.389C280.324 175.23 280.207 179.265 279.846 183.493C300.456 198.584 330.45 203.663 366.899 202.612C408.622 201.406 458.88 192.244 513.215 180.86L513.224 180.862ZM522.66 182.561C520.642 182.218 518.621 181.877 516.62 181.51C461.166 193.163 409.821 202.619 367.072 203.846C330.748 204.897 300.68 200.058 279.629 185.728C279.25 189.327 278.695 193.065 277.965 196.941C294.787 208.818 318.584 213.408 347.551 213.064C394.721 212.5 455.729 198.989 522.651 182.558L522.66 182.561ZM532.14 184.154C530.09 183.827 528.062 183.479 526.029 183.136C457.992 199.871 395.883 213.722 347.602 214.296C318.677 214.641 294.769 210.262 277.555 198.976C276.851 202.424 276.013 205.982 275.041 209.65C289.128 219.571 308.769 223.776 332.735 223.85C383.573 224.008 454.015 205.813 532.14 184.154ZM541.779 185.629C539.686 185.315 537.596 184.997 535.511 184.673C456.261 206.662 384.72 225.247 332.726 225.089C308.748 225.015 288.959 221.001 274.516 211.581C273.591 214.911 272.551 218.332 271.397 221.843C283.464 230.612 300.253 234.576 320.849 234.915C374.226 235.79 453.294 212.643 541.781 185.631L541.779 185.629ZM551.549 186.987C549.387 186.7 547.221 186.414 545.078 186.113C455.488 213.477 375.331 237.046 320.746 236.152C300.128 235.812 283.181 232.031 270.774 223.718C269.686 226.938 268.501 230.235 267.219 233.607C277.754 241.798 292.569 245.675 310.906 246.196C366.074 247.761 453.273 219.453 551.551 186.99L551.549 186.987ZM561.408 188.251C559.211 187.987 557.028 187.714 554.857 187.431C455.469 220.266 367.193 249.032 310.739 247.43C292.366 246.908 277.386 243.213 266.507 235.469C265.302 238.573 264.017 241.74 262.65 244.971C271.98 253.051 285.449 256.987 302.358 257.649C358.458 259.846 452.615 226.63 559.487 188.931L561.408 188.251ZM571.341 189.421C569.126 189.175 566.938 188.902 564.736 188.643L561.156 189.906C453.837 227.764 359.27 261.126 302.11 258.885C285.163 258.221 271.522 254.479 261.826 246.866C260.558 249.825 259.219 252.836 257.811 255.901C266.131 264.294 278.69 268.461 294.813 269.25C350.203 271.964 447.778 235.544 559.641 193.793L571.341 189.421ZM581.504 190.45C579.244 190.225 576.979 190.002 574.741 189.765L561.389 194.747C449.052 236.678 351.061 273.252 294.521 270.482C278.371 269.691 265.619 265.74 256.904 257.866C255.611 260.642 254.259 263.463 252.851 266.327C260.22 275.475 272.196 280.049 288.033 280.965C342.606 284.125 443.243 244.664 559.736 198.985C566.933 196.166 574.191 193.323 581.51 190.458L581.504 190.45ZM591.76 191.388C589.435 191.197 587.11 191.006 584.826 190.786C576.992 193.851 569.221 196.896 561.511 199.922C444.524 245.794 343.462 285.422 287.674 282.192C271.824 281.274 259.639 276.953 251.802 268.417L250.348 271.318C249.522 272.953 248.723 274.556 247.943 276.143C254.283 286.524 265.86 291.72 281.818 292.773C335.497 296.32 438.902 253.972 559.721 204.495C570.275 200.174 580.957 195.806 591.766 191.391L591.76 191.388ZM602.1 192.236C599.775 192.061 597.451 191.868 595.126 191.677C583.8 196.294 572.605 200.872 561.541 205.411C440.212 255.101 336.365 297.63 281.414 294C265.497 292.95 253.702 288.09 246.783 278.512C245.612 280.931 244.497 283.294 243.438 285.6C248.609 297.523 259.816 303.468 276.068 304.664C328.802 308.543 434.722 263.451 559.582 210.295C573.54 204.359 587.715 198.34 602.106 192.239L602.1 192.236ZM612.593 192.973C610.232 192.816 607.888 192.646 605.541 192.477C590.629 198.781 575.938 205.021 561.467 211.198C436.077 264.579 329.708 309.866 275.634 305.884C259.531 304.7 248.085 299.224 242.17 288.405C241.208 290.558 240.292 292.659 239.422 294.709C243.226 308.459 254.04 315.272 270.677 316.611C322.453 320.775 430.671 273.079 559.333 216.369C576.753 208.706 594.532 200.869 612.599 192.976L612.593 192.973ZM623.246 193.592C620.837 193.462 618.426 193.336 616.035 193.189C597.438 201.307 579.149 209.373 561.251 217.259C432.04 274.21 323.364 322.11 270.214 317.836C253.876 316.521 242.802 310.369 237.998 298.177C237.271 299.969 236.586 301.72 235.944 303.431C238.129 319.326 248.491 327.142 265.596 328.628C316.392 333.039 426.712 282.863 558.961 222.717C579.902 213.202 601.373 203.435 623.252 193.595L623.246 193.592ZM633.997 194.124C631.554 194.019 629.121 193.909 626.703 193.786C604.302 203.856 582.323 213.852 560.903 223.586C428.092 283.989 317.305 334.377 265.08 329.842C248.546 328.409 237.903 321.571 234.296 307.969C233.848 309.242 233.425 310.493 233.028 311.722C233.3 330.1 243.115 339.052 260.74 340.687C310.553 345.307 422.805 292.781 558.441 229.309C582.947 217.849 608.208 206.027 634.003 194.127L633.997 194.124ZM644.838 194.569C642.378 194.482 639.948 194.372 637.505 194.272C611.177 206.415 585.401 218.475 560.419 230.167C424.208 293.907 311.481 346.656 260.194 341.9C243.674 340.371 233.545 332.988 231.064 318.26L230.728 319.518C228.746 340.754 237.894 350.996 256.088 352.784C304.927 357.582 418.954 302.818 557.794 236.135C585.908 222.638 615.032 208.652 644.844 194.572L644.838 194.569ZM655.855 194.89C653.367 194.821 650.882 194.752 648.41 194.673C618.049 209 588.391 223.245 559.789 236.986C420.368 303.951 305.859 358.947 255.505 353.999C239.902 352.471 230.472 345.295 228.376 331.107C225.508 352.67 233.943 363.096 251.593 364.92C299.46 369.868 415.123 312.977 557.002 243.189C588.799 227.552 621.9 211.271 655.861 194.893L655.855 194.89ZM1225.28 145.661L1220.96 146.22L1225.58 145.683L1225.28 145.661ZM1237.14 144.133L1231.43 144.87L1232.14 144.922L1238.02 144.235L1237.14 144.133ZM1249.01 142.595L1242.43 143.448L1243.62 143.58L1250.3 142.797L1249.01 142.595ZM1260.88 141.056L1253.61 141.999L1255.12 142.231L1262.41 141.371L1260.88 141.056ZM1272.77 139.513L1264.95 140.528L1266.64 140.872L1274.44 139.951L1272.77 139.513ZM1284.67 137.969L1276.42 139.04L1278.21 139.505L1286.38 138.537L1284.67 137.969ZM1296.57 136.423L1292.28 136.981L1288 137.537L1289.79 138.131L1298.25 137.125L1296.57 136.423ZM1308.48 134.877L1299.65 136.024L1301.41 136.749L1310.09 135.715L1308.48 134.877ZM1320.4 133.34C1320.02 133.387 1319.63 133.428 1319.25 133.478L1311.39 134.499L1313.05 135.359L1321.89 134.305L1320.4 133.34ZM1332.78 132.172C1329.54 132.386 1326.36 132.665 1323.23 133.007L1324.84 134.046C1327.99 133.803 1331.19 133.623 1334.43 133.509L1332.78 132.172ZM1345.59 131.661C1342.25 131.715 1338.95 131.828 1335.7 132.001L1337.45 133.421C1340.68 133.348 1343.94 133.333 1347.25 133.378L1345.59 131.661ZM1358.38 131.724C1355.06 131.64 1351.79 131.609 1348.55 131.629L1350.31 133.437C1353.48 133.512 1356.69 133.64 1359.94 133.819L1358.38 131.724ZM1370.85 132.26C1367.64 132.069 1364.47 131.921 1361.34 131.814L1362.97 133.995C1366.01 134.19 1369.09 134.425 1372.19 134.7L1370.85 132.26ZM1460.3 382.062L1479.87 382.062C1531.07 377.124 1589.13 359.247 1647.99 341.117C1715.06 320.466 1783.18 299.487 1842.84 297.131C1863.7 296.308 1883.55 297.778 1902 302.341L1902 300.908C1883.46 296.479 1863.54 295.064 1842.61 295.89C1782.24 298.278 1713.81 319.346 1646.45 340.09C1580.31 360.461 1515.2 380.508 1460.3 382.062ZM0.00305189 3.1177L0.00305195 4.44536C10.0963 2.61656 19.9938 1.1348 29.6953 7.3428e-05L19.5831 7.38701e-05C13.1346 0.891552 6.60791 1.93076 0.00305189 3.1177ZM1902 272.96C1892.76 272.101 1883.18 271.955 1873.33 272.412C1828.17 274.513 1776.93 289.023 1724.97 303.741C1659.21 322.367 1592.3 341.321 1534.29 336.121C1485.67 331.562 1468.21 297.59 1447.77 257.82C1440.59 243.851 1433.05 229.165 1423.66 214.795C1433.51 232.195 1440.32 249.991 1446.66 266.589C1461.71 305.966 1474.18 338.563 1518.41 342.666C1575.74 347.766 1643.59 328.226 1710.73 308.891C1765.5 293.116 1819.82 277.475 1868.02 275.306C1879.75 274.769 1891.1 275.037 1902 276.287L1902 277.584C1891.19 276.293 1879.92 276.006 1868.28 276.533C1820.73 278.673 1766.69 294.235 1712.2 309.93C1644.59 329.398 1576.28 349.073 1517.88 343.878C1471.81 339.609 1459.19 306.632 1443.97 266.797C1439.02 253.864 1433.8 240.203 1427.07 226.579C1434.05 243.491 1438.39 260.427 1442.41 276.125C1452.44 315.237 1460.49 346.627 1501.99 350.423C1559.7 355.509 1628.94 335.259 1697.9 315.093C1755.21 298.332 1812.33 281.629 1862.95 279.416C1876.49 278.824 1889.54 279.269 1902 281.013L1902 282.329C1889.63 280.529 1876.66 280.059 1863.21 280.647C1813.25 282.831 1756.41 299.452 1699.39 316.131C1629.96 336.433 1560.25 356.821 1501.45 351.633C1457.99 347.658 1449.83 315.87 1439.68 276.259C1436.63 264.375 1433.4 251.781 1428.98 239.028C1433.34 255.297 1435.52 271.313 1437.52 286.078C1442.75 324.652 1446.82 354.685 1485.56 358.175C1543.68 363.257 1614.31 342.307 1685.06 321.318C1744.89 303.569 1804.82 285.786 1857.89 283.535C1873.25 282.881 1888.01 283.529 1902 285.839L1902 287.182C1888.1 284.794 1873.42 284.116 1858.14 284.766C1805.77 286.992 1746.12 304.689 1686.57 322.355C1615.35 343.484 1544.26 364.573 1485.04 359.391C1444.22 355.714 1440.09 325.262 1434.79 286.15C1433.32 275.332 1431.77 263.844 1429.32 252.083C1431.37 267.556 1431.65 282.582 1431.91 296.385C1432.62 334.171 1433.16 362.743 1469.15 365.934C1527.69 371.011 1599.68 349.369 1672.22 327.561C1734.56 308.818 1797.31 289.952 1852.82 287.653C1870.01 286.941 1886.49 287.814 1902.01 290.761L1902.01 292.132C1886.58 289.091 1870.18 288.176 1853.06 288.885C1798.26 291.154 1735.79 309.935 1673.73 328.593C1600.72 350.542 1528.26 372.324 1468.63 367.15C1430.44 363.765 1429.9 334.757 1429.18 296.395C1429 286.693 1428.81 276.385 1427.99 265.744C1428.03 280.262 1426.72 294.199 1425.5 306.972C1422.02 343.752 1419.45 370.794 1452.72 373.693C1511.69 378.767 1585.03 356.439 1659.35 333.82C1724.2 314.079 1789.78 294.116 1847.73 291.775C1866.78 291.005 1884.98 292.136 1902.02 295.787L1902.02 297.176C1885.06 293.409 1866.93 292.234 1847.97 293.001C1790.74 295.314 1725.45 315.189 1660.88 334.843C1586.1 357.605 1512.28 380.075 1452.21 374.904C1416.62 371.804 1419.23 344.312 1422.77 306.92C1423.58 298.4 1424.43 289.36 1424.9 279.979C1423.26 293.365 1420.64 306.112 1418.24 317.781C1410.93 353.362 1405.7 378.832 1436.3 381.447C1439.84 381.747 1443.42 381.95 1447.01 382.055L1431.07 382.055C1403.29 377.184 1408.46 352.063 1415.52 317.669C1420.71 292.389 1426.95 262.043 1421.98 231.116C1421.12 226.881 1420.05 222.642 1418.77 218.4C1417.41 214.516 1415.86 210.64 1414.1 206.774C1412.29 203.182 1410.29 199.616 1408.11 196.076C1405.94 192.846 1403.6 189.651 1401.1 186.492C1398.59 183.571 1395.94 180.693 1393.13 177.858C1390.41 175.304 1387.55 172.8 1384.57 170.347C1381.7 168.15 1378.72 166.01 1375.63 163.927L1375.28 163.774C1372.41 162.819 1369.56 161.833 1366.74 160.818C1363.57 159.966 1360.42 159.086 1357.31 158.176C1353.84 157.427 1350.4 156.651 1346.99 155.848C1343.22 155.204 1339.49 154.535 1335.79 153.842C1331.75 153.309 1327.74 152.754 1323.77 152.176C1319.43 151.752 1315.13 151.306 1310.86 150.839C1306.21 150.526 1301.6 150.194 1297.02 149.844C1292.09 149.647 1287.2 149.432 1282.35 149.2C1277.14 149.12 1271.97 149.025 1266.85 148.913C1261.28 148.955 1255.76 148.982 1250.28 148.992C1244.42 149.158 1238.6 149.309 1232.84 149.444C1226.64 149.739 1220.49 150.019 1214.39 150.285C1207.88 150.71 1201.43 151.12 1195.04 151.517C1188.22 152.076 1181.45 152.621 1174.75 153.152C1167.59 153.855 1160.49 154.542 1153.46 155.213C1145.93 156.055 1138.47 156.883 1131.07 157.696C936.467 182.148 785.157 197.835 659.407 194.991C624.911 211.618 591.286 228.155 559.024 244.028C416.541 314.108 300.407 371.238 250.987 366.129C229.038 363.86 220.271 349.57 228.205 319.088C228.602 314.81 229.439 310.109 230.741 304.963C231.126 300.636 231.941 295.89 233.188 290.725C233.556 286.372 234.331 281.616 235.513 276.459C235.855 272.03 236.6 267.206 237.749 261.987C238.062 257.545 238.755 252.727 239.83 247.533C240.102 243.012 240.748 238.121 241.768 232.861C241.994 228.323 242.575 223.43 243.512 218.182C243.677 213.59 244.184 208.652 245.033 203.368C245.126 198.719 245.549 193.737 246.301 188.42C246.301 183.751 246.616 178.762 247.244 173.454C247.178 170.525 247.226 167.476 247.39 164.306C247.035 157.874 246.476 151.702 245.714 145.788C244.023 135.331 241.823 125.598 239.114 116.59C229.912 112.985 219.219 110.621 207.203 109.379C156.979 104.187 83.7502 118.344 0.00305801 143.082L0.00305795 141.661C83.8179 117.008 157.205 102.943 207.807 108.174C219.274 109.36 229.574 111.53 238.558 114.779L238.188 113.596L238.167 113.534L238.167 113.528C237.854 112.61 237.538 111.699 237.218 110.795C226.322 105.755 213.179 102.63 198.09 101.199C148.927 96.5356 79.2424 109.623 0.00305755 132.589L0.00305749 131.172C79.2953 108.295 149.126 95.2882 198.646 99.9857C213.067 101.352 225.762 104.211 236.474 108.742C236.041 107.56 235.599 106.395 235.151 105.237C222.651 98.5004 206.979 94.5394 188.658 92.9614C140.711 88.8428 74.6649 100.875 0.00720748 122.072L0.00720742 120.658C74.7051 99.5491 140.884 87.5983 189.163 91.7446C206.704 93.2499 221.869 96.8633 234.245 102.9C233.852 101.918 233.454 100.944 233.051 99.978C218.999 91.2317 200.66 86.3346 178.859 84.6678C132.298 81.1061 69.9966 92.0961 0.00305663 111.528L0.00305657 110.122C70.0241 90.778 132.448 79.8615 179.304 83.4433C200.14 85.0356 217.89 89.4751 231.882 97.2701C231.555 96.5223 231.229 95.7734 230.895 95.036C215.324 83.9285 194.166 78.0075 168.645 76.315C123.699 73.3273 65.2374 83.3058 0.000980976 100.979L0.000980915 99.5749C65.2565 81.9886 123.817 72.0818 169.04 75.0886C193.373 76.699 213.834 82.0278 229.422 91.8477C229.196 91.3702 228.966 90.9088 228.735 90.4379C211.649 76.5825 187.485 69.5458 157.99 67.8963C114.878 65.4845 60.3894 74.4697 0.00305571 90.393L0.00305565 88.9985C60.3937 73.1592 114.968 64.2399 158.321 66.6651C186.308 68.2306 209.614 74.4868 226.806 86.5867L226.635 86.2591C208.01 69.1857 180.602 60.9246 146.831 59.4107C105.832 57.5739 55.4399 65.5915 0.00305525 79.7832L0.00305518 78.3896C55.4294 64.282 105.881 56.3322 147.091 58.1785C177.775 59.554 203.327 66.3164 222.009 79.9417C201.763 60.9112 171.851 52.0741 135.123 50.862C96.5211 49.5879 50.3785 56.6742 -0.00744327 69.1533L-0.00744333 67.7654C50.3447 55.3694 96.5381 48.3452 135.316 49.6251C168.47 50.7188 196.192 57.8337 216.467 72.7609C194.4 52.2021 162.123 43.0451 122.826 42.2408C86.9518 41.5054 45.1987 47.6852 -0.0118383 58.4842L-0.0118383 57.1078C45.1565 46.3929 86.933 40.2665 122.944 41.0039C158.763 41.7403 188.85 49.2001 210.914 65.5743C186.779 43.324 151.952 33.8469 109.917 33.547C77.129 33.314 39.9365 38.6265 0.00305385 47.7788L0.00305379 46.4072C39.8774 37.3332 77.072 32.0799 109.96 32.311C148.674 32.588 181.39 40.4203 205.503 58.4899C178.99 34.2653 141.337 24.4683 96.3416 24.7844C67.019 24.9917 34.554 29.4647 0.00305338 37.0228L0.00305332 35.6627C34.48 28.1819 66.9218 23.7557 96.3076 23.5485C138.09 23.2533 173.656 31.4352 200.072 51.3864C170.86 24.9726 130.21 14.8823 82.1315 15.9502C56.6615 16.5166 29.0867 20.1997 0.0114758 26.2267L0.0114757 24.8771C28.9832 18.9217 56.5093 15.2825 82.0004 14.7152C127.126 13.7123 165.813 22.2762 194.867 44.4788C162.533 15.4669 118.658 5.07098 67.3 7.04625C46.0653 7.86291 23.537 10.7838 0.00720282 15.3676L0.00720276 14.0303C23.4208 9.5115 45.8666 6.62694 67.0739 5.81123C115.645 3.94486 157.62 12.8555 189.672 37.5758C165.976 16.5195 137.363 4.71853 104.928 0.00198045L113.17 0.00198009C140.043 4.87327 164.162 14.7887 184.89 30.9977C169.112 17.0639 151.711 6.91825 132.854 0.00197923L137.196 0.00197904C152.638 5.96023 167.092 14.0924 180.458 24.7032C169.097 14.7247 157.172 6.55243 144.697 6.84012e-05L148.308 6.82433e-05C157.989 5.21808 167.328 11.4084 176.344 18.6542C168.283 11.63 160.071 5.43203 151.707 6.80948e-05L155.025 6.79497e-05C161.26 4.10914 167.408 8.64804 173.469 13.6168C167.834 8.71999 162.184 4.1811 156.519 6.78844e-05L159.689 6.77459e-05C164.679 3.72453 169.656 7.71613 174.621 11.9748C169.82 7.75178 165.053 3.76019 160.32 6.77182e-05L163.452 6.75813e-05C190.869 21.9371 219.327 51.2804 250.31 89.3557L250.342 89.4035C292.716 158.046 376.085 172.38 475.3 172.623C474.1 172.325 472.906 172.015 471.707 171.71C378.569 164.758 298.807 144.025 247.764 79.7287C216.656 47.0519 189.187 20.7393 163.85 6.7564e-05L166.956 6.74282e-05C192.179 20.7126 219.47 46.8724 250.276 79.2349L250.304 79.2712C299.424 141.179 375.502 162.37 464.55 169.863C463.994 169.715 463.446 169.554 462.893 169.404C454.331 167.956 445.881 166.361 437.543 164.618C364.337 149.252 300.098 121.615 247.766 69.6538C217.465 42.1969 191.192 19.1146 167.62 6.73992e-05L170.745 6.72625e-05C194.191 19.042 220.265 41.9476 250.247 69.1141L250.268 69.1332C302.281 120.79 366.056 148.247 438.695 163.493C442.427 164.277 446.183 165.029 449.963 165.749C377.307 144.354 312.142 110.202 247.834 59.6084C235.747 50.0998 226.349 42.6773 217.366 35.5805C200.962 22.6248 185.966 10.7799 172.113 6.72028e-05L175.283 6.70642e-05C188.922 10.6195 203.656 22.2552 219.745 34.9645C230.058 43.1119 240.94 51.7074 250.2 58.9923C318.184 112.481 387.168 147.503 465.084 168.453C470.973 169.438 476.918 170.359 482.919 171.216C489.915 171.662 496.982 172.04 504.12 172.35C511.751 172.196 519.46 171.982 527.233 171.728C535.458 171.018 543.761 170.266 552.124 169.496L564.278 167.811C568.99 167.157 573.72 166.501 578.467 165.845C587.529 164.225 596.643 162.615 605.809 161.016C615.081 159.065 624.39 157.146 633.737 155.259C643.22 153.031 652.73 150.851 662.267 148.721C671.734 146.313 681.216 143.97 690.712 141.693C700.171 139.146 709.634 136.674 719.098 134.276C728.597 131.601 738.091 129.014 747.58 126.513C757.019 123.765 766.449 121.111 775.869 118.551C785.214 115.76 794.54 113.068 803.847 110.476C813.159 107.637 822.445 104.902 831.707 102.271C840.826 99.444 849.917 96.7222 858.98 94.1057C868.09 91.2402 877.168 88.4846 886.214 85.8388C895.453 82.8995 904.66 80.0757 913.836 77.3676C922.795 74.4964 931.717 71.7353 940.601 69.0845C949.526 66.2012 958.414 63.4277 967.263 60.7641C976.316 57.8197 985.333 54.9896 994.314 52.2737C1088.88 21.3726 1178.97 2.76997 1255.39 7.52091C1309.33 10.8716 1337.39 63.8913 1364.13 114.403C1367.11 120.044 1370.08 125.653 1373.07 131.157C1439.07 135.433 1518.61 156.766 1595.95 177.515C1662.85 195.463 1728.11 212.971 1781.2 218.516C1830.34 223.649 1869.75 219.367 1902 215.033L1902 216.321C1869.57 220.664 1830 224.886 1780.58 219.724C1727.08 214.135 1661.64 196.579 1594.55 178.58C1517.84 158.003 1438.97 136.845 1373.77 132.447L1375.15 134.97C1435.85 140.82 1507.15 161.551 1577.4 181.978C1644.29 201.428 1710.23 220.6 1764.77 226.271C1818.9 231.86 1863.25 224.927 1899.75 219.222L1902 218.872L1902 220.179L1900.64 220.392C1863.8 226.151 1819.04 233.147 1764.16 227.482C1709.15 221.761 1643.02 202.531 1575.92 183.023C1506.36 162.798 1435.77 142.274 1375.89 136.31L1377.26 138.794C1432.87 146.058 1496.52 166.206 1559.91 186.28C1626.34 207.312 1692.47 228.255 1748.35 234.038C1802.36 239.548 1848.54 231.581 1887.41 224.874C1892.39 224.014 1897.25 223.176 1901.99 222.391L1901.99 223.713C1897.55 224.454 1893.02 225.236 1888.38 226.036C1849.15 232.804 1802.55 240.841 1747.73 235.248C1691.35 229.414 1624.99 208.4 1558.33 187.299C1495.7 167.466 1432.8 147.552 1378.03 140.186L1379.4 142.607C1430.17 151.129 1486.77 170.742 1543.6 190.433C1609.09 213.118 1674.89 235.923 1731.93 241.792C1785.91 247.236 1833.87 238.281 1875.04 230.591C1884.38 228.848 1893.36 227.169 1902 225.734L1902 227.054C1893.69 228.447 1885.05 230.061 1876.08 231.734C1834.54 239.493 1786.16 248.532 1731.32 242.998C1673.7 237.066 1607.66 214.183 1541.94 191.404C1485.93 171.995 1430.13 152.663 1380.24 144.056L1381.59 146.404C1427.81 156.04 1477.98 175.165 1528.61 194.47C1592.68 218.896 1657.5 243.609 1715.5 249.549C1769.53 254.941 1819.21 245.032 1862.61 236.368C1876.38 233.631 1889.52 231.008 1902 229.03L1902 230.343C1889.89 232.289 1877.1 234.84 1863.72 237.507C1819.94 246.243 1769.83 256.239 1714.91 250.758C1656.25 244.75 1591.17 219.938 1526.85 195.417C1477.1 176.447 1427.8 157.652 1382.51 147.96C1382.96 148.718 1383.4 149.472 1383.85 150.221C1425.83 160.842 1470.19 179.55 1515.07 198.483C1577.21 224.688 1640.35 251.324 1699.08 257.307C1753.23 262.656 1804.58 251.826 1850.15 242.216C1868.39 238.367 1885.73 234.712 1902 232.347L1902 233.647C1886.12 235.993 1869.15 239.569 1851.3 243.336C1805.33 253.032 1753.53 263.956 1698.49 258.523C1639.04 252.469 1575.61 225.715 1513.21 199.399C1469.27 180.869 1425.84 162.547 1384.86 151.908L1386.18 154.067C1424.27 165.572 1463.43 183.955 1503.06 202.557C1562.75 230.571 1623.51 259.088 1682.66 265.076C1736.97 270.382 1789.94 258.664 1837.64 248.113C1860.39 243.072 1881.95 238.301 1902 235.732L1902 237.018C1882.4 239.578 1861.19 244.267 1838.84 249.213C1790.72 259.856 1737.29 271.673 1682.07 266.277C1622.1 260.207 1561.05 231.553 1501.08 203.405C1462.47 185.283 1424.31 167.372 1387.32 155.902C1387.74 156.586 1388.17 157.266 1388.6 157.942C1423.16 170.263 1457.73 188.426 1492.62 206.763C1549.37 236.592 1606.98 266.87 1666.22 272.828C1720.72 278.097 1775.29 265.517 1825.08 254.038C1852.36 247.749 1878.22 241.787 1902.01 239.223L1902.01 240.497C1878.72 243.065 1853.22 248.944 1826.33 255.144C1776.13 266.716 1721.1 279.405 1665.65 274.041C1605.5 267.988 1547.59 237.547 1490.54 207.568C1456.75 189.812 1423.27 172.217 1389.92 160.007C1390.34 160.643 1390.75 161.275 1391.17 161.902C1422.57 175.001 1453.09 193.081 1483.74 211.242C1537.09 242.845 1590.84 274.693 1649.8 280.586C1704.52 285.825 1760.66 272.404 1812.49 260.011C1844.31 252.404 1874.51 245.181 1902 242.828L1902 244.089C1875.06 246.452 1845.21 253.592 1813.77 261.107C1761.51 273.6 1704.93 287.13 1649.23 281.798L1649.22 281.798C1589.27 275.809 1535.21 243.783 1481.56 211.996C1452.11 194.544 1422.77 177.166 1392.75 164.273C1393.15 164.857 1393.55 165.437 1393.95 166.012C1422.52 179.892 1449.47 198.024 1476.34 216.109C1525.83 249.413 1575.1 282.567 1633.38 288.348C1688.36 293.557 1746.02 279.319 1799.87 266.025C1836.22 257.046 1870.85 248.499 1902 246.567L1902 247.816C1871.44 249.761 1837.16 258.227 1801.18 267.11C1746.91 280.51 1688.78 294.863 1632.81 289.556C1573.46 283.669 1523.88 250.306 1474.08 216.793C1448.52 199.601 1422.91 182.359 1395.95 168.827C1396.33 169.355 1396.71 169.879 1397.1 170.4C1423.09 185.077 1446.8 203.367 1470.26 221.457C1515.49 256.338 1559.77 290.473 1616.97 296.102C1672.22 301.286 1731.4 286.248 1787.22 272.062C1826.49 262.083 1864.12 252.521 1897.85 250.623C1899.24 250.545 1900.62 250.483 1902 250.432L1902 251.674C1900.73 251.722 1899.47 251.78 1898.18 251.851C1864.98 253.719 1827.58 263.223 1788.55 273.145C1732.3 287.439 1672.66 302.597 1616.39 297.31C1558.02 291.566 1513.45 257.194 1467.9 222.077C1445.95 205.167 1423.77 188.07 1399.78 173.959L1399.87 174.084C1400.21 174.516 1400.54 174.949 1400.87 175.384C1424.33 190.843 1445 209.305 1465.26 227.388C1505.89 263.673 1544.8 298.425 1600.54 303.863C1656.1 309.028 1716.77 293.206 1774.53 278.14C1816.44 267.209 1856.83 256.673 1892.96 254.728C1896.01 254.565 1899.02 254.464 1902 254.426L1902 255.668C1899.12 255.703 1896.22 255.799 1893.28 255.955C1857.69 257.87 1817.54 268.342 1775.89 279.206C1717.69 294.387 1656.55 310.332 1599.98 305.07L1599.96 305.07C1542.95 299.506 1503.74 264.495 1462.8 227.939C1444.18 211.312 1425.2 194.363 1404.06 179.761L1404.78 180.792C1425.86 197.054 1443.74 215.79 1461.06 233.945C1496.81 271.412 1530.2 306.4 1584.11 311.615C1639.99 316.763 1702.13 300.171 1761.8 284.234C1806.32 272.348 1849.48 260.822 1888.02 258.832C1892.66 258.587 1897.33 258.491 1902 258.545L1902 259.787C1897.43 259.729 1892.87 259.82 1888.33 260.059C1850.37 262.02 1807.45 273.479 1763.2 285.296C1703.07 301.353 1640.47 318.069 1583.55 312.824L1583.54 312.824C1528.24 307.475 1494.58 272.202 1458.54 234.43C1442.83 217.97 1426.67 201.032 1408.1 185.926L1408.41 186.424C1427.37 203.581 1442.7 222.776 1457.39 241.166C1488.05 279.553 1515.88 314.407 1567.68 319.371C1623.9 324.501 1687.49 307.154 1749.07 290.356C1796.17 277.508 1842.1 264.976 1883.05 262.943C1889.34 262.62 1895.69 262.576 1902 262.81L1902 264.063C1895.79 263.823 1889.55 263.863 1883.36 264.183C1843.01 266.189 1797.33 278.653 1750.49 291.43C1688.46 308.352 1624.41 325.825 1567.14 320.595L1567.12 320.595C1513.83 315.488 1485.75 280.325 1454.82 241.595C1441.97 225.503 1428.62 208.794 1412.8 193.399C1429.3 211.26 1441.96 230.664 1453.95 249.048C1479.4 288.067 1501.83 322.448 1551.26 327.14C1607.83 332.26 1672.85 314.169 1736.32 296.517C1785.98 282.701 1834.69 269.147 1878.07 267.061C1886.25 266.669 1894.24 266.685 1902 267.18L1902 268.441C1894.34 267.929 1886.44 267.905 1878.35 268.292C1835.61 270.345 1787.15 283.827 1737.75 297.571C1673.84 315.349 1608.35 333.57 1550.72 328.353C1499.66 323.511 1477.01 288.798 1451.31 249.398C1441.5 234.36 1431.23 218.635 1418.81 203.646C1431.86 221.385 1441.44 240.022 1450.44 257.532C1470.66 296.884 1487.93 330.493 1534.82 334.894C1591.78 340.004 1658.23 321.184 1723.53 302.688C1775.76 287.897 1827.27 273.306 1873.05 271.181C1883 270.719 1892.67 270.847 1902 271.682L1902 272.96ZM247.776 69.6557L247.776 69.649L247.776 69.6557ZM247.681 250.89L247.681 250.882L247.681 250.89Z" fill="white"/>
</mask>
<g mask="url(#mask0_484_2078)">
<path d="M1902 382.062L1902 -8.41367e-06L0.00390625 7.47254e-05L0.00392295 382.062L1902 382.062Z" fill="#C7C7C7"/>
</g>
</svg>
