<svg width="933" height="93" viewBox="0 0 933 93" fill="none" xmlns="http://www.w3.org/2000/svg">
<path d="M451.666 5.33325C451.666 8.27877 449.279 10.6666 446.333 10.6666C443.387 10.6666 441 8.27877 441 5.33325C441 2.38773 443.387 -8.15392e-05 446.333 -8.15392e-05C449.279 -8.15392e-05 451.666 2.38773 451.666 5.33325ZM10.6663 87.3333C10.6663 90.2788 8.2785 92.6666 5.33301 92.6666C2.38748 92.6666 -0.000335693 90.2788 -0.000335693 87.3333C-0.000335693 84.3877 2.38748 81.9999 5.33301 81.9999C8.2785 81.9999 10.6663 84.3877 10.6663 87.3333ZM446.333 5.33325H447.333V27.8333H446.333H445.333V5.33325H446.333ZM422.333 51.8333V52.8333H29.333V51.8333V50.8333H422.333V51.8333ZM5.33301 75.8333H6.33301V87.3333H5.33301H4.33301V75.8333H5.33301ZM29.333 51.8333V52.8333C16.6305 52.8333 6.33301 63.1307 6.33301 75.8333H5.33301H4.33301C4.33301 62.0261 15.5259 50.8333 29.333 50.8333V51.8333ZM446.333 27.8333H447.333C447.333 41.6404 436.14 52.8333 422.333 52.8333V51.8333V50.8333C435.036 50.8333 445.333 40.5358 445.333 27.8333H446.333Z" fill="#F06A26"/>
<path d="M481 5.33325C481 8.27877 483.387 10.6666 486.333 10.6666C489.279 10.6666 491.666 8.27877 491.666 5.33325C491.666 2.38773 489.279 -8.15392e-05 486.333 -8.15392e-05C483.387 -8.15392e-05 481 2.38773 481 5.33325ZM922 87.3333C922 90.2788 924.388 92.6666 927.333 92.6666C930.279 92.6666 932.666 90.2788 932.666 87.3333C932.666 84.3877 930.279 81.9999 927.333 81.9999C924.388 81.9999 922 84.3877 922 87.3333ZM486.333 5.33325H485.333V27.8333H486.333H487.333V5.33325H486.333ZM510.333 51.8333V52.8333H903.333V51.8333V50.8333H510.333V51.8333ZM927.333 75.8333H926.333V87.3333H927.333H928.333V75.8333H927.333ZM903.333 51.8333V52.8333C916.036 52.8333 926.333 63.1307 926.333 75.8333H927.333H928.333C928.333 62.0261 917.14 50.8333 903.333 50.8333V51.8333ZM486.333 27.8333H485.333C485.333 41.6404 496.526 52.8333 510.333 52.8333V51.8333V50.8333C497.63 50.8333 487.333 40.5358 487.333 27.8333H486.333Z" fill="#F06A26"/>
</svg>
