<svg width="40" height="40" viewBox="0 0 40 40" fill="none" xmlns="http://www.w3.org/2000/svg">
<rect width="40" height="40" rx="12" fill="white"/>
<rect width="40" height="40" rx="12" fill="url(#paint0_linear_244_648)"/>
<path opacity="0.4" d="M28 17V19.92L27.22 19.47C26.58 19.1 25.78 19.21 25.26 19.71C25.15 19.81 25.06 19.93 24.98 20.06L24.92 20.17C24.81 20.36 24.72 20.41 24.71 20.42C24.69 20.41 24.59 20.36 24.48 20.16L24.42 20.06C24.2 19.68 23.85 19.42 23.43 19.31C23 19.19 22.56 19.25 22.19 19.47L21.28 20C20.87 20.23 20.58 20.61 20.46 21.06C20.34 21.52 20.4 21.99 20.63 22.4C20.74 22.58 20.74 22.69 20.74 22.71C20.73 22.72 20.63 22.78 20.41 22.78C19.44 22.78 18.65 23.57 18.65 24.53V25.47C18.65 26.43 19.44 27.22 20.41 27.22C20.63 27.22 20.73 27.28 20.73 27.29C20.74 27.3 20.74 27.42 20.63 27.6C20.56 27.73 20.5 27.86 20.47 28H17C14.24 28 12 25.76 12 23V17C12 14.24 14.24 12 17 12H23C25.76 12 28 14.24 28 17Z" fill="white"/>
<path d="M25.2602 17.74V19.71C25.1502 19.81 25.0602 19.93 24.9802 20.06L24.9202 20.17C24.8102 20.36 24.7202 20.41 24.7102 20.42C24.6902 20.41 24.5902 20.36 24.4802 20.16L24.4202 20.06C24.2002 19.68 23.8502 19.42 23.4302 19.31C23.0002 19.19 22.5602 19.25 22.1902 19.47L21.2802 20C20.8702 20.23 20.5802 20.61 20.4602 21.06C20.3402 21.52 20.4002 21.99 20.6302 22.4C20.7402 22.58 20.7402 22.69 20.7402 22.71C20.7302 22.72 20.6302 22.78 20.4102 22.78C19.4402 22.78 18.6502 23.57 18.6502 24.53V25.26H17.7402C16.0902 25.26 14.7402 23.91 14.7402 22.26V17.74C14.7402 16.09 16.0902 14.74 17.7402 14.74H22.2602C23.9102 14.74 25.2602 16.09 25.2602 17.74Z" fill="white"/>
<path d="M17.0596 10.75V12H16.9996C16.4996 12 16.0196 12.07 15.5596 12.21V10.75C15.5596 10.34 15.8896 10 16.3096 10C16.7196 10 17.0596 10.34 17.0596 10.75Z" fill="white"/>
<path d="M20.75 10.75V12H19.25V10.75C19.25 10.34 19.59 10 20 10C20.41 10 20.75 10.34 20.75 10.75Z" fill="white"/>
<path d="M24.4502 10.75V12.21C23.9902 12.07 23.5002 12 23.0002 12H22.9502V10.75C22.9502 10.34 23.2902 10 23.7002 10C24.1102 10 24.4502 10.34 24.4502 10.75Z" fill="white"/>
<path d="M30 16.3C30 16.72 29.67 17.05 29.25 17.05H28V17C28 16.5 27.93 16.01 27.79 15.55H29.25C29.67 15.55 30 15.89 30 16.3Z" fill="white"/>
<path d="M17.0596 28V29.25C17.0596 29.66 16.7196 30 16.3096 30C15.8896 30 15.5596 29.66 15.5596 29.25V27.79C16.0196 27.93 16.4996 28 16.9996 28H17.0596Z" fill="white"/>
<path d="M12.21 15.55C12.07 16.01 12 16.5 12 17V17.05H10.75C10.34 17.05 10 16.72 10 16.3C10 15.89 10.34 15.55 10.75 15.55H12.21Z" fill="white"/>
<path d="M12 19.25V20.75H10.75C10.34 20.75 10 20.41 10 20C10 19.58 10.34 19.25 10.75 19.25H12Z" fill="white"/>
<path d="M12.21 24.45H10.75C10.34 24.45 10 24.11 10 23.7C10 23.28 10.34 22.95 10.75 22.95H12V23C12 23.5 12.07 23.99 12.21 24.45Z" fill="white"/>
<path opacity="0.4" d="M28.9904 23.53C28.3104 23.53 27.9204 23.19 27.9204 22.69C27.9204 22.49 27.9804 22.26 28.1204 22.02C28.4004 21.54 28.2304 20.92 27.7504 20.65L26.8404 20.12C26.4204 19.87 25.8804 20.02 25.6304 20.44L25.5704 20.54C25.0904 21.37 24.3104 21.37 23.8304 20.54L23.7704 20.44C23.5304 20.02 22.9804 19.87 22.5704 20.12L21.6504 20.65C21.3304 20.83 21.1404 21.17 21.1404 21.52C21.1404 21.69 21.1904 21.86 21.2804 22.02C21.4204 22.26 21.4904 22.49 21.4904 22.69C21.4904 23.19 21.0904 23.53 20.4104 23.53C19.8604 23.53 19.4004 23.98 19.4004 24.53V25.47C19.4004 26.02 19.8604 26.47 20.4104 26.47C21.0904 26.47 21.4904 26.81 21.4904 27.31C21.4904 27.51 21.4204 27.74 21.2804 27.98C21.0004 28.46 21.1704 29.08 21.6504 29.35L22.5704 29.88C22.9804 30.13 23.5304 29.98 23.7704 29.56L23.8304 29.46C24.3104 28.63 25.0904 28.63 25.5704 29.46L25.6304 29.56C25.8804 29.98 26.4204 30.13 26.8404 29.88L27.7504 29.35C28.0704 29.17 28.2604 28.83 28.2604 28.48C28.2604 28.31 28.2104 28.14 28.1204 27.98C27.9804 27.74 27.9204 27.51 27.9204 27.31C27.9204 26.81 28.3104 26.47 28.9904 26.47C29.5504 26.47 30.0004 26.02 30.0004 25.47V24.53C30.0004 23.98 29.5504 23.53 28.9904 23.53ZM24.7004 26.72C23.7504 26.72 22.9804 25.95 22.9804 25C22.9804 24.05 23.7504 23.28 24.7004 23.28C25.6504 23.28 26.4204 24.05 26.4204 25C26.4204 25.95 25.6504 26.72 24.7004 26.72Z" fill="white"/>
<path d="M26.4205 25C26.4205 25.95 25.6505 26.72 24.7005 26.72C23.7505 26.72 22.9805 25.95 22.9805 25C22.9805 24.05 23.7505 23.28 24.7005 23.28C25.6505 23.28 26.4205 24.05 26.4205 25Z" fill="white"/>
<defs>
<linearGradient id="paint0_linear_244_648" x1="0" y1="20" x2="40" y2="20" gradientUnits="userSpaceOnUse">
<stop stop-color="#BDA0FF"/>
<stop offset="1" stop-color="#9F5AF3"/>
</linearGradient>
</defs>
</svg>
