<svg width="1902" height="593" viewBox="0 0 1902 593" fill="none" xmlns="http://www.w3.org/2000/svg">
<path d="M1661.53 177.086L1660.8 179.981L1660.87 180.426C1661.09 179.302 1661.31 178.188 1661.53 177.083M1661.2 164.461C1660.54 166.886 1659.85 169.353 1659.13 171.862C1659.29 172.478 1659.44 173.105 1659.59 173.74C1660.21 171.17 1660.8 168.657 1661.36 166.2C1661.31 165.616 1661.26 165.039 1661.2 164.464L1661.2 164.461ZM1663.89 154.316L1662.96 157.911L1663.05 158.454C1663.34 157.059 1663.62 155.681 1663.89 154.319L1663.89 154.316ZM979.53 472.462L979.418 472.526L979.545 472.456L979.53 472.462ZM1659.8 154.901C1658.84 158.046 1657.85 161.258 1656.82 164.537C1657.13 165.349 1657.42 166.181 1657.7 167.032C1658.61 163.796 1659.47 160.633 1660.29 157.544C1660.13 156.642 1659.97 155.761 1659.8 154.901ZM1663.49 142.255C1662.77 144.79 1662.03 147.369 1661.26 149.993C1661.43 150.61 1661.59 151.237 1661.74 151.873C1662.42 149.205 1663.05 146.591 1663.65 144.032C1663.6 143.431 1663.55 142.839 1663.49 142.255ZM1666.45 131.385C1666.05 132.897 1665.65 134.429 1665.23 135.981L1665.34 136.642C1665.72 134.858 1666.09 133.106 1666.44 131.385L1666.45 131.385ZM996.54 462.82L994.812 463.391C992.814 464.592 990.818 465.786 988.824 466.973L990.133 466.489C992.267 465.275 994.403 464.052 996.54 462.82ZM1006.9 459.332L1006.66 459.412L1004.91 460.435L1006.9 459.332ZM1658.76 202.24L1658.81 202.595L1659.28 200.096L1658.76 202.24ZM1657.09 193.923C1657.24 194.537 1657.39 195.158 1657.53 195.786C1658.11 193.315 1658.66 190.894 1659.18 188.522C1659.13 187.95 1659.08 187.384 1659.03 186.825C1658.4 189.152 1657.76 191.518 1657.09 193.923L1657.09 193.923ZM1654.82 186.362C1655.12 187.191 1655.41 188.031 1655.69 188.896C1656.53 185.757 1657.34 182.684 1658.11 179.677C1657.96 178.775 1657.8 177.889 1657.64 177.018C1656.73 180.077 1655.79 183.191 1654.82 186.359L1654.82 186.362ZM1651.97 179.64C1652.41 180.53 1652.83 181.433 1653.24 182.364C1654.35 178.699 1655.4 175.118 1656.41 171.62C1656.13 170.581 1655.84 169.569 1655.53 168.582L1654.33 172.314C1653.52 174.776 1652.73 177.217 1651.97 179.637L1651.97 179.64ZM1013.33 453.013C1012.38 453.31 1011.43 453.581 1010.47 453.864C1007.84 455.483 1005.2 457.093 1002.57 458.694L1005.23 457.78C1007.93 456.209 1010.62 454.621 1013.33 453.016L1013.33 453.013ZM1024.01 449.682C1023.36 449.891 1022.71 450.108 1022.07 450.312C1019.97 451.563 1017.88 452.807 1015.8 454.045L1017.33 453.485C1019.56 452.228 1021.78 450.961 1024.01 449.685L1024.01 449.682ZM1034.48 446.232L1034.01 446.381L1030.61 448.349L1034.48 446.232ZM1656.83 224.695L1656.88 224.978L1657.23 223.021L1656.83 224.695ZM1655.17 216.163C1655.31 216.776 1655.46 217.398 1655.59 218.024C1656.12 215.639 1656.63 213.293 1657.12 210.986L1656.97 209.314C1656.39 211.562 1655.8 213.843 1655.17 216.159L1655.17 216.163ZM1652.99 208.588C1653.26 209.369 1653.51 210.164 1653.76 210.972C1654.56 207.908 1655.32 204.908 1656.04 201.973C1655.9 201.06 1655.75 200.162 1655.57 199.279C1655.16 200.707 1654.75 202.148 1654.33 203.601C1653.87 205.271 1653.43 206.933 1653 208.588L1652.99 208.588ZM1650.3 201.801C1650.67 202.597 1651.02 203.406 1651.37 204.238L1651.64 203.243L1651.64 203.229C1652.58 199.991 1653.49 196.817 1654.36 193.706C1654.09 192.666 1653.81 191.649 1653.51 190.657C1652.41 194.417 1651.34 198.131 1650.3 201.796L1650.3 201.801ZM1647.03 195.666C1647.54 196.498 1648.04 197.356 1648.51 198.24C1649.51 194.724 1650.55 191.166 1651.63 187.566L1652.05 186.232C1651.67 185.195 1651.26 184.187 1650.84 183.209C1649.52 187.418 1648.25 191.569 1647.03 195.662L1647.03 195.666ZM1030.18 442.918C1028.93 443.257 1027.69 443.597 1026.44 443.927C1023.32 445.888 1020.21 447.836 1017.09 449.771C1018.27 449.405 1019.46 449.042 1020.64 448.667C1023.82 446.764 1027 444.848 1030.18 442.918ZM1040.94 439.858C1039.92 440.154 1038.89 440.451 1037.87 440.747C1035.15 442.408 1032.44 444.06 1029.72 445.703L1032.6 444.735C1035.38 443.123 1038.16 441.497 1040.94 439.858ZM1051.72 436.578L1049.55 437.263C1047.36 438.563 1045.17 439.858 1042.98 441.147L1044.79 440.495C1047.09 439.2 1049.4 437.895 1051.72 436.58L1051.72 436.578ZM1062.29 433.181L1061.58 433.412L1057.14 435.956L1057.28 435.905C1058.94 435.002 1060.6 434.096 1062.28 433.186L1062.29 433.181ZM1653.51 256.472L1653.44 255.779C1653.07 257.969 1652.71 260.14 1652.37 262.291C1652.76 260.325 1653.14 258.386 1653.51 256.472ZM1655.09 247.272L1655.12 247.497L1655.37 245.947L1655.09 247.272ZM1653.49 239.001C1653.6 239.484 1653.71 239.966 1653.82 240.456C1654.31 238.156 1654.78 235.893 1655.22 233.669C1655.18 233.102 1655.13 232.535 1655.07 231.977L1654.34 234.899L1653.49 239.001ZM1651.46 231.553C1651.64 232.103 1651.81 232.653 1651.98 233.215C1652.73 230.235 1653.44 227.312 1654.12 224.446C1653.98 223.598 1653.84 222.762 1653.69 221.939C1652.92 225.183 1652.18 228.387 1651.46 231.553ZM1648.92 224.606C1649.21 225.31 1649.5 226.023 1649.78 226.753C1650.38 224.164 1651 221.553 1651.63 218.918L1651.63 218.894L1652.42 215.991C1652.21 215.102 1651.98 214.212 1651.74 213.355C1650.76 217.16 1649.82 220.907 1648.92 224.599L1648.92 224.606ZM1645.83 218.246C1646.27 219.037 1646.7 219.845 1647.1 220.67C1648.1 216.675 1649.14 212.62 1650.22 208.505C1649.89 207.557 1649.55 206.625 1649.2 205.722C1648.02 209.965 1646.9 214.14 1645.83 218.246ZM1642.21 212.499C1642.79 213.305 1643.36 214.137 1643.9 214.995C1645.05 210.669 1646.25 206.271 1647.51 201.801C1647.05 200.825 1646.56 199.882 1646.06 198.965C1644.71 203.558 1643.43 208.069 1642.21 212.499ZM1047.16 432.494C1045.7 432.851 1044.24 433.209 1042.78 433.553C1039.25 435.819 1035.72 438.07 1032.19 440.305C1033.61 439.91 1035.03 439.507 1036.46 439.096C1040.02 436.912 1043.59 434.712 1047.16 432.494ZM1057.93 429.744C1056.62 430.094 1055.31 430.435 1054.01 430.782C1050.8 432.788 1047.59 434.781 1044.38 436.761C1045.63 436.384 1046.88 436.011 1048.13 435.624C1051.39 433.678 1054.66 431.718 1057.93 429.744ZM1068.77 426.763C1067.68 427.076 1066.59 427.378 1065.49 427.682C1062.69 429.389 1059.88 431.086 1057.06 432.774L1060.13 431.772C1063.01 430.115 1065.89 428.445 1068.77 426.763L1068.77 426.763ZM1079.65 423.546L1077.28 424.262C1074.98 425.616 1072.68 426.963 1070.39 428.303L1072.41 427.596C1074.82 426.255 1077.24 424.906 1079.65 423.55L1079.65 423.546ZM1090.4 420.176L1089.39 420.501C1087.79 421.412 1086.19 422.32 1084.59 423.224L1085.02 423.065C1086.81 422.104 1088.6 421.141 1090.4 420.176L1090.4 420.176ZM1650.3 255.536L1650.57 256.446C1650.91 254.406 1651.26 252.351 1651.62 250.28L1651.64 250.243L1652.35 247.145L1652.13 245.81C1651.49 249.091 1650.88 252.332 1650.3 255.536ZM1647.88 248.331C1648.1 248.915 1648.33 249.505 1648.54 250.11C1649.24 246.427 1649.98 242.692 1650.75 238.903C1650.6 238.251 1650.44 237.609 1650.27 236.976C1649.43 240.815 1648.63 244.6 1647.88 248.331L1647.88 248.331ZM1644.97 241.637C1645.33 242.368 1645.68 243.12 1646.03 243.877C1646.88 239.825 1647.77 235.708 1648.7 231.526C1648.43 230.682 1648.15 229.854 1647.86 229.042C1646.83 233.311 1645.87 237.51 1644.97 241.637L1644.97 241.637ZM1641.56 235.534C1642.06 236.325 1642.55 237.133 1643.02 237.963C1644 233.607 1645.04 229.174 1646.13 224.664C1645.73 223.737 1645.32 222.832 1644.89 221.948C1643.71 226.563 1642.6 231.091 1641.55 235.534L1641.56 235.534ZM1637.65 230.032C1638.28 230.827 1638.9 231.639 1639.51 232.48C1640.61 227.872 1641.78 223.177 1643.02 218.396C1642.48 217.458 1641.93 216.54 1641.36 215.658C1640.04 220.547 1638.8 225.338 1637.64 230.032L1637.65 230.032ZM544.976 352.496L546.766 352.688L546.409 352.464L544.549 352.146L544.976 352.496ZM1064.31 421.719C1062.7 422.061 1061.09 422.395 1059.49 422.72C1055.6 425.262 1051.71 427.789 1047.83 430.3C1049.42 429.904 1051.02 429.497 1052.62 429.086C1056.51 426.651 1060.41 424.195 1064.31 421.719ZM1075.05 419.301C1073.52 419.659 1072.01 420.014 1070.49 420.358C1066.87 422.665 1063.26 424.956 1059.65 427.231C1061.13 426.829 1062.62 426.421 1064.1 426.007C1067.75 423.787 1071.4 421.552 1075.05 419.301L1075.05 419.301ZM1085.92 416.633C1084.53 416.986 1083.15 417.339 1081.78 417.681C1078.48 419.728 1075.18 421.762 1071.88 423.783C1073.21 423.397 1074.53 423.005 1075.86 422.607C1079.21 420.629 1082.56 418.636 1085.92 416.63L1085.92 416.633ZM1096.88 413.718C1095.71 414.043 1094.53 414.366 1093.36 414.682C1090.45 416.434 1087.54 418.176 1084.63 419.906C1085.72 419.565 1086.81 419.226 1087.9 418.877C1090.89 417.168 1093.88 415.447 1096.88 413.715L1096.88 413.718ZM1107.89 410.587L1105.25 411.358C1102.84 412.766 1100.44 414.161 1098.03 415.545C1098.78 415.294 1099.53 415.05 1100.27 414.795C1102.81 413.401 1105.35 411.998 1107.89 410.584L1107.89 410.587ZM1118.78 407.301L1117.38 407.73C1115.64 408.711 1113.9 409.686 1112.16 410.657L1113.02 410.36C1114.94 409.342 1116.86 408.321 1118.78 407.298L1118.78 407.301ZM1649.62 280.992L1649.65 281.112L1650.11 277.321L1649.62 280.992ZM1647.29 273.3C1647.44 273.729 1647.59 274.153 1647.73 274.589C1648.27 270.82 1648.84 266.996 1649.46 263.116L1649.17 261.818C1648.5 265.706 1647.88 269.533 1647.29 273.297L1647.29 273.3ZM1644.52 266.153C1644.8 266.804 1645.08 267.461 1645.36 268.129C1646.03 264.005 1646.76 259.808 1647.53 255.538C1647.32 254.818 1647.1 254.107 1646.87 253.405C1646.03 257.729 1645.25 261.977 1644.52 266.15L1644.52 266.153ZM1641.28 259.568C1641.71 260.33 1642.11 261.111 1642.51 261.903C1643.31 257.485 1644.17 252.984 1645.09 248.4C1644.75 247.537 1644.41 246.695 1644.05 245.865C1643.06 250.523 1642.14 255.09 1641.29 259.565L1641.28 259.568ZM1637.59 253.592C1638.14 254.392 1638.68 255.21 1639.21 256.047C1640.12 251.395 1641.1 246.651 1642.16 241.815C1641.69 240.892 1641.21 239.99 1640.72 239.111C1639.6 244.04 1638.55 248.866 1637.59 253.589L1637.59 253.592ZM1633.44 248.206C1634.12 248.996 1634.79 249.801 1635.44 250.639C1636.45 245.796 1637.54 240.844 1638.72 235.784C1638.12 234.868 1637.51 233.984 1636.88 233.123C1635.64 238.266 1634.49 243.293 1633.44 248.203L1633.44 248.206ZM555.735 355.836L557.527 355.957L557.366 355.876L555.437 355.64L555.735 355.836ZM548.48 355.379L551.263 355.546L550.502 355.056L547.71 354.741L548.48 355.379ZM1081.74 410.538C1080 410.853 1078.28 411.156 1076.55 411.449C1072.35 414.248 1068.15 417.028 1063.95 419.791C1065.67 419.422 1067.4 419.042 1069.12 418.651C1073.33 415.965 1077.53 413.261 1081.74 410.538ZM1092.38 408.492C1090.7 408.831 1089.03 409.162 1087.37 409.483C1083.39 412.067 1079.42 414.637 1075.44 417.192C1077.09 416.797 1078.75 416.391 1080.41 415.982C1084.4 413.503 1088.39 411.007 1092.38 408.492L1092.38 408.492ZM1103.19 406.181C1101.61 406.534 1100.03 406.88 1098.45 407.219C1094.74 409.572 1091.02 411.911 1087.3 414.236C1088.85 413.834 1090.4 413.419 1091.95 413.002C1095.7 410.744 1099.44 408.47 1103.19 406.181ZM1114.15 403.614C1112.71 403.966 1111.26 404.307 1109.82 404.651C1106.41 406.751 1103 408.837 1099.59 410.912C1100.99 410.516 1102.39 410.11 1103.79 409.705C1107.25 407.688 1110.7 405.657 1114.15 403.614ZM1125.25 400.797C1124 401.126 1122.75 401.45 1121.49 401.768C1118.47 403.573 1115.44 405.368 1112.41 407.154C1113.59 406.795 1114.77 406.433 1115.95 406.067C1119.05 404.325 1122.15 402.569 1125.25 400.801L1125.25 400.797ZM1136.4 397.767C1135.4 398.045 1134.41 398.318 1133.41 398.594C1130.86 400.06 1128.32 401.517 1125.77 402.967L1128.44 402.101C1131.09 400.667 1133.75 399.224 1136.4 397.771L1136.4 397.767ZM1147.38 394.598L1145.61 395.114C1143.72 396.164 1141.83 397.21 1139.93 398.251L1141.17 397.83C1143.24 396.761 1145.31 395.685 1147.38 394.603L1147.38 394.598ZM1647.36 300.163L1647.57 300.856C1647.91 297.011 1648.3 293.104 1648.73 289.133L1648.64 288.668C1648.17 292.569 1647.74 296.402 1647.36 300.168L1647.36 300.163ZM1644.66 292.244C1644.87 292.788 1645.07 293.341 1645.28 293.894C1645.75 289.673 1646.27 285.373 1646.85 280.996C1646.7 280.434 1646.55 279.88 1646.39 279.327C1645.76 283.721 1645.18 288.028 1644.66 292.248L1644.66 292.244ZM1641.56 285.011C1641.9 285.723 1642.23 286.447 1642.56 287.182C1643.15 282.676 1643.81 278.076 1644.53 273.385C1644.26 272.599 1643.97 271.828 1643.68 271.066C1642.9 275.819 1642.19 280.469 1641.56 285.015L1641.56 285.011ZM1638.04 278.413C1638.51 279.204 1638.97 280.011 1639.42 280.834C1640.12 276.105 1640.89 271.27 1641.75 266.33C1641.35 265.44 1640.95 264.569 1640.53 263.716C1639.6 268.728 1638.78 273.627 1638.04 278.413ZM1634.11 272.427C1634.71 273.24 1635.29 274.071 1635.86 274.922C1636.64 270.012 1637.52 264.984 1638.49 259.839C1637.97 258.914 1637.43 258.007 1636.9 257.128C1635.86 262.353 1634.93 267.451 1634.11 272.423L1634.11 272.427ZM1629.77 267.041C1630.49 267.84 1631.18 268.656 1631.87 269.499C1632.73 264.441 1633.7 259.252 1634.78 253.933C1634.13 253.026 1633.47 252.145 1632.8 251.291C1631.67 256.682 1630.66 261.931 1629.76 267.037L1629.77 267.041ZM567.369 358.672L568.425 358.703L567.252 358.608L567.369 358.672ZM559.68 358.46L562.548 358.534L561.914 358.2L558.987 357.988L559.68 358.46ZM551.948 358.301L555.58 358.369L554.549 357.686L550.957 357.457L551.948 358.301ZM517.923 339.75C518.867 340.414 519.814 341.069 520.765 341.716L520.193 341.014C519.253 340.301 518.314 339.58 517.376 338.851L517.923 339.75ZM510.478 334.341C511.167 334.859 511.857 335.373 512.549 335.884L511.363 334.015L509.706 332.634L510.478 334.341ZM1099.44 398.96C1097.61 399.23 1095.78 399.489 1093.97 399.737C1089.5 402.765 1085.03 405.779 1080.56 408.78C1082.38 408.452 1084.2 408.113 1086.02 407.765C1090.49 404.847 1094.97 401.912 1099.44 398.96ZM1109.98 397.282C1108.19 397.585 1106.4 397.882 1104.61 398.171C1100.33 401.008 1096.05 403.825 1091.76 406.622C1093.54 406.259 1095.32 405.886 1097.11 405.504C1101.4 402.783 1105.69 400.042 1109.98 397.282ZM1120.71 395.355C1118.97 395.687 1117.24 396.009 1115.51 396.321C1111.45 398.944 1107.38 401.551 1103.31 404.143C1105.02 403.757 1106.74 403.362 1108.45 402.957C1112.53 400.436 1116.61 397.899 1120.7 395.347L1120.71 395.355ZM1131.62 393.163C1129.97 393.51 1128.33 393.85 1126.68 394.183C1122.87 396.578 1119.05 398.956 1115.24 401.316C1116.85 400.92 1118.46 400.515 1120.08 400.099C1123.93 397.8 1127.77 395.486 1131.62 393.159L1131.62 393.163ZM1142.7 390.729C1141.17 391.078 1139.65 391.424 1138.13 391.767C1134.62 393.904 1131.1 396.029 1127.59 398.142C1129.06 397.746 1130.54 397.346 1132.01 396.939C1135.57 394.875 1139.14 392.802 1142.7 390.722L1142.7 390.729ZM1153.92 388.05C1152.55 388.386 1151.19 388.718 1149.83 389.045C1146.68 390.901 1143.53 392.745 1140.37 394.578C1141.67 394.204 1142.96 393.823 1144.26 393.444C1147.48 391.652 1150.7 389.852 1153.92 388.043L1153.92 388.05ZM1165.14 385.179L1161.81 386.05C1159.13 387.569 1156.45 389.083 1153.76 390.59C1154.75 390.284 1155.75 389.977 1156.75 389.666C1159.55 388.176 1162.35 386.677 1165.14 385.171L1165.14 385.179ZM1176.25 382.163L1174.07 382.773C1172.01 383.893 1169.95 385.009 1167.89 386.119L1169.55 385.575C1171.78 384.439 1174.02 383.299 1176.25 382.156L1176.25 382.163ZM1187.02 379.087L1186.64 379.197L1184.66 380.226L1187.02 379.087ZM1645.69 320.94L1646.05 322.104C1646.28 317.801 1646.56 313.409 1646.9 308.928L1646.65 307.862C1646.27 312.312 1645.95 316.669 1645.69 320.933L1645.69 320.94ZM1642.6 312.547C1642.87 313.184 1643.12 313.833 1643.37 314.486C1643.71 309.863 1644.12 305.137 1644.6 300.307C1644.39 299.625 1644.18 298.945 1643.97 298.277C1643.43 303.144 1642.97 307.898 1642.6 312.539L1642.6 312.547ZM1639.18 305.041C1639.57 305.808 1639.95 306.585 1640.32 307.373C1640.76 302.523 1641.28 297.555 1641.9 292.468C1641.57 291.621 1641.23 290.787 1640.89 289.967C1640.22 295.119 1639.65 300.141 1639.18 305.033L1639.18 305.041ZM1635.4 298.266C1635.91 299.088 1636.4 299.93 1636.88 300.786C1637.41 295.754 1638.05 290.59 1638.78 285.294C1638.34 284.373 1637.88 283.466 1637.41 282.581C1636.63 287.952 1635.96 293.178 1635.4 298.258L1635.4 298.266ZM1631.28 292.161C1631.89 292.989 1632.49 293.843 1633.09 294.709C1633.69 289.538 1634.41 284.221 1635.24 278.759C1634.68 277.828 1634.11 276.92 1633.52 276.034C1632.64 281.567 1631.9 286.94 1631.28 292.153L1631.28 292.161ZM1626.81 286.675C1627.53 287.479 1628.23 288.314 1628.92 289.16C1629.58 283.884 1630.37 278.449 1631.29 272.853C1630.61 271.945 1629.92 271.074 1629.22 270.211C1628.27 275.872 1627.47 281.359 1626.81 286.672L1626.81 286.675ZM571.75 361.041L574.628 361.021L574.146 360.818L571.154 360.714L571.75 361.041ZM563.586 361.13L567.348 361.084L566.382 360.563L562.612 360.457L563.586 361.13ZM555.373 361.263L559.754 361.184L558.535 360.353L554.224 360.262L555.373 361.263ZM550.263 360.193L550.912 360.455L550.616 360.199L550.263 360.193ZM531.355 351.336C532.877 352.147 534.399 352.937 535.922 353.708C534.274 352.786 532.633 351.838 530.998 350.863L531.355 351.336ZM521.486 345.765C523.004 346.669 524.523 347.552 526.045 348.414L525.144 347.246C523.635 346.282 522.131 345.298 520.63 344.293L521.486 345.765ZM513.244 340.656C514.456 341.436 515.667 342.203 516.877 342.959L515.609 340.853C514.502 340.075 513.398 339.284 512.299 338.481L513.244 340.656ZM1117.45 386.965C1115.54 387.182 1113.64 387.386 1111.74 387.577C1107.03 390.826 1102.31 394.056 1097.58 397.268C1099.48 396.993 1101.38 396.705 1103.29 396.404C1108.02 393.276 1112.74 390.13 1117.45 386.965L1117.45 386.965ZM1127.88 385.666C1125.99 385.921 1124.11 386.165 1122.23 386.396C1117.68 389.46 1113.12 392.51 1108.56 395.546C1110.43 395.231 1112.31 394.903 1114.2 394.564C1118.77 391.617 1123.33 388.651 1127.89 385.666L1127.88 385.666ZM1138.51 384.117C1136.65 384.406 1134.8 384.685 1132.95 384.955C1128.59 387.826 1124.21 390.682 1119.82 393.522C1121.65 393.172 1123.49 392.813 1125.34 392.443C1129.74 389.683 1134.13 386.908 1138.51 384.116L1138.51 384.117ZM1149.34 382.317C1147.54 382.634 1145.74 382.941 1143.95 383.24C1139.78 385.908 1135.6 388.558 1131.42 391.19C1133.2 390.814 1134.98 390.429 1136.76 390.037C1140.96 387.481 1145.16 384.908 1149.35 382.317L1149.34 382.317ZM1160.36 380.283C1158.64 380.619 1156.91 380.945 1155.19 381.263C1151.26 383.7 1147.33 386.121 1143.4 388.528C1145.09 388.132 1146.78 387.733 1148.47 387.33C1152.44 384.996 1156.4 382.648 1160.36 380.283L1160.36 380.283ZM1171.56 378.012C1169.93 378.356 1168.31 378.694 1166.68 379.026C1163.04 381.211 1159.4 383.382 1155.75 385.542C1157.33 385.147 1158.91 384.744 1160.49 384.335C1164.18 382.24 1167.87 380.132 1171.56 378.012ZM1182.83 375.536C1181.36 375.87 1179.9 376.199 1178.44 376.524C1175.15 378.429 1171.85 380.323 1168.55 382.206C1169.94 381.831 1171.34 381.451 1172.73 381.068C1176.1 379.236 1179.47 377.393 1182.83 375.536L1182.83 375.536ZM1194.14 372.878L1190.46 373.768C1187.62 375.349 1184.77 376.921 1181.92 378.484L1185.29 377.508C1188.24 375.971 1191.19 374.428 1194.14 372.878ZM1205.41 370.062L1202.74 370.744C1200.49 371.936 1198.23 373.122 1195.98 374.302L1198.15 373.64C1200.57 372.458 1202.99 371.267 1205.41 370.066L1205.41 370.062ZM1216.28 367.209L1215.32 367.466L1211.09 369.586L1211.32 369.513L1216.28 367.209ZM1649.05 371.55L1649.03 371.421C1649.09 372.384 1649.17 373.34 1649.24 374.291L1649.05 371.55ZM1648.25 354.924L1648.28 355.048C1648.21 352.083 1648.16 349.069 1648.14 346.005C1648.15 349.031 1648.18 352.006 1648.25 354.928L1648.25 354.924ZM1644.93 343.824C1645.11 344.322 1645.27 344.832 1645.43 345.336C1645.43 340.56 1645.52 335.659 1645.69 330.635L1645.27 329.047C1645.06 334.114 1644.95 339.041 1644.93 343.829L1644.93 343.824ZM1641.43 334.609C1641.73 335.312 1642.02 336.031 1642.31 336.747C1642.42 331.692 1642.63 326.492 1642.94 321.149C1642.68 320.366 1642.42 319.59 1642.15 318.822C1641.79 324.247 1641.55 329.511 1641.43 334.614L1641.43 334.609ZM1637.68 326.604C1638.1 327.401 1638.5 328.21 1638.9 329.03C1639.1 323.792 1639.42 318.399 1639.86 312.852C1639.48 311.955 1639.1 311.07 1638.71 310.2C1638.24 315.849 1637.89 321.319 1637.68 326.61L1637.68 326.604ZM1633.67 319.498C1634.19 320.335 1634.69 321.186 1635.19 322.051C1635.47 316.679 1635.88 311.134 1636.42 305.416C1635.94 304.471 1635.45 303.544 1634.94 302.635C1634.37 308.454 1633.94 314.077 1633.67 319.504L1633.67 319.498ZM1629.39 313.15C1630 313.98 1630.6 314.826 1631.19 315.686C1631.53 310.216 1632.01 304.557 1632.63 298.71C1632.05 297.77 1631.45 296.851 1630.84 295.951C1630.19 301.898 1629.71 307.633 1629.39 313.156L1629.39 313.15ZM1624.86 307.462C1625.55 308.259 1626.23 309.07 1626.9 309.902C1627.27 304.367 1627.8 298.628 1628.49 292.686C1627.81 291.777 1627.11 290.891 1626.4 290.026C1625.71 296.07 1625.2 301.884 1624.86 307.47L1624.86 307.462ZM584.675 363.097L587.532 362.993L587.281 362.909L584.244 362.909L584.675 363.097ZM576.086 363.441L579.924 363.284L579.079 362.915L575.18 362.931L576.086 363.441ZM567.449 363.825L572.001 363.619L570.813 362.962L566.293 363.009L567.449 363.825ZM558.765 364.25L563.837 363.995L562.5 363.06L557.527 363.138L558.765 364.25ZM553.159 363.213L554.638 363.687L554.082 363.196L553.159 363.213ZM546.726 360.998L547.571 361.312L546.658 360.932L546.726 360.998ZM534.954 356.239C537.217 357.238 539.48 358.189 541.745 359.093L541.273 358.581C538.908 357.504 536.549 356.372 534.196 355.185L534.954 356.239ZM524.698 351.397C526.583 352.342 528.468 353.257 530.352 354.141L529.208 352.589C527.349 351.593 525.492 350.564 523.638 349.504L524.698 351.397ZM515.805 346.718C517.39 347.592 518.976 348.444 520.563 349.276L519.212 346.914C517.724 346.024 516.239 345.115 514.755 344.186L515.805 346.718ZM1135.77 374.557C1133.81 374.711 1131.84 374.855 1129.88 374.989C1124.95 378.439 1120.01 381.872 1115.07 385.29C1117.03 385.073 1118.99 384.844 1120.96 384.602C1125.9 381.272 1130.84 377.924 1135.77 374.557ZM1146.11 373.631C1144.14 373.829 1142.18 374.013 1140.23 374.183C1135.43 377.467 1130.62 380.735 1125.81 383.987C1127.76 383.729 1129.72 383.458 1131.68 383.176C1136.5 380.012 1141.3 376.831 1146.11 373.631ZM1156.64 372.471C1154.69 372.705 1152.75 372.928 1150.8 373.141C1146.15 376.245 1141.49 379.335 1136.82 382.411C1138.76 382.114 1140.7 381.805 1142.64 381.484C1147.32 378.495 1151.98 375.49 1156.64 372.471ZM1167.37 371.085C1165.45 371.351 1163.53 371.608 1161.62 371.854C1157.14 374.768 1152.65 377.665 1148.16 380.546C1150.06 380.214 1151.96 379.872 1153.86 379.521C1158.37 376.725 1162.87 373.913 1167.37 371.085ZM1178.29 369.476C1176.42 369.773 1174.55 370.056 1172.68 370.327C1168.39 373.031 1164.1 375.722 1159.81 378.399C1161.65 378.04 1163.5 377.674 1165.35 377.301C1169.66 374.707 1173.98 372.099 1178.29 369.476ZM1189.41 367.647C1187.59 367.961 1185.77 368.267 1183.95 368.566C1179.9 371.044 1175.84 373.507 1171.78 375.958C1173.56 375.578 1175.35 375.192 1177.13 374.798C1181.23 372.427 1185.32 370.043 1189.41 367.647ZM1200.63 365.623C1198.91 365.945 1197.19 366.265 1195.48 366.575C1191.7 368.802 1187.92 371.017 1184.13 373.222C1185.8 372.839 1187.46 372.448 1189.13 372.051C1192.96 369.92 1196.8 367.778 1200.63 365.623ZM1211.96 363.413C1210.39 363.73 1208.82 364.043 1207.25 364.351C1203.8 366.297 1200.36 368.236 1196.91 370.168C1198.41 369.797 1199.91 369.421 1201.41 369.04C1204.93 367.174 1208.45 365.298 1211.96 363.413ZM1223.37 361.027L1219.26 361.903C1216.24 363.534 1213.22 365.159 1210.2 366.776C1211.47 366.442 1212.74 366.106 1214.01 365.767C1217.13 364.195 1220.25 362.616 1223.37 361.027L1223.37 361.027ZM1234.66 358.532L1231.52 359.239C1229.06 360.499 1226.6 361.755 1224.15 363.006L1226.83 362.256C1229.44 361.021 1232.05 359.78 1234.66 358.532L1234.66 358.532ZM1245.63 355.988L1244.01 356.372L1239.01 358.778L1239.96 358.503L1245.63 355.988ZM1643.25 371.274C1643 370.524 1642.74 369.792 1642.48 369.051C1643.2 376.624 1644.23 383.748 1645.59 390.421C1644.59 384.355 1643.81 377.973 1643.25 371.274ZM1648 388.2L1647.81 387.386C1647.99 388.586 1648.18 389.772 1648.38 390.944C1648.25 390.038 1648.13 389.123 1648 388.2ZM1645.91 370.79L1646.38 372.219C1645.97 366.77 1645.7 361.128 1645.55 355.293C1645.38 354.629 1645.2 353.969 1645.02 353.314C1645.16 359.369 1645.46 365.195 1645.91 370.79ZM1641.78 359.724C1642.07 360.406 1642.34 361.101 1642.63 361.8C1642.34 356.142 1642.21 350.271 1642.22 344.185C1641.93 343.334 1641.63 342.494 1641.33 341.664C1641.3 347.925 1641.45 353.945 1641.78 359.724ZM1637.66 350.734C1638.04 351.493 1638.42 352.266 1638.79 353.044C1638.6 347.274 1638.57 341.274 1638.71 335.045C1638.31 334.123 1637.91 333.213 1637.5 332.314C1637.36 338.719 1637.41 344.859 1637.66 350.734ZM1633.41 343.015C1633.88 343.806 1634.35 344.602 1634.8 345.405C1634.68 339.549 1634.73 333.448 1634.97 327.102C1634.47 326.156 1633.97 325.226 1633.46 324.313C1633.23 330.83 1633.21 337.064 1633.41 343.015ZM1629.04 336.216C1629.58 336.987 1630.11 337.77 1630.63 338.564C1630.53 332.655 1630.64 326.483 1630.95 320.048C1630.37 319.121 1629.78 318.219 1629.18 317.328C1628.89 323.928 1628.84 330.224 1629.04 336.216ZM1624.54 330.228C1625.13 330.958 1625.71 331.699 1626.29 332.452C1626.19 326.503 1626.32 320.273 1626.67 313.762C1626.02 312.879 1625.35 312.014 1624.66 311.169C1624.36 317.85 1624.31 324.203 1624.54 330.228ZM598.481 364.649L601.017 364.483L598.244 364.563L598.481 364.649ZM589.449 365.254L593.327 364.989L592.636 364.747L588.642 364.886L589.449 365.254ZM580.38 365.896L585.055 365.559L583.935 365.058L579.248 365.244L580.38 365.896ZM571.264 366.573L576.547 366.176L575.201 365.414L569.987 365.642L571.264 366.573ZM562.106 367.285L567.812 366.84L566.378 365.814L560.786 366.086L562.106 367.285ZM550.082 364.796C552.806 365.574 555.521 366.278 558.226 366.908L557.495 366.247L556.66 366.29L556.331 366.308L556.033 366.219C553.86 365.582 551.689 364.894 549.519 364.155L550.082 364.796ZM538.304 360.992C540.777 361.881 543.242 362.711 545.701 363.482L544.807 362.483C542.29 361.551 539.775 360.558 537.26 359.503L538.304 360.992ZM527.678 356.863C529.845 357.767 532.008 358.634 534.166 359.462L532.835 357.591C530.71 356.645 528.588 355.66 526.469 354.635L527.678 356.863ZM518.198 352.679C520.088 353.559 521.977 354.411 523.864 355.237L522.433 352.638C520.644 351.734 518.854 350.804 517.065 349.849L518.198 352.679ZM1154.41 361.739C1152.38 361.83 1150.36 361.909 1148.35 361.976C1143.22 365.612 1138.09 369.234 1132.95 372.843C1134.96 372.694 1136.97 372.53 1138.99 372.354C1144.14 368.829 1149.28 365.291 1154.41 361.739ZM1164.67 361.177C1162.64 361.306 1160.61 361.426 1158.59 361.534C1153.57 365.018 1148.54 368.488 1143.5 371.944C1145.51 371.753 1147.53 371.549 1149.55 371.334C1154.6 367.963 1159.63 364.578 1164.66 361.177L1164.67 361.177ZM1175.11 360.408C1173.08 360.576 1171.06 360.732 1169.03 360.878C1164.13 364.2 1159.22 367.508 1154.3 370.801C1156.32 370.565 1158.34 370.318 1160.36 370.06C1165.28 366.859 1170.2 363.641 1175.11 360.408ZM1185.73 359.437C1183.72 359.634 1181.71 359.825 1179.71 360.01C1174.94 363.153 1170.17 366.283 1165.39 369.4C1167.39 369.13 1169.39 368.847 1171.39 368.552C1176.18 365.531 1180.96 362.492 1185.73 359.437ZM1196.54 358.27C1194.56 358.5 1192.57 358.721 1190.59 358.934C1185.99 361.882 1181.38 364.819 1176.76 367.743C1178.74 367.44 1180.7 367.127 1182.67 366.806C1187.3 363.975 1191.92 361.13 1196.54 358.27ZM1207.53 356.909C1205.58 357.166 1203.62 357.413 1201.66 357.65C1197.25 360.39 1192.83 363.118 1188.4 365.835C1190.34 365.501 1192.27 365.16 1194.21 364.814C1198.66 362.194 1203.1 359.559 1207.54 356.909L1207.53 356.909ZM1218.65 355.374C1216.76 355.648 1214.86 355.916 1212.96 356.178C1208.77 358.689 1204.58 361.19 1200.37 363.679C1202.24 363.327 1204.1 362.968 1205.97 362.603C1210.21 360.205 1214.44 357.796 1218.66 355.374L1218.65 355.374ZM1229.9 353.671C1228.09 353.957 1226.28 354.237 1224.48 354.512C1220.55 356.771 1216.62 359.021 1212.68 361.261C1214.45 360.903 1216.21 360.538 1217.97 360.166C1221.96 358.012 1225.94 355.847 1229.91 353.671L1229.9 353.671ZM1241.26 351.815C1239.57 352.103 1237.88 352.384 1236.19 352.66C1232.59 354.637 1228.98 356.61 1225.37 358.581C1227 358.228 1228.62 357.87 1230.23 357.505C1233.92 355.617 1237.6 353.721 1241.27 351.815L1241.26 351.815ZM1252.63 349.834C1251.13 350.104 1249.62 350.371 1248.12 350.633C1244.92 352.304 1241.73 353.968 1238.53 355.625L1242.75 354.641C1246.05 353.042 1249.34 351.439 1252.64 349.834L1252.63 349.834ZM1263.92 347.759L1260.25 348.445C1257.58 349.757 1254.91 351.064 1252.24 352.368L1255.5 351.572C1258.31 350.306 1261.12 349.035 1263.93 347.759L1263.92 347.759ZM1274.89 345.654L1272.54 346.112L1266.75 348.76L1268.47 348.315C1270.61 347.433 1272.76 346.546 1274.9 345.654L1274.89 345.654ZM1658.39 433.301C1663.57 446.884 1668.82 459.714 1674.12 471.791C1670.54 462.987 1667.05 453.751 1663.63 444.084C1662.8 442.376 1661.99 440.629 1661.22 438.841C1660.24 437.048 1659.3 435.201 1658.39 433.301ZM1641.15 381.671L1641.44 382.313C1640.36 375.395 1639.59 368.048 1639.12 360.274C1638.77 359.431 1638.41 358.592 1638.05 357.767C1638.65 366.316 1639.69 374.284 1641.15 381.671ZM1636.44 372.082L1637.02 373.184C1636.02 366.336 1635.35 359.053 1635 351.336C1634.57 350.477 1634.13 349.629 1633.68 348.792C1634.17 357.121 1635.09 364.884 1636.44 372.082ZM1632.01 364.336C1632.23 364.701 1632.45 365.077 1632.67 365.45C1631.69 358.641 1631.05 351.377 1630.76 343.657C1630.27 342.833 1629.76 342.02 1629.25 341.218C1629.71 349.52 1630.63 357.226 1632.01 364.336L1632.01 364.336ZM1627.77 357.886C1627.98 358.182 1628.18 358.492 1628.38 358.792C1627.34 351.996 1626.68 344.715 1626.4 336.95C1625.85 336.174 1625.3 335.411 1624.74 334.661C1625.24 343.044 1626.25 350.786 1627.77 357.886L1627.77 357.886ZM603.688 366.529L607.556 366.167L607.066 366.032L603.016 366.283L603.688 366.529ZM594.178 367.436L598.95 366.978L597.938 366.615L593.103 366.935L594.178 367.436ZM584.63 368.375L590.064 367.838L588.751 367.235L583.337 367.616L584.63 368.375ZM575.042 369.344L580.981 368.741L579.516 367.891C577.572 368.033 575.621 368.177 573.662 368.326L575.042 369.344ZM565.418 370.343L571.722 369.685L570.22 368.585L564.049 369.068L565.418 370.343ZM553.372 368.573C556.177 369.166 558.966 369.684 561.739 370.115L560.874 369.317L560.511 369.347L560.236 369.368L559.959 369.309C557.464 368.777 554.963 368.178 552.457 367.513L553.372 368.573ZM541.51 365.641C544.156 366.387 546.788 367.069 549.405 367.687L548.228 366.336C545.58 365.567 542.926 364.727 540.267 363.816L541.51 365.641ZM530.521 362.216C532.916 363.035 535.311 363.804 537.706 364.523L536.227 362.403C533.888 361.552 531.545 360.654 529.198 359.709L530.521 362.216ZM520.497 358.557C522.651 359.396 524.799 360.197 526.941 360.962L525.451 358.168C523.405 357.305 521.353 356.403 519.299 355.477L520.497 358.557ZM1163.3 348.561C1153.81 348.509 1144.36 348.21 1134.98 347.614C1061.17 343.927 980.906 342.988 888.395 346.917C842.878 348.852 794.394 351.965 742.251 356.51C787.206 354.273 829.321 353.192 869.148 352.925C957.604 352.332 1034.69 355.756 1106.45 359.448L1106.49 359.448C1119.85 360.345 1133.44 360.511 1147.16 360.089C1152.55 356.26 1157.93 352.417 1163.31 348.561L1163.3 348.561ZM1173.34 348.522C1171.27 348.549 1169.19 348.564 1167.12 348.568C1161.83 352.374 1156.52 356.168 1151.2 359.949C1153.26 359.869 1155.32 359.776 1157.39 359.669C1162.72 355.969 1168.04 352.253 1173.35 348.522L1173.34 348.522ZM1183.56 348.307C1181.47 348.37 1179.38 348.419 1177.3 348.456C1172.08 352.126 1166.85 355.783 1161.6 359.426C1163.68 359.304 1165.75 359.169 1167.83 359.021C1173.09 355.467 1178.33 351.896 1183.56 348.307L1183.56 348.307ZM1193.93 347.919C1191.84 348.018 1189.75 348.103 1187.65 348.174C1182.52 351.696 1177.39 355.205 1172.24 358.7C1174.32 358.539 1176.4 358.365 1178.48 358.178C1183.64 354.771 1188.79 351.351 1193.93 347.919L1193.93 347.919ZM1204.47 347.363C1202.38 347.49 1200.29 347.606 1198.21 347.713C1193.19 351.073 1188.16 354.419 1183.12 357.751C1185.19 357.553 1187.27 357.343 1189.35 357.121C1194.4 353.881 1199.44 350.629 1204.47 347.363L1204.47 347.363ZM1215.16 346.647C1213.09 346.799 1211.01 346.944 1208.94 347.083C1204.05 350.261 1199.15 353.428 1194.25 356.583C1196.31 356.35 1198.37 356.108 1200.43 355.855C1205.36 352.798 1210.27 349.729 1215.17 346.647L1215.16 346.647ZM1226.03 345.775C1223.96 345.953 1221.9 346.124 1219.84 346.288C1215.11 349.271 1210.36 352.243 1205.61 355.205C1207.66 354.941 1209.71 354.668 1211.75 354.387C1216.52 351.527 1221.28 348.656 1226.03 345.775L1226.03 345.775ZM1237.02 344.763C1234.99 344.96 1232.96 345.153 1230.93 345.339C1226.38 348.107 1221.82 350.866 1217.24 353.618C1219.25 353.329 1221.26 353.033 1223.27 352.728C1227.86 350.083 1232.44 347.428 1237.01 344.763L1237.02 344.763ZM1248.11 343.62C1246.14 343.834 1244.16 344.043 1242.18 344.245C1237.85 346.779 1233.5 349.305 1229.15 351.822C1231.1 351.515 1233.04 351.203 1234.99 350.885C1239.37 348.473 1243.74 346.051 1248.1 343.62L1248.11 343.62ZM1259.31 342.357C1257.41 342.579 1255.51 342.798 1253.61 343.013C1249.53 345.287 1245.44 347.56 1241.35 349.833C1243.21 349.516 1245.08 349.194 1246.94 348.869C1251.07 346.705 1255.19 344.534 1259.31 342.357L1259.31 342.357ZM1270.57 340.993C1268.77 341.217 1266.98 341.438 1265.18 341.655C1261.42 343.653 1257.65 345.645 1253.86 347.631C1255.61 347.317 1257.34 346.998 1259.08 346.675C1262.91 344.787 1266.74 342.893 1270.56 340.993L1270.57 340.993ZM1281.82 339.547L1276.92 340.188C1273.53 341.868 1270.15 343.548 1266.77 345.228L1271.42 344.339C1274.89 342.745 1278.36 341.147 1281.82 339.547L1281.82 339.547ZM1292.97 338.051L1288.78 338.621C1285.9 339.958 1283.02 341.292 1280.14 342.624L1283.96 341.86C1286.96 340.594 1289.97 339.324 1292.96 338.051L1292.97 338.051ZM1303.83 336.544L1300.79 336.969L1294.2 339.771L1296.68 339.26L1303.83 336.544ZM1313.95 335.107L1312.94 335.255L1309.46 336.59L1309.58 336.562L1313.95 335.107ZM618.835 367.269L622.639 366.824L622.37 366.766L618.34 367.125L618.835 367.269ZM608.872 368.455L613.691 367.879L612.807 367.629L607.881 368.083L608.872 368.455ZM598.885 369.661L604.458 368.985L603.19 368.521L597.598 369.054L598.885 369.661ZM588.861 370.896L594.99 370.137L593.511 369.446L587.426 370.039L588.861 370.896ZM578.806 372.153L585.357 371.331L583.802 370.404L577.337 371.058L578.806 372.153ZM568.715 373.439L575.598 372.561L574.038 371.396L567.295 372.097L568.715 373.439ZM556.608 372.374C559.494 372.781 562.359 373.104 565.203 373.345L564.218 372.42L564.125 372.431L563.892 372.398C561.09 372.014 558.272 371.546 555.439 370.996L556.608 372.374ZM544.608 370.248C547.409 370.841 550.19 371.364 552.952 371.815L551.574 370.202C548.805 369.602 546.023 368.928 543.226 368.18L544.608 370.248ZM533.262 367.507C535.874 368.213 538.47 368.864 541.051 369.461L539.483 367.138C536.947 366.409 534.408 365.627 531.865 364.791L533.262 367.507ZM522.725 364.403C525.12 365.164 527.501 365.884 529.868 366.563L528.331 363.598C526.054 362.807 523.772 361.982 521.484 361.122L522.725 364.403ZM1182.48 334.713C1176.21 334.522 1169.94 334.242 1163.69 333.874C1087.79 330.187 1004.31 331.729 907.611 338.997C863.654 342.302 816.949 346.791 766.992 352.51C809.766 349.081 850.046 346.629 888.232 345.006C980.885 341.068 1061.26 342.01 1135.18 345.701L1135.2 345.701C1145.38 346.348 1155.64 346.644 1165.97 346.649C1171.49 342.679 1176.99 338.7 1182.48 334.71L1182.48 334.713ZM1192.56 334.949C1190.42 334.913 1188.29 334.869 1186.15 334.815C1180.72 338.769 1175.27 342.71 1169.81 346.64C1171.93 346.625 1174.03 346.599 1176.14 346.563C1181.62 342.7 1187.1 338.828 1192.55 334.946L1192.56 334.949ZM1202.78 335.048C1200.63 335.041 1198.48 335.025 1196.33 335C1190.94 338.835 1185.54 342.662 1180.12 346.481C1182.24 346.43 1184.37 346.367 1186.5 346.294C1191.94 342.556 1197.37 338.807 1202.77 335.045L1202.78 335.048ZM1213.12 335.018C1210.96 335.038 1208.81 335.049 1206.65 335.052C1201.32 338.756 1195.98 342.452 1190.62 346.14C1192.76 346.053 1194.89 345.954 1197.03 345.843C1202.41 342.245 1207.77 338.636 1213.11 335.015L1213.12 335.018ZM1223.59 334.87C1221.44 334.914 1219.28 334.951 1217.12 334.978C1211.88 338.536 1206.62 342.084 1201.34 345.621C1203.47 345.5 1205.61 345.37 1207.76 345.233C1213.05 341.787 1218.33 338.332 1223.59 334.866L1223.59 334.87ZM1234.19 334.6C1232.04 334.664 1229.88 334.722 1227.73 334.772C1222.58 338.162 1217.42 341.545 1212.25 344.92C1214.38 344.769 1216.52 344.61 1218.66 344.443C1223.85 341.173 1229.03 337.892 1234.19 334.6ZM1244.9 334.236C1242.76 334.318 1240.61 334.394 1238.47 334.465C1233.45 337.67 1228.41 340.869 1223.36 344.062C1225.49 343.884 1227.62 343.698 1229.76 343.504C1234.82 340.426 1239.87 337.338 1244.91 334.24L1244.9 334.236ZM1255.72 333.774C1253.59 333.873 1251.46 333.967 1249.34 334.055C1244.47 337.058 1239.58 340.054 1234.68 343.043C1236.79 342.845 1238.91 342.636 1241.02 342.416C1245.93 339.548 1250.83 336.669 1255.72 333.779L1255.72 333.774ZM1266.61 333.233C1264.52 333.344 1262.43 333.451 1260.33 333.554C1255.64 336.332 1250.93 339.105 1246.22 341.873C1248.29 341.653 1250.37 341.426 1252.44 341.191C1257.18 338.548 1261.9 335.896 1266.61 333.238L1266.61 333.233ZM1277.59 332.618C1275.55 332.738 1273.5 332.855 1271.45 332.969C1266.97 335.505 1262.48 338.035 1257.98 340.56C1260.01 340.325 1262.04 340.084 1264.06 339.838C1268.58 337.441 1273.09 335.036 1277.59 332.623L1277.59 332.618ZM1288.61 331.951L1282.67 332.317C1278.44 334.585 1274.21 336.85 1269.97 339.111C1271.92 338.866 1273.87 338.619 1275.82 338.37C1280.1 336.236 1284.36 334.098 1288.6 331.955L1288.61 331.951ZM1299.65 331.239L1293.98 331.609C1290.07 333.585 1286.14 335.562 1282.21 337.539L1287.74 336.797C1291.71 334.951 1295.68 333.1 1299.64 331.244L1299.65 331.239ZM1310.63 330.506L1305.38 330.86C1301.84 332.523 1298.29 334.186 1294.74 335.847L1299.81 335.146C1303.41 333.604 1307.02 332.059 1310.62 330.51L1310.63 330.506ZM1321.5 329.764L1320.13 329.856L1316.85 330.08C1313.79 331.399 1310.72 332.718 1307.64 334.04L1311.99 333.419C1315.16 332.207 1318.32 330.992 1321.48 329.773L1321.5 329.764ZM1332.06 329.05L1328.4 329.297L1321.11 332.114L1324.31 331.652L1332.06 329.05ZM1341.96 328.394L1339.97 328.522L1335.47 330.034L1336.73 329.85L1339.7 329.022L1341.96 328.394ZM634.871 367.452L638.527 366.942L634.59 367.387L634.871 367.452ZM624.456 368.919L629.272 368.238L628.556 368.083L623.588 368.659L624.456 368.919ZM614.01 370.401L619.669 369.595L618.499 369.252L612.778 369.93L614.01 370.401ZM603.543 371.909L609.847 371L608.401 370.453L602.112 371.212L603.543 371.909ZM593.046 373.442L599.832 372.451L598.247 371.688L591.53 372.512L593.046 373.442ZM582.523 374.989L589.681 373.934L588.054 372.945L581.008 373.826L582.523 374.989ZM571.974 376.555L579.41 375.451L577.811 374.232L570.522 375.16L571.974 376.555ZM559.797 376.196C562.769 376.419 565.713 376.553 568.628 376.599L567.415 375.439C564.448 375.241 561.458 374.952 558.446 374.571L559.797 376.196ZM547.632 374.843C550.578 375.273 553.497 375.626 556.388 375.903L554.864 374.081C551.974 373.654 549.067 373.148 546.14 372.564L547.632 374.843ZM535.927 372.779C538.732 373.356 541.513 373.87 544.27 374.319L542.632 371.835C539.927 371.242 537.206 370.59 534.468 369.881L535.927 372.779ZM524.886 370.225C527.499 370.892 530.095 371.512 532.676 372.085L531.104 368.981C528.619 368.294 526.121 367.561 523.612 366.781L524.886 370.225ZM1201.79 320.605C1198.66 320.457 1195.54 320.297 1192.41 320.125C1114.43 316.438 1027.72 320.459 926.811 331.064C884.755 335.487 840.219 341.054 792.838 347.682C833.042 343.331 871.103 339.805 907.313 337.083C1004.19 329.801 1087.83 328.26 1163.88 331.954L1163.91 331.954C1170.93 332.373 1177.97 332.674 1185.03 332.858C1190.64 328.781 1196.22 324.696 1201.79 320.602L1201.79 320.605ZM1211.99 321.05C1209.78 320.964 1207.57 320.872 1205.36 320.774C1199.83 324.839 1194.28 328.9 1188.71 332.955C1190.87 333.002 1193.03 333.04 1195.2 333.067C1200.82 329.064 1206.42 325.055 1212 321.041L1211.99 321.05ZM1222.29 321.415C1220.07 321.344 1217.85 321.268 1215.63 321.187C1210.1 325.166 1204.55 329.139 1198.98 333.107C1201.17 333.125 1203.35 333.134 1205.54 333.134C1211.14 329.229 1216.73 325.32 1222.3 321.406L1222.29 321.415ZM1232.66 321.711C1230.44 321.654 1228.21 321.592 1225.99 321.526C1220.48 325.397 1214.96 329.263 1209.42 333.122C1211.61 333.112 1213.8 333.095 1215.99 333.069C1221.57 329.285 1227.13 325.497 1232.67 321.702L1232.66 321.711ZM1243.11 321.952C1240.89 321.907 1238.67 321.858 1236.45 321.803C1230.99 325.544 1225.51 329.281 1220.01 333.012C1222.21 332.978 1224.41 332.935 1226.6 332.883C1232.13 329.242 1237.63 325.597 1243.12 321.946L1243.11 321.952ZM1253.63 322.141L1246.98 322.026C1241.59 325.616 1236.19 329.201 1230.76 332.781C1232.96 332.723 1235.15 332.659 1237.35 332.588C1242.79 329.108 1248.22 325.623 1253.63 322.135L1253.63 322.141ZM1264.21 322.29L1257.58 322.199C1252.29 325.617 1246.98 329.029 1241.65 332.437C1243.85 332.358 1246.05 332.274 1248.24 332.184C1253.59 328.888 1258.91 325.589 1264.22 322.287L1264.21 322.29ZM1274.84 322.411L1268.25 322.338C1263.08 325.56 1257.9 328.778 1252.69 331.992C1254.88 331.894 1257.06 331.792 1259.24 331.689C1264.46 328.598 1269.66 325.505 1274.84 322.408L1274.84 322.411ZM1285.49 322.512L1278.99 322.444C1273.97 325.447 1268.94 328.449 1263.89 331.448C1266.05 331.337 1268.22 331.221 1270.38 331.102C1275.43 328.241 1280.47 325.377 1285.49 322.509L1285.49 322.512ZM1296.18 322.604L1293.4 322.58L1289.77 322.549C1284.93 325.31 1280.08 328.073 1275.22 330.836C1277.36 330.714 1279.49 330.588 1281.62 330.458C1286.49 327.839 1291.34 325.22 1296.19 322.601L1296.18 322.604ZM1306.87 322.7L1300.59 322.642C1295.97 325.145 1291.35 327.646 1286.7 330.147L1292.97 329.752C1297.62 327.4 1302.26 325.048 1306.87 322.697L1306.87 322.7ZM1317.54 322.813L1311.44 322.746C1307.09 324.964 1302.72 327.183 1298.34 329.403L1304.41 329.001C1308.81 326.935 1313.19 324.872 1317.55 322.81L1317.54 322.813ZM1328.16 322.949L1322.31 322.869C1318.27 324.784 1314.21 326.699 1310.14 328.617L1315.94 328.224C1320.03 326.462 1324.1 324.703 1328.16 322.946L1328.16 322.949ZM1338.68 323.127L1333.18 323.029L1322.14 327.801L1327.53 327.435L1338.68 323.127ZM1349.03 323.351C1347.38 323.31 1345.72 323.271 1344.06 323.237L1342.77 323.738L1334.41 326.973L1339.2 326.654L1340.95 326.061L1349.03 323.351ZM1359.08 323.63C1357.7 323.588 1356.31 323.542 1354.92 323.504L1347.06 326.143L1350.91 325.899L1359.08 323.63ZM1368.52 323.953L1365.74 323.852L1360.43 325.318L1362.65 325.192L1368.52 323.953ZM651.841 367.067L652.077 367.03L651.822 367.064L651.841 367.067ZM640.953 368.827L645.729 368.053L645.222 367.973L640.243 368.664L640.953 368.827ZM630.05 370.606L635.756 369.676L634.7 369.44L628.89 370.257L630.05 370.606ZM619.12 372.397L625.553 371.343L624.165 370.926L617.71 371.845L619.12 372.397ZM608.175 374.202L615.162 373.049L613.579 372.435L606.628 373.433L608.175 374.202ZM597.207 376.021L604.604 374.792L602.932 373.967L595.611 375.032L597.207 376.021ZM586.218 377.855L593.946 376.564L592.255 375.526L584.647 376.644L586.218 377.855ZM575.196 379.69L575.323 379.683L583.181 378.365L581.551 377.099L573.732 378.261L575.196 379.69ZM562.956 380.049C566.019 380.088 569.04 380.033 572.02 379.885L570.627 378.53C567.608 378.53 564.557 378.431 561.473 378.233L562.956 380.049ZM550.597 379.436C553.681 379.699 556.731 379.88 559.746 379.978L558.117 377.992C555.113 377.742 552.084 377.41 549.029 376.994L550.597 379.436ZM538.526 378.029C541.507 378.464 544.466 378.833 547.402 379.135L545.711 376.513C542.841 376.073 539.953 375.565 537.047 374.991L538.526 378.029ZM527.004 376.055C529.822 376.609 532.618 377.106 535.392 377.548L533.796 374.33C531.119 373.762 528.422 373.143 525.704 372.471L527.004 376.055ZM1221.07 306.378C1141.02 302.695 1051.09 309.195 946.019 323.13C906.276 328.403 864.353 334.748 819.973 342.001C857.185 337.008 892.594 332.713 926.409 329.158C1027.51 318.531 1114.41 314.505 1192.6 318.204L1192.62 318.204C1196.5 318.418 1200.38 318.612 1204.26 318.786C1209.89 314.651 1215.49 310.513 1221.08 306.372L1221.07 306.378ZM1231.56 306.91L1224.61 306.556C1219.04 310.689 1213.45 314.82 1207.84 318.949C1210.07 319.048 1212.31 319.138 1214.54 319.218C1220.24 315.113 1225.91 311.009 1231.57 306.904L1231.56 306.91ZM1242.06 307.457L1235.12 307.094C1229.49 311.18 1223.84 315.265 1218.18 319.35C1220.42 319.428 1222.67 319.501 1224.91 319.569C1230.65 315.53 1236.37 311.491 1242.06 307.451L1242.06 307.457ZM1252.55 308.025L1245.63 307.648C1239.98 311.659 1234.31 315.669 1228.62 319.677C1230.87 319.742 1233.12 319.801 1235.37 319.857C1241.12 315.91 1246.85 311.964 1252.55 308.019L1252.55 308.025ZM1263.04 308.618L1256.16 308.222C1250.51 312.129 1244.85 316.033 1239.16 319.934C1241.41 319.984 1243.67 320.034 1245.92 320.082C1251.65 316.261 1257.36 312.439 1263.04 308.616L1263.04 308.618ZM1273.51 309.249C1271.24 309.107 1268.96 308.968 1266.68 308.833C1261.07 312.605 1255.43 316.378 1249.77 320.152L1256.54 320.261C1262.22 316.59 1267.88 312.919 1273.52 309.249L1273.51 309.249ZM1283.98 309.927C1281.72 309.776 1279.46 309.628 1277.19 309.482C1271.65 313.093 1266.08 316.705 1260.49 320.319L1267.23 320.407C1272.84 316.911 1278.43 313.417 1283.98 309.926L1283.98 309.927ZM1294.4 310.656C1292.17 310.493 1289.92 310.334 1287.68 310.179C1282.23 313.602 1276.77 317.026 1271.28 320.451L1277.99 320.521C1283.49 317.23 1288.96 313.941 1294.42 310.655L1294.4 310.656ZM1304.78 311.444C1302.58 311.269 1300.36 311.098 1298.14 310.932C1292.83 314.139 1287.5 317.351 1282.14 320.568L1288.8 320.626C1294.15 317.56 1299.48 314.499 1304.79 311.442L1304.78 311.444ZM1315.14 312.3C1312.96 312.113 1310.78 311.929 1308.59 311.749C1303.44 314.714 1298.27 317.683 1293.08 320.657L1293.44 320.657L1299.68 320.712C1304.85 317.904 1310 315.1 1315.13 312.299L1315.14 312.3ZM1325.42 313.23C1323.28 313.027 1321.13 312.83 1318.98 312.637C1314.03 315.337 1309.06 318.042 1304.07 320.752L1310.57 320.816C1315.54 318.281 1320.48 315.752 1325.41 313.228L1325.42 313.23ZM1335.62 314.244C1333.53 314.026 1331.43 313.814 1329.33 313.608C1324.62 316.02 1319.89 318.438 1315.14 320.863L1321.51 320.938L1335.62 314.244ZM1345.73 315.344C1343.7 315.113 1341.66 314.886 1339.61 314.665L1326.26 321.001L1332.45 321.095L1341.53 317.165L1345.73 315.344ZM1355.73 316.53C1353.77 316.285 1351.8 316.047 1349.84 315.815L1342.96 318.794L1337.47 321.176C1339.45 321.212 1341.44 321.252 1343.42 321.293L1355.73 316.53ZM1365.57 317.818C1363.72 317.564 1361.86 317.317 1360 317.077L1348.78 321.416C1350.64 321.461 1352.51 321.51 1354.37 321.565C1358.12 320.306 1361.85 319.059 1365.56 317.821L1365.57 317.818ZM1375.2 319.196C1373.49 318.941 1371.78 318.691 1370.07 318.445L1360.2 321.732C1361.91 321.788 1363.62 321.846 1365.32 321.906C1368.63 320.995 1371.92 320.093 1375.2 319.199L1375.2 319.196ZM1384.51 320.647C1383.03 320.405 1381.54 320.168 1380.05 319.937C1377.35 320.669 1374.63 321.41 1371.9 322.161C1373.36 322.22 1374.81 322.278 1376.26 322.343C1379.01 321.77 1381.76 321.205 1384.51 320.65L1384.51 320.647ZM1393.25 322.129L1389.94 321.554C1388.01 321.94 1386.08 322.33 1384.14 322.724L1387.15 322.888C1389.18 322.63 1391.22 322.377 1393.24 322.129L1393.25 322.129ZM1400.66 323.481L1399.76 323.309L1397.77 323.541L1398.02 323.559L1400.66 323.481ZM658.371 368.164L663.056 367.315L662.786 367.283L657.847 368.075L658.371 368.164ZM646.991 370.24L652.716 369.194L651.815 369.046L645.947 369.992L646.991 370.24ZM635.606 372.315L642.126 371.129L640.813 370.825L634.235 371.895L635.606 372.315ZM624.194 374.41L631.343 373.096L629.778 372.616L622.637 373.784L624.194 374.41ZM612.782 376.511L620.415 375.105L618.714 374.431L611.142 375.679L612.782 376.511ZM601.334 378.63L609.333 377.148L607.585 376.267L599.688 377.578L601.334 378.63ZM589.888 380.746L598.171 379.215L596.442 378.123L588.293 379.483L589.888 380.746ZM578.392 382.839L579.041 382.758L586.919 381.298L585.262 379.991L576.927 381.389L578.392 382.839ZM566.101 383.938C569.25 383.791 572.349 383.547 575.399 383.207L573.878 381.707C570.797 381.892 567.677 381.982 564.518 381.978L566.101 383.938ZM553.522 384.036C556.739 384.126 559.914 384.13 563.049 384.048L561.346 381.939C558.232 381.87 555.083 381.714 551.897 381.471L553.522 384.036ZM541.092 383.294C544.247 383.58 547.366 383.791 550.447 383.927L548.719 381.204C545.696 380.921 542.644 380.566 539.561 380.138L541.092 383.294ZM529.09 381.882C532.108 382.313 535.1 382.691 538.061 383.002L536.444 379.685C533.579 379.246 530.69 378.748 527.78 378.19L529.09 381.882ZM541.607 390.391C538.389 390.237 535.137 390.014 531.85 389.721C534.749 398.035 537.636 406.496 540.538 415.004C567.058 492.765 594.903 574.403 646.976 579.423C708.554 585.353 779.23 567.467 854.059 534.916C789.898 559.752 729.214 572.719 675.333 567.578C620.823 562.594 588.052 491.191 555.76 420.864C551.052 410.61 546.358 400.377 541.607 390.382L541.607 390.391ZM554.64 390.625C551.322 390.676 547.953 390.625 544.549 390.513C549.186 400.285 553.772 410.273 558.368 420.284C590.389 490.039 622.903 560.861 675.694 565.683C736.998 571.53 807.333 553.644 881.664 521.392C817.995 545.95 757.664 558.889 704.068 553.841C648.853 549.045 611.892 486.706 574.562 423.739C567.971 412.606 561.36 401.461 554.64 390.617L554.64 390.625ZM567.743 389.94C564.411 390.237 561.029 390.441 557.599 390.551C564.18 401.19 570.651 412.107 577.111 423.003C614.133 485.451 650.79 547.275 704.416 551.932L704.433 551.932C765.384 557.678 835.274 539.857 908.97 508.039C845.915 532.204 786.05 545.038 732.819 540.09C676.858 535.46 636.147 480.926 594.21 424.751C585.48 413.066 576.705 401.313 567.736 389.932L567.743 389.94ZM580.459 388.261C577.242 388.83 573.97 389.295 570.642 389.654C579.448 400.85 588.067 412.391 596.636 423.866C638.227 479.574 678.591 533.664 733.115 538.176L733.136 538.176C793.147 543.765 861.817 526.436 934.072 495.678L934.706 495.334C872.838 518.675 813.98 531.149 761.531 526.338C704.839 521.858 660.748 474.206 614.621 424.355C603.422 412.257 592.097 400.021 580.452 388.252L580.459 388.261ZM592.61 385.853L583.491 387.674L583.259 387.72C594.726 399.332 605.872 411.38 616.912 423.307C662.684 472.769 706.43 520.051 761.833 524.428L761.861 524.428C817.938 529.577 881.56 514.691 948.432 487.799C949.734 487.075 951.036 486.349 952.338 485.621C894.625 506.214 839.627 517.051 790.262 512.589C732.904 508.253 685.779 466.78 635.87 422.865C621.768 410.457 607.438 397.854 592.604 385.844L592.61 385.853ZM604.716 383.415L595.518 385.268C610.09 397.098 624.165 409.481 638.022 421.679C687.556 465.265 734.337 506.422 790.549 510.68L790.577 510.68C842.776 515.406 901.485 502.781 963.114 479.522C965.159 478.349 967.209 477.163 969.257 475.979C915.942 493.754 865.036 502.934 818.999 498.838C761.094 494.641 711.297 458.81 658.041 420.479C640.763 408.052 623.104 395.355 604.709 383.406L604.716 383.415ZM616.804 380.979L610.479 382.254L607.795 382.781C625.794 394.527 643.073 406.961 659.994 419.143C712.893 457.203 762.36 492.807 819.27 496.934L819.301 496.934C867.663 501.242 921.557 490.707 978.044 470.86C980.662 469.324 983.283 467.775 985.906 466.212C937.058 481.257 890.318 488.826 847.694 485.093C789.446 481.028 737.378 450.381 681.265 417.364C660.493 405.141 639.171 392.596 616.797 380.97L616.804 380.979ZM628.871 378.546L620.118 380.31C641.933 391.725 662.743 403.962 683.025 415.89C738.804 448.719 790.594 479.193 847.994 483.187L848.026 483.187C892.617 487.09 941.834 478.462 993.33 461.781C996.438 459.911 999.55 458.025 1002.66 456.124C958.24 468.608 915.621 474.717 876.414 471.349C818.086 467.434 764.171 441.591 705.786 413.601C681.161 401.793 655.736 389.601 628.865 378.537L628.871 378.546ZM640.917 376.122L632.504 377.817C658.616 388.664 683.361 400.52 707.341 412.016C765.424 439.858 819.065 465.573 876.704 469.434L876.742 469.434C917.628 472.949 962.353 466.011 1009.04 452.217C1012.52 450.072 1016.01 447.91 1019.5 445.731C979.443 455.844 940.909 460.61 905.145 457.591C847.09 453.838 791.921 432.472 731.966 409.252C703.009 398.051 672.934 386.402 640.902 376.11L640.917 376.122ZM652.935 373.703L644.962 375.308C675.986 385.389 705.164 396.686 733.299 407.579C793.014 430.706 847.96 451.988 905.443 455.695L905.481 455.695C942.72 458.831 983.064 453.417 1025.06 442.262C1028.87 439.861 1032.69 437.439 1036.51 434.998C1000.74 442.952 966.218 446.516 933.888 443.855C876.653 440.286 820.958 423.092 760.36 404.384C726.439 393.914 690.999 382.974 652.921 373.694L652.935 373.703ZM664.924 371.292L657.496 372.785C694.268 381.889 728.591 392.477 761.455 402.625C821.863 421.273 877.382 438.414 934.152 441.948L934.188 441.948C967.837 444.717 1003.94 440.643 1041.41 431.858C1045.53 429.213 1049.65 426.545 1053.77 423.853C1022.17 429.886 991.568 432.424 962.644 430.107C907.038 426.763 851.823 413.443 791.822 398.975C752.106 389.389 710.291 379.307 664.91 371.283L664.924 371.292ZM676.899 368.89L670.161 370.243C713.878 378.141 754.282 387.884 792.711 397.156C852.546 411.589 907.605 424.879 962.869 428.196L962.913 428.196C993.026 430.613 1025.03 427.7 1058.12 421.014C1062.51 418.137 1066.91 415.238 1071.3 412.319C1043.74 416.685 1016.93 418.356 991.367 416.363C938.641 413.297 885.419 403.545 827.833 392.996C781.088 384.427 731.442 375.341 676.884 368.882L676.899 368.89ZM688.826 366.498L682.974 367.672C735.425 374.09 783.32 382.862 828.518 391.141C885.971 401.667 939.066 411.395 991.593 414.448L991.629 414.448C1018.28 416.523 1046.33 414.581 1075.22 409.704C1079.85 406.613 1084.48 403.5 1089.11 400.364C1065.44 403.32 1042.34 404.284 1020.09 402.602C972.245 399.909 923.385 393.377 870.972 386.371C815.28 378.939 755.572 370.96 688.811 366.489L688.826 366.498ZM700.758 364.114L696.016 365.063C760.092 369.615 817.664 377.308 871.48 384.5C923.793 391.494 972.564 398.014 1020.31 400.702L1020.35 400.702C1043.59 402.462 1067.82 401.295 1092.68 397.965C1097.53 394.671 1102.38 391.357 1107.23 388.022C1087.32 389.834 1067.78 390.246 1048.82 388.867C1009.47 386.72 969.022 382.97 926.285 379.009C858.533 372.726 785.025 365.912 700.743 364.102L700.758 364.114ZM712.593 361.742L709.359 362.388C790.192 364.464 861.097 371.028 926.629 377.102C969.27 381.053 1009.63 384.796 1049.01 386.944L1049.05 386.944C1068.95 388.397 1089.5 387.852 1110.48 385.767C1115.54 382.279 1120.59 378.774 1125.63 375.25C1109.33 376.183 1093.26 376.211 1077.53 375.102C1054.16 373.866 1029.86 372.346 1004.84 370.784C919.268 365.45 825.13 359.573 712.589 361.74L712.593 361.742ZM724.499 359.379L723.204 359.637C831.166 358.024 922.138 363.705 1005.06 368.885C1029.78 370.428 1053.78 371.928 1077.74 373.196L1077.77 373.196C1094.38 374.362 1111.37 374.25 1128.66 373.136C1133.89 369.472 1139.12 365.789 1144.34 362.089C1131.51 362.405 1118.8 362.201 1106.26 361.361C1034.51 357.674 957.456 354.245 869.174 354.838C824.151 355.148 776.189 356.494 724.495 359.377L724.499 359.379ZM1239.96 292.318C1132.1 288.807 1005.38 306.353 848.567 335.427C882.279 330.101 914.592 325.372 945.507 321.24C1050.84 307.264 1141 300.755 1221.32 304.455L1221.33 304.455L1223.5 304.565C1229.01 300.48 1234.5 296.398 1239.96 292.318ZM1250.95 292.771C1248.49 292.657 1246.03 292.537 1243.55 292.441C1238.07 296.541 1232.56 300.642 1227.04 304.746L1234.04 305.104C1239.7 300.991 1245.34 296.88 1250.95 292.771L1250.95 292.771ZM1261.84 293.356C1259.41 293.207 1256.98 293.059 1254.52 292.932C1248.9 297.047 1243.26 301.165 1237.59 305.287L1244.59 305.656C1250.37 301.553 1256.12 297.453 1261.85 293.356L1261.84 293.356ZM1272.63 294.07C1270.23 293.886 1267.79 293.737 1265.36 293.584C1259.65 297.669 1253.91 301.757 1248.16 305.849L1255.13 306.233C1260.99 302.175 1266.83 298.12 1272.65 294.07L1272.63 294.07ZM1283.24 294.983C1280.87 294.765 1278.48 294.568 1276.1 294.368C1270.34 298.385 1264.55 302.407 1258.74 306.436C1261.06 306.568 1263.37 306.703 1265.68 306.84C1271.57 302.883 1277.42 298.931 1283.25 294.983L1283.24 294.983ZM1293.72 296.043C1291.39 295.791 1289.08 295.517 1286.74 295.286C1280.97 299.203 1275.16 303.127 1269.32 307.058C1271.62 307.198 1273.93 307.341 1276.22 307.487C1282.09 303.668 1287.92 299.853 1293.72 296.043L1293.72 296.043ZM1304.1 297.24C1301.79 296.952 1299.48 296.678 1297.16 296.417C1291.43 300.178 1285.67 303.946 1279.88 307.722C1282.18 307.873 1284.47 308.025 1286.75 308.181C1292.57 304.528 1298.35 300.881 1304.1 297.241L1304.1 297.24ZM1314.34 298.59C1312.07 298.269 1309.77 297.979 1307.47 297.686C1301.83 301.259 1296.15 304.842 1290.44 308.436C1292.72 308.596 1294.99 308.76 1297.26 308.929C1302.98 305.475 1308.68 302.029 1314.34 298.59L1314.34 298.59ZM1324.37 300.134C1322.15 299.779 1319.93 299.433 1317.7 299.096C1312.16 302.456 1306.59 305.829 1301 309.214C1303.26 309.386 1305.5 309.563 1307.74 309.746C1313.32 306.53 1318.86 303.326 1324.37 300.134L1324.37 300.134ZM1334.3 301.816C1332.12 301.428 1329.95 301.03 1327.76 300.666C1322.37 303.784 1316.96 306.913 1311.51 310.053C1313.74 310.238 1315.96 310.429 1318.19 310.625C1323.59 307.678 1328.97 304.742 1334.31 301.816L1334.3 301.816ZM1344.12 303.629C1341.97 303.207 1339.81 302.814 1337.64 302.423C1332.46 305.26 1327.25 308.109 1322.01 310.971C1324.21 311.168 1326.4 311.375 1328.59 311.592L1341.09 305.186L1344.12 303.629ZM1353.73 305.637C1351.64 305.181 1349.53 304.747 1347.43 304.319L1342.72 306.729L1332.5 311.97C1334.66 312.186 1336.82 312.41 1338.97 312.641L1341.36 311.51L1353.73 305.637ZM1363.18 307.789C1361.16 307.31 1359.14 306.809 1357.11 306.35L1342.93 313.079C1345.05 313.313 1347.16 313.554 1349.27 313.801C1353.94 311.782 1358.58 309.778 1363.2 307.789L1363.18 307.789ZM1372.52 310.066C1370.54 309.559 1368.55 309.065 1366.56 308.584C1362.18 310.47 1357.78 312.37 1353.36 314.286C1355.42 314.537 1357.47 314.794 1359.53 315.056C1363.89 313.38 1368.22 311.717 1372.53 310.066L1372.52 310.066ZM1381.66 312.495C1379.76 311.967 1377.82 311.47 1375.9 310.965C1371.88 312.501 1367.84 314.051 1363.77 315.617C1365.76 315.884 1367.74 316.157 1369.71 316.437C1373.72 315.104 1377.71 313.79 1381.67 312.495L1381.66 312.495ZM1390.53 315.071C1388.74 314.536 1386.94 313.995 1385.14 313.473C1381.5 314.659 1377.85 315.861 1374.18 317.08C1376.07 317.359 1377.96 317.644 1379.84 317.935C1383.43 316.967 1387 316.012 1390.54 315.071L1390.53 315.071ZM1399.24 317.731C1397.56 317.2 1395.89 316.665 1394.2 316.153C1391.03 316.99 1387.85 317.838 1384.65 318.697C1386.4 318.981 1388.15 319.27 1389.9 319.565C1393.02 318.942 1396.14 318.331 1399.24 317.731ZM1407.59 320.466C1406.09 319.958 1404.58 319.479 1403.07 318.984C1400.48 319.478 1397.87 319.983 1395.25 320.499C1396.79 320.772 1398.33 321.052 1399.87 321.336C1402.45 321.036 1405.03 320.746 1407.59 320.466ZM1415.27 323.175C1414.15 322.77 1413.03 322.361 1411.89 321.96C1410.02 322.158 1408.15 322.36 1406.27 322.567C1407.42 322.795 1408.58 323.026 1409.73 323.261C1411.59 323.225 1413.44 323.196 1415.27 323.175ZM1421.96 325.581C1421.5 325.406 1421.02 325.25 1420.56 325.075L1418.4 325.086L1419.52 325.333C1420.33 325.409 1421.15 325.498 1421.96 325.581ZM1416.94 321.442C1418.49 322.002 1420.06 322.546 1421.61 323.123C1524.14 322.697 1610.62 343.968 1654.28 453.652C1673.55 490.418 1691.82 521.883 1709.44 548.598C1690.27 518.906 1671.13 482.539 1651.67 438.596L1651.65 438.54L1651.65 438.513C1616.36 321.892 1525.93 310.56 1416.94 321.442ZM1407.51 318.147C1409.25 318.726 1410.99 319.315 1412.71 319.916C1524.76 308.194 1618.09 318.391 1654.32 438.086C1665.88 464.209 1677.33 487.63 1688.73 508.558C1676.01 483.949 1663.67 455.526 1651.66 422.896L1651.64 422.856L1651.64 422.804C1651.15 420.593 1650.63 418.434 1650.1 416.296C1648.89 413.969 1647.75 411.547 1646.68 409.032C1644.82 405.782 1643.11 402.327 1641.57 398.665C1639.66 395.377 1637.93 391.868 1636.36 388.139C1631.51 379.871 1627.81 370.161 1625.35 358.91C1590.94 309.874 1533.32 301.923 1464.32 309.444C1446.1 311.427 1427.1 314.484 1407.51 318.144L1407.51 318.147ZM1398.22 315.099C1400.04 315.673 1401.84 316.285 1403.65 316.878C1424.43 312.939 1444.58 309.647 1463.88 307.539C1531.82 300.135 1588.89 307.457 1624.2 353.051C1623.02 346.247 1622.27 338.915 1621.94 331.057C1595.88 299.121 1556.09 290.56 1507.89 294.156C1474.75 296.635 1437.61 304.814 1398.22 315.099L1398.22 315.099ZM1388.78 312.283C1390.71 312.852 1392.65 313.414 1394.57 314.001C1435.14 303.337 1473.42 294.795 1507.59 292.245C1555.45 288.672 1595.19 296.765 1621.81 326.986C1621.68 321.024 1621.8 314.762 1622.16 308.2C1601.55 284.776 1571.55 276.894 1535.1 278.525C1493.38 280.397 1443.12 294.617 1388.79 312.287L1388.78 312.283ZM1379.34 309.647C1381.36 310.179 1383.38 310.708 1385.38 311.278C1440.84 293.191 1492.18 278.514 1534.93 276.609C1571.25 274.979 1601.32 282.489 1622.37 304.731C1622.75 299.145 1623.31 293.343 1624.04 287.326C1607.22 268.893 1583.42 261.768 1554.45 262.303C1507.28 263.178 1446.27 284.148 1379.35 309.651L1379.34 309.647ZM1369.86 307.174C1371.91 307.681 1373.94 308.222 1375.97 308.754C1444.01 282.779 1506.12 261.282 1554.4 260.391C1583.33 259.856 1607.23 266.651 1624.45 284.169C1625.15 278.817 1625.99 273.294 1626.96 267.602C1612.87 252.203 1593.23 245.677 1569.27 245.561C1518.43 245.317 1447.99 273.557 1369.86 307.174ZM1360.22 304.885C1362.32 305.371 1364.41 305.865 1366.49 306.367C1445.74 272.239 1517.28 243.394 1569.28 243.638C1593.25 243.753 1613.04 249.984 1627.49 264.604C1628.41 259.435 1629.45 254.126 1630.61 248.676C1618.54 235.067 1601.75 228.913 1581.15 228.388C1527.78 227.029 1448.71 262.955 1360.22 304.881L1360.22 304.885ZM1350.45 302.777C1352.62 303.222 1354.78 303.666 1356.92 304.133C1446.52 261.661 1526.67 225.079 1581.26 226.468C1601.87 226.994 1618.82 232.864 1631.23 245.766C1632.32 240.768 1633.5 235.652 1634.78 230.418C1624.25 217.704 1609.43 211.686 1591.1 210.878C1535.93 208.448 1448.73 252.387 1350.45 302.772L1350.45 302.777ZM1340.6 300.816C1342.79 301.225 1344.98 301.649 1347.15 302.087C1446.53 251.124 1534.81 206.477 1591.26 208.963C1609.64 209.772 1624.62 215.508 1635.5 227.528C1636.7 222.71 1637.99 217.794 1639.35 212.779C1630.02 200.238 1616.55 194.129 1599.65 193.102C1543.54 189.692 1449.39 241.247 1342.52 299.76L1340.6 300.816ZM1330.66 298.999C1332.88 299.38 1335.06 299.804 1337.27 300.206L1340.85 298.246C1448.17 239.486 1542.73 187.705 1599.89 191.183C1616.84 192.214 1630.48 198.022 1640.18 209.837C1641.44 205.246 1642.78 200.571 1644.19 195.815C1635.87 182.788 1623.31 176.321 1607.19 175.095C1551.8 170.883 1454.22 227.411 1342.36 292.213L1330.66 298.999ZM1320.5 297.401C1322.76 297.751 1325.02 298.097 1327.26 298.464L1340.61 290.733C1452.95 225.651 1550.94 168.885 1607.48 173.184C1623.63 174.412 1636.38 180.543 1645.1 192.765C1646.39 188.456 1647.74 184.079 1649.15 179.633C1641.78 165.434 1629.81 158.335 1613.97 156.912C1559.4 152.008 1458.76 213.256 1342.27 284.154C1335.07 288.53 1327.81 292.942 1320.49 297.389L1320.5 297.401ZM1310.24 295.946C1312.57 296.242 1314.89 296.539 1317.18 296.879C1325.01 292.123 1332.78 287.396 1340.49 282.701C1457.48 211.502 1558.54 149.995 1614.33 155.009C1630.18 156.433 1642.36 163.14 1650.2 176.389L1651.65 171.885C1652.48 169.349 1653.28 166.86 1654.06 164.397C1647.72 148.284 1636.14 140.221 1620.18 138.586C1566.51 133.081 1463.1 198.809 1342.28 275.603C1331.73 282.309 1321.05 289.089 1310.24 295.941L1310.24 295.946ZM1299.9 294.629C1302.23 294.902 1304.55 295.201 1306.88 295.498C1318.2 288.331 1329.4 281.226 1340.46 274.181C1461.79 197.057 1565.64 131.047 1620.59 136.681C1636.51 138.311 1648.3 145.854 1655.22 160.721C1656.39 156.965 1657.51 153.298 1658.57 149.719C1653.39 131.213 1642.19 121.986 1625.94 120.13C1573.2 114.109 1467.28 184.097 1342.42 266.601C1328.46 275.814 1314.29 285.155 1299.9 294.625L1299.9 294.629ZM1289.41 293.486C1291.77 293.729 1294.11 293.993 1296.46 294.255C1311.37 284.471 1326.07 274.785 1340.54 265.198C1465.93 182.346 1572.29 112.056 1626.37 118.235C1642.47 120.074 1653.92 128.573 1659.83 145.365C1660.8 142.023 1661.71 138.762 1662.58 135.581C1658.78 114.24 1647.96 103.665 1631.33 101.587C1579.55 95.1231 1471.33 169.153 1342.67 257.172C1325.25 269.066 1307.47 281.23 1289.4 293.482L1289.41 293.486ZM1278.76 292.525C1281.17 292.727 1283.58 292.923 1285.97 293.151C1304.56 280.55 1322.85 268.032 1340.75 255.792C1469.96 167.398 1578.64 93.0521 1631.79 99.6847C1648.13 101.726 1659.2 111.275 1664 130.198C1664.73 127.416 1665.42 124.698 1666.06 122.044C1663.87 97.3721 1653.51 85.2408 1636.41 82.9355C1585.61 76.0893 1475.29 153.966 1343.04 247.32C1322.1 262.088 1300.63 277.248 1278.75 292.521L1278.76 292.525ZM1268.01 291.7C1270.45 291.863 1272.88 292.033 1275.3 292.224C1297.7 276.594 1319.68 261.079 1341.1 245.97C1473.91 152.219 1584.7 74.0123 1636.92 81.0512C1653.46 83.275 1664.1 93.8882 1667.71 115C1668.16 113.024 1668.58 111.082 1668.98 109.174C1668.7 80.6509 1658.89 66.7555 1641.26 64.2189C1591.45 57.0481 1479.2 138.574 1343.56 237.089C1319.06 254.876 1293.8 273.225 1268 291.695L1268.01 291.7ZM1257.16 291.009C1259.62 291.144 1262.06 291.314 1264.5 291.47C1290.83 272.623 1316.6 253.903 1341.58 235.756C1477.79 136.826 1590.52 54.9533 1641.81 62.3362C1658.33 64.7081 1668.46 76.1678 1670.94 99.0265L1671.27 97.0741C1673.26 64.1137 1664.11 48.2168 1645.91 45.443C1597.08 37.995 1483.05 122.996 1344.21 226.493C1316.1 247.443 1286.97 269.151 1257.16 291.004L1257.16 291.009ZM1246.15 290.511C1248.64 290.617 1251.12 290.724 1253.59 290.847C1283.95 268.61 1313.61 246.5 1342.21 225.172C1481.63 121.236 1596.14 35.8765 1646.5 43.5558C1662.1 45.9278 1671.53 57.0658 1673.63 79.0869C1676.49 45.6195 1668.06 29.4365 1650.41 26.6064C1602.54 18.9256 1486.88 107.228 1345 215.545C1313.2 239.815 1280.1 265.086 1246.14 290.506L1246.15 290.511ZM676.719 366.919L681.039 366.051L676.427 366.885L676.719 366.919ZM664.865 369.291L670.571 368.146L669.861 368.066L663.98 369.132L664.865 369.291ZM652.997 371.678L659.576 370.354L658.384 370.149L651.708 371.365L652.997 371.678ZM641.124 374.066L648.396 372.603L646.887 372.242L639.59 373.577L641.124 374.066ZM629.23 376.462L637.049 374.886L635.359 374.352L627.567 375.781L629.23 376.462ZM617.336 378.857L625.578 377.195L623.797 376.473L615.622 377.977L617.336 378.857ZM605.434 381.257L609.722 380.392L614.008 379.529L612.209 378.607L603.756 380.168L605.434 381.257ZM593.528 383.656L602.349 381.877L600.592 380.75L591.911 382.356L593.528 383.656ZM581.602 386.043C581.985 385.969 582.369 385.905 582.75 385.828L590.615 384.243L588.948 382.909L580.11 384.544L581.602 386.043ZM569.222 387.855C572.463 387.523 575.646 387.091 578.772 386.559L577.16 384.946C574.012 385.324 570.818 385.603 567.576 385.781L569.222 387.855ZM556.413 388.648C559.758 388.565 563.054 388.389 566.301 388.12L564.55 385.917C561.327 386.031 558.061 386.053 554.75 385.984L556.413 388.648ZM543.619 388.55C546.94 388.68 550.218 388.73 553.452 388.698L551.694 385.892C548.523 385.775 545.314 385.577 542.068 385.299L543.619 388.55ZM531.15 387.718C534.358 388.015 537.528 388.245 540.66 388.411L539.037 385.026C535.99 384.724 532.915 384.359 529.813 383.932L531.15 387.718ZM441.704 4.17271e-05L422.134 4.25825e-05C370.936 7.6646 312.875 35.4111 254.01 63.5503C186.948 95.6035 118.824 128.165 59.1606 131.821C38.3062 133.099 18.4578 130.817 0.00419084 123.735L0.00419094 125.959C18.5466 132.834 38.4669 135.031 59.3889 133.748C119.765 130.042 188.192 97.341 255.553 65.144C321.692 33.5268 386.799 2.41209 441.704 4.17271e-05ZM1902 588.161L1902 586.1C1891.91 588.939 1882.01 591.239 1872.31 593L1882.42 593C1888.87 591.616 1895.4 590.003 1902 588.161ZM-3.38317e-05 169.337C9.24369 170.671 18.8192 170.897 28.6758 170.188C73.8314 166.927 125.071 144.406 177.032 121.562C242.797 92.6533 309.705 63.2346 367.709 71.3053C416.335 78.3813 433.793 131.109 454.229 192.836C461.415 214.518 468.955 237.311 478.342 259.615C468.488 232.609 461.685 204.988 455.339 179.225C440.29 118.109 427.827 67.5146 383.597 61.1473C326.258 53.2307 258.412 83.5582 191.271 113.568C136.5 138.053 82.1875 162.329 33.9866 165.696C22.2576 166.529 10.9005 166.114 -3.40574e-05 164.174L-3.41454e-05 162.16C10.8097 164.165 22.078 164.609 33.7224 163.791C81.2724 160.47 135.312 136.316 189.807 111.957C257.408 81.7392 325.726 51.2026 384.126 59.266C430.196 65.8912 442.811 117.075 458.035 178.904C462.978 198.977 468.203 220.179 474.929 241.326C467.955 215.077 463.617 188.79 459.591 164.426C449.563 103.719 441.511 54.9993 400.012 49.1064C342.299 41.2135 273.06 72.6425 204.104 103.943C146.794 129.957 89.6772 155.882 39.0523 159.317C25.5142 160.236 12.4602 159.545 0.00630562 156.838L0.00630553 154.795C12.3714 157.59 25.3409 158.319 38.7944 157.406C88.7536 154.017 145.592 128.218 202.618 102.331C272.039 70.8205 341.749 39.1766 400.553 47.2281C444.011 53.3982 452.171 102.737 462.328 164.217C465.375 182.662 468.606 202.21 473.021 222.003C468.659 196.753 466.484 171.894 464.485 148.976C459.257 89.1057 455.187 42.4915 416.439 37.0744C358.322 29.1875 287.694 61.7032 216.94 94.2811C157.114 121.829 97.1837 149.43 44.1116 152.924C28.754 153.938 13.9945 152.933 -3.47054e-05 149.349L-3.47965e-05 147.264C13.9057 150.97 28.5849 152.022 43.8643 151.013C96.2327 147.558 155.886 120.091 215.437 92.6711C286.657 59.8768 357.745 27.1446 416.965 35.1872C457.784 40.8948 461.911 88.1599 467.211 148.865C468.678 165.656 470.236 183.486 472.681 201.742C470.631 177.725 470.356 154.404 470.09 132.979C469.384 74.3311 468.847 29.9851 432.857 25.0321C374.318 17.1526 302.327 50.7431 229.787 84.5915C167.444 113.683 104.69 142.965 49.1878 146.532C31.9916 147.638 15.5139 146.283 -0.00848837 141.708L-0.00848847 139.58C15.4188 144.301 31.8204 145.721 48.9405 144.621C103.739 141.098 166.209 111.948 228.274 82.9889C301.281 48.9225 373.741 15.1142 433.377 23.1449C471.561 28.3988 472.106 73.4223 472.82 132.964C473.002 148.023 473.196 164.021 474.01 180.537C473.97 158.003 475.278 136.372 476.502 116.547C479.987 59.4616 482.55 17.4891 449.28 12.9897C390.318 5.1132 316.968 39.7696 242.657 74.8767C177.805 105.517 112.222 136.501 54.2746 140.135C35.2229 141.33 17.025 139.574 -0.0127154 133.908L-0.0127155 131.751C16.9383 137.598 35.0686 139.422 54.0379 138.231C111.259 134.642 176.556 103.794 241.123 73.2889C315.905 37.9595 389.726 3.08366 449.791 11.1099C485.382 15.9206 482.776 58.5914 479.232 116.628C478.425 129.852 477.569 143.883 477.102 158.444C478.742 137.666 481.362 117.882 483.759 99.7708C491.073 44.5447 496.308 5.01237 465.703 0.954753C462.163 0.489116 458.588 0.173747 454.994 0.0104171L470.935 0.0104164C498.713 7.57121 493.548 46.5609 486.485 99.9443C481.288 139.182 475.054 186.282 480.02 234.284C480.881 240.857 481.951 247.436 483.231 254.02C484.592 260.049 486.148 266.064 487.899 272.065C489.716 277.64 491.713 283.174 493.89 288.669C496.067 293.683 498.406 298.642 500.906 303.545C503.413 308.079 506.067 312.546 508.869 316.945C511.596 320.91 514.449 324.796 517.429 328.604C520.305 332.013 523.287 335.335 526.374 338.569L526.719 338.806C529.596 340.289 532.445 341.818 535.267 343.393C538.437 344.715 541.579 346.082 544.693 347.494C548.166 348.657 551.606 349.862 555.014 351.108C558.779 352.107 562.512 353.145 566.215 354.221C570.254 355.048 574.261 355.91 578.235 356.807C582.573 357.465 586.877 358.157 591.146 358.882C595.795 359.368 600.408 359.883 604.984 360.427C609.915 360.732 614.805 361.065 619.655 361.426C624.868 361.55 630.034 361.698 635.154 361.871C640.723 361.806 646.247 361.765 651.725 361.749C657.587 361.491 663.4 361.257 669.164 361.047C675.363 360.59 681.513 360.155 687.615 359.742C694.12 359.083 700.57 358.445 706.965 357.83C713.787 356.963 720.549 356.117 727.253 355.291C734.416 354.2 741.512 353.134 748.543 352.094C756.073 350.786 763.536 349.501 770.931 348.239C965.536 310.287 1116.85 285.939 1242.6 290.354C1277.09 264.546 1310.72 238.88 1342.98 214.243C1485.46 105.471 1601.6 16.7997 1651.02 24.7296C1672.97 28.2505 1681.73 50.4302 1673.8 97.7427C1673.4 104.381 1672.56 111.678 1671.26 119.666C1670.88 126.382 1670.06 133.748 1668.81 141.764C1668.45 148.521 1667.67 155.902 1666.49 163.907C1666.15 170.781 1665.4 178.268 1664.25 186.369C1663.94 193.263 1663.25 200.741 1662.17 208.803C1661.9 215.82 1661.25 223.411 1660.23 231.575C1660.01 238.619 1659.43 246.214 1658.49 254.358C1658.33 261.486 1657.82 269.151 1656.97 277.352C1656.88 284.567 1656.45 292.301 1655.7 300.553C1655.7 307.8 1655.39 315.542 1654.76 323.781C1654.83 328.327 1654.78 333.06 1654.61 337.98C1654.97 347.962 1655.53 357.543 1656.29 366.722C1657.98 382.952 1660.18 398.058 1662.89 412.04C1672.09 417.635 1682.78 421.304 1694.8 423.233C1745.02 431.29 1818.25 409.318 1902 370.921L1902 373.127C1818.19 411.391 1744.8 433.222 1694.2 425.102C1682.73 423.263 1672.43 419.894 1663.44 414.851L1663.81 416.688L1663.84 416.784L1663.84 416.793C1664.15 418.217 1664.46 419.631 1664.78 421.034C1675.68 428.858 1688.82 433.708 1703.91 435.929C1753.08 443.167 1822.76 422.853 1902 387.208L1902 389.407C1822.71 424.916 1752.88 445.103 1703.36 437.812C1688.94 435.69 1676.24 431.253 1665.53 424.222C1665.96 426.056 1666.4 427.864 1666.85 429.661C1679.35 440.117 1695.02 446.265 1713.34 448.714C1761.29 455.107 1827.34 436.432 1902 403.532L1902 405.726C1827.3 438.489 1761.12 457.038 1712.84 450.603C1695.3 448.266 1680.13 442.658 1667.76 433.289C1668.15 434.813 1668.55 436.324 1668.95 437.824C1683 451.399 1701.34 459 1723.14 461.587C1769.71 467.115 1832.01 450.057 1902 419.897L1902 422.08C1831.98 452.103 1769.56 469.047 1722.7 463.487C1701.86 461.016 1684.11 454.125 1670.12 442.027C1670.45 443.187 1670.77 444.35 1671.11 445.494C1686.68 462.734 1707.84 471.924 1733.36 474.551C1778.3 479.188 1836.77 463.701 1902 436.27L1902 438.449C1836.75 465.745 1778.19 481.122 1732.96 476.455C1708.63 473.955 1688.17 465.684 1672.58 450.443C1672.81 451.184 1673.04 451.9 1673.27 452.631C1690.35 474.136 1714.52 485.058 1744.01 487.618C1787.13 491.361 1841.61 477.415 1902 452.701L1902 454.865C1841.61 479.449 1787.03 493.293 1743.68 489.529C1715.69 487.099 1692.39 477.389 1675.2 458.608L1675.37 459.117C1693.99 485.617 1721.4 498.439 1755.17 500.788C1796.17 503.639 1846.56 491.195 1902 469.168L1902 471.331C1846.57 493.228 1796.12 505.567 1754.91 502.701C1724.23 500.566 1698.68 490.07 1679.99 468.922C1700.24 498.459 1730.15 512.176 1766.88 514.057C1805.48 516.034 1851.62 505.036 1902.01 485.667L1902.01 487.821C1851.66 507.061 1805.46 517.963 1766.69 515.977C1733.53 514.279 1705.81 503.236 1685.54 480.068C1707.6 511.977 1739.88 526.19 1779.18 527.438C1815.05 528.579 1856.8 518.988 1902.01 502.226L1902.01 504.363C1856.85 520.993 1815.07 530.502 1779.06 529.358C1743.24 528.215 1713.15 516.636 1691.09 491.222C1715.22 525.757 1750.05 540.466 1792.09 540.932C1824.87 541.293 1862.07 533.048 1902 518.842L1902 520.971C1862.13 535.055 1824.93 543.209 1792.04 542.85C1753.33 542.42 1720.61 530.263 1696.5 502.218C1723.01 539.817 1760.67 555.023 1805.66 554.532C1834.98 554.21 1867.45 547.268 1902 535.537L1902 537.648C1867.52 549.259 1835.08 556.129 1805.7 556.45C1763.91 556.908 1728.35 544.209 1701.93 513.243C1731.14 554.24 1771.79 569.901 1819.87 568.244C1845.34 567.365 1872.92 561.648 1901.99 552.293L1901.99 554.388C1873.02 563.632 1845.49 569.28 1820 570.161C1774.88 571.717 1736.19 558.425 1707.14 523.964C1739.47 568.994 1783.34 585.129 1834.7 582.064C1855.94 580.796 1878.47 576.262 1902 569.148L1902 571.223C1878.58 578.237 1856.14 582.714 1834.93 583.98C1786.36 586.877 1744.38 573.047 1712.33 534.678C1736.03 567.36 1764.64 585.676 1797.07 592.997L1788.83 592.997C1761.96 585.436 1737.84 570.046 1717.11 544.888C1732.89 566.515 1750.29 582.262 1769.15 592.997L1764.81 592.997C1749.36 583.749 1734.91 571.127 1721.54 554.658C1732.91 570.146 1744.83 582.83 1757.31 593L1753.69 593C1744.01 584.901 1734.67 575.293 1725.66 564.047C1733.72 574.949 1741.93 584.569 1750.3 593L1746.98 593C1740.74 586.622 1734.59 579.577 1728.53 571.865C1734.17 579.466 1739.82 586.511 1745.48 593L1742.31 593C1737.32 587.219 1732.35 581.024 1727.38 574.414C1732.18 580.968 1736.95 587.164 1741.68 593L1738.55 593C1711.13 558.951 1682.68 513.407 1651.69 454.311L1651.66 454.236C1609.29 347.697 1525.92 325.449 1426.7 325.071C1427.9 325.533 1429.1 326.015 1430.3 326.488C1523.43 337.279 1603.2 369.458 1654.24 469.253C1685.35 519.971 1712.82 560.81 1738.15 593L1735.05 593C1709.82 560.852 1682.53 520.249 1651.73 470.019L1651.7 469.963C1602.58 373.876 1526.5 340.985 1437.45 329.355C1438.01 329.585 1438.56 329.834 1439.11 330.067C1447.67 332.314 1456.12 334.79 1464.46 337.496C1537.67 361.346 1601.9 404.241 1654.24 484.89C1684.54 527.506 1710.81 563.332 1734.38 593L1731.26 593C1707.81 563.445 1681.74 527.893 1651.76 485.728L1651.73 485.698C1599.72 405.522 1535.95 362.906 1463.31 339.242C1459.58 338.024 1455.82 336.857 1452.04 335.74C1524.7 368.948 1589.86 421.955 1654.17 500.482C1666.26 515.24 1675.65 526.76 1684.64 537.775C1701.04 557.884 1716.04 576.268 1729.89 593L1726.72 593C1713.08 576.517 1698.35 558.458 1682.26 538.732C1671.94 526.086 1661.06 512.745 1651.8 501.438C1583.82 418.418 1514.84 364.06 1436.92 331.543C1431.03 330.014 1425.08 328.585 1419.08 327.254C1412.09 326.563 1405.02 325.976 1397.88 325.495C1390.25 325.733 1382.54 326.065 1374.77 326.46C1366.54 327.563 1358.24 328.73 1349.88 329.924L1337.73 332.54C1333.01 333.556 1328.28 334.573 1323.54 335.591C1314.47 338.106 1305.36 340.604 1296.19 343.086C1286.92 346.114 1277.61 349.093 1268.27 352.021C1258.78 355.48 1249.27 358.863 1239.74 362.169C1230.27 365.907 1220.79 369.543 1211.29 373.077C1201.83 377.03 1192.37 380.868 1182.9 384.59C1173.41 388.741 1163.91 392.757 1154.42 396.638C1144.98 400.903 1135.55 405.022 1126.13 408.997C1116.79 413.328 1107.46 417.506 1098.16 421.53C1088.84 425.936 1079.56 430.18 1070.3 434.264C1061.18 438.652 1052.09 442.877 1043.02 446.938C1033.91 451.386 1024.83 455.663 1015.79 459.769C1006.55 464.331 997.343 468.714 988.167 472.917C979.208 477.374 970.286 481.659 961.402 485.774C952.477 490.249 943.589 494.554 934.74 498.688C925.687 503.258 916.67 507.65 907.689 511.866C813.122 559.828 723.033 588.701 646.61 581.327C592.672 576.126 564.613 493.834 537.877 415.435C534.891 406.679 531.924 397.973 528.938 389.431C462.93 382.793 383.395 349.683 306.055 317.479C239.149 289.621 173.896 262.447 120.807 253.84C71.6589 245.873 32.2579 252.52 -2.99016e-05 259.246L-2.99891e-05 257.246C32.4375 250.507 71.9991 243.953 121.419 251.966C174.925 260.64 240.362 287.888 307.45 315.824C384.164 347.763 463.029 380.602 528.234 387.429L526.856 383.512C466.155 374.432 394.851 342.256 324.6 310.551C257.708 280.363 191.77 250.606 137.229 241.803C83.1005 233.129 38.7479 243.889 2.25278 252.744L-3.01621e-05 253.288L-3.02508e-05 251.259L1.36307 250.928C38.2048 241.99 82.961 231.132 137.84 239.925C192.848 248.804 258.985 278.651 326.081 308.929C395.639 340.321 466.233 372.176 526.116 381.432L524.741 377.578C469.128 366.302 405.479 335.03 342.094 303.874C275.667 271.229 209.529 238.724 153.652 229.749C99.6458 221.196 53.461 233.562 14.5946 243.972C9.61563 245.306 4.75286 246.608 0.0126496 247.827L0.0126495 245.773C4.45065 244.624 8.98164 243.41 13.6225 242.168C52.8502 231.664 99.4513 219.189 154.271 227.871C210.651 236.926 277.016 269.541 343.668 302.292C406.303 333.075 469.2 363.983 523.976 375.416L522.606 371.658C471.831 358.431 415.232 327.991 358.4 297.428C292.908 262.219 227.111 226.823 170.077 217.714C116.09 209.264 68.1317 223.162 26.9598 235.099C17.6273 237.803 8.64139 240.41 -3.06276e-05 242.638L-3.07172e-05 240.589C8.31171 238.426 16.9531 235.921 25.92 233.325C67.4597 221.282 115.842 207.252 170.683 215.842C228.308 225.049 294.339 260.566 360.066 295.92C416.069 326.046 471.871 356.051 521.765 369.409L520.41 365.765C474.192 350.81 424.023 321.126 373.388 291.162C309.324 253.251 244.504 214.893 186.504 205.673C132.47 197.304 82.794 212.685 39.3904 226.132C25.6241 230.381 12.4855 234.451 -3.08513e-05 237.522L-3.09404e-05 235.483C12.1157 232.463 24.9014 228.504 38.283 224.365C82.067 210.806 132.176 195.29 187.095 203.798C245.757 213.123 310.833 251.634 375.148 289.692C424.905 319.136 474.204 348.307 519.489 363.35C519.045 362.174 518.599 361.005 518.151 359.841C476.174 343.356 431.815 314.32 386.928 284.934C324.796 244.261 261.65 202.919 202.926 193.632C148.768 185.33 97.4267 202.139 51.8527 217.056C33.6125 223.029 16.2726 228.702 -3.10763e-05 232.373L-3.11645e-05 230.355C15.8838 226.714 32.8496 221.164 50.6988 215.317C96.6765 200.268 148.47 183.313 203.512 191.745C262.964 201.141 326.394 242.666 388.792 283.512C432.732 312.272 476.164 340.71 517.139 357.223L515.822 353.871C477.736 336.015 438.569 307.482 398.938 278.611C339.251 235.129 278.495 190.869 219.345 181.574C165.032 173.338 112.066 191.526 64.3615 207.903C41.6157 215.728 20.0492 223.133 -3.1306e-05 227.119L-3.13932e-05 225.124C19.6032 221.151 40.8084 213.871 63.1675 206.195C111.28 189.677 164.709 171.336 219.935 179.71C279.903 189.131 340.948 233.605 400.918 277.294C439.529 305.422 477.698 333.222 514.687 351.023C514.265 349.962 513.837 348.907 513.403 347.858C478.841 328.734 444.271 300.543 409.382 272.082C352.635 225.785 295.021 178.79 235.782 169.543C181.286 161.364 126.713 180.89 76.9232 198.707C49.6443 208.468 23.7855 217.721 -0.00214488 221.701L-0.00214496 219.723C23.2847 215.738 48.7863 206.613 75.6763 196.99C125.876 179.028 180.901 159.335 236.349 167.66C296.501 177.055 354.417 224.302 411.466 270.832C445.252 298.392 478.736 325.701 512.08 344.653C511.665 343.665 511.251 342.684 510.837 341.712C479.433 321.381 448.916 293.319 418.26 265.13C364.918 216.079 311.163 166.648 252.201 157.501C197.478 149.369 141.344 170.2 89.5102 189.435C57.694 201.242 27.4881 212.453 -3.17874e-05 216.106L-3.18729e-05 214.149C26.9386 210.481 56.7979 199.399 88.2337 187.735C140.488 168.344 197.07 147.344 252.772 155.62L252.782 155.62C312.731 164.915 366.792 214.623 420.441 263.961C449.897 291.047 479.23 318.02 509.25 338.031C508.853 337.124 508.455 336.225 508.056 335.333C479.479 313.789 452.537 285.647 425.661 257.575C376.171 205.885 326.905 154.426 268.619 145.454C213.641 137.368 155.979 159.468 102.135 180.102C65.7859 194.037 31.1526 207.304 -3.20411e-05 210.302L-3.21258e-05 208.364C30.5588 205.346 64.8391 192.205 100.825 178.417C155.095 157.619 213.227 135.342 269.19 143.579C328.547 152.715 378.126 204.499 427.925 256.514C453.479 283.199 479.097 309.96 506.05 330.962C505.67 330.144 505.289 329.33 504.907 328.522C478.913 305.74 455.199 277.354 431.739 249.275C386.514 195.137 342.237 142.155 285.032 133.419C229.778 125.372 170.599 148.713 114.784 170.731C75.5178 186.22 37.8878 201.061 4.15689 204.007C2.76421 204.128 1.37997 204.225 -3.23033e-05 204.303L-3.23875e-05 202.376C1.26797 202.301 2.53597 202.212 3.82299 202.1C37.0213 199.202 74.4189 184.45 113.452 169.051C169.705 146.864 229.345 123.338 285.611 131.544C343.983 140.46 388.555 193.809 434.1 248.313C456.057 274.559 478.228 301.096 502.225 322.997L502.128 322.804C501.791 322.133 501.458 321.46 501.128 320.786C477.67 296.792 457 268.137 436.748 240.07C396.117 183.751 357.2 129.814 301.463 121.372C245.899 113.356 185.229 137.914 127.476 161.298C85.5667 178.263 45.1725 194.617 9.04503 197.635C5.99761 197.889 2.98259 198.045 -3.25743e-05 198.104L-3.26585e-05 196.176C2.87833 196.122 5.78627 195.974 8.72381 195.732C44.3123 192.759 84.4614 176.505 126.113 159.643C184.316 136.08 245.449 111.333 302.027 119.5L302.044 119.5C359.053 128.135 398.26 182.477 439.199 239.215C457.82 265.022 476.802 291.329 497.939 313.992L497.227 312.392C476.14 287.151 458.264 258.072 440.941 229.893C405.191 171.74 371.805 117.435 317.894 109.34C262.013 101.351 199.877 127.104 140.198 151.839C95.6854 170.287 52.5248 188.177 13.9818 191.266C9.34338 191.646 4.67251 191.794 0.00419381 191.711L0.00419373 189.784C4.5684 189.874 9.13592 189.733 13.6711 189.361C51.635 186.318 94.5484 168.532 138.802 150.191C198.932 125.268 261.533 99.3231 318.452 107.465L318.462 107.465C373.766 115.767 407.423 170.514 443.462 229.14C459.168 254.688 475.333 280.977 493.901 304.424L493.596 303.65C474.636 277.021 459.303 247.228 444.616 218.685C413.958 159.105 386.119 105.007 334.319 97.3024C278.104 89.34 214.512 116.265 152.936 142.338C105.838 162.279 59.9045 181.729 18.9502 184.886C12.658 185.386 6.31128 185.455 -3.3143e-05 185.092L-3.32281e-05 183.147C6.20799 183.519 12.4535 183.456 18.6438 182.96C58.9958 179.847 104.675 160.501 151.513 140.67C213.54 114.406 277.595 87.2852 334.866 95.4034L334.883 95.4034C388.169 103.33 416.257 157.907 447.181 218.019C460.032 242.995 473.387 268.93 489.205 292.825C472.706 265.102 460.041 234.985 448.056 206.451C422.603 145.89 400.177 92.5273 350.746 85.2453C294.176 77.2976 229.149 105.376 165.685 132.774C116.022 154.219 67.3096 175.255 23.9377 178.493C15.7485 179.102 7.76013 179.077 -3.34395e-05 178.309L-3.35251e-05 176.351C7.66503 177.145 15.5583 177.184 23.6482 176.582C66.3903 173.396 114.849 152.471 164.257 131.139C228.164 103.545 293.652 75.2651 351.287 83.3625C402.343 90.8773 424.991 144.756 450.692 205.909C460.5 229.249 470.768 253.656 483.197 276.921C470.141 249.388 460.559 220.461 451.562 193.284C431.342 132.205 414.07 80.0402 367.179 73.2088C310.218 65.2775 243.777 94.4887 178.473 123.197C126.244 146.154 74.7317 168.8 28.9526 172.099C19.0009 172.815 9.33245 172.616 -3.3745e-05 171.321L-3.38317e-05 169.337ZM1654.23 484.887L1654.23 484.898L1654.23 484.887ZM1654.32 203.593L1654.32 203.605L1654.32 203.593Z" fill="black"/>
</svg>
