<svg width="32" height="33" viewBox="0 0 32 33" fill="none" xmlns="http://www.w3.org/2000/svg">
<g opacity="0.4">
<path d="M4.22656 10.4199L15.9999 17.2332L27.6932 10.4599" stroke="#450099" stroke-width="2" stroke-linecap="round" stroke-linejoin="round"/>
<path d="M4.5 9.5L15.5 3L28.5 10L15.5 17L4.5 9.5Z" fill="#450099" fill-opacity="0.24"/>
<path d="M16 29.3131V17.2197" stroke="#450099" stroke-width="2" stroke-linecap="round" stroke-linejoin="round"/>
<path d="M13.2398 3.8065L6.11983 7.76655C4.5065 8.65988 3.18652 10.8999 3.18652 12.7399V20.2732C3.18652 22.1132 4.5065 24.3532 6.11983 25.2465L13.2398 29.2066C14.7598 30.0466 17.2532 30.0466 18.7732 29.2066L25.8932 25.2465C27.5065 24.3532 28.8265 22.1132 28.8265 20.2732V12.7399C28.8265 10.8999 27.5065 8.65988 25.8932 7.76655L18.7732 3.8065C17.2398 2.95317 14.7598 2.95317 13.2398 3.8065Z" stroke="#450099" stroke-width="2" stroke-linecap="round" stroke-linejoin="round"/>
</g>
<path d="M22.667 18.1535V13.2735L10.0137 5.9668" stroke="#450099" stroke-width="2" stroke-linecap="round" stroke-linejoin="round"/>
</svg>
