<svg width="145" height="34" viewBox="0 0 145 34" fill="none" xmlns="http://www.w3.org/2000/svg">
<g clip-path="url(#clip0_438_1535)">
<g clip-path="url(#clip1_438_1535)">
<path d="M10.0554 27.1299C15.8935 27.1299 18.7172 23.7639 19.3474 20.8261L19.4052 20.621H14.292L14.2538 20.7326C13.9028 21.4846 13.3225 22.113 12.5919 22.5322C11.8614 22.9514 11.016 23.141 10.1709 23.0754C7.32763 23.0754 5.55384 21.216 5.49606 18.0359H19.5774V16.3625C19.5774 10.3381 15.8183 6.375 9.82752 6.375C3.83673 6.375 -0.00195312 10.4316 -0.00195312 16.7748V16.7939C-0.00195312 23.1689 3.79748 27.1299 10.0554 27.1299ZM9.9191 10.4316C12.2282 10.4316 13.8875 11.8639 14.2309 14.6158H5.54948C5.9147 11.9191 7.62963 10.4316 9.9191 10.4316Z" fill="white"/>
<path d="M71.9874 27.9682C77.444 27.9682 80.9741 24.6989 81.2412 20.4021V20.2959H76.0517L76.0321 20.4616C75.9159 21.4038 75.4382 22.2682 74.6951 22.8813C73.9519 23.4944 72.9982 23.8109 72.0255 23.7671C69.2782 23.7671 67.5556 21.5815 67.5556 17.7246V17.7066C67.5556 13.9421 69.2727 11.6832 72.0016 11.6832C72.9737 11.6417 73.9261 11.9589 74.6688 12.5716C75.4114 13.1843 75.8897 14.0474 76.0081 14.9887L76.0463 15.1544H81.226V15.0259C81.0155 10.7653 77.4865 7.48212 71.934 7.48212C65.8091 7.48212 61.8984 11.3943 61.8984 17.6928V17.7108C61.8941 24.0561 65.7448 27.9682 71.9874 27.9682ZM92.6166 27.9682C98.4548 27.9682 101.278 24.6436 101.909 21.7419L101.966 21.5401H96.8533L96.8151 21.6463C96.459 22.3926 95.8767 23.0146 95.1466 23.4284C94.4166 23.8421 93.5739 24.0278 92.7322 23.9604C89.8889 23.9604 88.1151 22.1234 88.0573 18.9837H102.138V17.3304C102.138 11.3804 98.3785 7.46831 92.3877 7.46831C86.3969 7.46831 82.5615 11.4718 82.5615 17.7342V17.7523C82.5615 24.0561 86.3587 27.9682 92.6166 27.9682ZM92.4825 11.4761C94.7916 11.4761 96.451 12.8902 96.7944 15.6081H88.114C88.4771 12.9412 90.1931 11.4761 92.4825 11.4761ZM113.685 27.9682C119.523 27.9682 122.347 24.6436 122.977 21.7419L123.035 21.5401H117.922L117.884 21.6463C117.528 22.3926 116.945 23.0146 116.215 23.4284C115.485 23.8421 114.643 24.0278 113.801 23.9604C110.958 23.9604 109.184 22.1234 109.126 18.9837H123.206V17.3304C123.206 11.3804 119.447 7.46831 113.456 7.46831C107.466 7.46831 103.63 11.4718 103.63 17.7342V17.7523C103.63 24.0561 107.427 27.9682 113.685 27.9682ZM113.551 11.4761C115.86 11.4761 117.52 12.8902 117.863 15.6081H109.183C109.545 12.9412 111.262 11.4761 113.551 11.4761ZM133.017 27.9682C134.332 28.0258 135.635 27.6979 136.758 27.0269C137.88 26.3559 138.77 25.3726 139.313 24.2037H139.428V27.5644H145.004V1.0625H139.433V11.2922H139.313C138.776 10.1149 137.889 9.12129 136.767 8.43957C135.644 7.75785 134.339 7.4192 133.017 7.46725C127.866 7.46725 124.699 11.2923 124.699 17.697V17.7151C124.699 24.1113 127.866 27.9682 133.017 27.9682ZM134.887 23.5238C132.101 23.5238 130.365 21.3021 130.365 17.7204V17.7023C130.365 14.1026 132.12 11.917 134.887 11.917C137.578 11.917 139.447 14.1578 139.447 17.7023V17.7204C139.444 21.2829 137.596 23.5238 134.887 23.5238Z" fill="white"/>
<path d="M48.8196 32.7857V31.8869L41.4294 24.7537L33.3559 32.5479V32.7857H25.0293V24.7488H25.4535L33.4399 17.0424L25.3654 9.25119H25.0293V1.21428H33.3569V1.53888L57.6645 24.9915L57.1502 25.4848V32.7857H48.8196ZM46.4405 12.1212V1.21428H57.7445V12.1212H46.4405Z" fill="#F06A26"/>
<path d="M53.516 29.8259V25.7341L31.1749 4.17411H27.4697V7.69193L37.1592 17.0427L27.4697 26.3928V29.8259H31.2627L40.8344 20.5888L50.4055 29.8259H53.516ZM54.1107 9.16092V4.17411H48.8833V9.16092H54.1107ZM56.553 32.7857H48.2253L40.8344 24.7543L32.7604 32.7857H24.4326V24.7491L32.8428 17.0426L24.4326 9.25089V1.21428H32.7604L56.553 25.4925V32.7857ZM57.1478 12.1207H45.8462V1.21428H57.1478V12.1207Z" fill="#F06A26"/>
</g>
</g>
<defs>
<clipPath id="clip0_438_1535">
<rect width="145" height="34" fill="white"/>
</clipPath>
<clipPath id="clip1_438_1535">
<rect width="145" height="34" fill="white"/>
</clipPath>
</defs>
</svg>
