<svg width="72" height="72" viewBox="0 0 72 72" fill="none" xmlns="http://www.w3.org/2000/svg">
<g clip-path="url(#clip0_436_835)">
<path d="M1.05469 12.6525V26.8117C1.05469 27.2476 1.40808 27.601 1.84402 27.601H7.39378C6.76617 28.4913 6.42459 29.5992 6.50798 30.7905C6.67758 33.2158 8.63789 35.1789 11.0558 35.3436C13.9185 35.5386 16.3011 33.267 16.3011 30.4369C16.3025 29.4214 15.9886 28.4306 15.4029 27.601H26.7272C27.1631 27.601 27.5165 27.2476 27.5165 26.8117V19.934C27.5165 19.414 27.0229 19.038 26.5209 19.1732C26.1066 19.2847 25.6795 19.341 25.2505 19.3407C22.4315 19.3407 20.1683 16.954 20.359 14.085C20.5218 11.6352 22.5125 9.65686 24.9557 9.51258C25.4796 9.48099 26.0052 9.53379 26.5123 9.66895C27.0177 9.80409 27.5167 9.43875 27.5167 8.91563V1.84402C27.5167 1.40808 27.1633 1.05469 26.7273 1.05469H4.11595C2.42522 1.05469 1.05469 2.42958 1.05469 4.12566V8.44102M42.3706 66.3304C40.0296 66.3304 38.1615 64.2983 38.424 61.8964C38.6253 60.0521 40.1133 58.573 41.9531 58.3838C42.8873 58.2878 43.7631 58.5184 44.4836 58.9738V44.399H33.6794C33.1196 44.399 32.7488 44.9612 32.9479 45.4843C33.1941 46.1312 33.308 46.8435 33.256 47.5885C33.0864 50.0137 31.1261 51.9768 28.7082 52.1415C25.8455 52.3367 23.4629 50.0649 23.4629 47.2348C23.4629 46.6161 23.5772 46.0243 23.7853 45.4791C23.9842 44.9584 23.61 44.399 23.0524 44.399H18.8113C18.6019 44.399 18.4012 44.4821 18.2531 44.6302C18.1051 44.7782 18.0219 44.979 18.0219 45.1883V67.8743C18.0219 69.5704 19.3925 70.9453 21.0832 70.9453H44.4836V65.719C43.8516 66.1192 43.1187 66.3312 42.3706 66.3304Z" stroke="#450099" stroke-width="2" stroke-miterlimit="10" stroke-linecap="round" stroke-linejoin="round"/>
<path d="M70.9453 57.7468V44.3991H62.8472C63.56 43.3595 63.9407 42.1281 63.9389 40.8676C63.9389 37.4197 61.0971 34.594 57.6605 34.6233C54.2477 34.6524 51.4901 37.4368 51.4901 40.8674C51.4901 42.1785 51.8937 43.3945 52.5817 44.3991H44.4837V58.9739C43.7631 58.5186 42.8873 58.2881 41.9532 58.384C40.1134 58.573 38.6255 60.0521 38.424 61.8965C38.1618 64.2984 40.0297 66.3306 42.3707 66.3306C43.1187 66.3314 43.8516 66.1194 44.4837 65.7193V70.9453H67.8841C69.5747 70.9453 70.9454 69.5704 70.9454 67.8743V61.9559" stroke="#450099" stroke-width="2" stroke-miterlimit="10" stroke-linecap="round" stroke-linejoin="round"/>
<path d="M39.5154 20.7658V15.8999L46.2624 9.15283H61.3122M44.4834 18.6421V26.8591C43.6958 26.446 42.8101 26.2563 41.9224 26.3106C39.4792 26.4549 37.4885 28.4332 37.3257 30.8831C37.135 33.7521 39.3982 36.1388 42.2172 36.1388C43.0065 36.1396 43.7842 35.9483 44.4832 35.5816V44.3992H52.5812C51.8683 43.3597 51.4877 42.1282 51.4896 40.8677C51.4894 37.4199 54.3313 34.5941 57.7681 34.6234C61.1809 34.6525 63.9385 37.437 63.9385 40.8676C63.9385 42.1786 63.5351 43.3946 62.8469 44.3992H70.945V20.9238C70.945 19.2278 69.5745 17.8529 67.8838 17.8529H45.2727C45.169 17.8528 45.0664 17.8732 44.9706 17.9129C44.8748 17.9525 44.7878 18.0106 44.7145 18.0839C44.6412 18.1572 44.5831 18.2442 44.5434 18.34C44.5037 18.4358 44.4833 18.5384 44.4834 18.6421Z" stroke="#450099" stroke-width="2" stroke-miterlimit="10" stroke-linecap="round" stroke-linejoin="round"/>
<path d="M64.0725 11.8376C65.5553 11.8376 66.7573 10.6356 66.7573 9.15283C66.7573 7.67005 65.5553 6.46802 64.0725 6.46802C62.5897 6.46802 61.3877 7.67005 61.3877 9.15283C61.3877 10.6356 62.5897 11.8376 64.0725 11.8376Z" stroke="#450099" stroke-width="2" stroke-miterlimit="10" stroke-linecap="round" stroke-linejoin="round"/>
<path d="M34.7217 22.4531V6.42188" stroke="#450099" stroke-width="2" stroke-miterlimit="10" stroke-linecap="round" stroke-linejoin="round"/>
<path d="M34.7219 6.42431C36.2047 6.42431 37.4067 5.22228 37.4067 3.7395C37.4067 2.25672 36.2047 1.05469 34.7219 1.05469C33.2391 1.05469 32.0371 2.25672 32.0371 3.7395C32.0371 5.22228 33.2391 6.42431 34.7219 6.42431Z" stroke="#450099" stroke-width="2" stroke-miterlimit="10" stroke-linecap="round" stroke-linejoin="round"/>
<path d="M28.2656 46.125V40.5L24.75 36.9844" stroke="#450099" stroke-width="2" stroke-miterlimit="10" stroke-linecap="round" stroke-linejoin="round"/>
<path d="M22.8518 37.7707C24.3346 37.7707 25.5366 36.5687 25.5366 35.0859C25.5366 33.6032 24.3346 32.4011 22.8518 32.4011C21.369 32.4011 20.167 33.6032 20.167 35.0859C20.167 36.5687 21.369 37.7707 22.8518 37.7707Z" stroke="#450099" stroke-width="2" stroke-miterlimit="10" stroke-linecap="round" stroke-linejoin="round"/>
</g>
<defs>
<clipPath id="clip0_436_835">
<rect width="72" height="72" fill="white"/>
</clipPath>
</defs>
</svg>
