<svg width="32" height="33" viewBox="0 0 32 33" fill="none" xmlns="http://www.w3.org/2000/svg">
<path d="M13.3333 29.8332H18.6667C25.3333 29.8332 28 27.1665 28 20.4998V12.4998C28 5.83317 25.3333 3.1665 18.6667 3.1665H13.3333C6.66667 3.1665 4 5.83317 4 12.4998V20.4998C4 27.1665 6.66667 29.8332 13.3333 29.8332Z" stroke="#450099" stroke-width="2" stroke-linecap="round" stroke-linejoin="round"/>
<path d="M22 10.6064V11.9398C22 13.0331 21.1067 13.9398 20 13.9398H12C10.9067 13.9398 10 13.0464 10 11.9398V10.6064C10 9.51311 10.8933 8.60645 12 8.60645H20C21.1067 8.60645 22 9.49978 22 10.6064Z" fill="#450099" fill-opacity="0.24" stroke="#450099" stroke-width="2" stroke-linecap="round" stroke-linejoin="round"/>
<path opacity="0.4" d="M10.8482 19.1667H10.8636" stroke="#450099" stroke-width="2" stroke-linecap="round" stroke-linejoin="round"/>
<path opacity="0.4" d="M15.9937 19.1667H16.0091" stroke="#450099" stroke-width="2" stroke-linecap="round" stroke-linejoin="round"/>
<path opacity="0.4" d="M21.1392 19.1667H21.1546" stroke="#450099" stroke-width="2" stroke-linecap="round" stroke-linejoin="round"/>
<path opacity="0.4" d="M10.8482 23.8332H10.8636" stroke="#450099" stroke-width="2" stroke-linecap="round" stroke-linejoin="round"/>
<path opacity="0.4" d="M15.9937 23.8332H16.0091" stroke="#450099" stroke-width="2" stroke-linecap="round" stroke-linejoin="round"/>
<path opacity="0.4" d="M21.1392 23.8332H21.1546" stroke="#450099" stroke-width="2" stroke-linecap="round" stroke-linejoin="round"/>
</svg>
