<svg width="41" height="40" viewBox="0 0 41 40" fill="none" xmlns="http://www.w3.org/2000/svg">
<path d="M20.3333 19.2167C15.7333 19.2167 12 22.95 12 27.55C12 28.7833 12.2667 29.95 12.7667 30.9833C12.9 31.2833 13.05 31.5667 13.2167 31.8333C14.65 34.25 17.3 35.8833 20.3333 35.8833C23.3667 35.8833 26.0167 34.25 27.45 31.8333C27.6167 31.5667 27.7667 31.2833 27.9 30.9833C28.4 29.95 28.6667 28.7833 28.6667 27.55C28.6667 22.95 24.9333 19.2167 20.3333 19.2167ZM23.7833 26.8333L20.2333 30.1167C20 30.3333 19.6833 30.45 19.3833 30.45C19.0667 30.45 18.75 30.3333 18.5 30.0833L16.85 28.4333C16.3667 27.95 16.3667 27.15 16.85 26.6667C17.3333 26.1833 18.1333 26.1833 18.6167 26.6667L19.4167 27.4667L22.0833 25C22.6 24.5333 23.3833 24.5667 23.85 25.0667C24.3167 25.5667 24.2833 26.35 23.7833 26.8333Z" fill="url(#paint0_linear_772_3)"/>
<path d="M33.9995 28.45C33.3996 28.9833 32.7495 29.4333 32.0496 29.8C31.4496 30.1 30.8496 29.5166 30.9496 28.85C31.0162 28.3666 31.0495 27.8666 31.0495 27.35C31.0495 21.3833 26.1829 16.5166 20.2162 16.5166C14.2495 16.5166 9.38288 21.3833 9.38288 27.35C9.38288 28.1166 9.46621 28.85 9.61621 29.5666C9.73288 30.15 9.28288 30.7333 8.69955 30.5833C2.11621 28.9833 2.08288 18.85 9.44955 18.3333H9.53288C4.18288 3.44996 26.7495 -2.50004 29.3329 13.1333C36.5495 14.05 39.4662 23.6666 33.9995 28.45Z" fill="url(#paint1_linear_772_3)"/>
<defs>
<linearGradient id="paint0_linear_772_3" x1="20.3333" y1="19.2167" x2="20.3333" y2="35.8833" gradientUnits="userSpaceOnUse">
<stop stop-color="#450099"/>
<stop offset="1" stop-color="#BEBEFF"/>
</linearGradient>
<linearGradient id="paint1_linear_772_3" x1="20.3373" y1="3.91675" x2="20.3373" y2="30.6072" gradientUnits="userSpaceOnUse">
<stop stop-color="#450099"/>
<stop offset="1" stop-color="#BEBEFF"/>
</linearGradient>
</defs>
</svg>
