<svg width="72" height="72" viewBox="0 0 72 72" fill="none" xmlns="http://www.w3.org/2000/svg">
<path d="M66.375 2.25H5.625C4.73072 2.25267 3.87382 2.60911 3.24147 3.24147C2.60911 3.87382 2.25267 4.73072 2.25 5.625V47.25C2.25267 48.1443 2.60911 49.0012 3.24147 49.6335C3.87382 50.2659 4.73072 50.6223 5.625 50.625H17.3363C17.3793 50.7715 17.3632 50.929 17.2913 51.0638L14.4563 55.7775C14.0688 56.4246 13.9092 57.1828 14.003 57.9311C14.0968 58.6795 14.4386 59.3748 14.9738 59.9062L18.8438 63.7762C19.3752 64.3114 20.0705 64.6532 20.8189 64.747C21.5672 64.8408 22.3254 64.6812 22.9725 64.2938L27.6863 61.4588C27.7763 61.412 27.876 61.3866 27.9774 61.3847C28.0789 61.3827 28.1795 61.4042 28.2712 61.4475C28.3628 61.4827 28.4449 61.5387 28.5112 61.6109C28.5776 61.6831 28.6263 61.7696 28.6537 61.8638L29.9812 67.1963C30.1643 67.9259 30.5858 68.5734 31.179 69.0361C31.7721 69.4988 32.5028 69.75 33.255 69.75H38.745C39.4972 69.75 40.2279 69.4988 40.821 69.0361C41.4142 68.5734 41.8357 67.9259 42.0187 67.1963L43.3462 61.8638C43.376 61.766 43.4281 61.6765 43.4984 61.6023C43.5686 61.5281 43.6552 61.4712 43.7513 61.4362C43.8407 61.3976 43.9377 61.3796 44.0351 61.3835C44.1324 61.3874 44.2277 61.4131 44.3138 61.4588L49.0275 64.2938C49.6753 64.6787 50.4329 64.8368 51.1806 64.7431C51.9283 64.6494 52.6235 64.3092 53.1562 63.7762L57.0262 59.9062C57.5614 59.3748 57.9032 58.6795 57.997 57.9311C58.0908 57.1828 57.9312 56.4246 57.5438 55.7775L54.7088 51.0638C54.6423 50.9274 54.6264 50.772 54.6637 50.625H66.375C67.2693 50.6223 68.1262 50.2659 68.7585 49.6335C69.3909 49.0012 69.7473 48.1443 69.75 47.25V5.625C69.7473 4.73072 69.3909 3.87382 68.7585 3.24147C68.1262 2.60911 67.2693 2.25267 66.375 2.25ZM60.75 45.495C60.7498 45.7462 60.6655 45.9902 60.5106 46.188C60.3556 46.3857 60.1389 46.526 59.895 46.5863L54.5625 47.9137C54.124 48.0305 53.7187 48.2478 53.3789 48.5486C53.0391 48.8493 52.7741 49.2252 52.605 49.6463C52.4328 50.0601 52.3595 50.5085 52.3907 50.9556C52.422 51.4028 52.5569 51.8366 52.785 52.2225L55.6087 56.9362C55.7404 57.1503 55.7954 57.4027 55.7647 57.6521C55.7341 57.9014 55.6196 58.133 55.44 58.3088L51.5588 62.19C51.383 62.3696 51.1514 62.4841 50.9021 62.5147C50.6527 62.5454 50.4003 62.4904 50.1862 62.3587L45.4725 59.535C45.0825 59.3098 44.6459 59.1772 44.1966 59.1474C43.7472 59.1177 43.297 59.1915 42.8806 59.3632C42.4643 59.535 42.093 59.8001 41.7953 60.138C41.4976 60.476 41.2816 60.8778 41.1637 61.3125L39.8363 66.645C39.776 66.8889 39.6357 67.1056 39.438 67.2606C39.2402 67.4155 38.9962 67.4998 38.745 67.5H33.255C33.0038 67.4998 32.7598 67.4155 32.562 67.2606C32.3643 67.1056 32.224 66.8889 32.1637 66.645L30.8363 61.3125C30.7195 60.874 30.5022 60.4687 30.2014 60.1289C29.9007 59.7891 29.5248 59.5241 29.1038 59.355C28.7467 59.2082 28.3647 59.1318 27.9788 59.13C27.4669 59.1284 26.9646 59.2686 26.5275 59.535L21.8137 62.3587C21.5997 62.4904 21.3473 62.5454 21.0979 62.5147C20.8486 62.4841 20.617 62.3696 20.4412 62.19L16.56 58.3088C16.3804 58.133 16.2659 57.9014 16.2353 57.6521C16.2046 57.4027 16.2596 57.1503 16.3912 56.9362L19.215 52.2225C19.4402 51.8325 19.5728 51.3959 19.6026 50.9466C19.6323 50.4972 19.5585 50.047 19.3868 49.6306C19.215 49.2143 18.9499 48.843 18.612 48.5453C18.274 48.2476 17.8722 48.0316 17.4375 47.9137L12.105 46.5863C11.8611 46.526 11.6444 46.3857 11.4894 46.188C11.3345 45.9902 11.2502 45.7462 11.25 45.495V40.005C11.2502 39.7538 11.3345 39.5098 11.4894 39.312C11.6444 39.1143 11.8611 38.974 12.105 38.9137L17.4375 37.5863C17.876 37.4695 18.2813 37.2522 18.6211 36.9514C18.9609 36.6507 19.2259 36.2748 19.395 35.8538C19.5672 35.4399 19.6405 34.9915 19.6093 34.5444C19.578 34.0972 19.443 33.6634 19.215 33.2775L16.3912 28.5637C16.2596 28.3497 16.2046 28.0973 16.2353 27.8479C16.2659 27.5986 16.3804 27.367 16.56 27.1912L20.4412 23.31C20.617 23.1304 20.8486 23.0159 21.0979 22.9853C21.3473 22.9546 21.5997 23.0096 21.8137 23.1413L26.5275 25.965C26.9175 26.1902 27.3541 26.3228 27.8034 26.3526C28.2528 26.3823 28.703 26.3085 29.1194 26.1368C29.5357 25.965 29.907 25.6999 30.2047 25.362C30.5024 25.024 30.7184 24.6222 30.8363 24.1875L32.1637 18.855C32.224 18.6111 32.3643 18.3944 32.562 18.2394C32.7598 18.0845 33.0038 18.0002 33.255 18H38.745C38.9962 18.0002 39.2402 18.0845 39.438 18.2394C39.6357 18.3944 39.776 18.6111 39.8363 18.855L41.1637 24.1875C41.2805 24.626 41.4978 25.0313 41.7986 25.3711C42.0993 25.7109 42.4752 25.9759 42.8963 26.145C43.3101 26.3172 43.7585 26.3905 44.2056 26.3593C44.6528 26.328 45.0866 26.193 45.4725 25.965L50.1862 23.1413C50.4012 23.0126 50.6529 22.9593 50.9015 22.9899C51.1501 23.0204 51.3814 23.1331 51.5588 23.31L55.44 27.1912C55.6196 27.367 55.7341 27.5986 55.7647 27.8479C55.7954 28.0973 55.7404 28.3497 55.6087 28.5637L52.785 33.2775C52.5598 33.6675 52.4272 34.1041 52.3974 34.5534C52.3677 35.0028 52.4415 35.453 52.6132 35.8694C52.785 36.2857 53.0501 36.657 53.388 36.9547C53.726 37.2524 54.1278 37.4684 54.5625 37.5863L59.895 38.9137C60.1389 38.974 60.3556 39.1143 60.5106 39.312C60.6655 39.5098 60.7498 39.7538 60.75 40.005V45.495ZM67.5 47.25C67.5 47.5484 67.3815 47.8345 67.1705 48.0455C66.9595 48.2565 66.6734 48.375 66.375 48.375H61.3687C61.8659 48.0763 62.2773 47.6541 62.5631 47.1495C62.8489 46.6449 62.9994 46.0749 63 45.495V40.005C63 39.2528 62.7488 38.5221 62.2861 37.929C61.8234 37.3358 61.1759 36.9143 60.4463 36.7313L55.1138 35.4037C54.9557 35.3609 54.8193 35.2606 54.7313 35.1225L54.6862 34.9987C54.6476 34.9093 54.6296 34.8123 54.6335 34.7149C54.6374 34.6176 54.6631 34.5223 54.7088 34.4362L57.5438 29.7225C57.9312 29.0754 58.0908 28.3172 57.997 27.5689C57.9032 26.8205 57.5614 26.1252 57.0262 25.5938L53.1562 21.7237C52.6248 21.1886 51.9295 20.8468 51.1811 20.753C50.4328 20.6592 49.6746 20.8188 49.0275 21.2063L44.3138 24.0413C44.2237 24.088 44.124 24.1134 44.0226 24.1153C43.9211 24.1173 43.8205 24.0958 43.7287 24.0525C43.6372 24.0173 43.5551 23.9614 43.4888 23.8892C43.4224 23.8169 43.3736 23.7304 43.3462 23.6362L42.0187 18.3038C41.8357 17.5741 41.4142 16.9266 40.821 16.4639C40.2279 16.0012 39.4972 15.75 38.745 15.75H33.255C32.5028 15.75 31.7721 16.0012 31.179 16.4639C30.5858 16.9266 30.1643 17.5741 29.9812 18.3038L28.6537 23.6362C28.624 23.734 28.5719 23.8235 28.5016 23.8977C28.4313 23.9719 28.3448 24.0288 28.2488 24.0637C28.1593 24.1024 28.0623 24.1204 27.9649 24.1165C27.8676 24.1126 27.7723 24.0869 27.6863 24.0413L22.9725 21.2063C22.3247 20.8213 21.5671 20.6632 20.8194 20.7569C20.0717 20.8506 19.3765 21.1908 18.8438 21.7237L14.9738 25.5938C14.4386 26.1252 14.0968 26.8205 14.003 27.5689C13.9092 28.3172 14.0688 29.0754 14.4563 29.7225L17.2913 34.4362C17.338 34.5263 17.3634 34.626 17.3653 34.7274C17.3673 34.8289 17.3458 34.9295 17.3025 35.0212C17.2673 35.1128 17.2114 35.1949 17.1391 35.2612C17.0669 35.3276 16.9804 35.3763 16.8863 35.4037L11.5538 36.7313C10.8241 36.9143 10.1766 37.3358 9.71389 37.929C9.25122 38.5221 8.99996 39.2528 9 40.005V45.495C9.00056 46.0749 9.15106 46.6449 9.43688 47.1495C9.72271 47.6541 10.1341 48.0763 10.6312 48.375H5.625C5.32663 48.375 5.04048 48.2565 4.8295 48.0455C4.61853 47.8345 4.5 47.5484 4.5 47.25V13.5H67.5V47.25ZM67.5 11.25H4.5V5.625C4.5 5.32663 4.61853 5.04048 4.8295 4.8295C5.04048 4.61853 5.32663 4.5 5.625 4.5H66.375C66.6734 4.5 66.9595 4.61853 67.1705 4.8295C67.3815 5.04048 67.5 5.32663 67.5 5.625V11.25Z" fill="#450099"/>
<path d="M6.75 6.75H9V9H6.75V6.75ZM11.25 6.75H13.5V9H11.25V6.75ZM15.75 6.75H18V9H15.75V6.75ZM36 29.25C33.33 29.25 30.7199 30.0418 28.4998 31.5252C26.2797 33.0086 24.5494 35.117 23.5276 37.5838C22.5058 40.0506 22.2385 42.765 22.7594 45.3837C23.2803 48.0025 24.566 50.4079 26.4541 52.2959C28.3421 54.184 30.7475 55.4697 33.3663 55.9906C35.985 56.5115 38.6994 56.2442 41.1662 55.2224C43.633 54.2006 45.7414 52.4703 47.2248 50.2502C48.7082 48.0301 49.5 45.42 49.5 42.75C49.4961 39.1708 48.0726 35.7392 45.5417 33.2083C43.0108 30.6774 39.5792 29.2539 36 29.25ZM36 54C33.775 54 31.5999 53.3402 29.7498 52.104C27.8998 50.8679 26.4578 49.1109 25.6064 47.0552C24.7549 44.9995 24.5321 42.7375 24.9662 40.5552C25.4002 38.3729 26.4717 36.3684 28.045 34.795C29.6184 33.2217 31.6229 32.1502 33.8052 31.7162C35.9875 31.2821 38.2495 31.5049 40.3052 32.3564C42.3609 33.2078 44.1179 34.6498 45.354 36.4998C46.5902 38.3499 47.25 40.525 47.25 42.75C47.2467 45.7327 46.0604 48.5923 43.9513 50.7013C41.8423 52.8104 38.9827 53.9967 36 54Z" fill="#450099"/>
<path d="M34.875 41.625H37.125V43.875H34.875V41.625ZM39.375 41.625H41.625V43.875H39.375V41.625ZM30.375 41.625H32.625V43.875H30.375V41.625Z" fill="#450099"/>
</svg>
