<svg width="211" height="86" viewBox="0 0 211 86" fill="none" xmlns="http://www.w3.org/2000/svg">
<path d="M203.183 36.5162C201.293 39.0774 198.333 42.1003 195.554 44.1331C195.516 44.1609 195.478 44.1888 195.44 44.2166C194.331 45.0296 193.13 45.8398 191.655 46.7596C191.465 46.8779 191.269 46.9989 191.067 47.1225C189.325 48.185 187.096 49.4761 184.003 51.0697C173.549 56.4133 164.765 59.8301 162.093 60.9453C156.657 63.1372 150.71 65.1532 142.461 67.452C141.705 67.662 140.942 67.8695 140.146 68.0828C139.503 68.2554 138.933 68.2687 138.877 68.1148C138.821 67.9607 139.299 67.6983 139.942 67.5262C140.719 67.3181 141.467 67.1141 142.2 66.9108C142.204 66.9098 142.207 66.9089 142.211 66.908C150.492 64.6021 156.299 62.6294 161.593 60.5045C164.308 59.3743 173.307 55.8954 183.949 50.4293C187.069 48.8121 189.272 47.5262 191.029 46.4448C191.224 46.3246 191.412 46.2075 191.593 46.0935C191.597 46.0908 191.602 46.0881 191.606 46.0855C193.063 45.1694 194.214 44.3841 195.253 43.6172C195.275 43.6008 195.297 43.5843 195.319 43.5679C198.099 41.524 200.934 38.5736 202.72 36.1488C203.069 35.6842 203.424 35.3923 203.558 35.4869C203.69 35.582 203.541 36.0389 203.183 36.5162ZM20.3322 39.7484C22.9815 37.5621 26.9855 35.1076 30.5968 33.2674C34.2533 31.3873 37.7418 29.9458 39.3637 29.3209C40.9576 28.7056 42.7226 27.9614 44.8322 27.1027C45.3156 26.9059 45.8385 26.6946 46.3472 26.492C48.0425 25.8164 49.997 25.0669 52.1181 24.3283C59.9719 21.608 65.1961 20.0868 68.9021 18.9872C69.6645 18.7635 70.3783 18.5563 71.0497 18.3641C71.0508 18.3638 71.0519 18.3635 71.0531 18.3632C73.5808 17.6406 75.4627 17.1362 77.2258 16.7553C80.3435 16.0858 82.915 15.5833 86.0476 15.098C90.3317 14.4288 96.3899 13.2105 100.343 12.3392C100.56 12.2907 100.783 12.2409 101.009 12.1911C103.898 11.5571 107.441 10.7982 112.753 9.96748C117.2 9.27696 121.056 8.87834 124.531 8.59608C125.522 8.51582 126.463 8.44737 127.362 8.38566C129.669 8.22723 131.681 8.11629 133.633 7.99186C145.603 7.25244 152.512 7.63371 156.822 7.96019C160.134 8.22913 161.988 8.53279 163.293 8.74757C163.686 8.81316 164.039 8.87327 164.376 8.92625C167.364 9.40042 170.013 9.78372 173.277 10.3719C173.997 10.5027 174.715 10.64 175.496 10.7971C178.107 11.3237 180.014 11.6965 181.501 11.9795C182.138 12.1009 182.743 12.2173 183.285 12.3251C183.295 12.327 183.305 12.3289 183.315 12.3309C183.391 12.346 183.467 12.3614 183.541 12.3764C183.598 12.3878 183.654 12.3986 183.71 12.41C183.733 12.4125 183.753 12.4155 183.768 12.4174C183.779 12.419 183.789 12.4203 183.795 12.4211C183.796 12.4211 183.797 12.4211 183.798 12.4212C183.906 12.436 183.997 12.4541 184.016 12.4578C184.048 12.4642 184.077 12.4706 184.092 12.4737C184.17 12.4903 184.269 12.5137 184.335 12.5295C184.506 12.5704 184.794 12.6408 185.249 12.7578C185.657 12.857 186.047 12.9475 186.528 13.0636C186.558 13.0708 186.588 13.0781 186.618 13.0854C187.088 13.1996 187.619 13.3318 188.295 13.5186C188.927 13.6934 189.448 13.9873 189.478 14.1678C189.507 14.3484 189.043 14.3472 188.422 14.1725C187.768 13.9881 187.294 13.8689 186.828 13.7533C186.799 13.7462 186.77 13.739 186.741 13.7319C186.259 13.6134 185.796 13.5035 185.292 13.3796C185.123 13.3379 184.952 13.2956 184.796 13.2572C184.513 13.1912 184.189 13.121 183.795 13.0399C183.716 13.0236 183.634 13.0065 183.551 12.9895C183.017 12.8812 182.366 12.7535 181.663 12.6171C180.025 12.3008 177.927 11.8879 175.091 11.3231C174.369 11.1789 173.659 11.045 172.957 10.9186C169.703 10.3368 166.857 9.92791 163.685 9.43751C163.261 9.37152 162.852 9.30371 162.413 9.23301C161.106 9.02572 159.543 8.77442 156.476 8.53009C152.389 8.22791 145.657 7.84717 133.784 8.57476C131.739 8.70404 129.594 8.82318 127.257 8.98503C126.377 9.04587 125.471 9.11334 124.542 9.18869C121.129 9.46637 117.398 9.85255 113.119 10.5131C107.934 11.3192 104.498 12.049 101.622 12.6751C101.523 12.6969 101.424 12.7188 101.325 12.7408C101.202 12.7678 101.08 12.7947 100.959 12.8214C96.7375 13.7443 90.3269 15.0345 85.5916 15.7839C82.6109 16.251 80.1463 16.7345 77.0588 17.4007C75.5197 17.7356 73.915 18.1639 71.4479 18.8659C70.7514 19.0645 69.9892 19.2843 69.1498 19.5303C65.387 20.6453 60.0931 22.187 52.1762 24.9352C50.1312 25.649 48.2632 26.3651 46.583 27.0343C46.0661 27.2401 45.5261 27.4581 45.0193 27.6644C42.9091 28.5234 40.9396 29.3564 39.1165 30.0664C37.5907 30.6621 34.2632 32.0424 30.7149 33.873C27.1693 35.6882 23.5306 37.943 21.1721 39.8537C20.9299 40.0489 20.6904 40.2442 20.4514 40.4417C18.3176 42.1937 16.351 44.0493 14.9805 45.7509C12.1615 49.662 7.99775 55.0815 8.97162 60.0833C9.77093 64.932 15.9617 69.0371 21.1802 71.218C21.3214 71.2783 21.4605 71.3369 21.5945 71.3928C33.9416 76.2898 44.4175 76.8037 47.7619 77.2417C47.9197 77.2573 48.0637 77.2713 48.1934 77.2838C48.3091 77.2949 48.4141 77.3046 48.5066 77.3134C49.8966 77.4448 51.1513 77.5274 52.4351 77.5985C52.5057 77.6024 52.5764 77.6063 52.6471 77.6101C54.0192 77.6844 55.4664 77.7503 57.1638 77.8318C63.5083 78.1306 68.6891 78.0679 73.1973 77.9248C74.0222 77.8978 74.829 77.8676 75.6197 77.8339C75.622 77.8338 75.6243 77.8337 75.6266 77.8336C79.1057 77.6843 82.1541 77.4862 85.0639 77.2768C90.3816 76.8885 93.9341 76.4671 96.7292 76.1123C97.5981 76.0009 98.389 75.8942 99.1424 75.7899C100.77 75.5643 102.2 75.3539 103.66 75.1453C106.422 74.75 108.961 74.3234 111.48 73.8714C111.704 73.8311 111.929 73.7908 112.154 73.75C114.896 73.2514 117.558 72.734 120.384 72.185C121.037 72.058 121.601 72.0813 121.646 72.2388C121.69 72.3962 121.197 72.6291 120.543 72.7564C117.793 73.291 115.192 73.798 112.451 74.2984C112.225 74.3396 111.998 74.3811 111.771 74.422C109.254 74.8754 106.666 75.3112 103.845 75.7158C102.433 75.918 101.082 76.1178 99.4809 76.3412C98.7174 76.4476 97.8972 76.5591 96.9862 76.6766C94.1419 77.0394 90.5346 77.4692 85.1553 77.863C82.2742 78.0708 79.2554 78.268 75.7739 78.4191C74.976 78.4536 74.1592 78.4851 73.3219 78.5129C68.7938 78.6586 63.5706 78.7242 57.1726 78.4241C55.5621 78.3469 54.1909 78.2861 52.8163 78.2133C52.7394 78.2091 52.6627 78.2049 52.586 78.2007C51.3055 78.131 49.9834 78.0465 48.507 77.9073C48.3102 77.8887 48.0594 77.8645 47.7591 77.8349C44.3949 77.3927 33.8551 76.8952 21.3382 71.926C21.3008 71.9103 21.2635 71.8946 21.2264 71.8789C12.943 68.4217 9.8791 64.4667 8.77141 62.2077C7.69275 60.1114 7.83217 57.805 8.09734 56.6178C8.15042 56.3593 8.21478 56.0964 8.28405 55.8497C8.597 54.7496 8.98261 53.8788 9.41377 52.9799C10.7375 50.3116 12.1041 48.4218 13.8338 46.1328C15.3003 44.2043 17.5312 42.0803 19.5926 40.36C19.5958 40.3574 19.5989 40.3548 19.602 40.3521C19.8493 40.145 20.1029 39.9367 20.3322 39.7484ZM196.954 16.5158C197.513 16.8056 197.871 17.1596 197.788 17.2995C197.704 17.4393 197.216 17.3166 196.666 17.0317C195.338 16.3433 193.959 15.7275 192.589 15.1799C192.006 14.947 191.564 14.6416 191.626 14.4905C191.687 14.3396 192.236 14.4025 192.825 14.6383C194.212 15.1931 195.607 15.8167 196.954 16.5158ZM16.3158 39.083C16.8161 38.6501 17.4169 38.3289 17.6354 38.3654C17.8534 38.4025 17.6039 38.78 17.1 39.2081C16.8305 39.4373 16.4149 39.7974 15.8182 40.3349C13.8244 42.2238 9.48845 45.8921 6.59471 51.9609C3.20714 58.06 6.34821 66.8927 13.6633 70.8328C14.8109 71.5423 15.9243 72.1297 16.9869 72.6401C21.5991 74.7525 25.5306 75.8968 35.106 77.8693C75.7121 84.8386 118.379 79.1709 157.419 65.8554C168.656 61.8343 179.668 57.1946 189.773 50.9716C193.957 48.381 199.775 44.3948 203.858 39.7178C208.069 35.1588 209.331 29.7017 209.044 27.7634C209.01 27.1462 209.054 26.6315 209.217 26.609C209.377 26.5867 209.599 27.095 209.634 27.7494C209.935 29.7856 208.591 35.4629 204.331 40.0733C200.195 44.8201 194.367 48.815 190.174 51.4181C180.039 57.6752 169.011 62.3272 157.777 66.3572C118.614 79.737 75.9012 86.1971 34.8005 79.1413C25.1887 77.1527 21.5788 75.3698 16.9242 73.267C15.8322 72.7486 14.7043 72.1629 13.5097 71.4341C6.19765 67.5792 2.51813 58.4785 5.8416 52.1779C8.6425 45.929 12.9606 42.2329 14.9695 40.2858C15.57 39.7328 16.0415 39.3207 16.3158 39.083ZM44.1702 23.9833C51.182 21.0014 61.3871 17.5602 70.5034 15.1209C74.9196 13.925 79.1003 12.9211 82.416 12.1653C87.5889 10.9907 90.8832 10.4788 94.1463 9.99291C94.1814 9.98767 94.2165 9.98245 94.2516 9.97722C97.5346 9.4978 100.804 9.04012 106.104 8.25254C111.468 7.45641 118.859 6.4095 126.394 5.69641C126.399 5.69593 126.405 5.69545 126.411 5.69497C133.892 4.97185 141.523 4.30376 147.029 4.32032C166.323 4.35853 177.995 7.03646 183.753 8.70861C188.759 10.1821 194.135 11.8148 199.035 14.4367C203.873 16.9971 208.582 21.1134 209.19 26.2766C209.204 27.3926 208.61 25.6284 207.883 23.8076C207.856 23.7408 207.828 23.6741 207.799 23.6074C207.534 22.9909 207.246 22.4346 206.778 21.7317C206.073 20.7137 205.429 20.0313 204.807 19.4214C203.715 17.1738 188.945 10.3025 183.145 9.1599C177.703 7.61573 166.268 5.66571 146.977 5.62742C141.612 5.61327 134.13 5.54978 126.617 6.27051C126.597 6.27242 126.577 6.27434 126.556 6.27626C119.09 6.97949 111.648 8.02715 106.202 8.83557C100.719 9.65008 97.2974 10.1333 93.9836 10.6209C93.9515 10.6256 93.9194 10.6303 93.8873 10.635C90.6662 11.118 87.527 11.6104 82.5565 12.7389C79.1732 13.5099 74.9567 14.5254 70.5193 15.7295C61.4644 18.1587 51.4284 21.5453 44.4969 24.4872C43.8657 24.7521 43.2865 24.8565 43.1954 24.7179C43.1049 24.5792 43.5377 24.2494 44.1702 23.9833ZM42.9115 20.521C62.7786 11.6603 84.2573 6.60674 105.241 4.08278C110.719 3.26444 118.426 2.31812 126.139 1.73728C126.225 1.73088 126.312 1.72452 126.399 1.7182C134.029 1.13445 141.669 0.921207 147.134 0.93946C166.691 0.982466 178.77 3.42526 184.755 5.1643C190.3 6.8246 191.804 7.44035 194.094 8.25742C194.157 8.28077 194.219 8.30418 194.281 8.32766C194.285 8.32873 194.289 8.32982 194.294 8.3309C194.375 8.35304 194.442 8.37366 194.476 8.38461C194.546 8.40693 194.602 8.42679 194.623 8.43422C194.672 8.45139 194.713 8.46674 194.727 8.47213C194.786 8.49418 194.853 8.52004 194.896 8.53696C195.293 8.69119 196.546 9.20894 197.529 9.67564C198.52 10.1442 199.23 10.5248 199.966 10.9413C200.04 10.9834 200.114 11.0257 200.187 11.068C200.834 11.4425 201.559 11.8717 202.566 12.5305C203.174 12.93 203.519 13.3428 203.357 13.4287C203.181 13.5058 202.595 13.2542 201.987 12.8632C200.925 12.1818 200.19 11.7558 199.533 11.3841C199.46 11.3429 199.387 11.3019 199.313 11.261C198.603 10.8684 198.005 10.5539 197.127 10.1415C195.828 9.55186 194.885 9.18588 193.99 8.8502C191.639 8.00655 189.908 7.3091 184.132 5.61034C178.478 4.006 166.78 1.58166 147.143 1.52993C141.681 1.51141 134.049 1.72499 126.441 2.30719C126.352 2.31392 126.264 2.32071 126.175 2.32753C118.472 2.90798 110.798 3.85007 105.339 4.66503C84.1336 7.85638 63.5603 13.1892 43.2416 21.0236C39.5217 22.5826 36.185 24.1027 33.12 25.6143C24.1174 30.084 17.4165 34.3367 11.9234 39.6045C10.744 40.8483 7.24279 43.5373 3.85738 49.4852C2.8979 51.2766 2.02113 53.2469 1.56589 55.9615C0.224673 62.4453 4.64497 69.9843 10.9463 73.777C12.2472 74.6223 13.4749 75.2951 14.6105 75.864C19.5845 78.2438 23.6536 79.8391 33.5658 81.9496C45.8294 84.6671 66.5235 85.4375 77.5878 84.9388C83.0848 84.7542 86.2359 84.5434 88.4285 84.4117C89.0389 84.3736 89.5775 84.3392 90.0726 84.3061C91.3643 84.2194 92.387 84.144 93.688 84.0277C103.146 83.1456 109.758 82.164 120.403 80.0404C121.073 79.9045 121.68 79.9142 121.761 80.0644C121.841 80.2147 121.364 80.4498 120.693 80.5865C110.017 82.7226 103.293 83.7274 93.6866 84.6213C92.3266 84.7426 91.2271 84.8227 89.9116 84.9101C89.4229 84.9424 88.902 84.9756 88.3222 85.0114C86.1568 85.1404 83.0373 85.3481 77.555 85.5312C66.4875 86.0279 45.771 85.2549 33.4792 82.5353C23.6055 80.4347 19.5857 78.8736 14.5545 76.4982C13.3935 75.9242 12.1337 75.2424 10.8115 74.3958C4.37062 70.5862 -0.352569 62.8211 0.943486 56.1065C1.3829 53.261 2.26456 51.2413 3.23586 49.3887C6.72954 43.1751 10.1175 40.6555 11.095 39.5669C16.8255 33.9669 23.8498 29.5477 32.9747 25.0264C36.0232 23.5261 39.3022 22.0361 42.9115 20.521ZM158.445 70.3051C157.786 70.5376 157.202 70.5998 157.102 70.4614C157.006 70.3214 157.439 70.0314 158.087 69.8029C161.515 68.5932 163.931 67.6575 165.805 66.9148C169.308 65.5174 170.977 64.7949 173.475 63.7322C179.942 60.9655 186.039 57.8927 191.303 54.6712C200.119 49.3603 206.387 43.273 209.002 39.2972C209.407 38.7087 209.859 38.224 209.991 38.3213C210.13 38.4052 209.889 39.0515 209.475 39.6508C206.819 43.6784 200.53 49.7879 191.701 55.1195C186.405 58.3683 180.266 61.4684 173.738 64.2626C171.307 65.2971 169.735 65.9799 166.292 67.3588C164.42 68.1033 161.967 69.0592 158.445 70.3051Z" fill="#F06A26"/>
</svg>
