<svg width="46" height="27" viewBox="0 0 46 27" fill="none" xmlns="http://www.w3.org/2000/svg">
<path d="M26.4833 0.606934H27.8291V1.21425C27.8291 3.37868 27.8291 5.5431 27.8291 7.70753C27.8291 8.6828 28.0939 8.93998 29.0781 8.93998H38.9606C38.3329 7.86541 38.3801 6.77556 38.4921 5.70735C38.6729 3.99236 40.081 2.84139 41.838 2.89741C42.619 2.93551 43.3587 3.25975 43.9159 3.80829C44.4732 4.35683 44.809 5.09129 44.8593 5.87159C44.9268 7.12314 44.9727 8.38615 43.9681 9.38433C43.6756 9.69233 43.3233 9.93728 42.9327 10.1041C42.5421 10.271 42.1215 10.3562 41.6967 10.3545C37.3679 10.3545 33.039 10.3545 28.7102 10.3545C27.437 10.3545 26.4413 9.41998 26.4299 8.19007C26.4044 5.73026 26.4235 3.26918 26.4299 0.805552C26.4398 0.737466 26.4577 0.670795 26.4833 0.606934ZM43.4894 6.6355C43.4894 6.42288 43.5047 6.21026 43.4894 5.99891C43.4581 5.55092 43.2648 5.12962 42.9458 4.8136C42.6267 4.49757 42.2036 4.3084 41.7553 4.28137C40.8462 4.23935 40.0378 4.83521 39.9092 5.76973C39.8158 6.39528 39.8305 7.03219 39.9524 7.65279C40.1727 8.68535 41.3148 9.22391 42.3002 8.85977C43.1202 8.55293 43.4894 7.86414 43.4894 6.6355Z" fill="white"/>
<path d="M19.5535 8.93998C20.5899 8.93998 21.5435 8.94761 22.4972 8.93998C23.2127 8.93234 23.4928 8.64969 23.4966 7.93288C23.4966 6.40505 23.4966 4.88485 23.4966 3.32137H24.9213V4.35648C24.9213 5.58638 24.9353 6.81629 24.9213 8.04874C24.901 9.4327 23.969 10.3405 22.5901 10.357C21.6148 10.3647 20.6396 10.357 19.686 10.357C19.6325 10.4016 19.5841 10.422 19.5726 10.4551C18.8278 12.5087 18.0002 13.0842 15.7862 13.0842H14.238V11.741C15.3367 11.4724 16.5641 12.0835 17.5483 11.2317C17.7723 11.0382 17.9188 10.753 18.218 10.3532C17.477 10.3532 16.9371 10.3532 16.3973 10.3532C14.5384 10.3379 13.1876 8.99982 13.1659 7.15369C13.1608 6.7938 13.1608 6.43348 13.1659 6.07274C13.1876 4.26736 14.569 2.89867 16.3566 2.89867C16.7764 2.89427 17.193 2.97349 17.5819 3.13172C17.9709 3.28995 18.3244 3.52401 18.622 3.82027C18.9196 4.11654 19.1552 4.46907 19.3151 4.85731C19.475 5.24556 19.5561 5.66176 19.5535 6.08166C19.5612 7.00345 19.5535 7.93415 19.5535 8.93998ZM18.1619 8.93998C18.1619 7.89214 18.2052 6.91942 18.1518 5.95306C18.1347 5.67244 18.0514 5.39983 17.9088 5.15752C17.7662 4.91521 17.5683 4.71007 17.3313 4.55884C17.0943 4.40762 16.8249 4.31461 16.5451 4.2874C16.2652 4.2602 15.9829 4.29958 15.7212 4.40231C14.9459 4.70024 14.5499 5.3292 14.5193 6.29937C14.4875 7.29883 14.5193 8.27282 15.5875 8.79483C15.737 8.87419 15.9013 8.92146 16.0701 8.93361C16.7436 8.94889 17.4171 8.93998 18.1632 8.93998H18.1619Z" fill="white"/>
<path d="M7.85407 21.6375C7.82097 20.2892 8.6409 19.3751 10.007 19.2121C10.4498 19.1633 10.8964 19.159 11.3401 19.1994C12.7406 19.3127 13.3772 20.0193 13.3848 21.4275C13.3848 23.0826 13.3848 24.7301 13.3848 26.4171H12.1396L12.0416 25.7181C11.1886 26.3636 10.2782 26.6208 9.26731 26.4693C8.34934 26.3254 7.68473 25.7283 7.57651 24.9122C7.425 23.7663 7.81587 22.9362 8.80515 22.6077C9.53978 22.3633 10.333 22.2805 11.0969 22.1468C11.6062 22.059 12.0836 21.9877 12.0582 21.3027C12.0365 20.7285 11.7093 20.4025 11.0307 20.3109C9.9281 20.1594 9.50285 20.4051 9.08907 21.4173C9.0562 21.4727 9.01157 21.5202 8.95834 21.5565C8.9051 21.5928 8.84455 21.617 8.78095 21.6273C8.49321 21.6566 8.19656 21.6375 7.85407 21.6375ZM12.0556 23.0673C11.2917 23.1946 10.5176 23.2889 9.76386 23.4493C9.23039 23.5613 8.8217 23.8516 8.87262 24.4908C8.91337 25.0115 9.3488 25.368 9.98158 25.4138C11.4203 25.517 12.2606 24.571 12.0518 23.0673H12.0556Z" fill="white"/>
<path d="M45.018 26.5292H43.8084L43.7231 25.7882C43.3628 26.0918 42.9449 26.3194 42.4944 26.4572C42.0438 26.5951 41.5701 26.6403 41.1016 26.5903C40.05 26.4986 39.3586 25.8786 39.2058 24.8689C39.0569 23.8937 39.5509 22.9872 40.5287 22.6752C41.2264 22.4524 41.9763 22.3888 42.7033 22.2602C43.1871 22.1736 43.7104 22.1405 43.7409 21.4695C43.7664 20.8889 43.4086 20.5223 42.7109 20.3949C41.6198 20.1963 41.0265 20.5706 40.6802 21.7076H39.5279C39.4656 20.6458 40.0118 19.7112 41.0341 19.4884C41.8549 19.3142 42.7005 19.2909 43.5296 19.4197C44.5978 19.589 45.0052 20.1989 45.0154 21.3053C45.032 23.0368 45.018 24.7684 45.018 26.5292ZM43.7104 23.1603C42.879 23.3004 42.0858 23.4035 41.3066 23.5766C40.8151 23.6861 40.493 24.0057 40.5427 24.5761C40.5923 25.1465 40.9246 25.3859 41.4339 25.4737C42.9299 25.7322 43.909 24.748 43.7117 23.1603H43.7104Z" fill="white"/>
<path d="M0.988021 26.4184L0.976562 16.9178H7.16938V18.1516H2.35543V20.8953H6.55697V22.0921H2.31596V26.421L0.988021 26.4184Z" fill="white"/>
<path d="M1.06952 6.69534C0.965115 5.61313 1.28723 4.5602 2.28287 3.78991C3.27851 3.01963 4.376 2.91141 5.51169 3.37867C6.66902 3.85485 7.29416 4.77918 7.42148 6.01036C7.48836 6.6211 7.47938 7.23777 7.39474 7.84631C7.13883 9.57149 5.67593 10.6728 3.89346 10.5378C2.32616 10.4105 1.09243 9.01637 1.06952 7.33703C1.06824 7.1677 1.06952 6.99836 1.06952 6.69534ZM6.07826 6.82266C6.07826 6.63168 6.08717 6.4407 6.07826 6.251C6.06291 5.79205 5.87856 5.35495 5.56062 5.02361C5.24268 4.69228 4.81355 4.49006 4.35563 4.45579C3.90788 4.43393 3.46773 4.57756 3.11906 4.85932C2.77038 5.14107 2.53756 5.54126 2.46494 5.98363C2.39072 6.44191 2.37361 6.90764 2.41401 7.37013C2.5095 8.48545 3.30525 9.22263 4.30725 9.1908C5.34617 9.15897 6.0668 8.35049 6.08208 7.19953C6.07953 7.07348 6.07826 6.94616 6.07826 6.82011V6.82266Z" fill="white"/>
<path d="M25.92 22.9795C25.9085 25.671 23.9631 27.1951 21.4638 26.4528C20.0531 26.0339 19.4267 24.9631 19.2179 23.5894C18.8856 21.4033 20.0417 19.575 21.9107 19.3165C24.3591 18.9766 25.934 20.4128 25.92 22.9795ZM20.402 22.8738L20.4949 22.9133C20.5242 23.2074 20.5318 23.5053 20.5879 23.7944C20.7827 24.7976 21.4906 25.433 22.4518 25.489C23.4334 25.5463 24.1821 25.0128 24.4546 23.9942C24.6837 23.1387 24.6926 22.2729 24.2929 21.4542C23.6372 20.1097 21.7465 19.9595 20.9673 21.2263C20.6719 21.7089 20.5853 22.3213 20.4032 22.8738H20.402Z" fill="white"/>
<path d="M33.6725 22.9515C33.6661 25.0688 32.5444 26.4617 30.7441 26.5877C28.0539 26.7762 26.4407 24.7378 27.0442 21.9126C27.15 21.3762 27.3851 20.8739 27.7291 20.449C28.0731 20.0242 28.5156 19.6897 29.0182 19.4747C29.5208 19.2597 30.0683 19.1705 30.6131 19.2151C31.1579 19.2596 31.6837 19.4365 32.1446 19.7303C33.3262 20.4751 33.6623 21.6414 33.6725 22.9515ZM32.3802 23.1348C32.3318 22.6625 32.3254 22.3633 32.2681 22.0743C32.0733 21.071 31.3438 20.4089 30.4131 20.3644C29.4569 20.3198 28.6306 20.9411 28.376 21.9418C28.1545 22.8063 28.1761 23.6645 28.5912 24.4768C28.9566 25.1949 29.5792 25.4953 30.3609 25.4877C31.1426 25.4801 31.7258 25.1465 32.0161 24.4297C32.2121 23.97 32.2923 23.4646 32.3802 23.1348Z" fill="white"/>
<path d="M15.6294 20.5783L14.5586 20.5172V19.477L15.5912 19.4197C15.6548 18.9168 15.5912 18.3782 15.8152 18.0001C15.9718 17.7301 16.5002 17.6741 16.9471 17.4908V19.44H18.2801V20.521L16.9968 20.5796C16.9968 22.0565 16.9789 23.4913 17.0197 24.925C17.0197 25.093 17.3329 25.3197 17.5442 25.396C17.7556 25.4724 17.9975 25.3731 18.2687 25.3477V26.4528C17.9835 26.4744 17.6728 26.5215 17.3634 26.519C16.1017 26.5114 15.6828 26.1116 15.6625 24.8524C15.6421 23.6454 15.6625 22.4333 15.6625 21.2302C15.6561 21.0277 15.6395 20.8215 15.6294 20.5783Z" fill="white"/>
<path d="M7.64062 13.3236V12.0733C8.11298 11.8301 8.60316 11.6404 9.02331 11.3488C9.68665 10.8892 10.0177 10.2335 10.0049 9.39831C9.98712 7.38667 10.0049 5.37502 10.0049 3.32263H11.4055V4.93577C11.4055 6.52471 11.4195 8.11875 11.4055 9.70515C11.3876 11.3399 9.79105 13.1097 8.169 13.3185C7.99313 13.3306 7.8167 13.3323 7.64062 13.3236Z" fill="white"/>
<path d="M35.1543 19.4706H36.3142C36.3295 19.7583 36.3447 20.0257 36.3689 20.4586C37.0246 19.5915 37.8076 19.1854 38.844 19.2809V20.5821C38.7243 20.5821 38.6059 20.5821 38.4862 20.5821C37.3544 20.5999 36.5917 21.2416 36.4962 22.3837C36.4046 23.4786 36.416 24.5825 36.3855 25.6825C36.3778 25.9104 36.3855 26.1396 36.3855 26.4006H35.1556L35.1543 19.4706Z" fill="white"/>
<path d="M42.5989 1.06783C42.599 1.18326 42.5757 1.2975 42.5305 1.4037C42.4853 1.5099 42.4191 1.60585 42.3358 1.68579C42.2526 1.76572 42.154 1.82798 42.046 1.86882C41.9381 1.90966 41.823 1.92823 41.7077 1.92342C41.1806 1.90178 40.8992 1.58857 40.8521 1.08948C40.8062 0.613304 41.2239 0.209702 41.7153 0.198243C41.8308 0.195863 41.9456 0.216626 42.053 0.259308C42.1603 0.30199 42.2581 0.365728 42.3404 0.446767C42.4228 0.527806 42.4881 0.624506 42.5324 0.731169C42.5768 0.837833 42.5994 0.952303 42.5989 1.06783Z" fill="white"/>
<path d="M5.01106 2.28503C4.89491 2.28893 4.77921 2.26859 4.67135 2.22529C4.5635 2.182 4.46585 2.1167 4.38463 2.03356C4.30341 1.95043 4.24041 1.85128 4.19964 1.74244C4.15887 1.63361 4.14123 1.51747 4.14784 1.40143C4.15054 1.28533 4.17728 1.17105 4.22637 1.06581C4.27546 0.960558 4.34583 0.866628 4.43304 0.789943C4.52025 0.713258 4.62242 0.655482 4.73308 0.620263C4.84374 0.585044 4.9605 0.573145 5.076 0.585317C5.61074 0.614601 5.87047 0.941812 5.89975 1.43963C5.92904 1.93745 5.51652 2.29522 5.01106 2.28503Z" fill="white"/>
<path d="M24.9013 0.584023C25.0167 0.577638 25.1322 0.595585 25.2403 0.636702C25.3483 0.677819 25.4465 0.741188 25.5285 0.822698C25.6105 0.904209 25.6744 1.00204 25.7162 1.10985C25.758 1.21767 25.7766 1.33305 25.7709 1.44852C25.7709 1.96416 25.408 2.29902 24.8796 2.28501C24.3513 2.271 24.0762 1.95143 24.0342 1.45489C23.9922 0.958342 24.3996 0.586569 24.9013 0.584023Z" fill="white"/>
<path d="M23.6955 1.4676C23.6941 1.58434 23.668 1.69946 23.619 1.80545C23.5701 1.91144 23.4993 2.00591 23.4114 2.08269C23.3234 2.15947 23.2202 2.21683 23.1086 2.25103C22.997 2.28523 22.8794 2.2955 22.7635 2.28117C22.2326 2.23915 21.964 1.93868 21.9729 1.40521C21.9805 0.895931 22.3676 0.554715 22.8896 0.585272C23.0006 0.589843 23.1096 0.616346 23.2103 0.663251C23.311 0.710156 23.4014 0.776535 23.4763 0.858561C23.5512 0.940586 23.6092 1.03663 23.6468 1.14116C23.6844 1.24569 23.701 1.35664 23.6955 1.4676Z" fill="white"/>
<path d="M2.94626 0.585308C3.0627 0.579926 3.17897 0.59909 3.28753 0.641554C3.39608 0.684019 3.49449 0.748836 3.57638 0.831797C3.65826 0.914759 3.72178 1.01401 3.76282 1.12311C3.80385 1.23221 3.82149 1.34873 3.81458 1.46508C3.81475 1.57645 3.79219 1.68667 3.74829 1.78902C3.70439 1.89136 3.64007 1.98368 3.55927 2.06031C3.47846 2.13694 3.38287 2.19628 3.27835 2.2347C3.17382 2.27312 3.06256 2.28981 2.95136 2.28375C2.83494 2.29154 2.71822 2.27405 2.60921 2.23247C2.5002 2.19089 2.40148 2.1262 2.31983 2.04286C2.23818 1.95952 2.17553 1.85949 2.1362 1.74964C2.09686 1.6398 2.08177 1.52275 2.09195 1.40652C2.08983 1.29526 2.11074 1.18476 2.15336 1.08197C2.19598 0.979173 2.25939 0.886302 2.33962 0.809185C2.41984 0.732068 2.51515 0.672372 2.61954 0.633845C2.72394 0.595318 2.83518 0.578793 2.94626 0.585308Z" fill="white"/>
</svg>
