<svg width="26" height="17" viewBox="0 0 26 17" fill="none" xmlns="http://www.w3.org/2000/svg">
<path d="M10.0449 16.198C10.3558 15.4385 10.6661 14.6792 10.976 13.9201C12.6076 13.9155 14.2393 13.9301 15.8702 13.9033C17.838 13.8704 19.3157 12.9692 20.2169 11.228C20.7047 10.2816 21.0492 9.26098 21.4535 8.27173C22.0007 6.93026 22.5464 5.58777 23.0905 4.24426L25.435 4.25345V4.48315C25.3738 4.60566 25.3026 4.72434 25.252 4.85145C24.1627 7.56654 23.0752 10.2847 21.9895 13.0059C21.6743 13.8168 21.1663 14.5388 20.5094 15.1092C19.8915 15.6452 19.1527 15.9438 18.39 16.198H10.0449Z" fill="#55A65D"/>
<path d="M23.0903 4.2443C22.5441 5.5873 21.9984 6.92979 21.4532 8.27176C21.049 9.26102 20.7044 10.2817 20.2167 11.228C19.3185 12.9692 17.8377 13.8704 15.8699 13.9033C14.239 13.9301 12.6074 13.9156 10.9757 13.9202H8.56152C8.86243 13.1958 9.14574 12.5159 9.42827 11.8352L9.58141 11.81H12.6441H13.8692L15.2474 11.5963L16.4947 11.0052L17.6248 10.078C18.2198 9.5068 18.5437 8.784 18.7734 8.01067L19.8453 5.40736C19.9219 5.26188 20.0038 5.12023 20.0674 4.97016C20.5063 3.9319 20.9425 2.89288 21.3759 1.85309H23.993C23.6821 2.69304 23.3858 3.46867 23.0903 4.2443Z" fill="#0751A5"/>
<path d="M15.2513 11.5994L13.873 11.813C13.873 7.89632 13.873 3.97682 13.873 0.0545044H15.2513V11.5994Z" fill="#4A9888"/>
<path d="M13.8735 0.0545044C13.8735 3.97426 13.8735 7.89377 13.8735 11.813H12.6485C12.6485 9.45396 12.6531 7.09491 12.6416 4.73586C12.6416 4.52223 12.5359 4.30861 12.4792 4.09499C12.6577 3.62409 12.8361 3.1532 13.0267 2.64862L12.2656 2.58277V0.0560357L13.8735 0.0545044Z" fill="#4F9D83"/>
<path d="M15.252 11.5994V0.0552368H16.4005C16.4005 3.55132 16.4005 7.04791 16.4005 10.545C16.4005 10.6982 16.4625 10.8513 16.4954 11.009L15.252 11.5994Z" fill="#49968E"/>
<path d="M16.4992 11.0083C16.4662 10.8552 16.405 10.702 16.4042 10.5443C16.3991 7.0482 16.3991 3.55161 16.4042 0.0545044H17.6293V10.0803L16.4992 11.0083Z" fill="#479494"/>
<path d="M17.6288 10.081L17.625 0.0552368H18.6969C18.6969 2.53603 18.6969 5.01657 18.6969 7.49686C18.7087 7.67141 18.7343 7.84474 18.7735 8.01522C18.5438 8.78702 18.2238 9.50982 17.6288 10.081Z" fill="#45919A"/>
<path d="M12.4786 4.09271C12.5353 4.30634 12.6402 4.51996 12.641 4.73358C12.6524 7.09264 12.6479 9.45169 12.6479 11.8107H11.5001C11.5001 10.4769 11.5055 9.14236 11.4901 7.80778C11.4901 7.66919 11.3562 7.53137 11.2842 7.39355L11.2888 7.30779C11.3592 7.15466 11.4863 7.00841 11.4901 6.85604C11.5101 6.04136 11.4993 5.22591 11.4993 4.41047C11.652 4.39517 11.8055 4.39107 11.9587 4.39822C12.2152 4.42731 12.3967 4.35304 12.4786 4.09271Z" fill="#52A07F"/>
<path d="M18.7806 8.01522C18.7413 7.84474 18.7157 7.6714 18.704 7.49686C18.6989 5.01606 18.6989 2.53552 18.704 0.0552368H19.776C19.776 1.68154 19.776 3.30784 19.776 4.93413C19.7893 5.09587 19.8162 5.25621 19.8564 5.41345L18.7806 8.01522Z" fill="#438EA0"/>
<path d="M19.8536 5.41345C19.8135 5.25621 19.7866 5.09587 19.7732 4.93413C19.7671 3.30784 19.7732 1.68154 19.7732 0.0552368H22.1055C21.8589 0.673904 21.6239 1.26654 21.388 1.85917C20.9496 2.89794 20.5121 3.93697 20.0757 4.97625C20.0121 5.12632 19.9279 5.26797 19.8536 5.41345Z" fill="#428CA6"/>
<path d="M11.284 7.39276C11.356 7.53058 11.4884 7.66841 11.49 7.80699C11.5053 9.14157 11.4992 10.4761 11.4999 11.81H9.58496L9.58955 9.21507C9.66343 9.20044 9.73808 9.18995 9.81313 9.18368C10.5788 9.16148 10.5788 9.16148 10.8606 8.44097C10.9969 8.09106 11.1423 7.74268 11.284 7.39276Z" fill="#4F9F79"/>
<path d="M12.2654 0.0544999V2.58124H10.0449C10.0449 2.19304 10.0564 1.80407 10.035 1.41664C10.0281 1.28648 9.93467 1.1609 9.88184 1.0338C9.89026 0.997049 9.89792 0.957234 9.9071 0.922778C10.0947 0.211464 10.5196 -0.107824 11.2777 0.0322953C11.5985 0.0920181 11.9361 0.0506716 12.2654 0.0544999Z" fill="#4F9F79"/>
<path d="M11.4999 4.41046C11.4999 5.22591 11.5106 6.04135 11.4907 6.85604C11.4907 7.00917 11.3598 7.15771 11.2894 7.30779L9.81543 7.25342V4.41046H11.4999Z" fill="#4F9F79"/>
<path d="M9.58511 9.21586V11.8107L9.43198 11.8352L7.75131 11.8046C7.75131 11.3031 7.75897 10.8016 7.74519 10.3001C7.74519 10.1982 7.6602 10.0979 7.61426 9.99379C7.76739 9.34297 8.15023 9.04895 8.83934 9.17452C9.07976 9.22199 9.33627 9.20514 9.58511 9.21586Z" fill="#54A472"/>
<path d="M7.67152 7.25341H4.4082C4.63102 6.74117 4.82856 6.26721 5.04754 5.80398C5.07587 5.74502 5.21752 5.71286 5.30634 5.7121C6.09499 5.7121 6.88287 5.71669 7.67152 5.72052C7.67152 6.23199 7.67152 6.74295 7.67152 7.25341Z" fill="#53A66A"/>
<path d="M7.67188 7.25338C7.67188 6.74293 7.67188 6.23248 7.67188 5.72203C7.6967 5.71467 7.72258 5.71156 7.74844 5.71284C8.5838 5.89507 9.06311 5.52448 9.29358 4.73966C9.37015 4.49158 9.51333 4.31165 9.81807 4.41195V7.25491L7.67188 7.25338Z" fill="#52A371"/>
<path d="M7.61139 9.99603C7.65733 10.0971 7.73926 10.1974 7.74232 10.3023C7.7561 10.8038 7.74845 11.3053 7.74845 11.8069H4.68574C4.68574 11.7586 4.67961 11.7096 4.67578 11.6606C4.81131 11.2923 4.93228 10.9171 5.09231 10.5596C5.13366 10.4685 5.29598 10.3819 5.40547 10.3781C5.92654 10.3509 6.44868 10.3509 6.96975 10.3781C7.30129 10.3995 7.49883 10.2954 7.61139 9.99603Z" fill="#53A66A"/>
<path d="M1.09375 14.8198C1.32345 14.1407 1.32345 14.1407 1.936 14.1407H6.25595C6.08826 14.7984 6.06146 14.8198 5.45199 14.8198H1.09375Z" fill="#5CA05F"/>
<path d="M9.88335 1.03766C9.93695 1.16553 10.0304 1.2911 10.0365 1.4205C10.0579 1.80793 10.0457 2.19689 10.0464 2.58509H7.33594C7.53119 2.1655 7.69504 1.78266 7.89105 1.41667C7.93393 1.3401 8.08936 1.28038 8.19732 1.27578C8.60467 1.26047 9.01507 1.2911 9.42241 1.25894C9.57784 1.24439 9.72868 1.11423 9.88335 1.03766Z" fill="#52A371"/>
<path d="M4.13634 10.8643C4.02149 11.5182 4.02149 11.5182 3.42656 11.5182H0.564453C0.688493 10.8475 0.688493 10.8475 1.27807 10.8475C2.10755 10.8475 2.93703 10.8475 3.76652 10.8475C3.88826 10.8482 4.01077 10.8582 4.13634 10.8643Z" fill="#61A363"/>
<path d="M4.17773 2.62333C4.45721 1.96332 4.45721 1.96332 5.07587 1.96332H7.02452C6.97858 2.47632 6.82545 2.62257 6.35379 2.62333H4.17773Z" fill="#6DAB86"/>
<path d="M1.91699 6.5505C2.06247 5.80396 2.07013 5.79401 2.7332 5.79401H4.3641C4.25384 6.51298 4.21096 6.5505 3.58004 6.5505H1.91699Z" fill="#5AAA65"/>
<path d="M5.92285 4.55976C6.1472 3.89362 6.1472 3.89362 6.7651 3.89362H8.40441C8.25128 4.55976 8.25128 4.55976 7.63874 4.55976H5.92285Z" fill="#5CAD7D"/>
<path d="M5.97511 8.6806C5.84877 9.3567 5.84877 9.3567 5.2347 9.3567C4.89168 9.3567 4.5484 9.35491 4.20487 9.35134C4.18064 9.34603 4.15757 9.33643 4.13672 9.32301C4.21329 8.68596 4.21865 8.6806 4.83731 8.6806H5.97511Z" fill="#61A363"/>
<path d="M4.67578 11.6583C4.67961 11.7073 4.68267 11.7563 4.68574 11.8046C4.68497 11.7571 4.67961 11.7073 4.67578 11.6583Z" fill="#54A472"/>
</svg>
