<svg width="41" height="40" viewBox="0 0 41 40" fill="none" xmlns="http://www.w3.org/2000/svg">
<path d="M5.25002 31.0833C4.56669 31.0833 4.00002 30.5166 4.00002 29.8333V20.3333C3.91669 15.8166 5.60002 11.55 8.73336 8.34996C11.8667 5.16663 16.0667 3.41663 20.5834 3.41663C29.8167 3.41663 37.3334 10.9333 37.3334 20.1666V29.6666C37.3334 30.35 36.7667 30.9166 36.0834 30.9166C35.4 30.9166 34.8334 30.35 34.8334 29.6666V20.1666C34.8334 12.3166 28.45 5.91663 20.5834 5.91663C16.7334 5.91663 13.1667 7.39996 10.5167 10.1C7.85002 12.8166 6.43336 16.4333 6.50002 20.3V29.8166C6.50002 30.5166 5.95002 31.0833 5.25002 31.0833Z" fill="url(#paint0_linear_772_479)"/>
<path d="M10.5667 20.75H10.35C6.85 20.75 4 23.6 4 27.1V30.2333C4 33.7333 6.85 36.5833 10.35 36.5833H10.5667C14.0667 36.5833 16.9167 33.7333 16.9167 30.2333V27.1C16.9167 23.6 14.0667 20.75 10.5667 20.75Z" fill="url(#paint1_linear_772_479)"/>
<path d="M30.9837 20.75H30.767C27.267 20.75 24.417 23.6 24.417 27.1V30.2333C24.417 33.7333 27.267 36.5833 30.767 36.5833H30.9837C34.4837 36.5833 37.3337 33.7333 37.3337 30.2333V27.1C37.3337 23.6 34.4837 20.75 30.9837 20.75Z" fill="url(#paint2_linear_772_479)"/>
<defs>
<linearGradient id="paint0_linear_772_479" x1="20.6652" y1="3.41663" x2="20.6652" y2="31.0833" gradientUnits="userSpaceOnUse">
<stop stop-color="#450099"/>
<stop offset="1" stop-color="#BEBEFF"/>
</linearGradient>
<linearGradient id="paint1_linear_772_479" x1="10.4583" y1="20.75" x2="10.4583" y2="36.5833" gradientUnits="userSpaceOnUse">
<stop stop-color="#450099"/>
<stop offset="1" stop-color="#BEBEFF"/>
</linearGradient>
<linearGradient id="paint2_linear_772_479" x1="30.8753" y1="20.75" x2="30.8753" y2="36.5833" gradientUnits="userSpaceOnUse">
<stop stop-color="#450099"/>
<stop offset="1" stop-color="#BEBEFF"/>
</linearGradient>
</defs>
</svg>
