<svg width="109" height="23" viewBox="0 0 109 23" fill="none" xmlns="http://www.w3.org/2000/svg">
<g clip-path="url(#clip0_261_406)">
<path d="M8.21872 19.574C12.9896 19.574 15.2971 16.9791 15.812 14.7143L15.8592 14.5562H11.6808L11.6496 14.6422C11.3627 15.222 10.8885 15.7064 10.2915 16.0296C9.69455 16.3527 9.00376 16.4989 8.31316 16.4483C5.98964 16.4483 4.54012 15.0149 4.4929 12.5634H16V11.2733C16 6.62914 12.9281 3.57395 8.03252 3.57395C3.13692 3.57395 0 6.70122 0 11.5912V11.6059C0 16.5204 3.10485 19.574 8.21872 19.574ZM8.10736 6.70122C9.99432 6.70122 11.3503 7.80534 11.6309 9.92677H4.53656C4.83501 7.84794 6.23643 6.70122 8.10736 6.70122Z" fill="white"/>
<path d="M34.0217 22.1479V21.5459L29.0714 16.7677L23.6635 21.9886V22.1479H18.0859V16.7644H18.3701L23.7197 11.6024L18.3111 6.38346H18.0859V1H23.6641V1.21743L39.9464 16.927L39.6019 17.2575V22.1479H34.0217ZM32.4281 8.30594V1H40V8.30594H32.4281Z" fill="white"/>
<path d="M37.4813 20.1653V17.4244L22.5163 2.98262H20.0344V5.339L26.5248 11.6025L20.0344 17.8657V20.1653H22.5751L28.9867 13.9779L35.3977 20.1653H37.4813ZM37.8797 6.323V2.98262H34.3781V6.323H37.8797ZM39.5156 22.1479H33.9373L28.9866 16.7681L23.5783 22.1479H18V16.7646L23.6335 11.6025L18 6.38327V1H23.5783L39.5156 17.2626V22.1479ZM39.914 8.30562H32.3438V1H39.914V8.30562Z" fill="white"/>
<path d="M50.1337 22.5687C54.5328 22.5687 57.3789 19.8961 57.5942 16.3836V16.2967H53.4104L53.3946 16.4322C53.3009 17.2024 52.9158 17.9091 52.3167 18.4103C51.7175 18.9115 50.9487 19.1702 50.1645 19.1343C47.9496 19.1343 46.5608 17.3477 46.5608 14.1948V14.18C46.5608 11.1027 47.9452 9.25614 50.1452 9.25614C50.9289 9.22218 51.6967 9.48151 52.2955 9.98238C52.8942 10.4832 53.2798 11.1888 53.3753 11.9583L53.406 12.0937H57.5819V11.9887C57.4123 8.5057 54.5671 5.82183 50.0907 5.82183C45.1528 5.82183 42 9.01989 42 14.1688V14.1835C41.9965 19.3706 45.1009 22.5687 50.1337 22.5687ZM66.7651 22.5687C71.4718 22.5687 73.7483 19.8509 74.2563 17.4789L74.3029 17.3138H70.1806L70.1499 17.4007C69.8628 18.0108 69.3933 18.5192 68.8047 18.8575C68.2162 19.1957 67.5368 19.3475 66.8582 19.2924C64.566 19.2924 63.1359 17.7907 63.0893 15.2241H74.4409V13.8726C74.4409 9.0086 71.4103 5.81054 66.5805 5.81054C61.7507 5.81054 58.6586 9.0833 58.6586 14.2026V14.2174C58.6586 19.3706 61.7199 22.5687 66.7651 22.5687ZM66.657 9.08677C68.5186 9.08677 69.8563 10.2428 70.1332 12.4646H63.135C63.4277 10.2845 64.8112 9.08677 66.657 9.08677ZM83.7506 22.5687C88.4574 22.5687 90.7338 19.8509 91.2419 17.4789L91.2884 17.3138H87.1662L87.1354 17.4007C86.8483 18.0108 86.3789 18.5192 85.7903 18.8575C85.2017 19.1957 84.5224 19.3475 83.8438 19.2924C81.5515 19.2924 80.1215 17.7907 80.0749 15.2241H91.4264V13.8726C91.4264 9.0086 88.3958 5.81054 83.5661 5.81054C78.7363 5.81054 75.6441 9.0833 75.6441 14.2026V14.2174C75.6441 19.3706 78.7055 22.5687 83.7506 22.5687ZM83.6425 9.08677C85.5041 9.08677 86.8419 10.2428 87.1187 12.4646H80.1206C80.4124 10.2845 81.7967 9.08677 83.6425 9.08677ZM99.336 22.5687C100.396 22.6158 101.447 22.3477 102.352 21.7992C103.256 21.2507 103.974 20.4468 104.412 19.4913H104.504V22.2386H109V0.573952H104.509V8.93651H104.412C103.979 7.97402 103.263 7.16181 102.359 6.60452C101.454 6.04723 100.401 5.77039 99.336 5.80967C95.183 5.80967 92.6297 8.93651 92.6297 14.1722V14.187C92.6297 19.4158 95.183 22.5687 99.336 22.5687ZM100.843 18.9354C98.5977 18.9354 97.1976 17.1193 97.1976 14.1913V14.1766C97.1976 11.2339 98.6127 9.44723 100.843 9.44723C103.013 9.44723 104.52 11.279 104.52 14.1766V14.1913C104.517 17.1036 103.028 18.9354 100.843 18.9354Z" fill="white"/>
</g>
<defs>
<clipPath id="clip0_261_406">
<rect width="109" height="22" fill="white" transform="translate(0 0.573952)"/>
</clipPath>
</defs>
</svg>
