<svg width="69" height="22" viewBox="0 0 69 22" fill="none" xmlns="http://www.w3.org/2000/svg">
<path d="M68.1666 0.573952H65.1162V16.7444H68.1666V0.573952Z" fill="white"/>
<path d="M50.6484 7.6406H53.5855V6.98836L61.8842 0.573952H57.018L50.6484 5.3729" fill="white"/>
<path d="M58.6664 7.63797H53.5868V7.63929H50.6484V10.6212H58.4978C59.3648 10.6212 60.0671 11.3235 60.0671 12.1905V13.7599H45.9602V5.3729H43.0442V13.7612H39.6801V7.34676H36.8538V13.7612H33.4001V9.45503H30.4841V13.7612H22.7244V5.3729H19.8308V13.7612H10.3212V11.2826C10.3212 8.03063 7.68586 5.3953 4.43385 5.3953H2.85265V8.3561H4.07545C5.96498 8.3561 7.49611 9.88723 7.49611 11.7768V13.7612H0.833984V16.6772H63.0055V11.9784C63.0055 9.58153 61.0633 7.63797 58.6664 7.63797Z" fill="white"/>
<path d="M18.6598 18.4323H15.666V21.426H18.6598V18.4323Z" fill="white"/>
<path d="M22.8316 18.4323H19.8379V21.426H22.8316V18.4323Z" fill="white"/>
</svg>
