<svg width="137" height="32" viewBox="0 0 137 32" fill="none" xmlns="http://www.w3.org/2000/svg">
<g clip-path="url(#clip0_362_1157)">
<path d="M9.50049 25.534C15.0165 25.534 17.6844 22.366 18.2798 19.601L18.3344 19.408H13.5034L13.4673 19.513C13.1356 20.2208 12.5873 20.8122 11.8971 21.2067C11.2068 21.6013 10.4081 21.7798 9.60968 21.718C6.92324 21.718 5.24731 19.968 5.19272 16.975H18.4972V15.4C18.4972 9.73 14.9455 6 9.28521 6C3.62494 6 -0.00195312 9.818 -0.00195312 15.788V15.806C-0.00195312 21.806 3.58786 25.534 9.50049 25.534ZM9.37173 9.818C11.5534 9.818 13.1212 11.166 13.4457 13.756H5.24319C5.58827 11.218 7.20857 9.818 9.37173 9.818Z" fill="#450099"/>
<path d="M68.0157 26.323C73.1712 26.323 76.5066 23.246 76.759 19.202V19.102H71.8558L71.8373 19.258C71.7275 20.1447 71.2762 20.9583 70.574 21.5354C69.8718 22.1124 68.9708 22.4102 68.0518 22.369C65.456 22.369 63.8285 20.312 63.8285 16.682V16.665C63.8285 13.122 65.4508 10.996 68.0291 10.996C68.9476 10.9569 69.8475 11.2555 70.5492 11.8321C71.2508 12.4088 71.7027 13.2211 71.8146 14.107L71.8507 14.263H76.7446V14.142C76.5458 10.132 73.2114 7.042 67.9652 7.042C62.1783 7.042 58.4834 10.724 58.4834 16.652V16.669C58.4793 22.641 62.1175 26.323 68.0157 26.323ZM87.5068 26.323C93.0229 26.323 95.6907 23.194 96.2861 20.463L96.3407 20.273H91.5097L91.4736 20.373C91.1372 21.0754 90.587 21.6608 89.8972 22.0502C89.2074 22.4397 88.4112 22.6144 87.616 22.551C84.9296 22.551 83.2536 20.822 83.199 17.867H96.5024V16.311C96.5024 10.711 92.9507 7.029 87.2905 7.029C81.6302 7.029 78.0064 10.797 78.0064 16.691V16.708C78.0064 22.641 81.5942 26.323 87.5068 26.323ZM87.3801 10.801C89.5618 10.801 91.1296 12.132 91.454 14.69H83.2526C83.5956 12.18 85.2169 10.801 87.3801 10.801ZM107.413 26.323C112.929 26.323 115.597 23.194 116.192 20.463L116.247 20.273H111.416L111.38 20.373C111.043 21.0754 110.493 21.6608 109.803 22.0502C109.114 22.4397 108.317 22.6144 107.522 22.551C104.836 22.551 103.16 20.822 103.105 17.867H116.409V16.311C116.409 10.711 112.857 7.029 107.197 7.029C101.536 7.029 97.9126 10.797 97.9126 16.691V16.708C97.9126 22.641 101.5 26.323 107.413 26.323ZM107.286 10.801C109.468 10.801 111.036 12.132 111.36 14.69H103.159C103.501 12.18 105.123 10.801 107.286 10.801ZM125.678 26.323C126.921 26.3772 128.152 26.0687 129.212 25.4371C130.273 24.8056 131.114 23.8801 131.627 22.78H131.735V25.943H137.004V1H131.74V10.628H131.627C131.119 9.51986 130.281 8.58475 129.221 7.94313C128.161 7.30151 126.927 6.98277 125.678 7.028C120.811 7.028 117.819 10.628 117.819 16.656V16.673C117.819 22.693 120.811 26.323 125.678 26.323ZM127.445 22.14C124.813 22.14 123.172 20.049 123.172 16.678V16.661C123.172 13.273 124.831 11.216 127.445 11.216C129.987 11.216 131.754 13.325 131.754 16.661V16.678C131.751 20.031 130.005 22.14 127.445 22.14Z" fill="#450099"/>
<path d="M46.1271 30.8571V30.0112L39.1447 23.2976L31.5166 30.6334V30.8571H23.6494V23.293H24.0502L31.596 16.0399L23.967 8.707H23.6494V1.14286H31.5176V1.44836L54.4841 23.5214L53.9982 23.9857V30.8571H46.1271ZM43.8794 11.4082V1.14286H54.5596V11.4082H43.8794Z" fill="#DB624F"/>
<path d="M50.5637 28.0714V24.2203L29.4553 3.92857H25.9545V7.23946L35.1094 16.0402L25.9545 24.8403V28.0714H29.5382L38.5819 19.3777L47.6248 28.0714H50.5637ZM51.1256 8.62205V3.92857H46.1866V8.62205H51.1256ZM53.4332 30.8571H45.5649L38.5818 23.2981L30.9533 30.8571H23.085V23.2933L31.0311 16.0401L23.085 8.70673V1.14286H30.9533L53.4332 23.993V30.8571ZM53.9951 11.4078H43.3171V1.14286H53.9951V11.4078Z" fill="#DB624F"/>
</g>
<defs>
<clipPath id="clip0_362_1157">
<rect width="137" height="32" fill="white"/>
</clipPath>
</defs>
</svg>
