<svg width="20" height="20" viewBox="0 0 20 20" fill="none" xmlns="http://www.w3.org/2000/svg">
<path d="M13.533 1.66669H6.46634C4.16634 1.66669 3.33301 2.50002 3.33301 4.84169V15.1584C3.33301 17.5 4.16634 18.3334 6.46634 18.3334H13.5247C15.833 18.3334 16.6663 17.5 16.6663 15.1584V4.84169C16.6663 2.50002 15.833 1.66669 13.533 1.66669ZM9.99967 16.0834C9.19967 16.0834 8.54134 15.425 8.54134 14.625C8.54134 13.825 9.19967 13.1667 9.99967 13.1667C10.7997 13.1667 11.458 13.825 11.458 14.625C11.458 15.425 10.7997 16.0834 9.99967 16.0834ZM11.6663 5.20835H8.33301C7.99134 5.20835 7.70801 4.92502 7.70801 4.58335C7.70801 4.24169 7.99134 3.95835 8.33301 3.95835H11.6663C12.008 3.95835 12.2913 4.24169 12.2913 4.58335C12.2913 4.92502 12.008 5.20835 11.6663 5.20835Z" fill="#450099"/>
</svg>
