<svg width="40" height="40" viewBox="0 0 40 40" fill="none" xmlns="http://www.w3.org/2000/svg">
<path d="M34.9833 16.1833C34.4167 15.9499 33.6667 15.8333 32.7333 15.8333H23.9333C21.0333 15.8333 20 16.8666 20 19.7999V32.6999C20 33.6666 20.1167 34.4166 20.3667 34.9999C20.8833 36.1999 21.9833 36.6666 23.9333 36.6666H32.7333C35.6333 36.6666 36.6667 35.6166 36.6667 32.6999V19.7999C36.6667 17.8166 36.2 16.6999 34.9833 16.1833ZM30 32.9166H26.6667C26.6333 32.9166 26.5833 32.9166 26.55 32.8999C26.3 32.8833 26.0833 32.7999 25.9 32.6333C25.6 32.4166 25.4167 32.0666 25.4167 31.6666C25.4167 30.9833 25.9833 30.4166 26.6667 30.4166H30C30.6833 30.4166 31.25 30.9833 31.25 31.6666C31.25 32.3499 30.6833 32.9166 30 32.9166Z" fill="url(#paint0_linear_2202_1382)"/>
<path d="M34.9829 10.3166V11.6666C34.9829 12.5833 34.2329 13.3333 33.3163 13.3333H23.9329C19.6663 13.3333 17.4996 15.5166 17.4996 19.7999V34.9999C17.4996 35.9166 16.7496 36.6666 15.8329 36.6666H12.5829C11.9163 36.6666 11.3829 36.1333 11.3829 35.4833C11.3829 34.8166 11.9163 34.2999 12.5829 34.2999H15.8329V27.9166H9.99961C6.29961 27.7333 3.34961 24.6833 3.34961 20.9333V10.3166C3.34961 6.46659 6.48294 3.33325 10.3496 3.33325H27.9996C31.8496 3.33325 34.9829 6.46659 34.9829 10.3166Z" fill="url(#paint1_linear_2202_1382)"/>
<defs>
<linearGradient id="paint0_linear_2202_1382" x1="28.3333" y1="15.8333" x2="28.3333" y2="36.6666" gradientUnits="userSpaceOnUse">
<stop stop-color="#450099"/>
<stop offset="1" stop-color="#BEBEFF"/>
</linearGradient>
<linearGradient id="paint1_linear_2202_1382" x1="19.1663" y1="3.33325" x2="19.1663" y2="36.6666" gradientUnits="userSpaceOnUse">
<stop stop-color="#450099"/>
<stop offset="1" stop-color="#BEBEFF"/>
</linearGradient>
</defs>
</svg>
