<svg width="32" height="33" viewBox="0 0 32 33" fill="none" xmlns="http://www.w3.org/2000/svg">
<path opacity="0.4" d="M23.9965 10.0465C23.9165 10.0332 23.8232 10.0332 23.7432 10.0465C21.9032 9.97984 20.4365 8.47317 20.4365 6.60651C20.4365 4.69984 21.9699 3.1665 23.8765 3.1665C25.7832 3.1665 27.3165 4.71317 27.3165 6.60651C27.3032 8.47317 25.8365 9.97984 23.9965 10.0465Z" stroke="#450099" stroke-width="2" stroke-linecap="round" stroke-linejoin="round"/>
<path opacity="0.4" d="M22.623 19.7534C24.4497 20.0601 26.463 19.7401 27.8763 18.7934C29.7563 17.5401 29.7563 15.4867 27.8763 14.2334C26.4497 13.2867 24.4097 12.9667 22.583 13.2867" stroke="#450099" stroke-width="2" stroke-linecap="round" stroke-linejoin="round"/>
<path opacity="0.4" d="M7.95672 10.0465C8.03672 10.0332 8.13005 10.0332 8.21005 10.0465C10.0501 9.97984 11.5167 8.47317 11.5167 6.60651C11.5167 4.69984 9.98339 3.1665 8.07672 3.1665C6.17005 3.1665 4.63672 4.71317 4.63672 6.60651C4.65005 8.47317 6.11672 9.97984 7.95672 10.0465Z" stroke="#450099" stroke-width="2" stroke-linecap="round" stroke-linejoin="round"/>
<path opacity="0.4" d="M9.33032 19.7534C7.50366 20.0601 5.49033 19.7401 4.07699 18.7934C2.19699 17.5401 2.19699 15.4867 4.07699 14.2334C5.50366 13.2867 7.54365 12.9667 9.37032 13.2867" stroke="#450099" stroke-width="2" stroke-linecap="round" stroke-linejoin="round"/>
<path d="M16.0004 20.0065C15.9204 19.9931 15.8271 19.9931 15.7471 20.0065C13.9071 19.9398 12.4404 18.4331 12.4404 16.5665C12.4404 14.6598 13.9738 13.1265 15.8804 13.1265C17.7871 13.1265 19.3204 14.6731 19.3204 16.5665C19.3071 18.4331 17.8404 19.9531 16.0004 20.0065Z" fill="#450099" fill-opacity="0.24" stroke="#450099" stroke-width="2" stroke-linecap="round" stroke-linejoin="round"/>
<path d="M12.12 24.2065C10.24 25.4598 10.24 27.5131 12.12 28.7665C14.2533 30.1931 17.7466 30.1931 19.88 28.7665C21.76 27.5131 21.76 25.4598 19.88 24.2065C17.76 22.7932 14.2533 22.7932 12.12 24.2065Z" stroke="#450099" stroke-width="2" stroke-linecap="round" stroke-linejoin="round"/>
</svg>
