<svg width="33" height="32" viewBox="0 0 33 32" fill="none" xmlns="http://www.w3.org/2000/svg">
<path d="M12.7134 14.4932C12.5801 14.4798 12.4201 14.4798 12.2734 14.4932C9.10008 14.3865 6.58008 11.7865 6.58008 8.5865C6.58008 5.31984 9.22008 2.6665 12.5001 2.6665C15.7667 2.6665 18.4201 5.31984 18.4201 8.5865C18.4067 11.7865 15.8867 14.3865 12.7134 14.4932Z" fill="#CABDE5" stroke="#450099" stroke-width="2" stroke-linecap="round" stroke-linejoin="round"/>
<path opacity="0.4" d="M22.3804 5.3335C24.967 5.3335 27.047 7.42683 27.047 10.0002C27.047 12.5202 25.047 14.5735 22.5537 14.6668C22.447 14.6535 22.327 14.6535 22.207 14.6668" stroke="#450099" stroke-width="2" stroke-linecap="round" stroke-linejoin="round"/>
<path d="M6.04695 19.4135C2.82029 21.5735 2.82029 25.0935 6.04695 27.2402C9.71362 29.6935 15.727 29.6935 19.3936 27.2402C22.6203 25.0802 22.6203 21.5602 19.3936 19.4135C15.7403 16.9735 9.72695 16.9735 6.04695 19.4135Z" stroke="#450099" stroke-width="2" stroke-linecap="round" stroke-linejoin="round"/>
<path opacity="0.4" d="M24.9531 26.6665C25.9131 26.4665 26.8198 26.0798 27.5665 25.5065C29.6465 23.9465 29.6465 21.3732 27.5665 19.8132C26.8331 19.2532 25.9398 18.8798 24.9931 18.6665" stroke="#450099" stroke-width="2" stroke-linecap="round" stroke-linejoin="round"/>
</svg>
