<svg width="32" height="33" viewBox="0 0 32 33" fill="none" xmlns="http://www.w3.org/2000/svg">
<path d="M16 16.4998C18.44 16.4998 20.24 14.5132 20 12.0732L19.12 3.1665H12.8933L12 12.0732C11.76 14.5132 13.56 16.4998 16 16.4998Z" fill="#450099" fill-opacity="0.24" stroke="#450099" stroke-width="2" stroke-linecap="round" stroke-linejoin="round"/>
<path d="M24.4131 16.4998C27.1064 16.4998 29.0797 14.3132 28.8131 11.6332L28.4397 7.9665C27.9597 4.49984 26.6264 3.1665 23.1331 3.1665H19.0664L19.9997 12.5132C20.2264 14.7132 22.2131 16.4998 24.4131 16.4998Z" fill="#450099" fill-opacity="0.24" stroke="#450099" stroke-width="2" stroke-linecap="round" stroke-linejoin="round"/>
<path d="M7.51984 16.4998C9.71984 16.4998 11.7065 14.7132 11.9198 12.5132L12.2132 9.5665L12.8532 3.1665H8.78651C5.29318 3.1665 3.95984 4.49984 3.47984 7.9665L3.11984 11.6332C2.85318 14.3132 4.82651 16.4998 7.51984 16.4998Z" fill="#450099" fill-opacity="0.24" stroke="#450099" stroke-width="2" stroke-linecap="round" stroke-linejoin="round"/>
<g opacity="0.4">
<path d="M4.0127 15.46V21.4466C4.0127 27.4333 6.4127 29.8333 12.3994 29.8333H19.586C25.5727 29.8333 27.9727 27.4333 27.9727 21.4466V15.46" stroke="#450099" stroke-width="2" stroke-linecap="round" stroke-linejoin="round"/>
<path d="M15.9993 23.167C13.7727 23.167 12.666 24.2737 12.666 26.5003V29.8337H19.3327V26.5003C19.3327 24.2737 18.226 23.167 15.9993 23.167Z" stroke="#450099" stroke-width="2" stroke-linecap="round" stroke-linejoin="round"/>
</g>
</svg>
