<svg width="20" height="20" viewBox="0 0 20 20" fill="none" xmlns="http://www.w3.org/2000/svg">
<path d="M14.167 2.91669H5.83366C3.33366 2.91669 1.66699 4.16669 1.66699 7.08335V12.9167C1.66699 15.8334 3.33366 17.0834 5.83366 17.0834H14.167C16.667 17.0834 18.3337 15.8334 18.3337 12.9167V7.08335C18.3337 4.16669 16.667 2.91669 14.167 2.91669ZM14.5587 7.99169L11.9503 10.075C11.4003 10.5167 10.7003 10.7334 10.0003 10.7334C9.30033 10.7334 8.59199 10.5167 8.05033 10.075L5.44199 7.99169C5.17533 7.77502 5.13366 7.37502 5.34199 7.10835C5.55866 6.84169 5.95033 6.79169 6.21699 7.00835L8.82533 9.09169C9.45866 9.60002 10.5337 9.60002 11.167 9.09169L13.7753 7.00835C14.042 6.79169 14.442 6.83335 14.6503 7.10835C14.867 7.37502 14.8253 7.77502 14.5587 7.99169Z" fill="#450099"/>
</svg>
