<svg width="14" height="12" viewBox="0 0 14 12" fill="none" xmlns="http://www.w3.org/2000/svg">
<path d="M6.32011 0.370718C6.62852 -0.123574 7.37148 -0.123572 7.67989 0.370719L9.308 2.98011C9.4188 3.15768 9.59952 3.28433 9.80885 3.33109L12.8849 4.01824C13.4676 4.14841 13.6972 4.82995 13.3051 5.2656L11.2353 7.56544C11.0944 7.72195 11.0254 7.92687 11.044 8.13334L11.317 11.1674C11.3687 11.7422 10.7676 12.1634 10.2169 11.9383L7.30954 10.7503C7.11169 10.6695 6.88831 10.6695 6.69046 10.7503L3.78312 11.9383C3.23239 12.1634 2.63131 11.7422 2.68303 11.1674L2.95603 8.13334C2.97461 7.92687 2.90558 7.72195 2.76472 7.56544L0.694885 5.2656C0.302801 4.82994 0.532392 4.14841 1.11508 4.01824L4.19115 3.33109C4.40048 3.28433 4.5812 3.15768 4.692 2.98011L6.32011 0.370718Z" fill="#F06A26"/>
</svg>
