<svg width="41" height="40" viewBox="0 0 41 40" fill="none" xmlns="http://www.w3.org/2000/svg">
<path d="M28.3826 26.0667C29.4992 25.3333 30.9659 26.1333 30.9659 27.4667V29.6167C30.9659 31.7333 29.3159 34 27.3326 34.6667L22.0159 36.4333C21.0826 36.75 19.5659 36.75 18.6492 36.4333L13.3326 34.6667C11.3326 34 9.69922 31.7333 9.69922 29.6167V27.45C9.69922 26.1333 11.1659 25.3333 12.2659 26.05L15.6992 28.2833C17.0159 29.1667 18.6826 29.6 20.3492 29.6C22.0159 29.6 23.6826 29.1667 24.9992 28.2833L28.3826 26.0667Z" fill="url(#paint0_linear_211_854)"/>
<path d="M33.6325 10.7667L23.6492 4.21672C21.8492 3.03339 18.8826 3.03339 17.0826 4.21672L7.04922 10.7667C3.83255 12.8501 3.83255 17.5667 7.04922 19.6667L9.71589 21.4001L17.0826 26.2001C18.8826 27.3834 21.8492 27.3834 23.6492 26.2001L30.9659 21.4001L33.2492 19.9001V25.0001C33.2492 25.6834 33.8159 26.2501 34.4992 26.2501C35.1826 26.2501 35.7492 25.6834 35.7492 25.0001V16.8001C36.4159 14.6501 35.7325 12.1501 33.6325 10.7667Z" fill="url(#paint1_linear_211_854)"/>
<defs>
<linearGradient id="paint0_linear_211_854" x1="20.3326" y1="25.781" x2="20.3326" y2="36.6708" gradientUnits="userSpaceOnUse">
<stop stop-color="#450099"/>
<stop offset="1" stop-color="#BEBEFF"/>
</linearGradient>
<linearGradient id="paint1_linear_211_854" x1="20.3159" y1="3.32922" x2="20.3159" y2="27.0876" gradientUnits="userSpaceOnUse">
<stop stop-color="#450099"/>
<stop offset="1" stop-color="#BEBEFF"/>
</linearGradient>
</defs>
</svg>
