<svg width="35" height="42" viewBox="0 0 35 42" fill="none" xmlns="http://www.w3.org/2000/svg">
<path d="M17.3144 0.297754L0.844727 11.6213L1.05742 11.9358L17.5271 0.61225L17.3144 0.297754Z" fill="url(#paint0_linear_211_947)"/>
<path d="M14.0619 0.502415L0.863281 9.57355L1.07592 9.88808L14.2745 0.816948L14.0619 0.502415Z" fill="url(#paint1_linear_211_947)"/>
<path d="M10.053 1.1701L0.870117 7.50262L1.08325 7.81682L10.2661 1.4843L10.053 1.1701Z" fill="url(#paint2_linear_211_947)"/>
<path d="M4.69246 2.79158L0.883789 5.4447L1.09839 5.75788L4.90706 3.10476L4.69246 2.79158Z" fill="url(#paint3_linear_211_947)"/>
<path d="M25.7895 14.9235L25.7865 14.9204L23.1168 16.7572L23.1198 16.7603L9.38485 26.2011L9.6695 26.621L7.80282 27.9352L7.94964 28.1467L3.97656 30.9412L4.1923 31.2554L8.57587 28.1678L10.0231 27.1467L23.9738 17.5548L23.6861 17.1319L26.1431 15.4431L26.0023 15.2376L34.9641 9.07768L34.7514 8.76349L25.7895 14.9235Z" fill="url(#paint4_linear_211_947)"/>
<path d="M26.5479 16.4491V16.4461L23.6894 18.4098L23.6924 18.4128L10.4009 27.5516L10.6826 27.9685L8.68404 29.3733L8.82486 29.5757L4.92969 32.3249L5.14843 32.6361L9.0406 29.8899L9.0436 29.8929L11.0361 28.4911L11.0391 28.4942L24.3756 19.3252L24.0879 18.9053L26.9015 16.9718L26.7606 16.7633L34.9525 11.1321L34.7397 10.8179L26.5479 16.4491Z" fill="url(#paint5_linear_211_947)"/>
<path d="M27.2796 17.9959L27.2766 17.9929L24.9125 19.6182V19.6212L11.3453 28.9473L11.627 29.3642L9.79622 30.6542L9.93705 30.8566L6.00293 33.636L6.21867 33.9472L10.1528 31.1678L10.1558 31.1738L11.9805 29.8899L11.9835 29.8929L25.5567 20.5608L25.272 20.1409L27.6301 18.5185L27.4923 18.3101L34.9411 13.1894L34.7283 12.8752L27.2796 17.9959Z" fill="url(#paint6_linear_211_947)"/>
<path d="M28.3935 19.2769V19.2738L26.0474 20.8841L26.0504 20.8901L12.3304 30.2796L12.621 30.7086L10.2809 32.3551L10.4247 32.5635L7.17676 34.8535L7.3955 35.1647L11.1049 32.5515V32.5484L13.5978 30.7932L26.8084 21.7511L26.5238 21.3251L28.747 19.7965L28.6062 19.5911L34.9284 15.2467L34.7156 14.9326L28.3935 19.2769Z" fill="url(#paint7_linear_211_947)"/>
<path d="M29.7722 20.3735L29.7692 20.3675L27.2044 22.1318V22.1348L15.3031 30.3189L15.5848 30.7328L12.7713 32.7176L12.9151 32.9261L8.51953 36.0227L8.73526 36.3338L13.5203 32.9623L15.9383 31.2584L15.9413 31.2614L27.9145 23.029L27.6298 22.6061L30.1227 20.8931L29.9849 20.6877L34.9168 17.295L34.7041 16.9808L29.7722 20.3735Z" fill="url(#paint8_linear_211_947)"/>
<path d="M32.8224 20.4732L32.7535 20.3675L29.7422 22.4369L18.2215 30.3581L18.5091 30.7811L15.405 32.9683L15.5488 33.1768L10.1016 37.0166L10.3173 37.3278L16.1481 33.2191L19.1473 31.1043L30.3804 23.3825L30.0958 22.9626L33.107 20.8931L32.9303 20.6303L33.0381 20.7874L34.9078 19.4551L34.6891 19.1439L32.8224 20.4732Z" fill="url(#paint9_linear_211_947)"/>
<path d="M32.8735 22.3372V22.3312L31.1776 23.4973H31.1746L24.4001 28.1558L24.6877 28.5787L21.8202 30.5998L21.9641 30.8083L11.6299 38.0921L11.8456 38.4033L22.5873 30.8325L25.1012 29.0621L25.0982 29.0591L31.8129 24.4429L31.5312 24.023L33.2271 22.8568L33.0863 22.6514L34.8631 21.4309L34.6503 21.1167L32.8735 22.3372Z" fill="url(#paint10_linear_211_947)"/>
<path d="M33.2126 24.2254L33.1767 24.174L31.5796 25.2707H31.5766L26.1983 28.9654L26.483 29.3884L23.9811 31.1527L24.1249 31.3642L13.2334 39.0377L13.4491 39.3489L24.8979 31.2826V31.2796L27.0972 29.7328L32.2149 26.2133L31.9332 25.7963L33.5302 24.6967L33.3535 24.4369L34.5729 23.597L34.4321 23.3885L33.2126 24.2254Z" fill="url(#paint11_linear_211_947)"/>
<path d="M2.36124 14.0262L3.89235 12.9477L9.68118 8.96894L9.39653 8.54902L11.9404 6.80284L11.8025 6.5974L20.3719 0.703291L20.1592 0.389099L11.5898 6.28019L11.5868 6.27717L9.04297 8.02637V8.02335L2.91256 12.2377L3.20021 12.6607L1.744 13.6848L1.89084 13.8933L0.827148 14.6455L1.04288 14.9567L2.36124 14.0262Z" fill="url(#paint12_linear_211_947)"/>
<path d="M3.32437 15.4129V15.4099L4.83449 14.3465L11.9896 9.42514L11.708 9.00823L13.6825 7.64875L13.5507 7.4554L22.8781 0.984266L22.6624 0.673096L13.3379 7.14121L13.329 7.12611L11.3544 8.48257L3.74085 13.7151L4.02848 14.141L2.71911 15.0625L2.86294 15.2709L0.813477 16.715L1.03221 17.0262L3.32437 15.4129Z" fill="url(#paint13_linear_211_947)"/>
<path d="M3.66223 17.2316L5.66974 15.8178L13.4601 10.4614L13.1694 10.0324L15.2638 8.59135L15.132 8.39498L25.1905 1.4163L24.9748 1.10211L14.9193 8.08079L14.9103 8.0687L12.726 9.57018L12.732 9.57924L4.56711 15.1924L4.85475 15.6184L3.08995 16.863L3.23376 17.0715L0.800781 18.7845L1.0195 19.0956L3.66223 17.2316Z" fill="url(#paint14_linear_211_947)"/>
<path d="M4.46588 18.73L6.65316 17.1893L14.9319 11.4976L14.6473 11.0746L16.8555 9.55504L16.7087 9.33753L27.4803 2.01445L27.2706 1.70026L16.3521 9.12001L16.3581 9.12907L14.2847 10.558L5.39174 16.6727L5.68237 17.0987L3.6509 18.5306L3.79471 18.7391L0.816406 20.8357L1.03214 21.1499L4.46588 18.73Z" fill="url(#paint15_linear_211_947)"/>
<path d="M5.44474 20.0865L6.85598 19.0926V19.0956L16.3992 12.5308L16.1145 12.1109L18.5834 10.413L18.4456 10.2076L29.2772 2.76066L29.0645 2.44647L18.2329 9.89341L18.2299 9.89039L15.746 11.5973V11.6003L6.21779 18.15L6.49942 18.5699L4.67769 19.8539L4.82451 20.0654L0.989258 22.7602L1.20799 23.0713L5.44774 20.0895L5.44474 20.0865Z" fill="url(#paint16_linear_211_947)"/>
<path d="M6.39387 21.4823L8.00287 20.3493L17.8696 13.567L17.585 13.1471L20.3176 11.268L20.1768 11.0626L31.305 3.4102L31.0922 3.09601L19.964 10.7484L19.9611 10.7423L17.0666 12.7332V12.7362L7.04108 19.6273L7.32871 20.0533L5.60884 21.2647L5.75266 21.4732L1.32715 24.5909L1.54288 24.9021L6.39687 21.4853L6.39387 21.4823Z" fill="url(#paint17_linear_211_947)"/>
<path d="M6.67058 23.3553L8.97773 21.7299L20.6243 13.7694L20.3367 13.3434L22.9135 11.5731L22.7726 11.3677L33.1068 4.2621L32.8941 3.94489L22.5599 11.0504L22.5569 11.0474L19.9022 12.8752L19.9052 12.8812L7.80919 21.1469L8.09682 21.5759L5.93949 23.0955L6.08632 23.3039L1.80762 26.3159L2.02336 26.6301L6.67058 23.3583V23.3553Z" fill="url(#paint18_linear_211_947)"/>
<path d="M6.95545 25.1982L8.99892 23.7601L21.6432 15.0655L21.3616 14.6486L23.9504 12.8722L23.8096 12.6638L34.743 5.14732L34.5303 4.83313L23.5968 12.3496L23.5938 12.3465L21.008 14.1259L21.005 14.1229L8.07905 23.0109L8.3637 23.4339L6.17642 24.9746L6.32024 25.1831L2.41309 27.9353L2.62881 28.2495L6.95845 25.1982H6.95545Z" fill="url(#paint19_linear_211_947)"/>
<path d="M7.35668 26.9594L9.08852 25.7419H9.09152L22.5868 16.4642L22.3051 16.0443L24.7741 14.3464L24.6333 14.141L34.9764 7.0294L34.7637 6.71521L24.4205 13.8268L24.4175 13.8208L21.9486 15.5186L8.45031 24.7993L8.73496 25.2163L6.69449 26.6543L6.84731 26.8718L3.12891 29.4669L3.34465 29.7781L7.36566 26.9715L7.35668 26.9594Z" fill="url(#paint20_linear_211_947)"/>
<path d="M33.4706 26.8392L14.7998 39.9572L15.0156 40.2695L33.6865 27.1515L33.4706 26.8392Z" fill="url(#paint21_linear_211_947)"/>
<path d="M32.016 30.3675L16.2891 41.3901L16.5043 41.7023L32.2312 30.6797L32.016 30.3675Z" fill="url(#paint22_linear_211_947)"/>
<path d="M28.7664 34.7215L21.8574 39.5638L22.0726 39.8759L28.9816 35.0336L28.7664 34.7215Z" fill="url(#paint23_linear_211_947)"/>
<defs>
<linearGradient id="paint0_linear_211_947" x1="24.3235" y1="-7.36715" x2="-9.0877" y2="21.9088" gradientUnits="userSpaceOnUse">
<stop stop-color="#62B34F"/>
<stop offset="0.46" stop-color="#51BAB4"/>
<stop offset="1" stop-color="#0094D3"/>
</linearGradient>
<linearGradient id="paint1_linear_211_947" x1="23.1568" y1="-8.70384" x2="-10.2545" y2="20.5721" gradientUnits="userSpaceOnUse">
<stop stop-color="#62B34F"/>
<stop offset="0.46" stop-color="#51BAB4"/>
<stop offset="1" stop-color="#0094D3"/>
</linearGradient>
<linearGradient id="paint2_linear_211_947" x1="21.9351" y1="-10.0904" x2="-11.4732" y2="19.1856" gradientUnits="userSpaceOnUse">
<stop stop-color="#62B34F"/>
<stop offset="0.46" stop-color="#51BAB4"/>
<stop offset="1" stop-color="#0094D3"/>
</linearGradient>
<linearGradient id="paint3_linear_211_947" x1="20.6562" y1="-11.552" x2="-12.752" y2="17.7239" gradientUnits="userSpaceOnUse">
<stop stop-color="#62B34F"/>
<stop offset="0.46" stop-color="#51BAB4"/>
<stop offset="1" stop-color="#0094D3"/>
</linearGradient>
<linearGradient id="paint4_linear_211_947" x1="35.6653" y1="5.5823" x2="2.25703" y2="34.8583" gradientUnits="userSpaceOnUse">
<stop stop-color="#62B34F"/>
<stop offset="0.46" stop-color="#51BAB4"/>
<stop offset="1" stop-color="#0094D3"/>
</linearGradient>
<linearGradient id="paint5_linear_211_947" x1="36.7203" y1="6.78172" x2="3.30902" y2="36.0607" gradientUnits="userSpaceOnUse">
<stop stop-color="#62B34F"/>
<stop offset="0.46" stop-color="#51BAB4"/>
<stop offset="1" stop-color="#0094D3"/>
</linearGradient>
<linearGradient id="paint6_linear_211_947" x1="37.7815" y1="7.99313" x2="4.37031" y2="37.2691" gradientUnits="userSpaceOnUse">
<stop stop-color="#62B34F"/>
<stop offset="0.46" stop-color="#51BAB4"/>
<stop offset="1" stop-color="#0094D3"/>
</linearGradient>
<linearGradient id="paint7_linear_211_947" x1="38.8385" y1="9.2046" x2="5.43027" y2="38.4806" gradientUnits="userSpaceOnUse">
<stop stop-color="#62B34F"/>
<stop offset="0.46" stop-color="#51BAB4"/>
<stop offset="1" stop-color="#0094D3"/>
</linearGradient>
<linearGradient id="paint8_linear_211_947" x1="39.9236" y1="10.4402" x2="6.51536" y2="39.7162" gradientUnits="userSpaceOnUse">
<stop stop-color="#62B34F"/>
<stop offset="0.46" stop-color="#51BAB4"/>
<stop offset="1" stop-color="#0094D3"/>
</linearGradient>
<linearGradient id="paint9_linear_211_947" x1="41.0442" y1="11.7181" x2="7.63598" y2="40.9941" gradientUnits="userSpaceOnUse">
<stop stop-color="#62B34F"/>
<stop offset="0.46" stop-color="#51BAB4"/>
<stop offset="1" stop-color="#0094D3"/>
</linearGradient>
<linearGradient id="paint10_linear_211_947" x1="42.192" y1="13.0293" x2="8.78376" y2="42.3052" gradientUnits="userSpaceOnUse">
<stop stop-color="#62B34F"/>
<stop offset="0.46" stop-color="#51BAB4"/>
<stop offset="1" stop-color="#0094D3"/>
</linearGradient>
<linearGradient id="paint11_linear_211_947" x1="43.3011" y1="14.2921" x2="9.89285" y2="43.5711" gradientUnits="userSpaceOnUse">
<stop stop-color="#62B34F"/>
<stop offset="0.46" stop-color="#51BAB4"/>
<stop offset="1" stop-color="#0094D3"/>
</linearGradient>
<linearGradient id="paint12_linear_211_947" x1="25.5705" y1="-5.93702" x2="-7.83776" y2="23.3389" gradientUnits="userSpaceOnUse">
<stop stop-color="#62B34F"/>
<stop offset="0.46" stop-color="#51BAB4"/>
<stop offset="1" stop-color="#0094D3"/>
</linearGradient>
<linearGradient id="paint13_linear_211_947" x1="26.7343" y1="-4.61076" x2="-6.67389" y2="24.6652" gradientUnits="userSpaceOnUse">
<stop stop-color="#62B34F"/>
<stop offset="0.46" stop-color="#51BAB4"/>
<stop offset="1" stop-color="#0094D3"/>
</linearGradient>
<linearGradient id="paint14_linear_211_947" x1="27.8932" y1="-3.28751" x2="-5.51505" y2="25.9884" gradientUnits="userSpaceOnUse">
<stop stop-color="#62B34F"/>
<stop offset="0.46" stop-color="#51BAB4"/>
<stop offset="1" stop-color="#0094D3"/>
</linearGradient>
<linearGradient id="paint15_linear_211_947" x1="29.0864" y1="-1.92503" x2="-4.32188" y2="27.3509" gradientUnits="userSpaceOnUse">
<stop stop-color="#62B34F"/>
<stop offset="0.46" stop-color="#51BAB4"/>
<stop offset="1" stop-color="#0094D3"/>
</linearGradient>
<linearGradient id="paint16_linear_211_947" x1="30.197" y1="-0.659189" x2="-3.21118" y2="28.6168" gradientUnits="userSpaceOnUse">
<stop stop-color="#62B34F"/>
<stop offset="0.46" stop-color="#51BAB4"/>
<stop offset="1" stop-color="#0094D3"/>
</linearGradient>
<linearGradient id="paint17_linear_211_947" x1="31.326" y1="0.630815" x2="-2.08228" y2="29.9068" gradientUnits="userSpaceOnUse">
<stop stop-color="#62B34F"/>
<stop offset="0.46" stop-color="#51BAB4"/>
<stop offset="1" stop-color="#0094D3"/>
</linearGradient>
<linearGradient id="paint18_linear_211_947" x1="32.4596" y1="1.92379" x2="-0.948608" y2="31.1998" gradientUnits="userSpaceOnUse">
<stop stop-color="#62B34F"/>
<stop offset="0.46" stop-color="#51BAB4"/>
<stop offset="1" stop-color="#0094D3"/>
</linearGradient>
<linearGradient id="paint19_linear_211_947" x1="33.5684" y1="3.18664" x2="0.160216" y2="32.4626" gradientUnits="userSpaceOnUse">
<stop stop-color="#62B34F"/>
<stop offset="0.46" stop-color="#51BAB4"/>
<stop offset="1" stop-color="#0094D3"/>
</linearGradient>
<linearGradient id="paint20_linear_211_947" x1="34.6169" y1="4.38294" x2="1.20565" y2="33.6589" gradientUnits="userSpaceOnUse">
<stop stop-color="#62B34F"/>
<stop offset="0.46" stop-color="#51BAB4"/>
<stop offset="1" stop-color="#0094D3"/>
</linearGradient>
<linearGradient id="paint21_linear_211_947" x1="44.1807" y1="15.3296" x2="10.8509" y2="44.6046" gradientUnits="userSpaceOnUse">
<stop stop-color="#62B34F"/>
<stop offset="0.46" stop-color="#51BAB4"/>
<stop offset="1" stop-color="#0094D3"/>
</linearGradient>
<linearGradient id="paint22_linear_211_947" x1="45.4013" y1="17.2757" x2="11.9796" y2="46.4441" gradientUnits="userSpaceOnUse">
<stop stop-color="#62B34F"/>
<stop offset="0.46" stop-color="#51BAB4"/>
<stop offset="1" stop-color="#0094D3"/>
</linearGradient>
<linearGradient id="paint23_linear_211_947" x1="46.5258" y1="18.5673" x2="13.1042" y2="47.7357" gradientUnits="userSpaceOnUse">
<stop stop-color="#62B34F"/>
<stop offset="0.46" stop-color="#51BAB4"/>
<stop offset="1" stop-color="#0094D3"/>
</linearGradient>
</defs>
</svg>
