<svg width="156" height="26" viewBox="0 0 156 26" fill="none" xmlns="http://www.w3.org/2000/svg">
<path d="M6.81317 4.75606H5.6013C5.47486 4.69141 5.36808 4.59354 5.29222 4.47278C5.21637 4.35202 5.17426 4.21286 5.17034 4.06997C5.16233 4.01257 5.16726 3.95409 5.18477 3.89888C5.20227 3.84366 5.2319 3.79314 5.27145 3.75107C5.31099 3.709 5.35944 3.67646 5.41318 3.65588C5.46693 3.63529 5.52458 3.62719 5.58186 3.63218C5.84432 3.63218 6.02902 3.8086 6.07762 4.13205H6.74513C6.68356 3.3218 6.23964 2.89708 5.57214 2.89708C5.42565 2.8855 5.2784 2.90585 5.14041 2.95673C5.00241 3.00762 4.87689 3.08786 4.77238 3.192C4.66786 3.29614 4.5868 3.42174 4.5347 3.56026C4.4826 3.69879 4.46068 3.847 4.47043 3.99483C4.46722 4.2775 4.57293 4.55041 4.7653 4.75606H4.34082V5.49116H6.81317V4.75606Z" fill="white"/>
<path d="M8.92956 7.61148C8.92956 8.17342 8.70598 8.63408 7.97691 8.63408H3.63815C3.47182 8.64255 3.30559 8.61571 3.15021 8.55529C2.99484 8.49486 2.85378 8.40221 2.73617 8.28332C2.61857 8.16444 2.52704 8.02197 2.46751 7.86515C2.40799 7.70833 2.3818 7.54065 2.39063 7.37298V5.50419H0.977858V7.37298C0.966695 7.72887 1.02777 8.08332 1.15735 8.41456C1.28692 8.7458 1.48225 9.04686 1.73136 9.29925C1.98047 9.55164 2.2781 9.75005 2.60599 9.88231C2.93389 10.0146 3.28512 10.0779 3.63815 10.0683H8.4986C8.7423 10.0742 8.98464 10.03 9.21093 9.93869C9.43723 9.84732 9.64279 9.7106 9.81516 9.53681C9.98753 9.36301 10.1231 9.15576 10.2137 8.92758C10.3044 8.69941 10.3481 8.45507 10.3423 8.20936V1.38763H8.92956V7.61148Z" fill="white"/>
<path d="M12.7109 10.2186C12.7183 10.386 12.691 10.5532 12.6307 10.7094C12.5704 10.8656 12.4785 11.0074 12.3608 11.1258C12.2431 11.2441 12.1022 11.3364 11.9471 11.3968C11.7921 11.4572 11.6262 11.4843 11.4602 11.4764H10.8672V12.9107H11.4731C11.8261 12.9187 12.177 12.8546 12.5047 12.7222C12.8324 12.5898 13.1302 12.3918 13.38 12.1403C13.6297 11.8887 13.8264 11.5888 13.9582 11.2585C14.0899 10.9282 14.1539 10.5745 14.1464 10.2186V4.05682H12.7109V10.2186Z" fill="white"/>
<path d="M29.7753 11.0648C29.6587 11.0576 29.5419 11.0745 29.4321 11.1144C29.3223 11.1544 29.2217 11.2167 29.1366 11.2973C29.0516 11.378 28.9838 11.4753 28.9374 11.5834C28.8911 11.6915 28.8672 11.808 28.8672 11.9257C28.8672 12.0434 28.8911 12.1599 28.9374 12.268C28.9838 12.3761 29.0516 12.4734 29.1366 12.5541C29.2217 12.6347 29.3223 12.6969 29.4321 12.7369C29.5419 12.7769 29.6587 12.7938 29.7753 12.7866C29.8918 12.7938 30.0086 12.7769 30.1184 12.7369C30.2282 12.6969 30.3288 12.6347 30.4139 12.5541C30.4989 12.4734 30.5667 12.3761 30.6131 12.268C30.6594 12.1599 30.6833 12.0434 30.6833 11.9257C30.6833 11.808 30.6594 11.6915 30.6131 11.5834C30.5667 11.4753 30.4989 11.378 30.4139 11.2973C30.3288 11.2167 30.2282 11.1544 30.1184 11.1144C30.0086 11.0745 29.8918 11.0576 29.7753 11.0648Z" fill="white"/>
<path d="M35.5463 8.07217C35.5517 8.14404 35.5422 8.21626 35.5186 8.28427C35.4949 8.35229 35.4576 8.41465 35.4089 8.46742C35.3602 8.52019 35.3012 8.56224 35.2357 8.59093C35.1701 8.61961 35.0993 8.63432 35.0279 8.63411H33.4077C33.1485 8.59818 32.8536 8.55897 32.1472 6.95155C30.9127 4.26599 28.9588 3.22051 26.7327 4.04383V5.35067C28.5861 4.62537 29.6878 5.35067 30.5886 7.12144C30.8107 7.64203 31.0763 8.14261 31.3825 8.61778H25.874C25.7679 8.62205 25.6621 8.60391 25.5634 8.56452C25.4647 8.52514 25.3753 8.46538 25.3008 8.38908C25.2264 8.31279 25.1686 8.22164 25.1311 8.12149C25.0937 8.02134 25.0774 7.9144 25.0834 7.80754V6.42555C25.0917 6.0641 25.0275 5.70468 24.8944 5.36895C24.7614 5.03321 24.5623 4.72809 24.3092 4.47198C24.0561 4.21588 23.7542 4.01407 23.4217 3.87872C23.0892 3.74338 22.733 3.67729 22.3745 3.68444H22.2384C21.8799 3.67729 21.5236 3.74338 21.1911 3.87872C20.8586 4.01407 20.5567 4.21588 20.3036 4.47198C20.0505 4.72809 19.8515 5.03321 19.7184 5.36895C19.5854 5.70468 19.5211 6.0641 19.5295 6.42555V7.82387C19.5354 7.93074 19.5192 8.03767 19.4817 8.13782C19.4443 8.23797 19.3865 8.32912 19.312 8.40542C19.2376 8.48171 19.1481 8.54147 19.0494 8.58086C18.9507 8.62024 18.8449 8.63838 18.7388 8.63411H17.7311C17.6596 8.63432 17.5889 8.61961 17.5233 8.59093C17.4577 8.56224 17.3987 8.52019 17.3501 8.46742C17.3014 8.41465 17.264 8.35229 17.2404 8.28427C17.2167 8.21626 17.2073 8.14404 17.2127 8.07217V1.38767H15.7902V8.57531C15.7876 8.77254 15.8242 8.9683 15.8978 9.15103C15.9715 9.33377 16.0807 9.49977 16.219 9.63925C16.3573 9.77872 16.522 9.88885 16.7032 9.96311C16.8845 10.0374 17.0786 10.0743 17.2742 10.0716H18.7453C19.0576 10.0771 19.3668 10.0088 19.6482 9.87202C19.9295 9.73528 20.1752 9.53399 20.3655 9.28427C20.946 9.77048 21.6782 10.0343 22.4328 10.0292C22.7704 10.0277 23.1037 9.95345 23.4105 9.81146C23.7174 9.66946 23.9905 9.46298 24.2117 9.20586C24.3943 9.47841 24.6419 9.70027 24.9319 9.851C25.2218 10.0017 25.5447 10.0765 25.8708 10.0684H35.488C35.6829 10.0706 35.8762 10.0333 36.0566 9.95875C36.2369 9.88417 36.4005 9.77383 36.5377 9.63426C36.675 9.49469 36.783 9.32874 36.8553 9.14627C36.9277 8.9638 36.963 8.76852 36.9591 8.57204V1.3844H35.5366L35.5463 8.07217ZM23.6673 7.28807C23.6752 7.62469 23.551 7.95083 23.3216 8.19556C23.0922 8.44028 22.7763 8.58381 22.4425 8.59491C22.1594 8.60412 21.878 8.54695 21.6204 8.42789C21.3629 8.30884 21.1363 8.13115 20.9585 7.90882V6.42555C20.9486 6.25133 20.9753 6.07697 21.037 5.9139C21.0986 5.75084 21.1938 5.60275 21.3161 5.47936C21.4385 5.35596 21.5854 5.26004 21.7471 5.19789C21.9089 5.13574 22.0818 5.10875 22.2546 5.11871H22.3907C22.5635 5.10875 22.7364 5.13574 22.8981 5.19789C23.0598 5.26004 23.2067 5.35596 23.3291 5.47936C23.4515 5.60275 23.5466 5.75084 23.6083 5.9139C23.6699 6.07697 23.6967 6.25133 23.6868 6.42555L23.6673 7.28807Z" fill="white"/>
<path d="M40.0846 1.38763H38.6621V10.0651H40.0846V1.38763Z" fill="white"/>
<path d="M44.4375 3.69422H44.3014C43.9434 3.68572 43.5874 3.75056 43.2549 3.88482C42.9224 4.01907 42.6204 4.21994 42.3672 4.47528C42.1139 4.73062 41.9147 5.03511 41.7816 5.37033C41.6484 5.70555 41.5841 6.06452 41.5925 6.42552V7.31091C41.5829 8.02425 41.8529 8.7126 42.3437 9.22645C42.8345 9.74029 43.5066 10.0381 44.2139 10.0553H45.711V10.2807C45.711 11.2902 44.956 11.8391 42.5063 11.4013V12.7376C45.5133 13.4465 47.1334 12.3749 47.1334 10.627V6.42552C47.1432 6.06528 47.0802 5.70679 46.9484 5.37183C46.8165 5.03687 46.6185 4.73243 46.3664 4.47699C46.1142 4.22155 45.8132 4.02045 45.4817 3.88589C45.1501 3.75133 44.7949 3.68612 44.4375 3.69422ZM45.711 8.62102H44.2269C43.8979 8.59942 43.5895 8.45225 43.3644 8.20947C43.1393 7.96669 43.0143 7.64655 43.015 7.31418V6.42552C43.0052 6.2513 43.0319 6.07694 43.0936 5.91388C43.1552 5.75081 43.2503 5.60273 43.3727 5.47933C43.4951 5.35594 43.642 5.26002 43.8037 5.19787C43.9654 5.13571 44.1384 5.10873 44.3111 5.11868H44.4472C44.6186 5.1105 44.7897 5.13888 44.9494 5.20197C45.1091 5.26506 45.2538 5.36144 45.374 5.4848C45.4942 5.60817 45.5872 5.75573 45.6469 5.91784C45.7067 6.07995 45.7318 6.25295 45.7207 6.42552L45.711 8.62102Z" fill="white"/>
<path d="M52.5966 2.68467C52.8218 2.68212 53.0371 2.59078 53.1964 2.43018C53.3557 2.26959 53.4463 2.05252 53.4488 1.82542C53.4501 1.65363 53.4006 1.48535 53.3068 1.34197C53.2129 1.1986 53.0789 1.08662 52.9217 1.02028C52.7645 0.953943 52.5914 0.936247 52.4242 0.969445C52.257 1.00264 52.1034 1.08523 51.9829 1.20671C51.8625 1.32818 51.7806 1.48305 51.7476 1.6516C51.7147 1.82015 51.7323 1.99477 51.798 2.15324C51.8638 2.3117 51.9749 2.44685 52.1171 2.54148C52.2593 2.63612 52.4262 2.68596 52.5966 2.68467Z" fill="white"/>
<path d="M55.0202 2.68469C55.2462 2.68469 55.4629 2.59416 55.6228 2.43302C55.7826 2.27188 55.8724 2.05332 55.8724 1.82544C55.8724 1.59755 55.7826 1.379 55.6228 1.21786C55.4629 1.05671 55.2462 0.966187 55.0202 0.966187C54.7957 0.971181 54.5818 1.06331 54.4231 1.22338C54.2643 1.38345 54.1729 1.59912 54.168 1.82544C54.1705 2.05253 54.2611 2.26961 54.4204 2.4302C54.5796 2.59079 54.7949 2.68214 55.0202 2.68469Z" fill="white"/>
<path d="M59.803 11.4765C59.6322 11.4772 59.4655 11.5289 59.324 11.6253C59.1825 11.7216 59.0725 11.8581 59.0081 12.0175C58.9436 12.177 58.9276 12.3521 58.962 12.5207C58.9964 12.6893 59.0798 12.8439 59.2014 12.9647C59.323 13.0855 59.4775 13.1672 59.6453 13.1993C59.813 13.2315 59.9864 13.2127 60.1436 13.1453C60.3007 13.0779 60.4344 12.965 60.5278 12.8209C60.6212 12.6767 60.67 12.5079 60.6681 12.3358C60.6631 12.1072 60.5699 11.8896 60.4084 11.7292C60.2468 11.5688 60.0297 11.4781 59.803 11.4765Z" fill="white"/>
<path d="M65.4302 11.251C65.2112 11.2646 65.0055 11.3619 64.8551 11.5231C64.7048 11.6843 64.6211 11.8972 64.6211 12.1185C64.6211 12.3397 64.7048 12.5527 64.8551 12.7138C65.0055 12.875 65.2112 12.9723 65.4302 12.9859C65.6492 12.9723 65.8549 12.875 66.0052 12.7138C66.1556 12.5527 66.2393 12.3397 66.2393 12.1185C66.2393 11.8972 66.1556 11.6843 66.0052 11.5231C65.8549 11.3619 65.6492 11.2646 65.4302 11.251Z" fill="white"/>
<path d="M65.9838 8.57203V4.15816H64.5549V8.07869C64.5597 8.15046 64.55 8.22247 64.5261 8.29027C64.5023 8.35808 64.4649 8.42023 64.4164 8.4729C64.3678 8.52557 64.309 8.56763 64.2436 8.59648C64.1783 8.62533 64.1077 8.64036 64.0364 8.64064H61.4668C60.7475 8.64064 60.5142 8.17997 60.5142 7.61803V7.40567C60.5205 7.28923 60.5205 7.17253 60.5142 7.05609V4.16796H59.0787V7.64744C59.0787 8.18324 58.8552 8.62757 58.1391 8.62757H57.1508C57.0438 8.63321 56.9368 8.61611 56.8367 8.57739C56.7367 8.53867 56.6459 8.47918 56.5701 8.40279C56.4943 8.3264 56.4353 8.2348 56.3969 8.13394C56.3585 8.03308 56.3416 7.92521 56.3472 7.81733V3.68443H53.5378C53.1799 3.67721 52.8242 3.74335 52.4924 3.87884C52.1606 4.01433 51.8595 4.21635 51.6074 4.47265C51.3554 4.72896 51.1575 5.03421 51.0259 5.3699C50.8943 5.70559 50.8317 6.06472 50.8419 6.42554V7.28805C50.8323 8.0033 51.1042 8.69324 51.5979 9.20693C52.0915 9.72063 52.7669 10.0163 53.4763 10.0292C53.836 10.0476 54.1954 9.98569 54.5286 9.84789C54.8619 9.71009 55.1609 9.49978 55.4042 9.23198C55.6165 9.49807 55.8862 9.71174 56.1928 9.8567C56.4994 10.0016 56.8348 10.074 57.1734 10.0684H58.1455C58.4577 10.084 58.7694 10.0293 59.0581 9.9084C59.3467 9.78747 59.605 9.60329 59.8143 9.3692C59.9995 9.58041 60.2255 9.75134 60.4784 9.87155C60.7314 9.99176 61.0059 10.0587 61.2854 10.0684H64.4998C64.6954 10.071 64.8895 10.0341 65.0708 9.95983C65.252 9.88557 65.4167 9.77545 65.555 9.63597C65.6933 9.49649 65.8025 9.33049 65.8762 9.14776C65.9498 8.96502 65.9864 8.76926 65.9838 8.57203ZM54.9668 7.899C54.7916 8.12109 54.5674 8.29879 54.3119 8.41792C54.0565 8.53705 53.777 8.5943 53.4957 8.5851C53.3307 8.58047 53.1683 8.54288 53.0178 8.47452C52.8674 8.40615 52.7318 8.30836 52.6191 8.18681C52.5064 8.06526 52.4187 7.92237 52.3612 7.76641C52.3036 7.61045 52.2773 7.44453 52.2838 7.27825V6.42554C52.2727 6.25296 52.2978 6.07996 52.3576 5.91785C52.4173 5.75574 52.5103 5.60818 52.6305 5.48482C52.7507 5.36146 52.8954 5.26508 53.0551 5.20198C53.2148 5.13889 53.3859 5.11051 53.5573 5.11869H54.9668V7.899Z" fill="white"/>
<path d="M63.0075 11.2511C62.8901 11.2438 62.7724 11.2609 62.6618 11.3012C62.5512 11.3415 62.4499 11.4042 62.3642 11.4854C62.2785 11.5667 62.2102 11.6648 62.1635 11.7737C62.1169 11.8825 62.0928 11.9999 62.0928 12.1185C62.0928 12.2371 62.1169 12.3545 62.1635 12.4633C62.2102 12.5722 62.2785 12.6703 62.3642 12.7516C62.4499 12.8328 62.5512 12.8955 62.6618 12.9358C62.7724 12.9761 62.8901 12.9932 63.0075 12.9859C63.2266 12.9724 63.4322 12.8751 63.5826 12.7139C63.7329 12.5527 63.8166 12.3398 63.8166 12.1185C63.8166 11.8972 63.7329 11.6843 63.5826 11.5231C63.4322 11.3619 63.2266 11.2646 63.0075 11.2511Z" fill="white"/>
<path d="M77.7704 2.95914C77.9397 2.95785 78.1048 2.90614 78.245 2.81051C78.3852 2.71488 78.4943 2.5796 78.5585 2.42167C78.6227 2.26374 78.6391 2.0902 78.6058 1.92287C78.5725 1.75553 78.4908 1.60187 78.3711 1.48118C78.2514 1.3605 78.099 1.27817 77.933 1.24456C77.7671 1.21094 77.595 1.22754 77.4383 1.29225C77.2817 1.35697 77.1475 1.46693 77.0527 1.6083C76.9578 1.74967 76.9066 1.91615 76.9053 2.08683C76.9053 2.31818 76.9964 2.54006 77.1587 2.70365C77.3209 2.86724 77.541 2.95914 77.7704 2.95914Z" fill="white"/>
<path d="M82.9124 8.07217C82.9179 8.14544 82.9081 8.21906 82.8835 8.28822C82.8589 8.35738 82.8201 8.42053 82.7696 8.47356C82.7192 8.52658 82.6582 8.56829 82.5907 8.59595C82.5232 8.62362 82.4506 8.63662 82.3778 8.63411H80.9845V7.5331C80.9845 4.97822 79.9346 3.77919 77.8316 3.77919C76.4578 3.77919 75.2718 4.72665 74.3062 5.83747V4.40648H72.8837V8.63411H70.9201V4.06016H69.4846V10.2187C69.4934 10.3853 69.4674 10.552 69.4085 10.708C69.3495 10.8639 69.2588 11.0057 69.1422 11.1242C69.0256 11.2427 68.8857 11.3352 68.7315 11.3959C68.5773 11.4566 68.4122 11.484 68.2468 11.4765H67.6279V12.9108H68.2468C68.5998 12.9188 68.9507 12.8547 69.2784 12.7222C69.6061 12.5898 69.9039 12.3919 70.1537 12.1403C70.4035 11.8888 70.6001 11.5888 70.7319 11.2586C70.8636 10.9283 70.9276 10.5746 70.9201 10.2187V10.0684H82.8606C83.0546 10.0688 83.2467 10.0303 83.4257 9.95496C83.6046 9.87965 83.7669 9.76908 83.903 9.62973C84.0391 9.49039 84.1463 9.32507 84.2182 9.14345C84.2901 8.96183 84.3254 8.76757 84.322 8.57204V1.3844H82.8995L82.9124 8.07217ZM79.6138 8.63411H74.3062V7.20639C75.4079 5.89954 76.5323 5.21018 77.6567 5.21018C78.7811 5.21018 79.6009 5.88321 79.6009 7.5429L79.6138 8.63411Z" fill="white"/>
<path d="M87.4489 1.38763H86.0264V10.0651H87.4489V1.38763Z" fill="white"/>
<path d="M91.8008 3.69422H91.6647C91.3067 3.68572 90.9506 3.75056 90.6182 3.88482C90.2857 4.01907 89.9837 4.21994 89.7305 4.47528C89.4772 4.73062 89.278 5.03511 89.1448 5.37033C89.0117 5.70555 88.9474 6.06452 88.9558 6.42552V7.31091C88.9462 8.0248 89.2166 8.71363 89.7081 9.22757C90.1996 9.74151 90.8725 10.039 91.5805 10.0553H93.071V10.2807C93.071 11.2902 92.3192 11.8391 89.8696 11.4013V12.7376C92.8733 13.4465 94.4935 12.3749 94.4935 10.627V6.42552C94.5032 6.06556 94.4404 5.70735 94.3087 5.37261C94.177 5.03788 93.9793 4.73359 93.7275 4.4782C93.4757 4.2228 93.1751 4.02163 92.8439 3.88687C92.5128 3.75211 92.1579 3.68657 91.8008 3.69422ZM93.071 8.62102H91.5869C91.258 8.59942 90.9496 8.45225 90.7244 8.20947C90.4993 7.96669 90.3744 7.64655 90.3751 7.31418V6.42552C90.3652 6.2513 90.392 6.07694 90.4536 5.91388C90.5152 5.75081 90.6104 5.60273 90.7328 5.47933C90.8551 5.35594 91.002 5.26002 91.1637 5.19787C91.3255 5.13571 91.4984 5.10873 91.6712 5.11868H91.8073C91.9786 5.1105 92.1497 5.13888 92.3094 5.20197C92.4691 5.26506 92.6138 5.36144 92.734 5.4848C92.8542 5.60817 92.9472 5.75573 93.007 5.91784C93.0667 6.07995 93.0919 6.25295 93.0807 6.42552L93.071 8.62102Z" fill="white"/>
<path d="M102.361 2.86112C102.58 2.84756 102.786 2.75027 102.936 2.58908C103.086 2.4279 103.17 2.21497 103.17 1.9937C103.17 1.77243 103.086 1.5595 102.936 1.39831C102.786 1.23713 102.58 1.13984 102.361 1.12628C102.142 1.13984 101.936 1.23713 101.786 1.39831C101.635 1.5595 101.552 1.77243 101.552 1.9937C101.552 2.21497 101.635 2.4279 101.786 2.58908C101.936 2.75027 102.142 2.84756 102.361 2.86112Z" fill="white"/>
<path d="M99.9365 2.86108C100.106 2.86042 100.272 2.80921 100.413 2.7139C100.554 2.61858 100.664 2.48339 100.729 2.3253C100.794 2.1672 100.812 1.99324 100.779 1.82524C100.746 1.65724 100.665 1.50269 100.546 1.38097C100.427 1.25925 100.274 1.17579 100.108 1.14106C99.9418 1.10633 99.7691 1.12188 99.6116 1.18575C99.454 1.24962 99.3187 1.35898 99.2226 1.50009C99.1265 1.64121 99.0739 1.8078 99.0713 1.97896C99.0701 2.09434 99.0915 2.20883 99.1344 2.31579C99.1773 2.42276 99.2408 2.52009 99.3213 2.60213C99.4018 2.68417 99.4976 2.74931 99.6032 2.79376C99.7088 2.8382 99.8221 2.86109 99.9365 2.86108Z" fill="white"/>
<path d="M101 3.6844H100.803C100.456 3.68354 100.112 3.75156 99.7915 3.88458C99.4708 4.0176 99.1792 4.21301 98.9334 4.45966C98.6876 4.7063 98.4923 4.99936 98.3588 5.32208C98.2253 5.64481 98.1562 5.99088 98.1553 6.34055V7.3991C98.1532 7.74963 98.2202 8.09708 98.3527 8.42118C98.4851 8.74529 98.6802 9.03955 98.9267 9.28681C99.1731 9.53407 99.4659 9.72936 99.788 9.8613C100.11 9.99323 100.455 10.0592 100.803 10.0553H101.11C101.444 10.0544 101.773 9.98723 102.081 9.8576C102.388 9.72796 102.667 9.53841 102.901 9.29983C103.136 9.06124 103.322 8.77831 103.447 8.46728C103.573 8.15624 103.637 7.82322 103.635 7.48731V6.34055C103.636 5.9915 103.568 5.64572 103.436 5.32307C103.304 5.00042 103.11 4.70726 102.865 4.46044C102.62 4.21363 102.329 4.01801 102.009 3.88483C101.689 3.75165 101.347 3.68353 101 3.6844ZM102.212 7.54938C102.213 7.82993 102.105 8.09957 101.91 8.30007C101.715 8.50058 101.45 8.61585 101.172 8.621H100.812C100.49 8.61756 100.182 8.48592 99.9546 8.25469C99.7277 8.02347 99.6005 7.71131 99.6005 7.38603V6.34055C99.5956 6.17874 99.6235 6.01762 99.6827 5.86712C99.7418 5.71662 99.8309 5.57993 99.9445 5.46545C100.058 5.35098 100.194 5.26116 100.343 5.20152C100.492 5.14187 100.652 5.11367 100.812 5.11866H101.01C101.171 5.11367 101.33 5.14187 101.48 5.20152C101.629 5.26116 101.764 5.35098 101.878 5.46545C101.991 5.57993 102.081 5.71662 102.14 5.86712C102.199 6.01762 102.227 6.17874 102.222 6.34055L102.212 7.54938Z" fill="white"/>
<path d="M118.728 2.92317C118.899 2.92511 119.066 2.87587 119.209 2.78171C119.352 2.68755 119.464 2.55271 119.531 2.39428C119.598 2.23586 119.617 2.06099 119.585 1.89186C119.553 1.72273 119.472 1.56696 119.352 1.44431C119.232 1.32167 119.079 1.23766 118.912 1.20296C118.744 1.16826 118.571 1.18442 118.413 1.24939C118.254 1.31437 118.119 1.42524 118.024 1.56792C117.928 1.71061 117.877 1.87869 117.876 2.05085C117.877 2.2797 117.966 2.49914 118.126 2.66218C118.285 2.82522 118.501 2.9189 118.728 2.92317Z" fill="white"/>
<path d="M121.661 8.07217C121.666 8.14432 121.657 8.21681 121.633 8.28505C121.609 8.35329 121.572 8.4158 121.523 8.46863C121.473 8.52145 121.414 8.56343 121.348 8.59191C121.282 8.6204 121.211 8.63477 121.139 8.63411H119.471V4.06016H118.038V10.2187C118.047 10.3853 118.021 10.552 117.962 10.708C117.903 10.8639 117.813 11.0057 117.696 11.1242C117.579 11.2427 117.439 11.3352 117.285 11.3959C117.131 11.4566 116.966 11.484 116.801 11.4765H116.182V12.9108H116.801C117.153 12.9183 117.504 12.8539 117.831 12.7213C118.158 12.5887 118.456 12.3906 118.705 12.1391C118.955 11.8876 119.151 11.5878 119.283 11.2578C119.414 10.9277 119.478 10.5743 119.471 10.2187V10.0684H121.609C121.804 10.0706 121.998 10.0333 122.178 9.95879C122.359 9.88425 122.523 9.77396 122.66 9.63444C122.797 9.49491 122.906 9.329 122.979 9.14651C123.051 8.96403 123.087 8.76868 123.083 8.57204V1.3844H121.661V8.07217Z" fill="white"/>
<path d="M126.197 1.38763H124.774V10.0651H126.197V1.38763Z" fill="white"/>
<path d="M131.895 2.68467C132.121 2.68212 132.336 2.59078 132.495 2.43018C132.654 2.26959 132.745 2.05252 132.748 1.82542C132.749 1.65363 132.699 1.48535 132.606 1.34197C132.512 1.1986 132.378 1.08662 132.221 1.02028C132.063 0.953943 131.89 0.936247 131.723 0.969445C131.556 1.00264 131.402 1.08523 131.282 1.20671C131.161 1.32818 131.079 1.48305 131.046 1.6516C131.014 1.82015 131.031 1.99477 131.097 2.15324C131.163 2.3117 131.274 2.44685 131.416 2.54148C131.558 2.63612 131.725 2.68596 131.895 2.68467Z" fill="white"/>
<path d="M134.32 2.68469C134.546 2.68469 134.763 2.59416 134.923 2.43302C135.082 2.27188 135.172 2.05332 135.172 1.82544C135.172 1.59755 135.082 1.379 134.923 1.21786C134.763 1.05671 134.546 0.966187 134.32 0.966187C134.096 0.971181 133.882 1.06331 133.723 1.22338C133.564 1.38345 133.473 1.59912 133.468 1.82544C133.47 2.05253 133.561 2.26961 133.72 2.4302C133.879 2.59079 134.095 2.68214 134.32 2.68469Z" fill="white"/>
<path d="M140.081 2.25016H138.785C138.654 2.18293 138.543 2.08121 138.465 1.9558C138.387 1.8304 138.344 1.686 138.341 1.53793C138.332 1.47875 138.336 1.41835 138.354 1.36112C138.371 1.30389 138.401 1.25129 138.441 1.20714C138.481 1.163 138.53 1.12843 138.585 1.10596C138.64 1.08349 138.7 1.07369 138.759 1.07726C138.896 1.07975 139.027 1.13552 139.124 1.23293C139.221 1.33034 139.277 1.46185 139.281 1.6H140.01C139.948 0.727683 139.465 0.293157 138.749 0.293157C138.593 0.278935 138.435 0.299289 138.287 0.352804C138.139 0.40632 138.004 0.491711 137.892 0.603034C137.78 0.714358 137.694 0.848941 137.638 0.997418C137.583 1.1459 137.561 1.3047 137.573 1.46278C137.569 1.7578 137.676 2.0434 137.871 2.26322H137.424V3.07347H140.071L140.081 2.25016Z" fill="white"/>
<path d="M142.256 11.2282C142.086 11.2276 141.92 11.278 141.778 11.373C141.636 11.468 141.525 11.6034 141.46 11.7619C141.395 11.9205 141.378 12.095 141.411 12.2633C141.444 12.4317 141.527 12.5862 141.647 12.7074C141.768 12.8285 141.921 12.9108 142.088 12.9437C142.256 12.9766 142.429 12.9587 142.586 12.8923C142.743 12.8259 142.876 12.7139 142.97 12.5706C143.064 12.4273 143.113 12.2591 143.112 12.0875C143.107 11.8606 143.015 11.6445 142.856 11.4843C142.696 11.3241 142.481 11.2324 142.256 11.2282Z" fill="white"/>
<path d="M144.68 11.2282C144.51 11.2276 144.343 11.278 144.202 11.373C144.06 11.468 143.949 11.6034 143.884 11.7619C143.819 11.9205 143.802 12.095 143.835 12.2633C143.868 12.4317 143.95 12.5862 144.071 12.7074C144.192 12.8285 144.345 12.9108 144.512 12.9437C144.679 12.9766 144.852 12.9587 145.009 12.8923C145.166 12.8259 145.3 12.7139 145.394 12.5706C145.488 12.4273 145.537 12.2591 145.536 12.0875C145.533 11.8598 145.442 11.6422 145.282 11.4816C145.122 11.3209 144.906 11.2299 144.68 11.2282Z" fill="white"/>
<path d="M149.343 3.90658V4.63187C148.856 4.7488 148.423 5.02786 148.113 5.42391C147.803 5.81996 147.635 6.30984 147.635 6.8143V7.46772C147.633 7.89511 147.788 8.30822 148.069 8.62755H145.361C144.644 8.62755 144.408 8.16689 144.408 7.60494V7.39258C144.414 7.27614 144.414 7.15944 144.408 7.043V4.16794H142.976V7.64741C142.976 8.18322 142.755 8.62755 142.036 8.62755H140.516C139.787 8.62755 139.564 8.16689 139.564 7.60494V4.16794H138.141V7.61148C138.141 8.17342 137.943 8.63408 137.201 8.63408H136.492C136.385 8.63972 136.278 8.62263 136.178 8.5839C136.078 8.54518 135.987 8.4857 135.911 8.4093C135.835 8.33291 135.776 8.24131 135.738 8.14046C135.7 8.0396 135.683 7.93173 135.688 7.82384V3.68441H132.856C132.498 3.67719 132.143 3.74333 131.811 3.87882C131.479 4.01431 131.178 4.21633 130.926 4.47263C130.674 4.72894 130.476 5.03419 130.344 5.36988C130.213 5.70556 130.15 6.0647 130.16 6.42552V7.28803C130.151 8.00328 130.423 8.69322 130.916 9.20691C131.41 9.72061 132.085 10.0162 132.795 10.0291C133.154 10.0476 133.514 9.98567 133.847 9.84787C134.18 9.71007 134.479 9.49976 134.723 9.23196C134.935 9.49805 135.205 9.71172 135.511 9.85667C135.818 10.0016 136.153 10.074 136.492 10.0683H137.221C137.533 10.0837 137.845 10.029 138.133 9.90806C138.422 9.78714 138.68 9.60308 138.89 9.36918C139.072 9.58031 139.296 9.75134 139.547 9.87161C139.797 9.99189 140.07 10.0589 140.348 10.0683H142.042C142.355 10.0837 142.666 10.029 142.955 9.90806C143.243 9.78714 143.502 9.60308 143.711 9.36918C143.896 9.58069 144.122 9.75182 144.375 9.87205C144.628 9.99229 144.903 10.0591 145.182 10.0683H153.108C153.458 10.0688 153.804 9.99969 154.127 9.86504C154.45 9.7304 154.743 9.53284 154.99 9.28368C155.237 9.03452 155.433 8.73865 155.567 8.41302C155.7 8.0874 155.769 7.73841 155.768 7.38605V6.5268C155.713 4.48159 153.189 2.95911 149.343 3.90658ZM134.259 7.89898C134.084 8.12107 133.86 8.29877 133.604 8.4179C133.349 8.53703 133.069 8.59428 132.788 8.58508C132.623 8.58045 132.461 8.54286 132.31 8.4745C132.16 8.40613 132.024 8.30834 131.912 8.18679C131.799 8.06524 131.711 7.92235 131.654 7.76639C131.596 7.61043 131.57 7.44451 131.576 7.27823V6.42552C131.565 6.25294 131.59 6.07994 131.65 5.91783C131.71 5.75572 131.803 5.60816 131.923 5.4848C132.043 5.36144 132.188 5.26506 132.348 5.20196C132.507 5.13887 132.678 5.11049 132.85 5.11867H134.259V7.89898ZM151.248 8.63408H150.01C149.703 8.61636 149.414 8.48358 149.198 8.26178C148.983 8.03998 148.858 7.74514 148.847 7.43505V6.87964C148.847 6.14454 149.268 5.70675 150.059 5.70675C150.217 5.69101 150.376 5.71032 150.526 5.76332C150.675 5.81632 150.812 5.90172 150.925 6.01352C151.038 6.12532 151.126 6.2608 151.182 6.41044C151.238 6.56008 151.26 6.72023 151.248 6.87964V8.63408ZM153.066 8.63408H152.46V6.91231C152.487 6.47029 152.355 6.03328 152.089 5.68074C151.824 5.3282 151.441 5.08354 151.012 4.99126C152.881 4.80503 154.291 5.54013 154.326 6.5268V7.35011C154.326 7.68839 154.194 8.01301 153.958 8.25343C153.722 8.49385 153.401 8.63064 153.066 8.63408Z" fill="white"/>
<path d="M115.429 7.68663C115.429 8.3163 115.182 8.92028 114.741 9.36614C114.3 9.812 113.701 10.0634 113.077 10.0651H106.658C106.462 10.0682 106.269 10.0317 106.087 9.95772C105.906 9.88378 105.742 9.77392 105.604 9.63465C105.466 9.49539 105.357 9.32956 105.283 9.14702C105.21 8.96448 105.174 8.76894 105.177 8.57201V1.38437H106.596V8.07541C106.591 8.14758 106.601 8.21999 106.625 8.28807C106.65 8.35614 106.688 8.41841 106.737 8.47092C106.786 8.52343 106.846 8.56505 106.912 8.59313C106.978 8.62122 107.049 8.63516 107.121 8.63409H112.989C113.132 8.63138 113.273 8.59934 113.403 8.53993C113.533 8.48052 113.65 8.39499 113.746 8.28857C113.842 8.18215 113.915 8.05708 113.962 7.921C114.009 7.78492 114.027 7.64069 114.016 7.49714C114.016 6.71303 113.433 6.31444 112.656 6.31444H108.949L108.676 5.2461L110.854 1.37457L112.189 1.88751L110.494 4.87691H112.669C113.034 4.87602 113.395 4.94828 113.732 5.08949C114.069 5.2307 114.375 5.43805 114.632 5.69948C114.889 5.96091 115.091 6.27121 115.228 6.61235C115.365 6.95348 115.434 7.31865 115.429 7.68663Z" fill="white"/>
<path d="M6.18471 22.7088V23.8458H0.977539V22.9343L4.34745 17.9029H1.18168V16.7758H6.04213V17.6971L2.69814 22.7088H6.18471Z" fill="white"/>
<path d="M7.69216 19.6475L7.47505 18.8111C9.14705 18.1087 11.4153 18.0564 11.4153 20.2748V23.8294H10.1613V23.1759C9.95702 23.405 9.70714 23.5879 9.42795 23.7129C9.14877 23.8379 8.84658 23.9021 8.54111 23.9012C8.35433 23.91 8.16782 23.8788 7.99384 23.8097C7.81987 23.7406 7.66236 23.6352 7.53168 23.5003C7.401 23.3655 7.3001 23.2043 7.23561 23.0273C7.17112 22.8503 7.1445 22.6616 7.15751 22.4735C7.15751 21.2974 8.29485 20.4904 10.1807 20.5721V20.2944C10.171 19.0496 8.86839 19.1933 7.69216 19.6475ZM8.30457 22.3265C8.30457 22.748 8.6448 22.957 9.0628 22.957C9.2706 22.9559 9.476 22.9121 9.6665 22.8285C9.85701 22.7448 10.0286 22.6229 10.171 22.4703V21.2908C8.90079 21.1569 8.30457 21.8299 8.30457 22.3265Z" fill="white"/>
<path d="M18.3982 19.6475L18.1811 18.8111C19.8401 18.1087 22.1084 18.0564 22.1084 20.2748V23.8294H20.8673V23.1759C20.6631 23.405 20.4132 23.5879 20.134 23.7129C19.8548 23.8379 19.5526 23.9021 19.2472 23.9012C19.0604 23.91 18.8739 23.8788 18.6999 23.8097C18.5259 23.7406 18.3684 23.6352 18.2377 23.5003C18.1071 23.3655 18.0062 23.2043 17.9417 23.0273C17.8772 22.8503 17.8506 22.6616 17.8636 22.4735C17.8636 21.2974 19.0009 20.4904 20.8868 20.5721V20.2944C20.877 19.0496 19.5744 19.1933 18.3982 19.6475ZM19.0106 22.3265C19.0106 22.748 19.3509 22.957 19.7689 22.957C19.9767 22.9559 20.1821 22.9121 20.3726 22.8285C20.5631 22.7448 20.7347 22.6229 20.877 22.4703V21.2908C19.6068 21.1569 19.0106 21.8299 19.0106 22.3265Z" fill="white"/>
<path d="M24.8956 22.4899C24.8874 22.5611 24.8952 22.6333 24.9184 22.7011C24.9417 22.7688 24.9798 22.8304 25.0299 22.8813C25.0801 22.9322 25.1409 22.971 25.208 22.9949C25.275 23.0187 25.3466 23.027 25.4173 23.0192C25.5732 23.0193 25.7286 23.0018 25.8806 22.9669V23.8686C25.5591 23.9205 25.2341 23.9478 24.9085 23.9503C23.9559 23.9503 23.6481 23.4537 23.6481 22.6075V19.6998H23L23.1653 18.7589H23.6545V17.4978L24.8956 17.1907V18.7589H25.9422L25.7769 19.6998H24.8956V22.4899Z" fill="white"/>
<path d="M27.7651 25.5512H27.0166C27.2098 24.818 27.3463 24.0709 27.4249 23.3165L27.4476 22.944H28.3678L28.3289 23.3067C28.2187 24.0725 28.0297 24.8248 27.7651 25.5512Z" fill="white"/>
<path d="M33.3134 17.9029V23.8458H31.9622V17.9029H30.0439V16.7758H35.2284V17.9029H33.3134Z" fill="white"/>
<path d="M36.7908 19.6475L36.5737 18.8111C38.236 18.1087 40.5009 18.0564 40.5009 20.2682V23.8229H39.2599V23.1694C39.0556 23.3985 38.8058 23.5814 38.5266 23.7064C38.2474 23.8314 37.9452 23.8956 37.6397 23.8947C37.453 23.9035 37.2664 23.8723 37.0925 23.8032C36.9185 23.7341 36.761 23.6286 36.6303 23.4938C36.4996 23.359 36.3987 23.1977 36.3342 23.0208C36.2698 22.8438 36.2431 22.6551 36.2561 22.467C36.2561 21.2908 37.3935 20.4839 39.2793 20.5656V20.2878C39.2826 19.0496 37.9865 19.1934 36.7908 19.6475ZM37.4064 22.3265C37.4064 22.748 37.7305 22.9571 38.1647 22.9571C38.372 22.956 38.577 22.9123 38.767 22.8286C38.957 22.7449 39.128 22.623 39.2696 22.4703V21.2908C37.9865 21.1569 37.4064 21.8299 37.4064 22.3265Z" fill="white"/>
<path d="M43.0215 18.6413L43.7505 19.7488L44.1685 20.5232L44.6125 19.7292L45.3286 18.6413H46.6247L44.9462 21.1864L46.6765 23.8523H45.1892L44.4667 22.7481L44.0357 21.9541L43.6047 22.7579L42.9081 23.8458H41.5342L43.2775 21.1798L41.5504 18.6413H43.0215Z" fill="white"/>
<path d="M50.3806 19.6475L50.1668 18.8111C51.8258 18.1087 54.0908 18.0564 54.0908 20.2682V23.8229H52.8497V23.1694C52.6458 23.3988 52.3959 23.582 52.1167 23.707C51.8374 23.832 51.5351 23.896 51.2296 23.8947C51.0428 23.9035 50.8563 23.8723 50.6823 23.8032C50.5083 23.7341 50.3508 23.6286 50.2202 23.4938C50.0895 23.359 49.9886 23.1977 49.9241 23.0208C49.8596 22.8438 49.833 22.6551 49.846 22.467C49.846 21.2908 50.9833 20.4839 52.8692 20.5656V20.2878C52.8627 19.0496 51.5601 19.1934 50.3806 19.6475ZM50.9963 22.3265C50.9963 22.748 51.3203 22.9571 51.7545 22.9571C51.9623 22.9559 52.1677 22.9122 52.3582 22.8285C52.5487 22.7448 52.7204 22.6229 52.8627 22.4703V21.2908C51.5957 21.1569 50.9963 21.8299 50.9963 22.3265Z" fill="white"/>
<path d="M55.4248 23.8229V18.6412H56.6626V19.1182C57.142 18.7389 57.735 18.535 58.3443 18.5399C59.3683 18.5399 59.8932 19.1378 59.8932 20.2225V23.8163H58.6521V20.6309C58.6521 20.0624 58.3962 19.7422 57.8129 19.7422C57.3895 19.7736 56.9867 19.9395 56.6626 20.216V23.8098L55.4248 23.8229Z" fill="white"/>
<path d="M63.0693 23.9078C61.7181 23.9078 61.083 22.748 61.083 21.1994C61.083 19.6508 61.7797 18.491 63.1406 18.491C63.3913 18.4913 63.6392 18.5436 63.8688 18.6448C64.0985 18.746 64.3051 18.8938 64.4756 19.0791V16.7333H65.7037V23.8229H64.4756V23.2871C64.2953 23.4814 64.0776 23.6366 63.8358 23.7433C63.594 23.8501 63.3332 23.906 63.0693 23.9078ZM63.5197 19.5038C62.7939 19.5038 62.3726 20.1147 62.3726 21.1994C62.3726 22.2841 62.7939 22.895 63.5197 22.895C63.8687 22.8896 64.2056 22.7653 64.4756 22.5422V19.8566C64.2028 19.6385 63.8677 19.5148 63.5197 19.5038Z" fill="white"/>
<path d="M72.4275 23.947C70.1852 23.947 69.2617 22.4703 69.2617 20.3107C69.2617 18.1512 70.1852 16.681 72.4275 16.681C73.2462 16.6876 74.054 16.8715 74.7962 17.22V18.2622C74.081 18.003 73.3322 17.85 72.5733 17.8081C71.2772 17.8081 70.6129 18.6576 70.6129 20.3205C70.6129 21.9835 71.2901 22.8199 72.5733 22.8199C73.3319 22.7824 74.0808 22.6327 74.7962 22.3755V23.421C74.0525 23.7636 73.2451 23.9429 72.4275 23.947Z" fill="white"/>
<path d="M80.5758 18.6413V23.8687H79.3348V23.3623C78.8622 23.7574 78.2669 23.9724 77.653 23.97C76.6194 23.97 76.1074 23.3623 76.1074 22.2874V18.6413H77.3485V21.8561C77.3485 22.4246 77.6044 22.7448 78.1877 22.7448C78.6091 22.7089 79.0095 22.5435 79.3348 22.2711V18.6413H80.5758Z" fill="white"/>
<path d="M81.7559 23.5419V22.6108C82.3146 22.8759 82.9209 23.0237 83.538 23.0453C84.306 23.0453 84.5101 22.6728 84.5101 22.4147C84.5101 22.0031 84.0176 21.8463 83.4538 21.6404C82.7247 21.3921 81.8531 21.0622 81.8531 20.0297C81.8531 18.9973 82.6372 18.3145 84.0921 18.3145C84.7011 18.3146 85.3016 18.459 85.8451 18.736V19.6573C85.4139 19.3961 84.9224 19.2531 84.4194 19.2424C83.6093 19.2424 83.2723 19.6148 83.2723 19.9252C83.2723 20.3597 83.8264 20.5231 84.4421 20.7518C85.1582 21.0099 85.9585 21.3497 85.9585 22.2808C85.9585 23.3655 85.0448 23.9862 83.794 23.9862C83.0911 23.9848 82.3965 23.8333 81.7559 23.5419Z" fill="white"/>
<path d="M88.5089 22.4899C88.5005 22.5615 88.5084 22.634 88.5318 22.702C88.5553 22.77 88.5937 22.8318 88.6442 22.8827C88.6947 22.9337 88.756 22.9724 88.8235 22.996C88.8909 23.0197 88.9628 23.0276 89.0338 23.0192C89.1886 23.0194 89.343 23.0018 89.4939 22.9669V23.8686C89.1724 23.9205 88.8474 23.9478 88.5218 23.9503C87.5659 23.9503 87.2613 23.4537 87.2613 22.6075V19.6998H86.6133L86.7785 18.7589H87.2711V17.4978L88.5089 17.1907V18.7589H89.5555L89.3902 19.6998H88.5089V22.4899Z" fill="white"/>
<path d="M90.3838 21.1994C90.3838 19.6704 91.142 18.491 92.7946 18.491C94.4471 18.491 95.2021 19.6704 95.2021 21.1994C95.2021 22.7284 94.4439 23.9078 92.7946 23.9078C91.1453 23.9078 90.3838 22.7284 90.3838 21.1994ZM91.5309 21.1994C91.5309 22.2122 91.9327 23.0061 92.7946 23.0061C93.6565 23.0061 94.0324 22.2122 94.0324 21.1994C94.0324 20.1866 93.6533 19.3894 92.7946 19.3894C91.9359 19.3894 91.5309 20.1866 91.5309 21.1994Z" fill="white"/>
<path d="M104.037 20.216V23.8098H102.793V20.6309C102.793 20.0625 102.537 19.7423 101.95 19.7423C101.532 19.7776 101.136 19.9484 100.823 20.2291C100.842 20.3621 100.849 20.4966 100.845 20.6309V23.8229H99.6139V20.6309C99.6139 20.0625 99.358 19.7423 98.7747 19.7423C98.3637 19.7732 97.9743 19.9397 97.6665 20.216V23.8098H96.4287V18.6413H97.6665V19.3274C97.8686 19.0856 98.1192 18.8899 98.4018 18.753C98.6845 18.6162 98.9927 18.5413 99.3061 18.5334C100.003 18.5334 100.466 18.8112 100.68 19.3894C101.286 18.8014 101.84 18.5334 102.485 18.5334C103.525 18.5334 104.037 19.1313 104.037 20.216Z" fill="white"/>
<path d="M105.215 23.5419V22.6108C105.775 22.8756 106.382 23.0234 107 23.0453C107.768 23.0453 107.972 22.6728 107.972 22.4147C107.972 22.0031 107.48 21.8463 106.916 21.6404C106.19 21.3921 105.319 21.0622 105.319 20.0297C105.319 18.9973 106.096 18.3145 107.554 18.3145C108.162 18.3142 108.762 18.4586 109.304 18.736V19.6573C108.874 19.3962 108.384 19.2532 107.882 19.2424C107.072 19.2424 106.731 19.6148 106.731 19.9252C106.731 20.3597 107.285 20.5231 107.901 20.7518C108.617 21.0099 109.418 21.3497 109.418 22.2808C109.418 23.3655 108.507 23.9862 107.256 23.9862C106.552 23.9851 105.857 23.8337 105.215 23.5419Z" fill="white"/>
<path d="M114.389 22.1403L113.848 23.8457H112.513L115.124 16.7234H116.233L118.763 23.8457H117.389L116.839 22.1403H114.389ZM114.635 21.1275H116.615L115.643 18.1512L114.635 21.1275Z" fill="white"/>
<path d="M124.241 18.6413V23.8687H123V23.3623C122.528 23.7569 121.934 23.972 121.321 23.97C120.284 23.97 119.772 23.3623 119.772 22.2874V18.6413H121.014V21.8561C121.014 22.4246 121.269 22.7448 121.853 22.7448C122.274 22.7089 122.675 22.5435 123 22.2711V18.6413H124.241Z" fill="white"/>
<path d="M127.029 22.4899C127.02 22.5613 127.027 22.6337 127.05 22.7018C127.073 22.7698 127.111 22.8317 127.162 22.8827C127.212 22.9337 127.273 22.9725 127.34 22.9962C127.408 23.0198 127.48 23.0277 127.55 23.0192C127.705 23.0194 127.86 23.0018 128.011 22.9669V23.8686C127.689 23.9205 127.364 23.9478 127.038 23.9503C126.086 23.9503 125.778 23.4537 125.778 22.6075V19.6998H125.13L125.295 18.7589H125.797V17.4978L127.038 17.1907V18.7589H128.066L127.904 19.6998H127.029V22.4899Z" fill="white"/>
<path d="M133.474 20.216V23.8098H132.233V20.6309C132.233 20.0527 131.967 19.7619 131.475 19.7521C131.028 19.7735 130.598 19.9357 130.247 20.216V23.8098H129.006V16.7758H130.247V19.0627C130.692 18.7057 131.237 18.4998 131.805 18.4747C132.778 18.4714 133.474 19.0595 133.474 20.216Z" fill="white"/>
<path d="M134.663 21.1994C134.663 19.6704 135.421 18.491 137.074 18.491C138.726 18.491 139.481 19.6704 139.481 21.1994C139.481 22.7284 138.723 23.9078 137.074 23.9078C135.425 23.9078 134.663 22.7284 134.663 21.1994ZM135.81 21.1994C135.81 22.2122 136.212 23.0061 137.074 23.0061C137.936 23.0061 138.312 22.2122 138.312 21.1994C138.312 20.1866 137.933 19.3894 137.074 19.3894C136.215 19.3894 135.81 20.1866 135.81 21.1994Z" fill="white"/>
<path d="M140.704 23.8229V18.6412H141.942V19.6214C142.118 19.3129 142.375 19.0586 142.683 18.886C142.992 18.7133 143.342 18.6287 143.695 18.6412V19.6214C142.998 19.5364 142.107 20.0951 141.952 20.5721V23.8392L140.704 23.8229Z" fill="white"/>
<path d="M144.556 17.5206C144.556 17.3914 144.594 17.265 144.665 17.1576C144.736 17.0501 144.837 16.9664 144.956 16.9169C145.074 16.8675 145.204 16.8545 145.33 16.8797C145.456 16.905 145.571 16.9672 145.662 17.0586C145.753 17.15 145.814 17.2664 145.839 17.3931C145.864 17.5199 145.852 17.6513 145.802 17.7707C145.753 17.8901 145.67 17.9921 145.564 18.0639C145.457 18.1357 145.332 18.174 145.204 18.174C145.032 18.174 144.867 18.1052 144.745 17.9826C144.624 17.8601 144.556 17.6939 144.556 17.5206ZM145.836 23.8229H144.591V18.7719H145.832L145.836 23.8229Z" fill="white"/>
<path d="M148.972 22.4899C148.963 22.5613 148.97 22.6337 148.993 22.7018C149.016 22.7698 149.054 22.8317 149.105 22.8827C149.155 22.9337 149.216 22.9725 149.283 22.9962C149.351 23.0198 149.423 23.0277 149.493 23.0192C149.649 23.0191 149.805 23.0016 149.957 22.9669V23.8686C149.635 23.9205 149.31 23.9478 148.985 23.9503C148.032 23.9503 147.724 23.4537 147.724 22.6075V19.6998H147.076L147.238 18.7589H147.731V17.4978L148.972 17.1907V18.7589H150.018L149.853 19.6998H148.972V22.4899Z" fill="white"/>
<path d="M155.801 18.6413L153.309 25.7113H152.13L152.655 24.2117L150.604 18.6576H151.997L153.218 22.6892L154.466 18.6413H155.801Z" fill="white"/>
<path d="M17.0439 23.8196H15.589L13.9526 21.4281V23.8196H12.7148V16.7758H13.9526V20.7878L15.4983 18.5171H16.8884L15.0381 21.0295L17.0439 23.8196Z" fill="white"/>
</svg>
