<svg width="56" height="56" viewBox="0 0 56 56" fill="none" xmlns="http://www.w3.org/2000/svg">
<g clip-path="url(#clip0_628_2387)">
<path d="M45.6414 40.6656C42.4039 40.6656 39.768 38.0297 39.768 34.7922C39.768 32.0141 41.7367 29.586 44.4602 29.0391L44.6789 30.1109C42.4695 30.5594 40.8617 32.5391 40.8617 34.8031C40.8617 37.4391 43.0055 39.5828 45.6414 39.5828C48.2773 39.5828 50.4211 37.4391 50.4211 34.8031C50.4211 32.55 48.8242 30.5813 46.6148 30.1219L46.8336 29.05C49.5461 29.6188 51.5039 32.036 51.5039 34.8031C51.5148 38.0297 48.8789 40.6656 45.6414 40.6656ZM10.182 40.6656C6.94453 40.6656 4.30859 38.0297 4.30859 34.7922C4.30859 31.5547 6.94453 28.9188 10.182 28.9188C13.4195 28.9188 16.0555 31.5547 16.0555 34.7922C16.0555 38.0297 13.4195 40.6656 10.182 40.6656ZM10.182 30.0016C7.54609 30.0016 5.40234 32.1453 5.40234 34.7813C5.40234 37.4172 7.54609 39.561 10.182 39.561C12.818 39.561 14.9617 37.4172 14.9617 34.7813C14.9617 32.1453 12.818 30.0016 10.182 30.0016Z" fill="#979797"/>
<path d="M10.1824 37.9531C8.44336 37.9531 7.02148 36.5312 7.02148 34.7922C7.02148 33.0531 8.44336 31.6312 10.1824 31.6312C11.9215 31.6312 13.3434 33.0531 13.3434 34.7922C13.3434 36.5312 11.9215 37.9531 10.1824 37.9531ZM10.1824 32.725C9.04492 32.725 8.11523 33.6547 8.11523 34.7922C8.11523 35.9297 9.03398 36.8594 10.1824 36.8594C11.3309 36.8594 12.2496 35.9297 12.2496 34.7922C12.2496 33.6547 11.3199 32.725 10.1824 32.725ZM45.6199 37.9531C43.8809 37.9531 42.459 36.5312 42.459 34.7922C42.459 33.0531 43.8809 31.6312 45.6199 31.6312C47.359 31.6312 48.7809 33.0531 48.7809 34.7922C48.7809 36.5312 47.359 37.9531 45.6199 37.9531ZM45.6199 32.725C44.4824 32.725 43.5527 33.6547 43.5527 34.7922C43.5527 35.9297 44.4824 36.8594 45.6199 36.8594C46.7574 36.8594 47.6871 35.9297 47.6871 34.7922C47.6871 33.6547 46.7574 32.725 45.6199 32.725ZM50.0059 28.7219H48.9449C48.0152 28.7219 47.2496 27.9562 47.2496 27.0266C47.2496 26.0969 48.0152 25.3312 48.9449 25.3312H50.0059C50.9355 25.3312 51.7012 26.0969 51.7012 27.0266C51.7012 27.9562 50.9355 28.7219 50.0059 28.7219ZM48.9449 26.425C48.6168 26.425 48.3434 26.6984 48.3434 27.0266C48.3434 27.3547 48.6168 27.6281 48.9449 27.6281H50.0059C50.334 27.6281 50.6074 27.3547 50.6074 27.0266C50.6074 26.6984 50.334 26.425 50.0059 26.425H48.9449ZM4.9543 36.4H1.34492C1.07148 36.4 0.841797 36.2031 0.798047 35.9297L-0.000390626 30.2422C-0.0222656 30.089 0.0214844 29.925 0.130859 29.8047C0.229297 29.6844 0.382422 29.6187 0.546484 29.6187H1.79336L3.12773 23.0562C3.13867 23.0125 3.14961 22.9687 3.17148 22.9359L6.6168 15.6406C6.7043 15.4547 6.90117 15.3234 7.10898 15.3234H12.5559V16.4172H7.45898L4.18867 23.3406L2.77773 30.275C2.72305 30.5265 2.5043 30.7125 2.2418 30.7125H1.18086L1.82617 35.3062H4.9543V36.4Z" fill="#979797"/>
<path d="M55.4525 36.4H50.8588V35.3062H54.9057V31.4453C54.9057 27.7156 52.1057 24.6422 48.3979 24.2922L41.9557 23.6797C41.8463 23.6687 41.7369 23.625 41.6494 23.5484L35.2729 18.1234C33.9822 17.0187 32.3307 16.4172 30.6354 16.4172H14.7432V15.3234H30.6354C32.5932 15.3234 34.4963 16.0234 35.9838 17.2922L42.2291 22.6078L48.5072 23.1984C50.5635 23.3953 52.4666 24.3359 53.8557 25.8672C55.2447 27.3984 56.0103 29.3781 56.0103 31.4453V35.8531C55.9994 36.1594 55.7588 36.4 55.4525 36.4ZM15.3994 35.3062H40.4135V36.4H15.3994V35.3062Z" fill="#979797"/>
<path d="M55.4527 33.9937H53.9215C52.959 33.9937 52.1715 33.2062 52.1715 32.2437C52.1715 31.2812 52.959 30.4937 53.9215 30.4937H55.4527C55.759 30.4937 55.9996 30.7343 55.9996 31.0406V33.4468C55.9996 33.7531 55.759 33.9937 55.4527 33.9937ZM53.9215 31.5875C53.5605 31.5875 53.2652 31.8828 53.2652 32.2437C53.2652 32.6046 53.5605 32.9 53.9215 32.9H54.9059V31.5875H53.9215ZM18.1559 23.7343H7.98398C7.79805 23.7343 7.63399 23.6359 7.52461 23.4828C7.42617 23.3297 7.4043 23.1328 7.48086 22.9578L9.77773 17.6093C9.86524 17.4125 10.0621 17.2812 10.2809 17.2812H17.609C17.8934 17.2812 18.123 17.489 18.1559 17.7625L18.7027 23.1218C18.7137 23.275 18.6699 23.439 18.5605 23.5484C18.4621 23.6578 18.309 23.7343 18.1559 23.7343ZM8.81523 22.6406H17.5543L17.1168 18.375H10.6418L8.81523 22.6406ZM38.4996 23.7125H20.4527C20.1684 23.7125 19.9387 23.5047 19.9059 23.2203L19.359 17.8609C19.348 17.7078 19.3918 17.5546 19.5012 17.4343C19.5996 17.325 19.7527 17.2593 19.9059 17.2593H29.7496C31.8605 17.2593 33.873 18.0578 35.4043 19.5015L38.8715 22.7609C39.0355 22.914 39.0902 23.1547 39.0027 23.3625C38.9262 23.5812 38.7184 23.7125 38.4996 23.7125ZM20.9449 22.6187H37.1215L34.6605 20.3C33.3262 19.0422 31.5871 18.3531 29.7496 18.3531H20.5074L20.9449 22.6187ZM22.2027 25.8125H26.4684V26.9062H22.2027V25.8125ZM3.71836 36.4H1.34492C1.07148 36.4 0.841797 36.2031 0.798047 35.9297L-0.000390626 30.2422C-0.0222656 30.089 0.0214844 29.925 0.130859 29.8047C0.229297 29.6843 0.382422 29.6187 0.546484 29.6187H2.48242C3.4668 29.6187 4.26523 30.4172 4.26523 31.4015V35.8531C4.26523 36.1593 4.02461 36.4 3.71836 36.4ZM1.82617 35.3062H3.17148V31.4015C3.17148 31.0187 2.86523 30.7125 2.48242 30.7125H1.18086L1.82617 35.3062ZM4.81211 28.875H2.62461C2.46055 28.875 2.30742 28.7875 2.19805 28.6672C2.09961 28.5359 2.05586 28.3718 2.08867 28.2078L2.84336 24.5C2.89805 24.2484 3.1168 24.0625 3.3793 24.0625H4.81211C5.11836 24.0625 5.35898 24.2922 5.35898 24.5875V28.3062C5.35898 28.6125 5.11836 28.875 4.81211 28.875ZM3.2918 27.7812H4.26523V25.1562H3.82773L3.2918 27.7812Z" fill="#979797"/>
</g>
<defs>
<clipPath id="clip0_628_2387">
<rect width="56" height="56" fill="white"/>
</clipPath>
</defs>
</svg>
