<svg width="32" height="32" viewBox="0 0 32 32" fill="none" xmlns="http://www.w3.org/2000/svg">
<path d="M19.2625 27.3194C18.7866 28.3579 18.4721 29.4849 18.3516 30.6668L28.4217 28.5599C28.8976 27.5216 29.2119 26.3944 29.3326 25.2126L19.2625 27.3194Z" fill="#232F3E"/>
<path d="M28.4227 22.2478C28.8986 21.2096 29.2132 20.0824 29.3337 18.9005L21.4893 20.5426V17.386L28.4225 15.9359C28.8984 14.8976 29.2129 13.7704 29.3334 12.5886L21.4891 14.2292V2.87727C20.2871 3.5415 19.2196 4.42566 18.3519 5.46859V14.8857L15.2147 15.542V1.33331C14.0127 1.99731 12.9452 2.88171 12.0774 3.92463V16.1981L5.05792 17.6662C4.58206 18.7044 4.26727 19.8316 4.14652 21.0135L12.0774 19.3546V23.3298L3.57791 25.1074C3.10205 26.1457 2.7875 27.2729 2.66699 28.4547L11.5636 26.5939C12.2879 26.4457 12.9103 26.0243 13.315 25.4443L14.9466 23.0636V23.0631C15.116 22.8168 15.2147 22.5198 15.2147 22.2V18.6983L18.3519 18.0421V24.3552L28.4225 22.2474L28.4227 22.2478Z" fill="#232F3E"/>
</svg>
