<svg width="56" height="56" viewBox="0 0 56 56" fill="none" xmlns="http://www.w3.org/2000/svg">
<g clip-path="url(#clip0_628_2394)">
<path d="M40.6124 20.5205C40.6347 20.6038 40.6404 20.6907 40.6291 20.7762C40.6178 20.8617 40.5898 20.9441 40.5466 21.0188C40.5035 21.0935 40.4461 21.1589 40.3776 21.2114C40.3092 21.2639 40.2311 21.3023 40.1478 21.3246C40.0645 21.3469 39.9776 21.3526 39.8921 21.3413C39.8066 21.33 39.7242 21.302 39.6495 21.2589C39.5748 21.2157 39.5094 21.1583 39.4569 21.0899C39.4044 21.0214 39.3659 20.9433 39.3437 20.86C39.2986 20.6918 39.3223 20.5125 39.4094 20.3617C39.4966 20.2109 39.64 20.1009 39.8083 20.0559C39.9765 20.0109 40.1558 20.0345 40.3066 20.1217C40.4574 20.2088 40.5674 20.3523 40.6124 20.5205ZM35.9688 21.0849C35.8829 21.1047 35.8019 21.1416 35.7307 21.1934C35.6594 21.2452 35.5992 21.3108 35.5539 21.3863C35.5085 21.4618 35.4788 21.5457 35.4665 21.633C35.4542 21.7202 35.4597 21.8091 35.4825 21.8942C35.5053 21.9793 35.545 22.0589 35.5992 22.1284C35.6535 22.1978 35.7212 22.2556 35.7982 22.2983C35.8753 22.341 35.9602 22.3678 36.0478 22.377C36.1354 22.3862 36.224 22.3777 36.3083 22.3519C36.4709 22.3021 36.6079 22.1912 36.6903 22.0425C36.7728 21.8937 36.7943 21.7188 36.7502 21.5545C36.7062 21.3902 36.6002 21.2494 36.4544 21.1618C36.3086 21.0742 36.1345 21.0466 35.9688 21.0849ZM32.1293 22.1139C32.0434 22.1337 31.9624 22.1706 31.8912 22.2224C31.8199 22.2742 31.7597 22.3398 31.7144 22.4153C31.669 22.4908 31.6393 22.5747 31.627 22.662C31.6147 22.7492 31.6202 22.8381 31.643 22.9232C31.6658 23.0083 31.7055 23.0879 31.7597 23.1574C31.814 23.2268 31.8817 23.2846 31.9587 23.3273C32.0358 23.37 32.1207 23.3968 32.2083 23.406C32.2959 23.4152 32.3845 23.4067 32.4688 23.3809C32.6314 23.3311 32.7684 23.2202 32.8508 23.0715C32.9333 22.9227 32.9548 22.7478 32.9107 22.5835C32.8667 22.4192 32.7607 22.2784 32.6149 22.1908C32.4691 22.1032 32.295 22.0756 32.1293 22.1139ZM28.2898 23.1429C28.2039 23.1627 28.1229 23.1996 28.0517 23.2514C27.9804 23.3032 27.9202 23.3688 27.8749 23.4443C27.8295 23.5198 27.7998 23.6037 27.7875 23.691C27.7752 23.7782 27.7807 23.8671 27.8035 23.9522C27.8263 24.0373 27.866 24.1169 27.9202 24.1864C27.9745 24.2558 28.0422 24.3136 28.1192 24.3563C28.1963 24.399 28.2812 24.4258 28.3688 24.435C28.4564 24.4442 28.545 24.4357 28.6293 24.4099C28.7919 24.3601 28.9289 24.2492 29.0113 24.1005C29.0938 23.9517 29.1153 23.7768 29.0712 23.6125C29.0272 23.4482 28.9212 23.3074 28.7754 23.2198C28.6296 23.1322 28.4555 23.1046 28.2898 23.1429ZM24.4503 24.171C24.3644 24.1908 24.2834 24.2277 24.2122 24.2795C24.1409 24.3313 24.0807 24.3969 24.0354 24.4724C23.99 24.548 23.9603 24.6319 23.948 24.7191C23.9357 24.8064 23.9412 24.8952 23.964 24.9803C23.9868 25.0654 24.0265 25.1451 24.0807 25.2145C24.135 25.2839 24.2027 25.3417 24.2797 25.3844C24.3568 25.4271 24.4417 25.4539 24.5293 25.4631C24.6169 25.4723 24.7055 25.4638 24.7898 25.438C24.9524 25.3883 25.0894 25.2773 25.1718 25.1286C25.2543 24.9798 25.2758 24.8049 25.2317 24.6406C25.1877 24.4763 25.0817 24.3355 24.9359 24.2479C24.7901 24.1603 24.616 24.1328 24.4503 24.171ZM54.902 23.9986C53.9352 25.0233 52.4162 25.8361 50.5078 26.3471L36.9855 29.9696L33.2283 36.2399C31.9486 38.3675 30.0053 40.0156 27.6974 40.9308L22.5988 42.9415C22.3699 43.0341 22.1176 43.052 21.8779 42.9926C21.6383 42.9332 21.4235 42.7996 21.2644 42.6108C21.1021 42.425 21.0023 42.1929 20.9791 41.9474C20.9559 41.7018 21.0104 41.4552 21.1349 41.2423L26.0209 32.7801C22.6023 33.509 19.6378 33.8958 17.1178 33.8958C14.6153 33.8958 12.538 33.5178 10.7802 32.8003L9.5429 34.944C9.29189 35.3817 8.95653 35.7652 8.55626 36.0723C8.15598 36.3795 7.69875 36.6042 7.21103 36.7334L5.7069 37.1359C5.49645 37.194 5.27396 37.1922 5.06449 37.1306C4.85502 37.0691 4.66689 36.9503 4.52128 36.7876C4.37441 36.627 4.27479 36.4289 4.23341 36.2152C4.19203 36.0015 4.2105 35.7805 4.28678 35.5766L6.4804 29.6739C6.44715 29.6336 6.41215 29.596 6.37978 29.5558C4.31723 27.0127 2.27463 24.4535 0.252155 21.8785C0.131175 21.7257 0.0502101 21.5452 0.0165911 21.3533C-0.0170279 21.1613 -0.00223906 20.964 0.0596185 20.7792C0.121476 20.5944 0.228449 20.428 0.37085 20.295C0.513252 20.1619 0.686585 20.0665 0.875155 20.0174L4.67441 18.9989C5.04127 18.8997 5.42734 18.8956 5.79626 18.9868C6.16517 19.078 6.5048 19.2617 6.78315 19.5204L11.8757 24.234L23.2148 21.1951L14.4009 16.1061C13.9573 15.8506 13.7324 15.3606 13.8278 14.8575C13.9232 14.3544 14.3125 13.9799 14.8183 13.9046L20.2398 13.0961C22.6802 12.7304 25.2159 13.1924 27.3763 14.392L30.8772 16.338C30.9557 16.378 31.0253 16.4334 31.0819 16.5009C31.1386 16.5684 31.181 16.6467 31.2068 16.7309C31.2325 16.8152 31.241 16.9038 31.2318 16.9914C31.2226 17.079 31.1958 17.1639 31.1531 17.241C31.1103 17.318 31.0525 17.3857 30.9831 17.4399C30.9136 17.4941 30.834 17.5338 30.7489 17.5566C30.6638 17.5794 30.5749 17.5848 30.4877 17.5725C30.4004 17.5603 30.3165 17.5305 30.241 17.4851L26.7393 15.5391C24.8197 14.4771 22.6045 14.0747 20.434 14.3938L15.3695 15.1489L25.0085 20.7139L42.9382 15.9093C46.4417 14.9713 48.9678 16.4789 50.4754 17.381C50.7449 17.542 50.9785 17.6838 51.178 17.7818C53.1468 18.0661 55.4402 19.1686 55.9197 20.9598C56.1787 21.9301 55.8077 23.0379 54.902 23.9986ZM26.9038 31.2515L28.1638 29.0693L15.3258 32.5089C18.3568 32.7626 22.1552 32.3435 26.9038 31.2515ZM54.6509 21.301C54.3368 20.1285 52.4853 19.2771 50.9033 19.0698C50.8391 19.062 50.7765 19.0443 50.7178 19.0173C50.4956 18.9109 50.2789 18.7935 50.0685 18.6655L45.7828 19.8135C45.6147 19.858 45.4358 19.8342 45.2852 19.7473C45.1346 19.6604 45.0244 19.5175 44.9787 19.3498C44.9359 19.1817 44.9604 19.0036 45.047 18.8534C45.1336 18.7032 45.2755 18.5927 45.4424 18.5456L48.42 17.7476C47.1032 17.108 45.4057 16.6075 43.2768 17.178L11.8652 25.5955C11.758 25.6245 11.6452 25.6258 11.5374 25.5991C11.4297 25.5725 11.3305 25.5189 11.2492 25.4433L5.89241 20.4838C5.77673 20.3758 5.63539 20.2992 5.48179 20.2612C5.32819 20.2232 5.16743 20.2251 5.01478 20.2668L1.41328 21.2319C2.16578 22.1909 4.32091 24.9261 7.40091 28.7298C7.50503 28.8584 7.6109 28.9844 7.72028 29.106C7.88653 29.2924 7.91716 29.5453 7.83841 29.764L7.8454 29.7693L5.60278 35.8033L6.87241 35.4638C7.19346 35.3786 7.49442 35.2305 7.75786 35.0282C8.02131 34.8259 8.242 34.5733 8.40716 34.2851L11.3997 29.1025L9.63391 29.5759C9.46583 29.6196 9.28729 29.5955 9.13684 29.5087C8.98639 29.422 8.8761 29.2795 8.82978 29.1121C8.80741 29.0289 8.80167 28.942 8.81287 28.8566C8.82407 28.7711 8.852 28.6887 8.89507 28.614C8.93813 28.5393 8.99549 28.4739 9.06386 28.4214C9.13223 28.3689 9.21027 28.3303 9.29353 28.308L11.3515 27.7559C11.5783 27.695 11.818 27.7027 12.0403 27.778C12.2627 27.8534 12.4577 27.993 12.6007 28.1793C12.7436 28.3655 12.8281 28.59 12.8434 28.8243C12.8588 29.0585 12.8043 29.2921 12.6868 29.4954L11.4434 31.6488C11.7234 31.7573 11.9982 31.871 12.2983 31.9603L29.0922 27.4593L29.5262 26.7076C29.5679 26.6306 29.6247 26.5626 29.6931 26.5079C29.7615 26.4531 29.8402 26.4126 29.9246 26.3887C30.0089 26.3648 30.0972 26.3581 30.1842 26.3689C30.2711 26.3797 30.3551 26.4079 30.431 26.4517C30.5069 26.4954 30.5733 26.554 30.6263 26.6239C30.6792 26.6937 30.7176 26.7735 30.7392 26.8584C30.7608 26.9434 30.7652 27.0318 30.7521 27.1185C30.7389 27.2051 30.7086 27.2883 30.6628 27.363L22.4527 41.5879L27.217 39.7093C29.2561 38.9016 30.973 37.4458 32.103 35.5661L38.9228 24.1859C38.9671 24.1119 39.0255 24.0474 39.0947 23.9961C39.1639 23.9447 39.2426 23.9075 39.3262 23.8865C39.4098 23.8655 39.4967 23.8612 39.582 23.8739C39.6673 23.8865 39.7492 23.9158 39.8232 23.9601C39.9164 24.0176 39.9934 24.098 40.047 24.1935C40.1006 24.289 40.1289 24.3966 40.1294 24.5061L52.074 21.3054C52.1573 21.2831 52.2441 21.2774 52.3296 21.2887C52.415 21.2999 52.4974 21.3279 52.572 21.371C52.6466 21.4141 52.712 21.4715 52.7645 21.5399C52.817 21.6083 52.8554 21.6863 52.8777 21.7696C52.9 21.8528 52.9057 21.9396 52.8944 22.0251C52.8832 22.1105 52.8552 22.1929 52.8121 22.2676C52.769 22.3422 52.7116 22.4076 52.6432 22.46C52.5748 22.5125 52.4968 22.551 52.4135 22.5733L39.3157 26.0829L37.955 28.3535L50.1674 25.081C52.2814 24.5149 53.3892 23.6915 53.9465 23.1C54.5249 22.4858 54.7883 21.8138 54.6509 21.301ZM20.6108 25.2C20.5249 25.2198 20.4439 25.2567 20.3727 25.3085C20.3014 25.3603 20.2412 25.4259 20.1959 25.5014C20.1505 25.577 20.1208 25.6609 20.1085 25.7481C20.0962 25.8354 20.1017 25.9242 20.1245 26.0093C20.1473 26.0944 20.187 26.1741 20.2412 26.2435C20.2955 26.3129 20.3632 26.3707 20.4402 26.4134C20.5173 26.4561 20.6022 26.4829 20.6898 26.4921C20.7774 26.5013 20.866 26.4928 20.9503 26.467C21.1129 26.4173 21.2499 26.3063 21.3323 26.1576C21.4148 26.0088 21.4363 25.8339 21.3922 25.6696C21.3482 25.5053 21.2422 25.3645 21.0964 25.2769C20.9506 25.1893 20.7765 25.1618 20.6108 25.2Z" fill="#F06A26"/>
</g>
<defs>
<clipPath id="clip0_628_2394">
<rect width="56" height="56" fill="white"/>
</clipPath>
</defs>
</svg>
