<svg width="56" height="56" viewBox="0 0 56 56" fill="none" xmlns="http://www.w3.org/2000/svg">
<g clip-path="url(#clip0_628_1881)">
<path d="M14.9256 36.6551L12.7462 34.4758C12.4165 34.1453 12.4447 33.5984 12.8126 33.3117C14.3501 32.1117 16.2704 31.6398 18.1095 31.8961M24.104 37.8906C24.3603 39.7297 23.8884 41.65 22.6884 43.1875C22.4017 43.5554 21.8548 43.5836 21.5243 43.2539L19.345 41.0745" stroke="#979797" stroke-width="1.754" stroke-miterlimit="10" stroke-linecap="round" stroke-linejoin="round"/>
<path d="M31.0579 38.2104L17.7894 24.9419M46.2122 20.1934L35.8063 9.78757M15.0247 28.8115C14.7196 28.5064 14.7196 28.0117 15.0247 27.7066L28.57 14.1612C35.0636 7.66765 44.0214 8.69608 46.2806 9.08249C46.4396 9.10963 46.5862 9.18547 46.7003 9.29952C46.8143 9.41357 46.8901 9.56022 46.9173 9.71921C47.3037 11.9783 48.3321 20.9362 41.8385 27.4298L28.2931 40.9751C27.9881 41.2802 27.4934 41.2802 27.1883 40.9751L15.0247 28.8115Z" stroke="#979797" stroke-width="1.754" stroke-miterlimit="10" stroke-linejoin="round"/>
<path d="M32.7168 28.3615C35.5214 28.3615 37.7949 26.0879 37.7949 23.2833C37.7949 20.4788 35.5214 18.2052 32.7168 18.2052C29.9122 18.2052 27.6387 20.4788 27.6387 23.2833C27.6387 26.0879 29.9122 28.3615 32.7168 28.3615Z" stroke="#979797" stroke-width="1.754" stroke-miterlimit="10" stroke-linejoin="round"/>
<path d="M29.3994 39.869L33.6604 44.13C33.9833 44.453 34.5137 44.4321 34.8085 44.0832C35.9943 42.6799 37.5419 40.4753 38.6013 37.4549C39.7608 34.1493 39.8468 31.2605 39.7654 29.503M16.1308 26.6005L11.8698 22.3395C11.5468 22.0165 11.5677 21.4861 11.9166 21.1914C13.32 20.0055 15.5245 18.458 18.545 17.3985C21.8506 16.239 24.7394 16.1531 26.4969 16.2345" stroke="#979797" stroke-width="1.754" stroke-miterlimit="10" stroke-linejoin="round"/>
<path d="M8.78125 47.2188L14.3732 41.6268M8.78125 41.6945L11.6111 38.8646M14.3055 47.2188L17.1354 44.3889" stroke="#979797" stroke-width="1.754" stroke-miterlimit="10" stroke-linecap="round" stroke-linejoin="round"/>
</g>
<defs>
<clipPath id="clip0_628_1881">
<rect width="40" height="40" fill="white" transform="translate(8 8)"/>
</clipPath>
</defs>
</svg>
