<svg width="44" height="26" viewBox="0 0 44 26" fill="none" xmlns="http://www.w3.org/2000/svg">
<path d="M12.5766 25.1531C19.5224 25.1531 25.1531 19.5224 25.1531 12.5766C25.1531 5.63072 19.5224 0 12.5766 0C5.63072 0 0 5.63072 0 12.5766C0 19.5224 5.63072 25.1531 12.5766 25.1531Z" fill="#EA001B"/>
<path d="M30.5434 25.1531C37.4892 25.1531 43.1199 19.5224 43.1199 12.5766C43.1199 5.63072 37.4892 0 30.5434 0C23.5975 0 17.9668 5.63072 17.9668 12.5766C17.9668 19.5224 23.5975 25.1531 30.5434 25.1531Z" fill="#FFB533"/>
<path d="M21.5576 3.78027C23.7787 6.04835 25.1504 9.15188 25.1504 12.5771C25.1503 16.0022 23.7786 19.1051 21.5576 21.373C19.337 19.1051 17.9659 16.0019 17.9658 12.5771C17.9658 9.15215 19.3368 6.04831 21.5576 3.78027Z" fill="#FB8205"/>
</svg>
