<svg width="72" height="23" viewBox="0 0 72 23" fill="none" xmlns="http://www.w3.org/2000/svg">
<path d="M5.65829 5.33885C5.1314 4.63927 4.36398 4.25881 3.40184 4.25881C1.4203 4.25881 0 5.94023 0 8.34578C0 10.7636 1.4203 12.4573 3.40184 12.4573C4.37544 12.4573 5.14286 12.0768 5.65829 11.365V15.2556H7.37639V4.46745H5.65829V5.33885ZM5.65829 9.33991C5.29176 10.1622 4.63888 10.7268 3.69965 10.7268C2.55425 10.7268 1.79828 9.83084 1.79828 8.33351C1.79828 6.86073 2.5657 5.97706 3.69965 5.97706C4.62743 5.97706 5.29176 6.54162 5.65829 7.35166V9.33991ZM8.92269 4.46745H12.1756V12.2364H10.4117V6.13661H8.93414V4.46745H8.92269ZM10.4003 0.883673H12.1756V3.03148H10.4117V0.883673H10.4003ZM16.3793 4.46745H18.693V6.13661H16.3793V9.85539C16.3793 10.3463 16.6198 10.5672 17.0092 10.5672H18.693V12.2364H16.8718C15.3369 12.2364 14.6153 11.3895 14.6153 10.1009V6.13661H13.2981V4.47972H14.6153V1.9269H16.3793V4.46745ZM24.1794 4.46745H20.434V6.13661H24.0993C24.5116 6.13661 24.7292 6.38207 24.7292 6.84845V7.24119L21.8085 7.63394C20.5371 7.80576 19.7696 8.71398 19.7696 10.0272C19.7696 11.4755 20.8005 12.4696 22.3124 12.4696C23.3891 12.4696 24.2138 12.04 24.7292 11.2914V12.2487H26.4703V6.63981C26.4817 5.24066 25.6685 4.46745 24.1794 4.46745ZM24.7521 9.67129C24.4543 10.4445 23.6411 10.9723 22.7591 10.9723C21.9917 10.9723 21.5565 10.6286 21.5565 10.0149C21.5565 9.45037 21.9001 9.10672 22.5186 9.02081L24.7521 8.68944V9.67129ZM31.0175 4.46745H33.125V6.13661H31.0175V12.2364H29.2536V6.13661H27.9593V4.46745H29.2536V3.01921C29.2536 1.73052 29.9752 0.883673 31.51 0.883673H33.755V2.55283H31.6704C31.258 2.55283 31.0175 2.77375 31.0175 3.2524V4.46745ZM48.5765 1.59552H47.099V0.012274H48.5765V1.59552ZM47.832 3.05603C45.8161 3.05603 44.4531 4.41836 44.4531 6.43117C44.4531 7.80577 45.1289 9.26627 47.0073 9.26627C47.9007 9.26627 48.4734 8.99626 48.8056 8.41942L48.8743 8.29669V8.44397V9.20491C48.8743 10.1254 48.3932 10.3095 47.5227 10.3095H33.3083V12.1873H47.5227C49.4928 12.1873 50.3748 11.23 50.3748 9.06991L50.3633 3.7556C50.2144 3.65742 49.1836 3.05603 47.832 3.05603ZM48.8858 5.25294V6.88527V6.89755L48.8743 6.90982C48.5994 7.21665 48.0955 7.3762 47.3853 7.3762C46.091 7.3762 45.9879 6.48026 45.9879 6.19797C45.9879 5.8175 46.1483 4.93383 47.6487 4.93383C48.3703 4.93383 48.84 5.20384 48.8514 5.21611L48.8743 5.22839V5.25294H48.8858ZM69.0105 1.58325H67.6131V0H69.0105V1.58325ZM69.7436 0H71.1409V1.58325H69.7436V0ZM58.2781 8.18623C58.5644 8.08805 58.8393 8.00213 59.1028 7.91622C58.8393 8.00213 58.5644 8.10032 58.2781 8.18623ZM71.9084 3.7556C71.7595 3.65742 70.7286 3.05603 69.377 3.05603C67.3611 3.05603 65.9981 4.41836 65.9981 6.43117C65.9981 7.80577 66.6739 9.26627 68.5523 9.26627C69.4458 9.26627 70.0185 8.99626 70.3506 8.41942L70.4193 8.29669V8.44397V9.20491C70.4193 10.1254 69.9383 10.3095 69.0678 10.3095H65.4827C65.0016 10.3095 64.658 10.3095 64.4174 10.1745L64.406 10.1499L64.4174 10.1131C64.5205 9.72039 64.5663 9.27855 64.5663 8.81217C64.5663 6.738 63.4553 5.44931 61.6685 5.44931C60.6032 5.44931 59.3548 5.94024 58.0261 6.46798L57.6939 6.59072L57.6367 6.61526V6.5539V1.48506H56.1591V10.2604V10.3095H56.1247H54.9908C53.6507 10.3095 53.4674 10.064 53.4674 9.08218V1.48506H51.9898V9.08218C51.9898 11.3159 52.7343 12.1873 54.6586 12.1873H54.9793H61.0958C62.1954 12.1873 63.0429 11.9296 63.6157 11.4264L63.65 11.4018L63.6729 11.4386C63.9936 11.9541 64.5663 12.1873 65.4712 12.1873H69.0449C71.015 12.1873 71.8969 11.23 71.8969 9.06991L71.9084 3.7556ZM62.1266 10.1745C61.9663 10.2113 61.783 10.2359 61.5654 10.2481C61.4279 10.2604 61.279 10.2604 61.1187 10.2604H57.6825V8.38261C57.8886 8.32124 58.0834 8.2476 58.2666 8.18623C58.553 8.08805 58.8279 8.00213 59.0913 7.91622C59.2631 7.85486 59.4349 7.80576 59.5953 7.75667C60.0878 7.60939 60.5231 7.48666 60.9125 7.42529C61.1072 7.40075 61.2905 7.3762 61.4623 7.3762C61.5768 7.3762 61.6799 7.38848 61.783 7.40075C61.9319 7.42529 62.0808 7.46211 62.2183 7.52348C62.3099 7.5603 62.3901 7.60939 62.4588 7.65849C62.6421 7.79349 62.791 7.97759 62.8826 8.23533C62.9628 8.4317 62.9971 8.66489 62.9971 8.94717C63.0086 9.67129 62.7222 10.0272 62.1266 10.1745ZM70.4308 5.25294V6.88527V6.89755L70.4193 6.90982C70.1444 7.21665 69.6405 7.3762 68.9303 7.3762C67.636 7.3762 67.5329 6.48026 67.5329 6.19797C67.5329 5.8175 67.6933 4.93383 69.1938 4.93383C69.9154 4.93383 70.3735 5.20384 70.3964 5.21611L70.4193 5.22839V5.25294H70.4308ZM59.0913 7.91622C59.2631 7.85486 59.4349 7.80576 59.5953 7.75667C59.4349 7.80576 59.2746 7.85486 59.0913 7.91622ZM48.6223 18.1521H49.5387V18.8394H48.6796C48.5078 18.8394 48.4162 18.9376 48.4162 19.1217V19.6249H49.2752V20.3122H48.4162V22.8159H47.6946V20.3122H47.1677V19.6249H47.6946V19.0358C47.6946 18.508 47.9924 18.1521 48.6223 18.1521ZM51.4629 19.6249H51.7607V20.3122H51.3942C51.0162 20.3122 50.7642 20.484 50.6382 20.6926V22.8159H49.9166V19.6371H50.6382V20.1035C50.833 19.809 51.0964 19.6249 51.4629 19.6249ZM53.6048 19.539C52.6656 19.539 52.0356 20.2385 52.0356 21.2081C52.0356 22.19 52.6771 22.8895 53.6048 22.8895C54.5441 22.8895 55.174 22.1777 55.174 21.2081C55.174 20.2385 54.5441 19.539 53.6048 19.539ZM53.6048 22.2022C53.078 22.2022 52.7687 21.8095 52.7687 21.2081C52.7687 20.619 53.078 20.2262 53.6048 20.2262C54.1203 20.2262 54.441 20.619 54.441 21.2081C54.441 21.8095 54.1203 22.2022 53.6048 22.2022ZM60.0191 20.6067V22.8159H59.3318V20.8522C59.3318 20.5085 59.1715 20.2508 58.8279 20.2508C58.5988 20.2508 58.3583 20.4104 58.2323 20.619V22.8159H57.545V20.8522C57.545 20.5085 57.3961 20.2508 57.041 20.2508C56.7891 20.2508 56.5371 20.4349 56.3996 20.6804V22.8159H55.7238V19.6371H56.3996V19.9808C56.6287 19.7108 56.9494 19.5512 57.3159 19.5512C57.7054 19.5512 57.9803 19.7476 58.1292 20.0667C58.3583 19.7476 58.7133 19.5512 59.1142 19.5512C59.6755 19.5389 60.0191 19.9685 60.0191 20.6067ZM66.903 17.6857V18.8026H65.8836V17.6857H66.903ZM71.0951 21.3063L72 21.6254C71.9198 21.92 71.7709 22.2145 71.5418 22.46C71.244 22.7791 70.7973 23 70.2246 23C69.6748 23 69.1709 22.7791 68.8158 22.3986C68.4492 22.0059 68.2316 21.4781 68.2316 20.8399C68.2316 20.2017 68.4493 19.674 68.8043 19.2812C69.1594 18.9007 69.6519 18.6798 70.2017 18.6798C70.7973 18.6798 71.244 18.913 71.5533 19.2321C71.7709 19.4653 71.9198 19.7599 71.9885 20.0544L71.0722 20.3858C71.0264 20.2263 70.9577 20.0667 70.8431 19.944C70.7057 19.7967 70.511 19.6985 70.2361 19.6985C69.9726 19.6985 69.7321 19.7967 69.5603 19.9931C69.3885 20.1894 69.2739 20.4717 69.2739 20.8399C69.2739 21.2081 69.377 21.4904 69.5603 21.6868C69.7321 21.8831 69.9841 21.9813 70.2475 21.9813C70.5339 21.9813 70.7286 21.8709 70.8775 21.7236C70.9806 21.6009 71.0608 21.4536 71.0951 21.3063ZM66.903 18.8026H67.9224V19.8581H66.903V18.8026ZM65.8836 19.8581H66.903V21.4658C66.903 21.6499 66.9373 21.7972 67.0175 21.8831C67.1091 21.969 67.2351 22.0181 67.4069 22.0181C67.6475 22.0181 67.8307 21.9322 67.9224 21.8586V22.7545C67.7964 22.865 67.51 23 67.1091 23C66.7197 23 66.399 22.8773 66.1814 22.6441C65.9866 22.4232 65.8836 22.1286 65.8836 21.7481V19.8581ZM64.9558 20.8522C65.1619 21.0731 65.265 21.3431 65.265 21.6622C65.265 22.0059 65.139 22.3004 64.9329 22.5336C64.658 22.8282 64.2342 23 63.7187 23C63.1804 23 62.7108 22.8036 62.4244 22.4723C62.2412 22.2759 62.1152 22.0304 62.0923 21.7481L62.9742 21.5395C62.9857 21.6868 63.0315 21.8218 63.1231 21.92C63.2491 22.0672 63.4668 22.1654 63.7187 22.1654C64.0738 22.1654 64.2914 22.0181 64.2914 21.7604C64.2914 21.5518 64.1654 21.4413 63.8676 21.3677L63.2835 21.2204C62.9284 21.1345 62.6535 20.9749 62.4702 20.7785C62.287 20.5822 62.1954 20.3244 62.1954 20.0176C62.1954 19.674 62.3214 19.3549 62.5619 19.1217C62.8368 18.8517 63.2262 18.6921 63.6958 18.6921C64.1998 18.6921 64.6351 18.8762 64.91 19.183C65.0818 19.3794 65.2078 19.6003 65.2307 19.8703L64.3716 20.079C64.3602 19.944 64.3029 19.8335 64.2227 19.7353C64.0967 19.6003 63.9135 19.5267 63.6958 19.5267C63.3522 19.5267 63.1346 19.6985 63.1346 19.9317C63.1346 20.1158 63.272 20.2508 63.524 20.2999L64.1196 20.4226C64.4747 20.484 64.7611 20.6435 64.9558 20.8522Z" fill="white"/>
</svg>
