<svg width="56" height="18" viewBox="0 0 56 18" fill="none" xmlns="http://www.w3.org/2000/svg">
<path d="M19.7817 17.3L22.6138 0.346586H27.1438L24.3096 17.3H19.7817ZM40.6759 0.712052C39.7786 0.368583 38.3722 0 36.616 0C32.1397 0 28.9869 2.2994 28.9599 5.59491C28.9346 8.03098 31.2109 9.39004 32.9292 10.2009C34.6926 11.0321 35.2853 11.562 35.2768 12.3039C35.2655 13.4404 33.8686 13.9593 32.5665 13.9593C30.7535 13.9593 29.7902 13.7024 28.3025 13.0696L27.7186 12.8002L27.0829 16.5953C28.141 17.0688 30.0975 17.4786 32.1291 17.4999C36.891 17.4999 39.9823 15.2268 40.0175 11.7075C40.0344 9.7788 38.8275 8.31131 36.2139 7.1012C34.6306 6.31693 33.6609 5.79358 33.6712 4.99943C33.6712 4.29474 34.492 3.54121 36.2657 3.54121C37.7468 3.51774 38.8201 3.84726 39.6561 4.19073L40.062 4.38637L40.6759 0.712052ZM52.3332 0.346326H48.8329C47.7486 0.346326 46.937 0.648225 46.4609 1.75224L39.7331 17.2889H44.49C44.49 17.2889 45.2676 15.1999 45.4435 14.7412C45.9634 14.7412 50.5845 14.7484 51.2451 14.7484C51.3806 15.342 51.7963 17.2889 51.7963 17.2889H55.9997L52.3332 0.345806V0.346326ZM46.7795 11.2938C47.1542 10.317 48.5844 6.55456 48.5844 6.55456C48.5578 6.59969 48.9564 5.573 49.185 4.93647L49.4911 6.39816C49.4911 6.39816 50.3585 10.445 50.5399 11.2936H46.7795V11.2938ZM15.9361 0.346326L11.5011 11.9079L11.0287 9.5584C10.2029 6.84997 7.63063 3.91559 4.75488 2.44654L8.8102 17.273L13.6031 17.2676L20.7349 0.346153L15.9361 0.346067" fill="white"/>
<path d="M7.3626 0.344727H0.0579006L0 0.697461C5.68298 2.10078 9.44319 5.49207 11.0045 9.56736L9.41611 1.77654C9.14197 0.703003 8.34665 0.382571 7.36277 0.345159" fill="#F2AE14"/>
</svg>
